<?xml version="1.0" encoding="UTF-8"?>
<svg xmlns="http://www.w3.org/2000/svg" xmlns:xlink="http://www.w3.org/1999/xlink" width="34px" height="34px" viewBox="0 0 34 34" version="1.1">
<g id="surface1">
<path style=" stroke:none;fill-rule:nonzero;fill:rgb(100%,100%,100%);fill-opacity:1;" d="M 18.710938 34.027344 C 12.476562 34.027344 6.25 34.027344 0.0273438 34.027344 C 0.0273438 22.695312 0.0273438 11.363281 0.0273438 0.0273438 C 11.363281 0.0273438 22.695312 0.0273438 34.027344 0.0273438 C 34.027344 11.363281 34.027344 22.695312 34.027344 34.027344 C 28.929688 34.027344 23.828125 34.027344 18.710938 34.027344 M 24.992188 32.488281 C 25.242188 32.417969 25.492188 32.355469 25.742188 32.277344 C 26.625 32.011719 27.488281 31.695312 28.265625 31.183594 C 29.269531 30.523438 29.898438 29.621094 30.074219 28.421875 C 30.191406 27.601562 30.113281 26.785156 30.027344 25.964844 C 29.925781 24.988281 29.792969 24.007812 29.738281 23.027344 C 29.648438 21.503906 29.621094 19.976562 29.554688 18.453125 C 29.507812 17.359375 29.464844 16.257812 29.367188 15.164062 C 29.261719 13.984375 29.113281 12.808594 28.957031 11.632812 C 28.824219 10.65625 28.609375 9.695312 28.257812 8.769531 C 27.917969 7.875 27.457031 7.050781 26.746094 6.390625 C 25.691406 5.417969 24.496094 4.652344 23.171875 4.082031 C 22.292969 3.703125 21.382812 3.421875 20.445312 3.230469 C 20.347656 3.210938 20.316406 3.171875 20.28125 3.078125 C 20.207031 2.875 20.117188 2.664062 19.988281 2.492188 C 19.6875 2.082031 19.238281 1.875 18.769531 1.722656 C 18.15625 1.519531 17.523438 1.429688 16.882812 1.394531 C 16.144531 1.347656 15.410156 1.347656 14.683594 1.496094 C 14.195312 1.59375 13.746094 1.773438 13.484375 2.226562 C 13.347656 2.460938 13.238281 2.714844 13.140625 2.964844 C 13.101562 3.070312 13.050781 3.105469 12.945312 3.125 C 11.796875 3.332031 10.652344 3.550781 9.5 3.746094 C 8.613281 3.894531 8.019531 4.40625 7.59375 5.160156 C 7.285156 5.714844 7.078125 6.304688 6.90625 6.910156 C 6.628906 7.902344 6.441406 8.917969 6.308594 9.9375 C 6.167969 11.007812 6.050781 12.082031 5.914062 13.148438 C 5.824219 13.851562 5.746094 14.558594 5.617188 15.25 C 5.273438 17.074219 4.902344 18.890625 4.542969 20.710938 C 4.480469 21.011719 4.414062 21.3125 4.367188 21.617188 C 4.34375 21.789062 4.367188 21.964844 4.355469 22.136719 C 4.332031 22.464844 4.292969 22.789062 4.269531 23.117188 C 4.167969 24.488281 4.195312 25.855469 4.472656 27.207031 C 4.75 28.546875 5.269531 29.777344 6.203125 30.804688 C 6.820312 31.484375 7.527344 32.039062 8.421875 32.324219 C 9.15625 32.558594 9.914062 32.65625 10.675781 32.667969 C 11.949219 32.691406 13.199219 32.890625 14.453125 33.074219 C 15.238281 33.191406 16.035156 33.28125 16.828125 33.3125 C 17.746094 33.347656 18.667969 33.328125 19.585938 33.285156 C 20.417969 33.246094 21.25 33.160156 22.078125 33.058594 C 23.054688 32.941406 24.019531 32.746094 24.992188 32.488281 Z M 24.992188 32.488281 "/>
<path style=" stroke:none;fill-rule:nonzero;fill:rgb(0.392157%,0.392157%,0.392157%);fill-opacity:1;" d="M 24.984375 32.492188 C 24.019531 32.746094 23.054688 32.941406 22.078125 33.058594 C 21.25 33.160156 20.417969 33.246094 19.585938 33.285156 C 18.667969 33.328125 17.746094 33.347656 16.828125 33.3125 C 16.035156 33.28125 15.238281 33.191406 14.453125 33.074219 C 13.199219 32.890625 11.949219 32.691406 10.675781 32.667969 C 9.914062 32.65625 9.15625 32.558594 8.421875 32.324219 C 7.527344 32.039062 6.820312 31.484375 6.203125 30.804688 C 5.269531 29.777344 4.75 28.546875 4.472656 27.207031 C 4.195312 25.855469 4.167969 24.488281 4.269531 23.117188 C 4.292969 22.789062 4.332031 22.464844 4.355469 22.136719 C 4.367188 21.964844 4.34375 21.789062 4.367188 21.617188 C 4.414062 21.3125 4.480469 21.011719 4.542969 20.710938 C 4.902344 18.890625 5.273438 17.074219 5.617188 15.25 C 5.746094 14.558594 5.824219 13.851562 5.914062 13.148438 C 6.050781 12.082031 6.167969 11.007812 6.308594 9.9375 C 6.441406 8.917969 6.628906 7.902344 6.90625 6.910156 C 7.078125 6.304688 7.285156 5.714844 7.59375 5.160156 C 8.019531 4.40625 8.613281 3.894531 9.5 3.746094 C 10.652344 3.550781 11.796875 3.332031 12.945312 3.125 C 13.050781 3.105469 13.101562 3.070312 13.140625 2.964844 C 13.238281 2.714844 13.347656 2.460938 13.484375 2.226562 C 13.746094 1.773438 14.195312 1.59375 14.683594 1.496094 C 15.410156 1.347656 16.144531 1.347656 16.882812 1.394531 C 17.523438 1.429688 18.15625 1.519531 18.769531 1.722656 C 19.238281 1.875 19.6875 2.082031 19.988281 2.492188 C 20.117188 2.664062 20.207031 2.875 20.28125 3.078125 C 20.316406 3.171875 20.347656 3.210938 20.445312 3.230469 C 21.382812 3.421875 22.292969 3.703125 23.171875 4.082031 C 24.496094 4.652344 25.691406 5.417969 26.746094 6.390625 C 27.457031 7.050781 27.917969 7.875 28.257812 8.769531 C 28.609375 9.695312 28.824219 10.65625 28.957031 11.632812 C 29.113281 12.808594 29.261719 13.984375 29.367188 15.164062 C 29.464844 16.257812 29.507812 17.359375 29.554688 18.453125 C 29.621094 19.976562 29.648438 21.503906 29.738281 23.027344 C 29.792969 24.007812 29.925781 24.988281 30.027344 25.964844 C 30.113281 26.785156 30.191406 27.601562 30.074219 28.421875 C 29.898438 29.621094 29.269531 30.523438 28.265625 31.183594 C 27.488281 31.695312 26.625 32.011719 25.742188 32.277344 C 25.492188 32.355469 25.242188 32.417969 24.984375 32.492188 M 16.289062 15.734375 C 16.328125 14.644531 16.234375 13.566406 16.097656 12.492188 C 15.96875 11.453125 15.878906 10.410156 16.023438 9.351562 C 13.480469 9.558594 10.945312 9.761719 8.40625 9.964844 C 8.382812 10.121094 8.359375 10.265625 8.34375 10.410156 C 8.214844 11.492188 8.085938 12.578125 7.953125 13.660156 C 7.878906 14.246094 7.816406 14.835938 7.707031 15.414062 C 7.410156 16.941406 7.085938 18.460938 6.777344 19.984375 C 6.722656 20.257812 6.683594 20.535156 6.636719 20.8125 C 7.128906 20.84375 7.605469 20.863281 8.078125 20.910156 C 9.507812 21.046875 10.929688 21.191406 12.355469 21.332031 C 13.582031 21.453125 14.808594 21.53125 16.042969 21.519531 C 16.152344 21.515625 16.265625 21.519531 16.390625 21.519531 C 16.226562 19.585938 16.277344 17.671875 16.289062 15.734375 M 21.949219 9.1875 C 20.6875 9.132812 19.425781 9.144531 18.148438 9.214844 C 18.117188 9.4375 18.082031 9.652344 18.0625 9.867188 C 17.984375 10.652344 18.070312 11.429688 18.160156 12.210938 C 18.277344 13.191406 18.382812 14.175781 18.378906 15.167969 C 18.371094 16.890625 18.390625 18.613281 18.402344 20.335938 C 18.40625 20.664062 18.441406 20.996094 18.464844 21.328125 C 18.527344 21.324219 18.566406 21.324219 18.609375 21.320312 C 19.71875 21.125 20.824219 20.941406 21.933594 20.742188 C 22.957031 20.554688 23.972656 20.335938 25 20.171875 C 25.847656 20.035156 26.6875 19.863281 27.507812 19.5625 C 27.507812 19.546875 27.511719 19.511719 27.507812 19.472656 C 27.484375 18.746094 27.460938 18.019531 27.425781 17.292969 C 27.394531 16.660156 27.355469 16.027344 27.296875 15.398438 C 27.234375 14.667969 27.144531 13.941406 27.066406 13.214844 C 26.96875 12.324219 26.84375 11.4375 26.632812 10.566406 C 26.582031 10.355469 26.519531 10.148438 26.476562 9.988281 C 26.246094 9.9375 26.054688 9.902344 25.871094 9.851562 C 25.5625 9.765625 25.253906 9.65625 24.941406 9.578125 C 23.96875 9.339844 22.972656 9.25 21.949219 9.1875 M 25.585938 29.53125 C 26.125 29.429688 26.648438 29.28125 27.128906 29.007812 C 27.648438 28.714844 28.003906 28.296875 28.03125 27.683594 C 28.050781 27.316406 28.019531 26.945312 27.980469 26.578125 C 27.933594 26.15625 27.835938 25.738281 27.792969 25.316406 C 27.710938 24.492188 27.117188 23.910156 26.164062 24.167969 C 24.796875 24.539062 23.449219 24.96875 22.117188 25.449219 C 21.8125 25.558594 21.570312 25.757812 21.46875 26.070312 C 21.382812 26.34375 21.367188 26.636719 21.207031 26.882812 C 21.1875 26.910156 21.1875 26.953125 21.183594 26.992188 C 21.113281 27.328125 21.058594 27.664062 21.113281 28.011719 C 21.167969 28.339844 21.320312 28.613281 21.554688 28.855469 C 21.796875 29.105469 22.039062 29.363281 22.390625 29.453125 C 22.726562 29.542969 23.066406 29.617188 23.410156 29.65625 C 24.132812 29.734375 24.851562 29.664062 25.585938 29.53125 M 7.625 28.566406 C 7.851562 28.824219 8.113281 29.035156 8.421875 29.1875 C 9.617188 29.773438 10.859375 29.832031 12.132812 29.484375 C 12.226562 29.457031 12.328125 29.433594 12.421875 29.445312 C 12.953125 29.515625 13.414062 29.253906 13.589844 28.75 C 13.679688 28.484375 13.734375 28.203125 13.804688 27.925781 C 13.84375 27.78125 13.871094 27.628906 13.921875 27.488281 C 14.183594 26.789062 13.867188 26.121094 13.160156 25.894531 C 12.925781 25.824219 12.6875 25.765625 12.449219 25.71875 C 11.113281 25.464844 9.761719 25.414062 8.410156 25.410156 C 8.207031 25.410156 8.023438 25.480469 7.855469 25.589844 C 7.621094 25.742188 7.507812 25.980469 7.394531 26.21875 C 7.003906 27.039062 7.03125 27.820312 7.625 28.566406 Z M 7.625 28.566406 "/>
<path style=" stroke:none;fill-rule:nonzero;fill:rgb(100%,100%,100%);fill-opacity:1;" d="M 16.289062 15.746094 C 16.277344 17.671875 16.226562 19.585938 16.390625 21.519531 C 16.265625 21.519531 16.152344 21.515625 16.042969 21.519531 C 14.808594 21.53125 13.582031 21.453125 12.355469 21.332031 C 10.929688 21.191406 9.507812 21.046875 8.078125 20.910156 C 7.605469 20.863281 7.128906 20.84375 6.636719 20.8125 C 6.683594 20.535156 6.722656 20.257812 6.777344 19.984375 C 7.085938 18.460938 7.410156 16.941406 7.707031 15.414062 C 7.816406 14.835938 7.878906 14.246094 7.953125 13.660156 C 8.085938 12.578125 8.214844 11.492188 8.34375 10.410156 C 8.359375 10.265625 8.382812 10.121094 8.40625 9.964844 C 10.945312 9.761719 13.480469 9.558594 16.023438 9.351562 C 15.878906 10.410156 15.96875 11.453125 16.097656 12.492188 C 16.234375 13.566406 16.328125 14.644531 16.289062 15.746094 Z M 16.289062 15.746094 "/>
<path style=" stroke:none;fill-rule:nonzero;fill:rgb(100%,100%,100%);fill-opacity:1;" d="M 21.960938 9.191406 C 22.972656 9.25 23.96875 9.339844 24.941406 9.578125 C 25.253906 9.65625 25.5625 9.765625 25.871094 9.851562 C 26.054688 9.902344 26.246094 9.9375 26.476562 9.988281 C 26.519531 10.148438 26.582031 10.355469 26.632812 10.566406 C 26.84375 11.4375 26.96875 12.324219 27.066406 13.214844 C 27.144531 13.941406 27.234375 14.667969 27.296875 15.398438 C 27.355469 16.027344 27.394531 16.660156 27.425781 17.292969 C 27.460938 18.019531 27.484375 18.746094 27.507812 19.472656 C 27.511719 19.511719 27.507812 19.546875 27.507812 19.5625 C 26.6875 19.863281 25.847656 20.035156 25 20.171875 C 23.972656 20.335938 22.957031 20.554688 21.933594 20.742188 C 20.824219 20.941406 19.71875 21.125 18.609375 21.320312 C 18.566406 21.324219 18.527344 21.324219 18.464844 21.328125 C 18.441406 20.996094 18.40625 20.664062 18.402344 20.335938 C 18.390625 18.613281 18.371094 16.890625 18.378906 15.167969 C 18.382812 14.175781 18.277344 13.191406 18.160156 12.210938 C 18.070312 11.429688 17.984375 10.652344 18.0625 9.867188 C 18.082031 9.652344 18.117188 9.4375 18.148438 9.214844 C 19.425781 9.144531 20.6875 9.132812 21.960938 9.191406 Z M 21.960938 9.191406 "/>
<path style=" stroke:none;fill-rule:nonzero;fill:rgb(99.607843%,99.607843%,99.607843%);fill-opacity:1;" d="M 25.574219 29.535156 C 24.851562 29.664062 24.132812 29.734375 23.410156 29.65625 C 23.066406 29.617188 22.726562 29.542969 22.390625 29.453125 C 22.039062 29.363281 21.796875 29.105469 21.554688 28.855469 C 21.320312 28.613281 21.167969 28.339844 21.113281 28.011719 C 21.058594 27.664062 21.113281 27.328125 21.183594 26.992188 C 21.1875 26.953125 21.1875 26.910156 21.207031 26.882812 C 21.367188 26.636719 21.382812 26.34375 21.46875 26.070312 C 21.570312 25.757812 21.8125 25.558594 22.117188 25.449219 C 23.449219 24.96875 24.796875 24.539062 26.164062 24.167969 C 27.117188 23.910156 27.710938 24.492188 27.792969 25.316406 C 27.835938 25.738281 27.933594 26.15625 27.980469 26.578125 C 28.019531 26.945312 28.050781 27.316406 28.03125 27.683594 C 28.003906 28.296875 27.648438 28.714844 27.128906 29.007812 C 26.648438 29.28125 26.125 29.429688 25.574219 29.535156 Z M 25.574219 29.535156 "/>
<path style=" stroke:none;fill-rule:nonzero;fill:rgb(99.607843%,99.607843%,99.607843%);fill-opacity:1;" d="M 7.621094 28.558594 C 7.03125 27.820312 7.003906 27.039062 7.394531 26.21875 C 7.507812 25.980469 7.621094 25.742188 7.855469 25.589844 C 8.023438 25.480469 8.207031 25.410156 8.410156 25.410156 C 9.761719 25.414062 11.113281 25.464844 12.449219 25.71875 C 12.6875 25.765625 12.925781 25.824219 13.160156 25.894531 C 13.867188 26.121094 14.183594 26.789062 13.921875 27.488281 C 13.871094 27.628906 13.84375 27.78125 13.804688 27.925781 C 13.734375 28.203125 13.679688 28.484375 13.589844 28.75 C 13.414062 29.253906 12.953125 29.515625 12.421875 29.445312 C 12.328125 29.433594 12.226562 29.457031 12.132812 29.484375 C 10.859375 29.832031 9.617188 29.773438 8.421875 29.1875 C 8.113281 29.035156 7.851562 28.824219 7.621094 28.558594 Z M 7.621094 28.558594 "/>
</g>
</svg>
