<?xml version="1.0" encoding="UTF-8"?>
<svg xmlns="http://www.w3.org/2000/svg" xmlns:xlink="http://www.w3.org/1999/xlink" width="34px" height="34px" viewBox="0 0 34 34" version="1.1">
<g id="surface1">
<path style=" stroke:none;fill-rule:nonzero;fill:rgb(100%,100%,100%);fill-opacity:1;" d="M 0.0273438 33.828125 C 0.0273438 22.5625 0.0273438 11.300781 0.0273438 0.0273438 C 3.210938 0.0273438 6.390625 0.0273438 9.585938 0.0390625 C 9.695312 0.128906 9.78125 0.25 9.894531 0.28125 C 10.144531 0.347656 10.417969 0.34375 10.628906 0.53125 C 10.652344 0.550781 10.703125 0.542969 10.738281 0.542969 C 10.820312 0.539062 10.902344 0.515625 10.984375 0.519531 C 11.230469 0.535156 11.476562 0.574219 11.722656 0.574219 C 17.023438 0.578125 22.320312 0.578125 27.621094 0.578125 C 27.703125 0.578125 27.789062 0.578125 27.878906 0.578125 C 27.890625 0.644531 27.902344 0.714844 27.910156 0.792969 C 27.90625 0.804688 27.898438 0.808594 27.890625 0.800781 C 27.835938 0.765625 27.785156 0.738281 27.730469 0.730469 C 27.710938 0.726562 27.683594 0.761719 27.660156 0.78125 C 27.679688 0.796875 27.703125 0.828125 27.71875 0.824219 C 27.828125 0.796875 27.785156 0.882812 27.796875 0.933594 C 27.792969 0.949219 27.785156 0.953125 27.765625 0.953125 C 27.730469 0.941406 27.710938 0.933594 27.679688 0.917969 C 27.679688 0.976562 27.679688 1.023438 27.675781 1.078125 C 27.617188 1.160156 27.558594 1.230469 27.507812 1.304688 C 25.875 3.601562 24.269531 5.914062 23.027344 8.445312 C 22.992188 8.515625 22.953125 8.527344 22.878906 8.519531 C 22.664062 8.496094 22.445312 8.472656 22.226562 8.460938 C 21.132812 8.40625 20.042969 8.347656 18.953125 8.308594 C 17.058594 8.238281 15.171875 8.257812 13.300781 8.632812 C 13.257812 8.644531 13.191406 8.628906 13.160156 8.597656 C 12.945312 8.402344 12.703125 8.226562 12.535156 7.996094 C 12.140625 7.460938 11.75 6.917969 11.421875 6.347656 C 10.890625 5.429688 10.417969 4.484375 9.914062 3.550781 C 9.398438 2.597656 8.851562 1.660156 8.019531 0.929688 C 7.710938 0.65625 7.386719 0.417969 6.976562 0.3125 C 6.371094 0.152344 5.882812 0.445312 5.765625 1.046875 C 5.753906 1.09375 5.746094 1.140625 5.734375 1.191406 C 5.425781 2.761719 5.105469 4.335938 4.816406 5.914062 C 4.601562 7.101562 4.359375 8.289062 4.257812 9.5 C 4.128906 11.078125 4.015625 12.652344 3.972656 14.238281 C 3.953125 14.976562 3.910156 15.714844 3.867188 16.457031 C 3.824219 17.179688 3.757812 17.902344 3.71875 18.628906 C 3.6875 19.265625 3.707031 19.90625 3.835938 20.546875 C 3.5625 20.457031 3.3125 20.347656 3.046875 20.292969 C 2.664062 20.214844 2.269531 20.171875 1.878906 20.117188 C 1.734375 20.097656 1.589844 20.089844 1.441406 20.085938 C 1.183594 20.082031 0.972656 20.265625 0.941406 20.515625 C 0.910156 20.75 1.0625 20.980469 1.300781 21.042969 C 1.621094 21.125 1.941406 21.191406 2.261719 21.273438 C 2.855469 21.425781 3.445312 21.585938 4.039062 21.734375 C 4.171875 21.765625 4.207031 21.824219 4.210938 21.957031 C 4.226562 22.339844 4.261719 22.726562 4.296875 23.109375 C 4.320312 23.359375 4.363281 23.609375 4.398438 23.863281 C 4.363281 23.878906 4.335938 23.890625 4.308594 23.898438 C 2.925781 24.285156 1.679688 24.964844 0.460938 25.695312 C 0.207031 25.851562 0.125 26.125 0.257812 26.367188 C 0.386719 26.601562 0.675781 26.703125 0.925781 26.566406 C 1.863281 26.042969 2.875 25.679688 3.851562 25.242188 C 4.105469 25.125 4.371094 25.046875 4.644531 24.945312 C 4.921875 26.003906 5.324219 26.988281 5.855469 27.914062 C 5.3125 28.320312 4.773438 28.703125 4.257812 29.109375 C 3.820312 29.453125 3.40625 29.828125 2.980469 30.191406 C 2.761719 30.378906 2.730469 30.65625 2.894531 30.875 C 3.050781 31.078125 3.34375 31.136719 3.5625 30.988281 C 4.121094 30.601562 4.675781 30.214844 5.222656 29.816406 C 5.640625 29.507812 6.039062 29.175781 6.453125 28.851562 C 6.488281 28.890625 6.519531 28.929688 6.546875 28.964844 C 7.039062 29.644531 7.609375 30.257812 8.246094 30.804688 C 9.101562 31.539062 10.042969 32.136719 11.085938 32.574219 C 11.539062 32.761719 12.015625 32.902344 12.472656 33.089844 C 13.410156 33.472656 14.386719 33.675781 15.394531 33.734375 C 16.539062 33.804688 17.667969 33.683594 18.785156 33.421875 C 20.34375 33.054688 21.804688 32.449219 23.183594 31.65625 C 24.230469 31.054688 25.207031 30.351562 26.085938 29.527344 C 26.542969 29.097656 26.972656 28.640625 27.421875 28.183594 C 27.769531 28.425781 28.132812 28.679688 28.5 28.929688 C 28.96875 29.25 29.441406 29.566406 29.910156 29.882812 C 30.109375 30.015625 30.316406 30.015625 30.496094 29.890625 C 30.664062 29.777344 30.757812 29.570312 30.6875 29.375 C 30.640625 29.25 30.546875 29.132812 30.441406 29.050781 C 29.703125 28.472656 28.960938 27.90625 28.21875 27.335938 C 28.179688 27.304688 28.140625 27.269531 28.101562 27.242188 C 28.175781 27.128906 28.238281 27.035156 28.300781 26.9375 C 28.726562 26.25 29.070312 25.527344 29.292969 24.753906 C 29.308594 24.707031 29.363281 24.644531 29.410156 24.636719 C 30.074219 24.539062 30.738281 24.425781 31.40625 24.367188 C 32.101562 24.304688 32.789062 24.214844 33.46875 24.066406 C 33.730469 24.007812 33.882812 23.785156 33.855469 23.515625 C 33.828125 23.28125 33.613281 23.082031 33.363281 23.09375 C 32.875 23.117188 32.386719 23.148438 31.902344 23.195312 C 31.125 23.273438 30.347656 23.367188 29.578125 23.457031 C 29.59375 23.027344 29.601562 22.609375 29.621094 22.195312 C 29.621094 22.160156 29.671875 22.117188 29.707031 22.09375 C 30.011719 21.914062 30.316406 21.738281 30.621094 21.558594 C 31.199219 21.214844 31.84375 20.984375 32.390625 20.589844 C 32.59375 20.445312 32.683594 20.222656 32.597656 20 C 32.515625 19.777344 32.292969 19.628906 32.054688 19.691406 C 31.734375 19.777344 31.414062 19.882812 31.113281 20.019531 C 30.847656 20.136719 30.609375 20.308594 30.355469 20.453125 C 30.074219 20.613281 29.792969 20.769531 29.5 20.9375 C 29.496094 20.886719 29.492188 20.859375 29.492188 20.832031 C 29.457031 20.046875 29.421875 19.265625 29.378906 18.484375 C 29.347656 17.851562 29.351562 17.226562 29.453125 16.601562 C 29.546875 16.027344 29.609375 15.449219 29.664062 14.867188 C 29.757812 13.886719 29.835938 12.90625 29.914062 11.921875 C 29.992188 11.019531 30.0625 10.121094 30.136719 9.21875 C 30.21875 8.21875 30.289062 7.214844 30.382812 6.214844 C 30.492188 5.105469 30.574219 4 30.429688 2.890625 C 30.355469 2.296875 30.230469 1.714844 29.953125 1.179688 C 29.894531 1.070312 29.824219 0.972656 29.757812 0.855469 C 29.753906 0.75 29.746094 0.65625 29.742188 0.578125 C 29.828125 0.578125 29.90625 0.582031 29.980469 0.578125 C 30.324219 0.558594 30.667969 0.539062 31.011719 0.519531 C 31.164062 0.511719 31.339844 0.605469 31.453125 0.421875 C 31.457031 0.417969 31.460938 0.414062 31.464844 0.414062 C 31.625 0.375 31.785156 0.296875 31.941406 0.296875 C 32.160156 0.300781 32.257812 0.175781 32.363281 0.0273438 C 32.917969 0.0273438 33.472656 0.0273438 34.027344 0.0273438 C 34.027344 11.285156 34.027344 22.542969 34.015625 33.8125 C 22.679688 33.828125 11.355469 33.828125 0.0273438 33.828125 M 29.832031 0.765625 C 29.832031 0.765625 29.828125 0.765625 29.832031 0.765625 Z M 29.832031 0.765625 "/>
<path style=" stroke:none;fill-rule:nonzero;fill:rgb(98.431373%,98.431373%,98.431373%);fill-opacity:1;" d="M 32.347656 0.0273438 C 32.257812 0.175781 32.160156 0.300781 31.941406 0.296875 C 31.785156 0.296875 31.625 0.375 31.464844 0.414062 C 31.460938 0.414062 31.457031 0.417969 31.453125 0.421875 C 31.339844 0.605469 31.164062 0.511719 31.011719 0.519531 C 30.667969 0.539062 30.324219 0.558594 29.980469 0.578125 C 29.90625 0.582031 29.828125 0.578125 29.742188 0.578125 C 29.746094 0.65625 29.753906 0.75 29.75 0.847656 C 29.570312 0.714844 29.417969 0.546875 29.230469 0.441406 C 29.082031 0.359375 28.886719 0.300781 28.722656 0.324219 C 28.472656 0.359375 28.226562 0.449219 28.054688 0.660156 C 28.015625 0.710938 27.960938 0.746094 27.914062 0.785156 C 27.902344 0.714844 27.890625 0.644531 27.878906 0.578125 C 27.789062 0.578125 27.703125 0.578125 27.621094 0.578125 C 22.320312 0.578125 17.023438 0.578125 11.722656 0.574219 C 11.476562 0.574219 11.230469 0.535156 10.984375 0.519531 C 10.902344 0.515625 10.820312 0.539062 10.738281 0.542969 C 10.703125 0.542969 10.652344 0.550781 10.628906 0.53125 C 10.417969 0.34375 10.144531 0.347656 9.894531 0.28125 C 9.78125 0.25 9.695312 0.128906 9.597656 0.0390625 C 17.175781 0.0273438 24.753906 0.0273438 32.347656 0.0273438 Z M 32.347656 0.0273438 "/>
<path style=" stroke:none;fill-rule:nonzero;fill:rgb(88.235295%,88.235295%,88.235295%);fill-opacity:1;" d="M 0.0273438 33.839844 C 11.355469 33.828125 22.679688 33.828125 34.015625 33.828125 C 34.027344 33.894531 34.027344 33.960938 34.027344 34.027344 C 22.699219 34.027344 11.371094 34.027344 0.0429688 34.027344 C 0.0390625 34.027344 0.0351562 34.027344 0.0273438 34.027344 C 0.0273438 33.96875 0.0273438 33.914062 0.0273438 33.839844 Z M 0.0273438 33.839844 "/>
<path style=" stroke:none;fill-rule:nonzero;fill:rgb(0%,0%,0%);fill-opacity:1;" d="M 27.910156 0.792969 C 27.960938 0.746094 28.015625 0.710938 28.054688 0.660156 C 28.226562 0.449219 28.472656 0.359375 28.722656 0.324219 C 28.886719 0.300781 29.082031 0.359375 29.230469 0.441406 C 29.417969 0.546875 29.570312 0.714844 29.75 0.863281 C 29.824219 0.972656 29.894531 1.070312 29.953125 1.179688 C 30.230469 1.714844 30.355469 2.296875 30.429688 2.890625 C 30.574219 4 30.492188 5.105469 30.382812 6.214844 C 30.289062 7.214844 30.21875 8.21875 30.136719 9.21875 C 30.0625 10.121094 29.992188 11.019531 29.914062 11.921875 C 29.835938 12.90625 29.757812 13.886719 29.664062 14.867188 C 29.609375 15.449219 29.546875 16.027344 29.453125 16.601562 C 29.351562 17.226562 29.347656 17.851562 29.378906 18.484375 C 29.421875 19.265625 29.457031 20.046875 29.492188 20.832031 C 29.492188 20.859375 29.496094 20.886719 29.5 20.9375 C 29.792969 20.769531 30.074219 20.613281 30.355469 20.453125 C 30.609375 20.308594 30.847656 20.136719 31.113281 20.019531 C 31.414062 19.882812 31.734375 19.777344 32.054688 19.691406 C 32.292969 19.628906 32.515625 19.777344 32.597656 20 C 32.683594 20.222656 32.59375 20.445312 32.390625 20.589844 C 31.84375 20.984375 31.199219 21.214844 30.621094 21.558594 C 30.316406 21.738281 30.011719 21.914062 29.707031 22.09375 C 29.671875 22.117188 29.621094 22.160156 29.621094 22.195312 C 29.601562 22.609375 29.59375 23.027344 29.578125 23.457031 C 30.347656 23.367188 31.125 23.273438 31.902344 23.195312 C 32.386719 23.148438 32.875 23.117188 33.363281 23.09375 C 33.613281 23.082031 33.828125 23.28125 33.855469 23.515625 C 33.882812 23.785156 33.730469 24.007812 33.46875 24.066406 C 32.789062 24.214844 32.101562 24.304688 31.40625 24.367188 C 30.738281 24.425781 30.074219 24.539062 29.410156 24.636719 C 29.363281 24.644531 29.308594 24.707031 29.292969 24.753906 C 29.070312 25.527344 28.726562 26.25 28.300781 26.9375 C 28.238281 27.035156 28.175781 27.128906 28.101562 27.242188 C 28.140625 27.269531 28.179688 27.304688 28.21875 27.335938 C 28.960938 27.90625 29.703125 28.472656 30.441406 29.050781 C 30.546875 29.132812 30.640625 29.25 30.6875 29.375 C 30.757812 29.570312 30.664062 29.777344 30.496094 29.890625 C 30.316406 30.015625 30.109375 30.015625 29.910156 29.882812 C 29.441406 29.566406 28.96875 29.25 28.5 28.929688 C 28.132812 28.679688 27.769531 28.425781 27.421875 28.183594 C 26.972656 28.640625 26.542969 29.097656 26.085938 29.527344 C 25.207031 30.351562 24.230469 31.054688 23.183594 31.65625 C 21.804688 32.449219 20.34375 33.054688 18.785156 33.421875 C 17.667969 33.683594 16.539062 33.804688 15.394531 33.734375 C 14.386719 33.675781 13.410156 33.472656 12.472656 33.089844 C 12.015625 32.902344 11.539062 32.761719 11.085938 32.574219 C 10.042969 32.136719 9.101562 31.539062 8.246094 30.804688 C 7.609375 30.257812 7.039062 29.644531 6.546875 28.964844 C 6.519531 28.929688 6.488281 28.890625 6.453125 28.851562 C 6.039062 29.175781 5.640625 29.507812 5.222656 29.816406 C 4.675781 30.214844 4.121094 30.601562 3.5625 30.988281 C 3.34375 31.136719 3.050781 31.078125 2.894531 30.875 C 2.730469 30.65625 2.761719 30.378906 2.980469 30.191406 C 3.40625 29.828125 3.820312 29.453125 4.257812 29.109375 C 4.773438 28.703125 5.3125 28.320312 5.855469 27.914062 C 5.324219 26.988281 4.921875 26.003906 4.644531 24.945312 C 4.371094 25.046875 4.105469 25.125 3.851562 25.242188 C 2.875 25.679688 1.863281 26.042969 0.925781 26.566406 C 0.675781 26.703125 0.386719 26.601562 0.257812 26.367188 C 0.125 26.125 0.207031 25.851562 0.460938 25.695312 C 1.679688 24.964844 2.925781 24.285156 4.308594 23.898438 C 4.335938 23.890625 4.363281 23.878906 4.398438 23.863281 C 4.363281 23.609375 4.320312 23.359375 4.296875 23.109375 C 4.261719 22.726562 4.226562 22.339844 4.210938 21.957031 C 4.207031 21.824219 4.171875 21.765625 4.039062 21.734375 C 3.445312 21.585938 2.855469 21.425781 2.261719 21.273438 C 1.941406 21.191406 1.621094 21.125 1.300781 21.042969 C 1.0625 20.980469 0.910156 20.75 0.941406 20.515625 C 0.972656 20.265625 1.183594 20.082031 1.441406 20.085938 C 1.589844 20.089844 1.734375 20.097656 1.878906 20.117188 C 2.269531 20.171875 2.664062 20.214844 3.046875 20.292969 C 3.3125 20.347656 3.5625 20.457031 3.835938 20.546875 C 3.707031 19.90625 3.6875 19.265625 3.71875 18.628906 C 3.757812 17.902344 3.824219 17.179688 3.867188 16.457031 C 3.910156 15.714844 3.953125 14.976562 3.972656 14.238281 C 4.015625 12.652344 4.128906 11.078125 4.257812 9.5 C 4.359375 8.289062 4.601562 7.101562 4.816406 5.914062 C 5.105469 4.335938 5.425781 2.761719 5.734375 1.191406 C 5.746094 1.140625 5.753906 1.09375 5.765625 1.046875 C 5.882812 0.445312 6.371094 0.152344 6.976562 0.3125 C 7.386719 0.417969 7.710938 0.65625 8.019531 0.929688 C 8.851562 1.660156 9.398438 2.597656 9.914062 3.550781 C 10.417969 4.484375 10.890625 5.429688 11.421875 6.347656 C 11.75 6.917969 12.140625 7.460938 12.535156 7.996094 C 12.703125 8.226562 12.945312 8.402344 13.160156 8.597656 C 13.191406 8.628906 13.257812 8.644531 13.300781 8.632812 C 15.171875 8.257812 17.058594 8.238281 18.953125 8.308594 C 20.042969 8.347656 21.132812 8.40625 22.226562 8.460938 C 22.445312 8.472656 22.664062 8.496094 22.878906 8.519531 C 22.953125 8.527344 22.992188 8.515625 23.027344 8.445312 C 24.269531 5.914062 25.875 3.601562 27.507812 1.304688 C 27.558594 1.230469 27.617188 1.160156 27.6875 1.074219 C 27.722656 1.027344 27.75 0.988281 27.773438 0.953125 C 27.785156 0.953125 27.792969 0.949219 27.804688 0.929688 C 27.839844 0.882812 27.867188 0.847656 27.894531 0.8125 C 27.898438 0.808594 27.90625 0.804688 27.910156 0.792969 M 12.722656 15.3125 C 12.65625 15.289062 12.585938 15.265625 12.515625 15.242188 C 12.0625 15.089844 11.601562 15.050781 11.140625 15.179688 C 10.785156 15.277344 10.4375 15.398438 10.101562 15.542969 C 9.574219 15.773438 9.140625 16.136719 8.824219 16.609375 C 8.207031 17.535156 7.902344 18.558594 7.988281 19.675781 C 8.023438 20.128906 8.148438 20.558594 8.398438 20.9375 C 8.855469 21.632812 9.554688 21.941406 10.363281 22.019531 C 11.007812 22.082031 11.636719 21.996094 12.253906 21.816406 C 12.871094 21.636719 13.460938 21.398438 13.949219 20.972656 C 14.78125 20.25 15.109375 19.316406 14.933594 18.25 C 14.71875 16.917969 14.011719 15.90625 12.722656 15.3125 M 23.449219 21.125 C 24.167969 20.488281 24.703125 19.734375 24.9375 18.800781 C 25.195312 17.765625 24.890625 16.871094 24.121094 16.152344 C 23.28125 15.363281 22.246094 14.996094 21.09375 14.984375 C 20.121094 14.972656 19.273438 15.269531 18.742188 16.15625 C 18.703125 16.21875 18.644531 16.273438 18.605469 16.335938 C 18.488281 16.515625 18.371094 16.695312 18.269531 16.886719 C 18.210938 17 18.1875 17.136719 18.136719 17.257812 C 17.820312 18 17.839844 18.734375 18.164062 19.464844 C 18.523438 20.277344 19.109375 20.886719 19.882812 21.328125 C 20.441406 21.640625 21.046875 21.800781 21.6875 21.78125 C 22.335938 21.757812 22.921875 21.542969 23.449219 21.125 M 17.632812 23.496094 C 18.007812 23.167969 18.183594 22.769531 18.066406 22.265625 C 18.042969 22.292969 18.023438 22.316406 18 22.34375 C 17.984375 22.285156 17.984375 22.21875 17.953125 22.171875 C 17.769531 21.875 17.476562 21.757812 17.140625 21.855469 C 16.78125 21.957031 16.429688 22.078125 16.078125 22.199219 C 15.902344 22.261719 15.800781 22.394531 15.773438 22.574219 C 15.742188 22.765625 15.8125 22.921875 15.960938 23.046875 C 16.136719 23.191406 16.308594 23.332031 16.472656 23.488281 C 16.601562 23.609375 16.742188 23.683594 16.917969 23.703125 C 17.179688 23.730469 17.410156 23.664062 17.632812 23.496094 Z M 17.632812 23.496094 "/>
<path style=" stroke:none;fill-rule:nonzero;fill:rgb(98.431373%,98.431373%,98.431373%);fill-opacity:1;" d="M 27.890625 0.800781 C 27.867188 0.847656 27.839844 0.882812 27.804688 0.921875 C 27.785156 0.882812 27.828125 0.796875 27.71875 0.824219 C 27.703125 0.828125 27.679688 0.796875 27.660156 0.78125 C 27.683594 0.761719 27.710938 0.726562 27.730469 0.730469 C 27.785156 0.738281 27.835938 0.765625 27.890625 0.800781 Z M 27.890625 0.800781 "/>
<path style=" stroke:none;fill-rule:nonzero;fill:rgb(98.431373%,98.431373%,98.431373%);fill-opacity:1;" d="M 27.765625 0.953125 C 27.75 0.988281 27.722656 1.027344 27.6875 1.0625 C 27.679688 1.023438 27.679688 0.976562 27.679688 0.917969 C 27.710938 0.933594 27.730469 0.941406 27.765625 0.953125 Z M 27.765625 0.953125 "/>
<path style=" stroke:none;fill-rule:nonzero;fill:rgb(99.215686%,99.215686%,99.215686%);fill-opacity:1;" d="M 12.734375 15.316406 C 14.011719 15.90625 14.71875 16.917969 14.933594 18.25 C 15.109375 19.316406 14.78125 20.25 13.949219 20.972656 C 13.460938 21.398438 12.871094 21.636719 12.253906 21.816406 C 11.636719 21.996094 11.007812 22.082031 10.363281 22.019531 C 9.554688 21.941406 8.855469 21.632812 8.398438 20.9375 C 8.148438 20.558594 8.023438 20.128906 7.988281 19.675781 C 7.902344 18.558594 8.207031 17.535156 8.824219 16.609375 C 9.140625 16.136719 9.574219 15.773438 10.101562 15.542969 C 10.4375 15.398438 10.785156 15.277344 11.140625 15.179688 C 11.601562 15.050781 12.0625 15.089844 12.515625 15.242188 C 12.585938 15.265625 12.65625 15.289062 12.734375 15.316406 M 10.386719 16.957031 C 10.175781 17.105469 9.992188 17.285156 9.890625 17.527344 C 9.710938 17.9375 9.59375 18.367188 9.5625 18.816406 C 9.53125 19.222656 9.683594 19.566406 9.996094 19.824219 C 10.679688 20.390625 11.460938 20.5 12.277344 20.195312 C 12.832031 19.988281 13.195312 19.5625 13.296875 18.976562 C 13.335938 18.753906 13.289062 18.515625 13.292969 18.285156 C 13.292969 17.941406 13.164062 17.648438 12.925781 17.40625 C 12.804688 17.28125 12.648438 17.183594 12.527344 17.058594 C 12.253906 16.769531 11.925781 16.605469 11.527344 16.597656 C 11.113281 16.585938 10.746094 16.726562 10.386719 16.957031 Z M 10.386719 16.957031 "/>
<path style=" stroke:none;fill-rule:nonzero;fill:rgb(99.215686%,99.215686%,99.215686%);fill-opacity:1;" d="M 23.4375 21.128906 C 22.921875 21.542969 22.335938 21.757812 21.6875 21.78125 C 21.046875 21.800781 20.441406 21.640625 19.882812 21.328125 C 19.109375 20.886719 18.523438 20.277344 18.164062 19.464844 C 17.839844 18.734375 17.820312 18 18.136719 17.257812 C 18.1875 17.136719 18.210938 17 18.269531 16.886719 C 18.371094 16.695312 18.488281 16.515625 18.605469 16.335938 C 18.644531 16.273438 18.703125 16.21875 18.742188 16.15625 C 19.273438 15.269531 20.121094 14.972656 21.09375 14.984375 C 22.246094 14.996094 23.28125 15.363281 24.121094 16.152344 C 24.890625 16.871094 25.195312 17.765625 24.9375 18.800781 C 24.703125 19.734375 24.167969 20.488281 23.4375 21.128906 M 21.621094 16.585938 C 21.386719 16.589844 21.148438 16.5625 20.925781 16.605469 C 20.675781 16.65625 20.449219 16.777344 20.257812 16.960938 C 19.851562 17.351562 19.691406 17.820312 19.773438 18.355469 C 19.816406 18.660156 19.90625 18.960938 20 19.253906 C 20.128906 19.65625 20.386719 19.949219 20.796875 20.09375 C 20.859375 20.117188 20.917969 20.148438 20.976562 20.179688 C 21.273438 20.339844 21.589844 20.371094 21.910156 20.308594 C 22.535156 20.183594 23.011719 19.839844 23.351562 19.3125 C 23.667969 18.816406 23.695312 18.167969 23.273438 17.710938 C 23.25 17.6875 23.226562 17.660156 23.210938 17.628906 C 23.089844 17.355469 22.914062 17.125 22.644531 16.980469 C 22.484375 16.890625 22.320312 16.804688 22.160156 16.71875 C 22 16.632812 21.832031 16.574219 21.621094 16.585938 Z M 21.621094 16.585938 "/>
<path style=" stroke:none;fill-rule:nonzero;fill:rgb(99.215686%,99.215686%,99.215686%);fill-opacity:1;" d="M 17.625 23.503906 C 17.410156 23.664062 17.179688 23.730469 16.917969 23.703125 C 16.742188 23.683594 16.601562 23.609375 16.472656 23.488281 C 16.308594 23.332031 16.136719 23.191406 15.960938 23.046875 C 15.8125 22.921875 15.742188 22.765625 15.773438 22.574219 C 15.800781 22.394531 15.902344 22.261719 16.078125 22.199219 C 16.429688 22.078125 16.78125 21.957031 17.140625 21.855469 C 17.476562 21.757812 17.769531 21.875 17.953125 22.171875 C 17.984375 22.21875 17.984375 22.285156 18 22.34375 C 18.023438 22.316406 18.042969 22.292969 18.066406 22.265625 C 18.183594 22.769531 18.007812 23.167969 17.625 23.503906 Z M 17.625 23.503906 "/>
<path style=" stroke:none;fill-rule:nonzero;fill:rgb(0.392157%,0.392157%,0.392157%);fill-opacity:1;" d="M 10.394531 16.949219 C 10.746094 16.726562 11.113281 16.585938 11.527344 16.597656 C 11.925781 16.605469 12.253906 16.769531 12.527344 17.058594 C 12.648438 17.183594 12.804688 17.28125 12.925781 17.40625 C 13.164062 17.648438 13.292969 17.941406 13.292969 18.285156 C 13.289062 18.515625 13.335938 18.753906 13.296875 18.976562 C 13.195312 19.5625 12.832031 19.988281 12.277344 20.195312 C 11.460938 20.5 10.679688 20.390625 9.996094 19.824219 C 9.683594 19.566406 9.53125 19.222656 9.5625 18.816406 C 9.59375 18.367188 9.710938 17.9375 9.890625 17.527344 C 9.992188 17.285156 10.175781 17.105469 10.394531 16.949219 Z M 10.394531 16.949219 "/>
<path style=" stroke:none;fill-rule:nonzero;fill:rgb(0.392157%,0.392157%,0.392157%);fill-opacity:1;" d="M 21.632812 16.585938 C 21.832031 16.574219 22 16.632812 22.160156 16.71875 C 22.320312 16.804688 22.484375 16.890625 22.644531 16.980469 C 22.914062 17.125 23.089844 17.355469 23.210938 17.628906 C 23.226562 17.660156 23.25 17.6875 23.273438 17.710938 C 23.695312 18.167969 23.667969 18.816406 23.351562 19.3125 C 23.011719 19.839844 22.535156 20.183594 21.910156 20.308594 C 21.589844 20.371094 21.273438 20.339844 20.976562 20.179688 C 20.917969 20.148438 20.859375 20.117188 20.796875 20.09375 C 20.386719 19.949219 20.128906 19.65625 20 19.253906 C 19.90625 18.960938 19.816406 18.660156 19.773438 18.355469 C 19.691406 17.820312 19.851562 17.351562 20.257812 16.960938 C 20.449219 16.777344 20.675781 16.65625 20.925781 16.605469 C 21.148438 16.5625 21.386719 16.589844 21.632812 16.585938 Z M 21.632812 16.585938 "/>
</g>
</svg>
