<?xml version="1.0" encoding="UTF-8"?>
<svg xmlns="http://www.w3.org/2000/svg" xmlns:xlink="http://www.w3.org/1999/xlink" width="34px" height="34px" viewBox="0 0 34 34" version="1.1">
<g id="surface1">
<path style=" stroke:none;fill-rule:nonzero;fill:rgb(100%,100%,100%);fill-opacity:1;" d="M 32.792969 0.0273438 C 33.207031 0.0273438 33.617188 0.0273438 34.027344 0.0273438 C 34.027344 11.359375 34.027344 22.691406 34.027344 34.027344 C 22.695312 34.027344 11.367188 34.027344 0.03125 34.027344 C 0.03125 22.699219 0.03125 11.367188 0.03125 0.0273438 C 3.757812 0.0273438 7.484375 0.0273438 11.226562 0.0390625 C 11.242188 0.246094 11.242188 0.242188 11.441406 0.253906 C 11.511719 0.257812 11.613281 0.273438 11.640625 0.320312 C 11.714844 0.441406 11.820312 0.441406 11.929688 0.445312 C 12.03125 0.449219 12.132812 0.445312 12.238281 0.449219 C 12.273438 0.449219 12.324219 0.453125 12.339844 0.476562 C 12.414062 0.597656 12.503906 0.542969 12.605469 0.527344 C 12.730469 0.507812 12.921875 0.480469 12.972656 0.542969 C 13.074219 0.664062 13.179688 0.667969 13.300781 0.667969 C 13.78125 0.671875 14.261719 0.671875 14.742188 0.671875 C 20.054688 0.671875 25.367188 0.671875 30.675781 0.667969 C 30.769531 0.667969 30.867188 0.65625 30.949219 0.621094 C 31.125 0.550781 31.289062 0.453125 31.488281 0.550781 C 31.527344 0.570312 31.585938 0.546875 31.636719 0.535156 C 31.722656 0.511719 31.804688 0.460938 31.890625 0.457031 C 32.082031 0.449219 32.265625 0.4375 32.4375 0.335938 C 32.507812 0.292969 32.578125 0.234375 32.65625 0.214844 C 32.765625 0.1875 32.804688 0.132812 32.792969 0.0273438 M 29.1875 32.964844 C 29.367188 32.921875 29.550781 32.886719 29.730469 32.832031 C 30.8125 32.503906 31.578125 31.792969 32.109375 30.820312 C 32.386719 30.316406 32.625 29.789062 32.867188 29.269531 C 32.921875 29.148438 32.925781 29.007812 32.960938 28.878906 C 32.976562 28.808594 32.996094 28.734375 33.042969 28.683594 C 33.417969 28.253906 33.597656 27.753906 33.605469 27.1875 C 33.613281 26.546875 33.40625 25.953125 33.117188 25.390625 C 32.265625 23.730469 31.058594 22.367188 29.625 21.1875 C 28.316406 20.113281 26.894531 19.207031 25.402344 18.410156 C 24.039062 17.683594 22.644531 17.015625 21.171875 16.523438 C 20.914062 16.4375 20.652344 16.363281 20.382812 16.277344 C 20.410156 16.265625 20.421875 16.257812 20.433594 16.253906 C 22.347656 15.480469 24.152344 14.507812 25.859375 13.355469 C 26.933594 12.632812 27.976562 11.859375 29.023438 11.101562 C 29.644531 10.65625 30.207031 10.152344 30.648438 9.519531 C 30.960938 9.0625 31.179688 8.582031 31.140625 8.011719 C 31.070312 7.007812 30.828125 6.050781 30.382812 5.148438 C 30.207031 4.789062 29.964844 4.476562 29.582031 4.300781 C 29.550781 4.285156 29.523438 4.234375 29.515625 4.195312 C 29.394531 3.675781 29.136719 3.238281 28.765625 2.859375 C 28.304688 2.390625 27.746094 2.070312 27.144531 1.816406 C 26.332031 1.472656 25.484375 1.269531 24.613281 1.144531 C 23.785156 1.023438 22.949219 0.960938 22.113281 1.039062 C 21.367188 1.113281 20.621094 1.210938 19.878906 1.3125 C 18.015625 1.566406 16.171875 1.925781 14.351562 2.40625 C 12.523438 2.886719 10.734375 3.492188 9.011719 4.28125 C 7.714844 4.875 6.480469 5.574219 5.3125 6.386719 C 4.566406 6.90625 3.800781 7.402344 3.074219 7.941406 C 2.402344 8.4375 1.8125 9.027344 1.382812 9.746094 C 0.917969 10.527344 0.746094 11.347656 1.054688 12.230469 C 1.074219 12.277344 1.0625 12.339844 1.046875 12.390625 C 0.960938 12.664062 0.96875 12.929688 1.09375 13.191406 C 1.246094 13.503906 1.40625 13.8125 1.546875 14.128906 C 1.859375 14.835938 2.222656 15.503906 2.726562 16.097656 C 2.988281 16.402344 3.230469 16.730469 3.46875 17.058594 C 3.5625 17.183594 3.621094 17.328125 3.617188 17.496094 C 3.613281 18.074219 4.070312 18.542969 4.648438 18.546875 C 5.125 18.546875 5.597656 18.503906 6.074219 18.511719 C 6.648438 18.527344 7.210938 18.484375 7.773438 18.375 C 8.152344 18.300781 8.539062 18.277344 8.957031 18.226562 C 8.832031 18.382812 8.726562 18.5 8.632812 18.625 C 8.203125 19.214844 7.933594 19.886719 7.683594 20.558594 C 7.277344 21.648438 7.433594 22.710938 7.929688 23.734375 C 8.566406 25.039062 9.59375 26 10.785156 26.773438 C 12.042969 27.585938 13.363281 28.304688 14.652344 29.074219 C 16.617188 30.257812 18.691406 31.183594 20.902344 31.808594 C 22.144531 32.160156 23.40625 32.429688 24.6875 32.605469 C 25.394531 32.703125 26.097656 32.804688 26.804688 32.90625 C 27.589844 33.015625 28.375 33.089844 29.1875 32.964844 Z M 29.1875 32.964844 "/>
<path style=" stroke:none;fill-rule:nonzero;fill:rgb(97.647059%,97.647059%,97.647059%);fill-opacity:1;" d="M 32.78125 0.0273438 C 32.804688 0.132812 32.765625 0.1875 32.65625 0.214844 C 32.578125 0.234375 32.507812 0.292969 32.4375 0.335938 C 32.265625 0.4375 32.082031 0.449219 31.890625 0.457031 C 31.804688 0.460938 31.722656 0.511719 31.636719 0.535156 C 31.585938 0.546875 31.527344 0.570312 31.488281 0.550781 C 31.289062 0.453125 31.125 0.550781 30.949219 0.621094 C 30.867188 0.65625 30.769531 0.667969 30.675781 0.667969 C 25.367188 0.671875 20.054688 0.671875 14.742188 0.671875 C 14.261719 0.671875 13.78125 0.671875 13.300781 0.667969 C 13.179688 0.667969 13.074219 0.664062 12.972656 0.542969 C 12.921875 0.480469 12.730469 0.507812 12.605469 0.527344 C 12.503906 0.542969 12.414062 0.597656 12.339844 0.476562 C 12.324219 0.453125 12.273438 0.449219 12.238281 0.449219 C 12.132812 0.445312 12.03125 0.449219 11.929688 0.445312 C 11.820312 0.441406 11.714844 0.441406 11.640625 0.320312 C 11.613281 0.273438 11.511719 0.257812 11.441406 0.253906 C 11.242188 0.242188 11.242188 0.246094 11.238281 0.0390625 C 18.417969 0.0273438 25.59375 0.0273438 32.78125 0.0273438 Z M 32.78125 0.0273438 "/>
<path style=" stroke:none;fill-rule:nonzero;fill:rgb(0.392157%,0.392157%,0.392157%);fill-opacity:1;" d="M 29.175781 32.964844 C 28.375 33.089844 27.589844 33.015625 26.804688 32.90625 C 26.097656 32.804688 25.394531 32.703125 24.6875 32.605469 C 23.40625 32.429688 22.144531 32.160156 20.902344 31.808594 C 18.691406 31.183594 16.617188 30.257812 14.652344 29.074219 C 13.363281 28.304688 12.042969 27.585938 10.785156 26.773438 C 9.59375 26 8.566406 25.039062 7.929688 23.734375 C 7.433594 22.710938 7.277344 21.648438 7.683594 20.558594 C 7.933594 19.886719 8.203125 19.214844 8.632812 18.625 C 8.726562 18.5 8.832031 18.382812 8.957031 18.226562 C 8.539062 18.277344 8.152344 18.300781 7.773438 18.375 C 7.210938 18.484375 6.648438 18.527344 6.074219 18.511719 C 5.597656 18.503906 5.125 18.546875 4.648438 18.546875 C 4.070312 18.542969 3.613281 18.074219 3.617188 17.496094 C 3.621094 17.328125 3.5625 17.183594 3.46875 17.058594 C 3.230469 16.730469 2.988281 16.402344 2.726562 16.097656 C 2.222656 15.503906 1.859375 14.835938 1.546875 14.128906 C 1.40625 13.8125 1.246094 13.503906 1.09375 13.191406 C 0.96875 12.929688 0.960938 12.664062 1.046875 12.390625 C 1.0625 12.339844 1.074219 12.277344 1.054688 12.230469 C 0.746094 11.347656 0.917969 10.527344 1.382812 9.746094 C 1.8125 9.027344 2.402344 8.4375 3.074219 7.941406 C 3.800781 7.402344 4.566406 6.90625 5.3125 6.386719 C 6.480469 5.574219 7.714844 4.875 9.011719 4.28125 C 10.734375 3.492188 12.523438 2.886719 14.351562 2.40625 C 16.171875 1.925781 18.015625 1.566406 19.878906 1.3125 C 20.621094 1.210938 21.367188 1.113281 22.113281 1.039062 C 22.949219 0.960938 23.785156 1.023438 24.613281 1.144531 C 25.484375 1.269531 26.332031 1.472656 27.144531 1.816406 C 27.746094 2.070312 28.304688 2.390625 28.765625 2.859375 C 29.136719 3.238281 29.394531 3.675781 29.515625 4.195312 C 29.523438 4.234375 29.550781 4.285156 29.582031 4.300781 C 29.964844 4.476562 30.207031 4.789062 30.382812 5.148438 C 30.828125 6.050781 31.070312 7.007812 31.140625 8.011719 C 31.179688 8.582031 30.960938 9.0625 30.648438 9.519531 C 30.207031 10.152344 29.644531 10.65625 29.023438 11.101562 C 27.976562 11.859375 26.933594 12.632812 25.859375 13.355469 C 24.152344 14.507812 22.347656 15.480469 20.433594 16.253906 C 20.421875 16.257812 20.410156 16.265625 20.382812 16.277344 C 20.652344 16.363281 20.914062 16.4375 21.171875 16.523438 C 22.644531 17.015625 24.039062 17.683594 25.402344 18.410156 C 26.894531 19.207031 28.316406 20.113281 29.625 21.1875 C 31.058594 22.367188 32.265625 23.730469 33.117188 25.390625 C 33.40625 25.953125 33.613281 26.546875 33.605469 27.1875 C 33.597656 27.753906 33.417969 28.253906 33.042969 28.683594 C 32.996094 28.734375 32.976562 28.808594 32.960938 28.878906 C 32.925781 29.007812 32.921875 29.148438 32.867188 29.269531 C 32.625 29.789062 32.386719 30.316406 32.109375 30.820312 C 31.578125 31.792969 30.8125 32.503906 29.730469 32.832031 C 29.550781 32.886719 29.367188 32.921875 29.175781 32.964844 M 12.742188 7.851562 C 13.328125 7.8125 13.894531 7.914062 14.441406 8.125 C 14.609375 8.191406 14.734375 8.292969 14.808594 8.460938 C 14.890625 8.640625 14.984375 8.8125 15.082031 8.980469 C 15.222656 9.234375 15.46875 9.347656 15.738281 9.300781 C 15.992188 9.253906 16.191406 9.050781 16.230469 8.777344 C 16.257812 8.550781 16.253906 8.320312 16.28125 8.09375 C 16.335938 7.65625 16.460938 7.238281 16.84375 6.96875 C 17.125 6.773438 17.421875 6.589844 17.730469 6.445312 C 18.085938 6.277344 18.457031 6.117188 18.839844 6.03125 C 19.132812 5.964844 19.425781 5.917969 19.710938 5.8125 C 20.019531 5.699219 20.191406 5.414062 20.128906 5.097656 C 20.066406 4.800781 19.78125 4.589844 19.460938 4.632812 C 19.222656 4.667969 18.988281 4.742188 18.75 4.773438 C 18.429688 4.820312 18.105469 4.847656 17.78125 4.875 C 17.328125 4.914062 16.878906 4.964844 16.425781 4.964844 C 16.050781 4.96875 15.699219 4.898438 15.546875 4.457031 C 15.46875 4.230469 15.242188 4.132812 15 4.144531 C 14.746094 4.160156 14.539062 4.285156 14.46875 4.53125 C 14.414062 4.714844 14.335938 4.871094 14.210938 5.015625 C 14.121094 5.117188 14.078125 5.261719 13.988281 5.367188 C 13.648438 5.769531 13.257812 6.125 12.757812 6.3125 C 12.261719 6.5 11.75 6.660156 11.242188 6.8125 C 10.867188 6.929688 10.65625 7.230469 10.738281 7.578125 C 10.820312 7.910156 11.160156 8.113281 11.53125 8.007812 C 11.921875 7.898438 12.316406 7.871094 12.742188 7.851562 M 23.5625 20 C 23.5 20.019531 23.4375 20.058594 23.378906 20.058594 C 23.167969 20.054688 22.992188 20.136719 22.847656 20.273438 C 22.601562 20.5 22.308594 20.574219 21.988281 20.5625 C 21.25 20.527344 20.554688 20.347656 19.90625 19.992188 C 19.785156 19.925781 19.667969 19.859375 19.542969 19.804688 C 19.199219 19.65625 18.820312 19.824219 18.710938 20.175781 C 18.628906 20.433594 18.71875 20.695312 18.953125 20.863281 C 19.378906 21.167969 19.8125 21.457031 20.226562 21.773438 C 20.609375 22.0625 20.921875 22.417969 21.144531 22.847656 C 21.238281 23.03125 21.269531 23.210938 21.164062 23.402344 C 21.113281 23.496094 21.082031 23.601562 21.0625 23.707031 C 21 24.023438 21.207031 24.339844 21.519531 24.421875 C 21.703125 24.46875 21.871094 24.433594 22.03125 24.339844 C 22.363281 24.140625 22.695312 23.929688 23.03125 23.730469 C 23.316406 23.5625 23.621094 23.515625 23.933594 23.632812 C 24.289062 23.761719 24.640625 23.894531 24.984375 24.046875 C 25.210938 24.148438 25.429688 24.277344 25.644531 24.402344 C 25.855469 24.523438 26.054688 24.671875 26.273438 24.777344 C 26.492188 24.886719 26.710938 24.84375 26.898438 24.6875 C 27.082031 24.539062 27.140625 24.339844 27.105469 24.113281 C 27.066406 23.882812 26.90625 23.757812 26.726562 23.636719 C 26.484375 23.476562 26.222656 23.335938 26.007812 23.140625 C 25.363281 22.550781 24.824219 21.867188 24.347656 21.136719 C 24.28125 21.039062 24.269531 20.953125 24.308594 20.839844 C 24.488281 20.3125 24.121094 19.882812 23.5625 20 M 16.957031 12.726562 C 16.476562 12.851562 15.996094 12.980469 15.519531 13.105469 C 15.507812 13.226562 15.519531 13.347656 15.484375 13.453125 C 15.429688 13.617188 15.449219 13.773438 15.496094 13.929688 C 15.519531 14.019531 15.542969 14.109375 15.578125 14.195312 C 15.730469 14.566406 15.886719 14.933594 16.046875 15.3125 C 17.0625 15.265625 20.105469 14.273438 21.09375 13.660156 C 20.65625 13.070312 20.375 12.402344 20.109375 11.75 C 19.066406 12.074219 18.023438 12.394531 16.957031 12.726562 M 12.441406 25.152344 C 12.371094 25.28125 12.449219 25.347656 12.550781 25.40625 C 13.039062 25.695312 13.527344 25.988281 14.019531 26.273438 C 14.496094 26.554688 14.972656 26.832031 15.460938 27.117188 C 15.648438 26.753906 15.835938 26.402344 16.007812 26.042969 C 16.121094 25.804688 16.238281 25.574219 16.484375 25.417969 C 15.226562 24.703125 14.039062 23.921875 12.914062 22.996094 C 12.859375 23.191406 12.796875 23.371094 12.757812 23.558594 C 12.648438 24.078125 12.546875 24.605469 12.441406 25.152344 M 6.113281 16.410156 C 6.414062 16.398438 6.71875 16.402344 7.019531 16.375 C 7.246094 16.355469 7.46875 16.289062 7.695312 16.261719 C 8.019531 16.214844 8.347656 16.183594 8.648438 16.152344 C 8.542969 15.535156 8.441406 14.917969 8.339844 14.292969 C 6.855469 14.378906 5.378906 14.398438 3.882812 14.132812 C 4.011719 14.308594 4.117188 14.460938 4.234375 14.609375 C 4.679688 15.171875 5.175781 15.695312 5.484375 16.355469 C 5.496094 16.378906 5.546875 16.398438 5.582031 16.402344 C 5.75 16.40625 5.917969 16.40625 6.113281 16.410156 M 19.460938 29.113281 C 19.761719 29.226562 20.058594 29.335938 20.363281 29.445312 C 20.417969 29.203125 20.519531 29.011719 20.6875 28.863281 C 21.039062 28.550781 21.144531 28.105469 21.332031 27.722656 C 20.246094 27.246094 19.179688 26.777344 18.117188 26.3125 C 18.019531 26.984375 17.542969 27.511719 17.316406 28.15625 C 18.007812 28.515625 18.71875 28.828125 19.460938 29.113281 M 13.644531 15.046875 C 13.46875 14.574219 13.335938 14.09375 13.335938 13.585938 C 12.375 13.75 11.417969 13.914062 10.453125 14.078125 C 10.492188 14.386719 10.527344 14.695312 10.574219 15.003906 C 10.59375 15.140625 10.605469 15.296875 10.679688 15.402344 C 10.832031 15.609375 10.960938 15.824219 10.984375 16.082031 C 11.984375 16.078125 12.90625 15.71875 13.882812 15.613281 C 13.800781 15.417969 13.726562 15.242188 13.644531 15.046875 M 24.308594 30.425781 C 24.699219 30.484375 25.085938 30.539062 25.472656 30.59375 C 25.507812 30.597656 25.574219 30.578125 25.585938 30.554688 C 25.707031 30.269531 25.9375 30.097656 26.203125 29.953125 C 26.464844 29.8125 26.660156 29.597656 26.820312 29.371094 C 25.648438 29.058594 24.488281 28.746094 23.320312 28.433594 C 23.203125 28.695312 23.089844 28.980469 22.949219 29.253906 C 22.808594 29.527344 22.640625 29.789062 22.476562 30.074219 C 23.078125 30.191406 23.683594 30.308594 24.308594 30.425781 M 22.765625 12.503906 C 22.785156 12.585938 22.804688 12.667969 22.824219 12.753906 C 23.277344 12.542969 25.292969 11.261719 25.457031 11.074219 C 25.164062 10.636719 24.863281 10.195312 24.582031 9.773438 C 23.773438 10.148438 22.996094 10.507812 22.222656 10.875 C 22.179688 10.894531 22.132812 10.96875 22.140625 11.003906 C 22.183594 11.183594 22.226562 11.363281 22.300781 11.53125 C 22.441406 11.851562 22.605469 12.164062 22.765625 12.503906 M 9.921875 23.007812 C 10.097656 23.308594 10.304688 23.589844 10.5625 23.855469 C 10.691406 23.019531 10.867188 22.226562 11.335938 21.546875 C 10.945312 21.0625 10.5625 20.585938 10.160156 20.089844 C 9.980469 20.519531 9.792969 20.945312 9.628906 21.378906 C 9.578125 21.507812 9.566406 21.660156 9.5625 21.800781 C 9.558594 22.230469 9.707031 22.617188 9.921875 23.007812 M 26.632812 8.625 C 26.566406 8.664062 26.496094 8.703125 26.429688 8.742188 C 26.675781 9.113281 26.917969 9.476562 27.160156 9.839844 C 27.226562 9.796875 27.277344 9.761719 27.332031 9.726562 C 27.828125 9.40625 28.292969 9.050781 28.6875 8.613281 C 28.90625 8.375 29.125 8.128906 29.007812 7.761719 C 28.992188 7.714844 28.992188 7.664062 28.980469 7.613281 C 28.921875 7.347656 28.859375 7.078125 28.789062 6.78125 C 28.195312 7.574219 27.460938 8.136719 26.632812 8.625 M 29.117188 30.828125 C 29.613281 30.679688 29.945312 30.335938 30.207031 29.917969 C 29.832031 29.890625 29.472656 29.859375 29.109375 29.839844 C 29.070312 29.839844 29.011719 29.875 28.984375 29.910156 C 28.753906 30.238281 28.527344 30.566406 28.296875 30.894531 C 28.292969 30.902344 28.292969 30.914062 28.285156 30.960938 C 28.566406 30.917969 28.832031 30.878906 29.117188 30.828125 Z M 29.117188 30.828125 "/>
<path style=" stroke:none;fill-rule:nonzero;fill:rgb(99.607843%,99.607843%,99.607843%);fill-opacity:1;" d="M 12.730469 7.851562 C 12.316406 7.871094 11.921875 7.898438 11.53125 8.007812 C 11.160156 8.113281 10.820312 7.910156 10.738281 7.578125 C 10.65625 7.230469 10.867188 6.929688 11.242188 6.8125 C 11.75 6.660156 12.261719 6.5 12.757812 6.3125 C 13.257812 6.125 13.648438 5.769531 13.988281 5.367188 C 14.078125 5.261719 14.121094 5.117188 14.210938 5.015625 C 14.335938 4.871094 14.414062 4.714844 14.46875 4.53125 C 14.539062 4.285156 14.746094 4.160156 15 4.144531 C 15.242188 4.132812 15.46875 4.230469 15.546875 4.457031 C 15.699219 4.898438 16.050781 4.96875 16.425781 4.964844 C 16.878906 4.964844 17.328125 4.914062 17.78125 4.875 C 18.105469 4.847656 18.429688 4.820312 18.75 4.773438 C 18.988281 4.742188 19.222656 4.667969 19.460938 4.632812 C 19.78125 4.589844 20.066406 4.800781 20.128906 5.097656 C 20.191406 5.414062 20.019531 5.699219 19.710938 5.8125 C 19.425781 5.917969 19.132812 5.964844 18.839844 6.03125 C 18.457031 6.117188 18.085938 6.277344 17.730469 6.445312 C 17.421875 6.589844 17.125 6.773438 16.84375 6.96875 C 16.460938 7.238281 16.335938 7.65625 16.28125 8.09375 C 16.253906 8.320312 16.257812 8.550781 16.230469 8.777344 C 16.191406 9.050781 15.992188 9.253906 15.738281 9.300781 C 15.46875 9.347656 15.222656 9.234375 15.082031 8.980469 C 14.984375 8.8125 14.890625 8.640625 14.808594 8.460938 C 14.734375 8.292969 14.609375 8.191406 14.441406 8.125 C 13.894531 7.914062 13.328125 7.8125 12.730469 7.851562 Z M 12.730469 7.851562 "/>
<path style=" stroke:none;fill-rule:nonzero;fill:rgb(99.607843%,99.607843%,99.607843%);fill-opacity:1;" d="M 23.574219 19.996094 C 24.121094 19.882812 24.488281 20.3125 24.308594 20.839844 C 24.269531 20.953125 24.28125 21.039062 24.347656 21.136719 C 24.824219 21.867188 25.363281 22.550781 26.007812 23.140625 C 26.222656 23.335938 26.484375 23.476562 26.726562 23.636719 C 26.90625 23.757812 27.066406 23.882812 27.105469 24.113281 C 27.140625 24.339844 27.082031 24.539062 26.898438 24.6875 C 26.710938 24.84375 26.492188 24.886719 26.273438 24.777344 C 26.054688 24.671875 25.855469 24.523438 25.644531 24.402344 C 25.429688 24.277344 25.210938 24.148438 24.984375 24.046875 C 24.640625 23.894531 24.289062 23.761719 23.933594 23.632812 C 23.621094 23.515625 23.316406 23.5625 23.03125 23.730469 C 22.695312 23.929688 22.363281 24.140625 22.03125 24.339844 C 21.871094 24.433594 21.703125 24.46875 21.519531 24.421875 C 21.207031 24.339844 21 24.023438 21.0625 23.707031 C 21.082031 23.601562 21.113281 23.496094 21.164062 23.402344 C 21.269531 23.210938 21.238281 23.03125 21.144531 22.847656 C 20.921875 22.417969 20.609375 22.0625 20.226562 21.773438 C 19.8125 21.457031 19.378906 21.167969 18.953125 20.863281 C 18.71875 20.695312 18.628906 20.433594 18.710938 20.175781 C 18.820312 19.824219 19.199219 19.65625 19.542969 19.804688 C 19.667969 19.859375 19.785156 19.925781 19.90625 19.992188 C 20.554688 20.347656 21.25 20.527344 21.988281 20.5625 C 22.308594 20.574219 22.601562 20.5 22.847656 20.273438 C 22.992188 20.136719 23.167969 20.054688 23.378906 20.058594 C 23.4375 20.058594 23.5 20.019531 23.574219 19.996094 Z M 23.574219 19.996094 "/>
<path style=" stroke:none;fill-rule:nonzero;fill:rgb(99.607843%,99.607843%,99.607843%);fill-opacity:1;" d="M 16.96875 12.722656 C 18.023438 12.394531 19.066406 12.074219 20.109375 11.75 C 20.375 12.402344 20.65625 13.070312 21.09375 13.660156 C 20.105469 14.273438 17.0625 15.265625 16.046875 15.3125 C 15.886719 14.933594 15.730469 14.566406 15.578125 14.195312 C 15.542969 14.109375 15.519531 14.019531 15.496094 13.929688 C 15.449219 13.773438 15.429688 13.617188 15.484375 13.453125 C 15.519531 13.347656 15.507812 13.226562 15.519531 13.105469 C 15.996094 12.980469 16.476562 12.851562 16.96875 12.722656 Z M 16.96875 12.722656 "/>
<path style=" stroke:none;fill-rule:nonzero;fill:rgb(99.215686%,99.215686%,99.215686%);fill-opacity:1;" d="M 12.441406 25.140625 C 12.546875 24.605469 12.648438 24.078125 12.757812 23.558594 C 12.796875 23.371094 12.859375 23.191406 12.914062 22.996094 C 14.039062 23.921875 15.226562 24.703125 16.484375 25.417969 C 16.238281 25.574219 16.121094 25.804688 16.007812 26.042969 C 15.835938 26.402344 15.648438 26.753906 15.460938 27.117188 C 14.972656 26.832031 14.496094 26.554688 14.019531 26.273438 C 13.527344 25.988281 13.039062 25.695312 12.550781 25.40625 C 12.449219 25.347656 12.371094 25.28125 12.441406 25.140625 Z M 12.441406 25.140625 "/>
<path style=" stroke:none;fill-rule:nonzero;fill:rgb(99.215686%,99.215686%,99.215686%);fill-opacity:1;" d="M 6.097656 16.410156 C 5.917969 16.40625 5.75 16.40625 5.582031 16.402344 C 5.546875 16.398438 5.496094 16.378906 5.484375 16.355469 C 5.175781 15.695312 4.679688 15.171875 4.234375 14.609375 C 4.117188 14.460938 4.011719 14.308594 3.882812 14.132812 C 5.378906 14.398438 6.855469 14.378906 8.339844 14.292969 C 8.441406 14.917969 8.542969 15.535156 8.648438 16.152344 C 8.347656 16.183594 8.019531 16.214844 7.695312 16.261719 C 7.46875 16.289062 7.246094 16.355469 7.019531 16.375 C 6.71875 16.402344 6.414062 16.398438 6.097656 16.410156 Z M 6.097656 16.410156 "/>
<path style=" stroke:none;fill-rule:nonzero;fill:rgb(99.215686%,99.215686%,99.215686%);fill-opacity:1;" d="M 19.449219 29.113281 C 18.71875 28.828125 18.007812 28.515625 17.316406 28.15625 C 17.542969 27.511719 18.019531 26.984375 18.117188 26.3125 C 19.179688 26.777344 20.246094 27.246094 21.332031 27.722656 C 21.144531 28.105469 21.039062 28.550781 20.6875 28.863281 C 20.519531 29.011719 20.417969 29.203125 20.363281 29.445312 C 20.058594 29.335938 19.761719 29.226562 19.449219 29.113281 Z M 19.449219 29.113281 "/>
<path style=" stroke:none;fill-rule:nonzero;fill:rgb(99.215686%,99.215686%,99.215686%);fill-opacity:1;" d="M 13.648438 15.058594 C 13.726562 15.242188 13.800781 15.417969 13.882812 15.613281 C 12.90625 15.71875 11.984375 16.078125 10.984375 16.082031 C 10.960938 15.824219 10.832031 15.609375 10.679688 15.402344 C 10.605469 15.296875 10.59375 15.140625 10.574219 15.003906 C 10.527344 14.695312 10.492188 14.386719 10.453125 14.078125 C 11.417969 13.914062 12.375 13.75 13.335938 13.585938 C 13.335938 14.09375 13.46875 14.574219 13.648438 15.058594 Z M 13.648438 15.058594 "/>
<path style=" stroke:none;fill-rule:nonzero;fill:rgb(99.215686%,99.215686%,99.215686%);fill-opacity:1;" d="M 24.296875 30.425781 C 23.683594 30.308594 23.078125 30.191406 22.476562 30.074219 C 22.640625 29.789062 22.808594 29.527344 22.949219 29.253906 C 23.089844 28.980469 23.203125 28.695312 23.320312 28.433594 C 24.488281 28.746094 25.648438 29.058594 26.820312 29.371094 C 26.660156 29.597656 26.464844 29.8125 26.203125 29.953125 C 25.9375 30.097656 25.707031 30.269531 25.585938 30.554688 C 25.574219 30.578125 25.507812 30.597656 25.472656 30.59375 C 25.085938 30.539062 24.699219 30.484375 24.296875 30.425781 Z M 24.296875 30.425781 "/>
<path style=" stroke:none;fill-rule:nonzero;fill:rgb(99.215686%,99.215686%,99.215686%);fill-opacity:1;" d="M 22.761719 12.492188 C 22.605469 12.164062 22.441406 11.851562 22.300781 11.53125 C 22.226562 11.363281 22.183594 11.183594 22.140625 11.003906 C 22.132812 10.96875 22.179688 10.894531 22.222656 10.875 C 22.996094 10.507812 23.773438 10.148438 24.582031 9.773438 C 24.863281 10.195312 25.164062 10.636719 25.457031 11.074219 C 25.292969 11.261719 23.277344 12.542969 22.824219 12.753906 C 22.804688 12.667969 22.785156 12.585938 22.761719 12.492188 Z M 22.761719 12.492188 "/>
<path style=" stroke:none;fill-rule:nonzero;fill:rgb(98.823529%,98.823529%,98.823529%);fill-opacity:1;" d="M 9.917969 22.996094 C 9.707031 22.617188 9.558594 22.230469 9.5625 21.800781 C 9.566406 21.660156 9.578125 21.507812 9.628906 21.378906 C 9.792969 20.945312 9.980469 20.519531 10.160156 20.089844 C 10.5625 20.585938 10.945312 21.0625 11.335938 21.546875 C 10.867188 22.226562 10.691406 23.019531 10.5625 23.855469 C 10.304688 23.589844 10.097656 23.308594 9.917969 22.996094 Z M 9.917969 22.996094 "/>
<path style=" stroke:none;fill-rule:nonzero;fill:rgb(98.823529%,98.823529%,98.823529%);fill-opacity:1;" d="M 26.640625 8.617188 C 27.460938 8.136719 28.195312 7.574219 28.789062 6.78125 C 28.859375 7.078125 28.921875 7.347656 28.980469 7.613281 C 28.992188 7.664062 28.992188 7.714844 29.007812 7.761719 C 29.125 8.128906 28.90625 8.375 28.6875 8.613281 C 28.292969 9.050781 27.828125 9.40625 27.332031 9.726562 C 27.277344 9.761719 27.226562 9.796875 27.160156 9.839844 C 26.917969 9.476562 26.675781 9.113281 26.429688 8.742188 C 26.496094 8.703125 26.566406 8.664062 26.640625 8.617188 Z M 26.640625 8.617188 "/>
<path style=" stroke:none;fill-rule:nonzero;fill:rgb(98.039216%,98.039216%,98.039216%);fill-opacity:1;" d="M 29.109375 30.832031 C 28.832031 30.878906 28.566406 30.917969 28.285156 30.960938 C 28.292969 30.914062 28.292969 30.902344 28.296875 30.894531 C 28.527344 30.566406 28.753906 30.238281 28.984375 29.910156 C 29.011719 29.875 29.070312 29.839844 29.109375 29.839844 C 29.472656 29.859375 29.832031 29.890625 30.207031 29.917969 C 29.945312 30.335938 29.613281 30.679688 29.109375 30.832031 Z M 29.109375 30.832031 "/>
</g>
</svg>
