<?xml version="1.0" encoding="UTF-8"?>
<svg xmlns="http://www.w3.org/2000/svg" xmlns:xlink="http://www.w3.org/1999/xlink" width="34px" height="34px" viewBox="0 0 34 34" version="1.1">
<g id="surface1">
<path style=" stroke:none;fill-rule:nonzero;fill:rgb(100%,100%,100%);fill-opacity:1;" d="M 0.0273438 16.730469 C 0.0273438 11.152344 0.0273438 5.589844 0.0273438 0.0273438 C 11.359375 0.0273438 22.695312 0.0273438 34.027344 0.0273438 C 34.027344 11.359375 34.027344 22.695312 34.027344 34.027344 C 22.695312 34.027344 11.359375 34.027344 0.0273438 34.027344 C 0.0273438 28.265625 0.0273438 22.503906 0.0273438 16.730469 M 30.171875 19.34375 C 30.175781 19.257812 30.183594 19.175781 30.191406 19.089844 C 30.269531 18.328125 30.339844 17.566406 30.425781 16.804688 C 30.492188 16.203125 30.5625 15.601562 30.742188 15.023438 C 30.765625 14.949219 30.761719 14.855469 30.738281 14.777344 C 30.648438 14.496094 30.476562 14.261719 30.277344 14.074219 C 30.425781 13.742188 30.582031 13.429688 30.707031 13.101562 C 31.105469 12.078125 31.28125 11.027344 31.015625 9.945312 C 30.652344 8.457031 29.710938 7.464844 28.277344 6.933594 C 28.03125 6.839844 27.761719 6.808594 27.503906 6.75 C 27.445312 5.828125 27.09375 5.046875 26.335938 4.476562 C 25.582031 3.914062 24.71875 3.777344 23.796875 3.898438 C 23.726562 3.382812 23.476562 2.980469 23.058594 2.699219 C 22.800781 2.523438 22.527344 2.359375 22.238281 2.238281 C 21.363281 1.867188 20.445312 1.679688 19.5 1.621094 C 18.609375 1.566406 17.769531 1.738281 17.054688 2.300781 C 16.75 2.539062 16.496094 2.84375 16.21875 3.117188 C 16.179688 3.152344 16.121094 3.191406 16.078125 3.1875 C 15.742188 3.15625 15.410156 3.195312 15.085938 3.269531 C 14.4375 3.417969 13.84375 3.703125 13.253906 3.988281 C 12.269531 4.464844 11.503906 5.171875 11.066406 6.179688 C 10.667969 7.089844 10.503906 8.035156 10.695312 9.023438 C 10.714844 9.128906 10.707031 9.1875 10.582031 9.234375 C 10.0625 9.421875 9.59375 9.707031 9.179688 10.078125 C 7.84375 11.273438 7.394531 12.757812 7.75 14.496094 C 7.765625 14.570312 7.746094 14.609375 7.695312 14.65625 C 7.464844 14.867188 7.289062 15.121094 7.25 15.433594 C 7.222656 15.625 7.269531 15.824219 7.257812 16.019531 C 7.238281 16.3125 7.3125 16.582031 7.410156 16.855469 C 7.625 17.46875 7.8125 18.089844 7.847656 18.742188 C 7.878906 19.347656 7.988281 19.933594 8.148438 20.515625 C 8.46875 21.667969 8.75 22.832031 8.933594 24.019531 C 9.109375 25.167969 9.304688 26.316406 9.492188 27.464844 C 9.695312 28.699219 9.90625 29.933594 10.101562 31.171875 C 10.179688 31.652344 10.335938 32.089844 10.613281 32.496094 C 10.765625 32.71875 10.941406 32.738281 11.171875 32.695312 C 11.320312 32.667969 11.476562 32.644531 11.625 32.652344 C 11.992188 32.671875 12.355469 32.710938 12.71875 32.75 C 13.246094 32.808594 13.773438 32.890625 14.304688 32.921875 C 15 32.960938 15.703125 32.953125 16.402344 32.980469 C 18.019531 33.050781 19.636719 33.152344 21.257812 33.195312 C 22.265625 33.21875 23.277344 33.171875 24.289062 33.140625 C 24.867188 33.121094 25.449219 33.0625 26.027344 33.03125 C 26.339844 33.015625 26.652344 33.039062 26.964844 33.027344 C 27.394531 33.015625 27.8125 32.925781 28.207031 32.75 C 28.257812 32.726562 28.324219 32.664062 28.328125 32.613281 C 28.441406 31.796875 28.625 30.996094 28.847656 30.203125 C 29.179688 29.007812 29.433594 27.796875 29.554688 26.558594 C 29.628906 25.785156 29.710938 25.007812 29.78125 24.230469 C 29.867188 23.242188 29.9375 22.25 30.015625 21.257812 C 30.066406 20.628906 30.117188 20 30.171875 19.34375 M 2.140625 7.464844 C 1.90625 8.332031 1.945312 9.199219 2.144531 10.058594 C 2.515625 11.6875 3.957031 12.507812 5.542969 11.988281 C 6.582031 11.652344 7.308594 10.941406 7.804688 9.984375 C 8 9.605469 8.109375 9.203125 8.085938 8.773438 C 8.082031 8.664062 8.105469 8.59375 8.191406 8.519531 C 8.601562 8.160156 8.941406 7.742188 9.117188 7.21875 C 9.363281 6.476562 9.324219 5.769531 8.785156 5.148438 C 8.371094 4.667969 7.828125 4.382812 7.207031 4.257812 C 7.074219 4.230469 7.007812 4.179688 6.949219 4.066406 C 6.472656 3.164062 5.566406 2.507812 4.402344 2.691406 C 3.324219 2.859375 2.589844 3.441406 2.226562 4.46875 C 1.960938 5.222656 1.980469 6 2.074219 6.78125 C 2.097656 7 2.121094 7.222656 2.140625 7.464844 Z M 2.140625 7.464844 "/>
<path style=" stroke:none;fill-rule:nonzero;fill:rgb(0.392157%,0.392157%,0.392157%);fill-opacity:1;" d="M 30.167969 19.355469 C 30.117188 20 30.066406 20.628906 30.015625 21.257812 C 29.9375 22.25 29.867188 23.242188 29.78125 24.230469 C 29.710938 25.007812 29.628906 25.785156 29.554688 26.558594 C 29.433594 27.796875 29.179688 29.007812 28.847656 30.203125 C 28.625 30.996094 28.441406 31.796875 28.328125 32.613281 C 28.324219 32.664062 28.257812 32.726562 28.207031 32.75 C 27.8125 32.925781 27.394531 33.015625 26.964844 33.027344 C 26.652344 33.039062 26.339844 33.015625 26.027344 33.03125 C 25.449219 33.0625 24.867188 33.121094 24.289062 33.140625 C 23.277344 33.171875 22.265625 33.21875 21.257812 33.195312 C 19.636719 33.152344 18.019531 33.050781 16.402344 32.980469 C 15.703125 32.953125 15 32.960938 14.304688 32.921875 C 13.773438 32.890625 13.246094 32.808594 12.71875 32.75 C 12.355469 32.710938 11.992188 32.671875 11.625 32.652344 C 11.476562 32.644531 11.320312 32.667969 11.171875 32.695312 C 10.941406 32.738281 10.765625 32.71875 10.613281 32.496094 C 10.335938 32.089844 10.179688 31.652344 10.101562 31.171875 C 9.90625 29.933594 9.695312 28.699219 9.492188 27.464844 C 9.304688 26.316406 9.109375 25.167969 8.933594 24.019531 C 8.75 22.832031 8.46875 21.667969 8.148438 20.515625 C 7.988281 19.933594 7.878906 19.347656 7.847656 18.742188 C 7.8125 18.089844 7.625 17.46875 7.410156 16.855469 C 7.3125 16.582031 7.238281 16.3125 7.257812 16.019531 C 7.269531 15.824219 7.222656 15.625 7.25 15.433594 C 7.289062 15.121094 7.464844 14.867188 7.695312 14.65625 C 7.746094 14.609375 7.765625 14.570312 7.75 14.496094 C 7.394531 12.757812 7.84375 11.273438 9.179688 10.078125 C 9.59375 9.707031 10.0625 9.421875 10.582031 9.234375 C 10.707031 9.1875 10.714844 9.128906 10.695312 9.023438 C 10.503906 8.035156 10.667969 7.089844 11.066406 6.179688 C 11.503906 5.171875 12.269531 4.464844 13.253906 3.988281 C 13.84375 3.703125 14.4375 3.417969 15.085938 3.269531 C 15.410156 3.195312 15.742188 3.15625 16.078125 3.1875 C 16.121094 3.191406 16.179688 3.152344 16.21875 3.117188 C 16.496094 2.84375 16.75 2.539062 17.054688 2.300781 C 17.769531 1.738281 18.609375 1.566406 19.5 1.621094 C 20.445312 1.679688 21.363281 1.867188 22.238281 2.238281 C 22.527344 2.359375 22.800781 2.523438 23.058594 2.699219 C 23.476562 2.980469 23.726562 3.382812 23.796875 3.898438 C 24.71875 3.777344 25.582031 3.914062 26.335938 4.476562 C 27.09375 5.046875 27.445312 5.828125 27.503906 6.75 C 27.761719 6.808594 28.03125 6.839844 28.277344 6.933594 C 29.710938 7.464844 30.652344 8.457031 31.015625 9.945312 C 31.28125 11.027344 31.105469 12.078125 30.707031 13.101562 C 30.582031 13.429688 30.425781 13.742188 30.277344 14.074219 C 30.476562 14.261719 30.648438 14.496094 30.738281 14.777344 C 30.761719 14.855469 30.765625 14.949219 30.742188 15.023438 C 30.5625 15.601562 30.492188 16.203125 30.425781 16.804688 C 30.339844 17.566406 30.269531 18.328125 30.191406 19.089844 C 30.183594 19.175781 30.175781 19.257812 30.167969 19.355469 M 15.101562 13.664062 C 15.867188 13.707031 16.582031 13.902344 17.207031 14.367188 C 17.238281 14.390625 17.304688 14.394531 17.34375 14.378906 C 17.644531 14.269531 17.933594 14.132812 18.238281 14.035156 C 18.894531 13.820312 19.566406 13.753906 20.242188 13.960938 C 20.582031 14.066406 20.882812 14.242188 21.152344 14.476562 C 21.441406 14.207031 21.757812 13.984375 22.109375 13.820312 C 22.46875 13.652344 22.847656 13.5625 23.25 13.519531 C 23.199219 13.242188 23.285156 13 23.394531 12.753906 C 23.457031 12.617188 23.480469 12.460938 23.480469 12.308594 C 23.484375 12.066406 23.304688 11.917969 23.054688 11.933594 C 22.875 11.945312 22.726562 12.027344 22.601562 12.152344 C 22.484375 12.269531 22.382812 12.410156 22.277344 12.542969 C 22.023438 12.84375 21.703125 12.972656 21.316406 12.894531 C 20.914062 12.8125 20.664062 12.5625 20.5625 12.171875 C 20.472656 11.824219 20.597656 11.53125 20.804688 11.257812 C 21.410156 10.460938 22.175781 9.964844 23.214844 10.007812 C 24.519531 10.058594 25.539062 11.160156 25.425781 12.5625 C 25.390625 13.011719 25.25 13.433594 25.046875 13.816406 C 25.390625 14.027344 25.730469 14.238281 26.078125 14.453125 C 26.097656 14.4375 26.132812 14.410156 26.167969 14.382812 C 26.203125 14.355469 26.238281 14.324219 26.273438 14.296875 C 26.832031 13.902344 27.457031 13.675781 28.132812 13.585938 C 28.253906 13.566406 28.332031 13.527344 28.386719 13.421875 C 28.5625 13.054688 28.773438 12.703125 28.921875 12.324219 C 29.167969 11.699219 29.273438 11.046875 29.121094 10.378906 C 28.9375 9.546875 28.191406 8.824219 27.410156 8.710938 C 27.34375 8.703125 27.257812 8.726562 27.203125 8.765625 C 27.03125 8.886719 26.871094 9.027344 26.703125 9.152344 C 26.351562 9.417969 25.921875 9.445312 25.574219 9.234375 C 25.226562 9.023438 25.042969 8.613281 25.101562 8.195312 C 25.152344 7.847656 25.332031 7.550781 25.488281 7.242188 C 25.523438 7.175781 25.546875 7.09375 25.554688 7.015625 C 25.605469 6.445312 25.339844 6.015625 24.84375 5.859375 C 24.414062 5.722656 23.988281 5.777344 23.589844 5.949219 C 22.96875 6.210938 22.488281 5.90625 21.996094 5.613281 C 21.964844 5.59375 21.941406 5.558594 21.917969 5.523438 C 21.679688 5.21875 21.632812 4.882812 21.78125 4.527344 C 21.910156 4.21875 21.917969 4.203125 21.605469 4.070312 C 20.78125 3.714844 19.917969 3.527344 19.015625 3.554688 C 18.703125 3.566406 18.410156 3.664062 18.175781 3.875 C 17.988281 4.046875 17.828125 4.238281 17.65625 4.421875 C 17.570312 4.511719 17.542969 4.609375 17.570312 4.738281 C 17.675781 5.242188 17.410156 5.730469 16.945312 5.90625 C 16.472656 6.085938 15.949219 5.902344 15.683594 5.457031 C 15.625 5.363281 15.585938 5.257812 15.539062 5.152344 C 15.496094 5.160156 15.449219 5.167969 15.410156 5.183594 C 14.886719 5.410156 14.347656 5.605469 13.847656 5.875 C 13.183594 6.230469 12.816406 6.820312 12.644531 7.550781 C 12.511719 8.113281 12.59375 8.660156 12.6875 9.210938 C 12.730469 9.445312 12.804688 9.648438 12.9375 9.851562 C 13.335938 10.457031 12.917969 11.273438 12.191406 11.351562 C 11.835938 11.394531 11.535156 11.28125 11.289062 11.03125 C 9.976562 11.5625 9.398438 12.75 9.617188 13.929688 C 10.382812 14.023438 11.0625 14.316406 11.632812 14.789062 C 11.894531 14.613281 12.132812 14.425781 12.394531 14.277344 C 13.226562 13.8125 14.125 13.632812 15.101562 13.664062 M 17.839844 28.136719 C 17.84375 27.371094 17.804688 26.605469 17.730469 25.84375 C 17.628906 24.8125 17.566406 23.777344 17.507812 22.746094 C 17.4375 21.558594 17.375 20.375 17.175781 19.203125 C 17.007812 18.207031 16.734375 17.242188 16.316406 16.316406 C 16.15625 15.972656 15.90625 15.773438 15.550781 15.679688 C 14.9375 15.523438 14.332031 15.578125 13.742188 15.785156 C 13.382812 15.910156 13.050781 16.078125 12.84375 16.414062 C 12.816406 16.453125 12.808594 16.519531 12.816406 16.566406 C 12.871094 16.816406 12.9375 17.0625 13 17.308594 C 13.386719 18.929688 13.742188 20.554688 13.988281 22.199219 C 14.207031 23.660156 14.34375 25.125 14.339844 26.601562 C 14.335938 27.8125 14.378906 29.019531 14.710938 30.199219 C 14.785156 30.464844 14.835938 30.738281 14.898438 30.992188 C 15.960938 31.035156 17.003906 31.074219 18.058594 31.117188 C 18.046875 31.070312 18.035156 31.03125 18.027344 30.992188 C 17.957031 30.605469 17.855469 30.21875 17.832031 29.828125 C 17.800781 29.273438 17.835938 28.71875 17.839844 28.136719 M 25.953125 22.417969 C 25.953125 22.097656 25.960938 21.773438 25.949219 21.453125 C 25.933594 21.0625 25.929688 20.667969 25.859375 20.289062 C 25.671875 19.289062 25.59375 18.28125 25.574219 17.269531 C 25.574219 17.207031 25.570312 17.144531 25.554688 17.082031 C 25.304688 16.242188 24.730469 15.722656 23.894531 15.496094 C 23.320312 15.339844 22.839844 15.53125 22.417969 15.941406 C 22.222656 16.136719 22.132812 16.316406 22.261719 16.574219 C 22.285156 16.617188 22.289062 16.667969 22.296875 16.71875 C 22.441406 17.640625 22.601562 18.5625 22.722656 19.488281 C 22.878906 20.652344 23.019531 21.816406 23.136719 22.984375 C 23.277344 24.414062 23.414062 25.847656 23.503906 27.28125 C 23.585938 28.570312 23.605469 29.859375 23.652344 31.148438 C 23.652344 31.183594 23.65625 31.214844 23.664062 31.261719 C 24.289062 31.207031 24.902344 31.152344 25.519531 31.097656 C 25.53125 28.199219 25.679688 25.316406 25.953125 22.417969 Z M 25.953125 22.417969 "/>
<path style=" stroke:none;fill-rule:nonzero;fill:rgb(0.392157%,0.392157%,0.392157%);fill-opacity:1;" d="M 2.140625 7.457031 C 2.121094 7.222656 2.097656 7 2.074219 6.78125 C 1.980469 6 1.960938 5.222656 2.226562 4.46875 C 2.589844 3.441406 3.324219 2.859375 4.402344 2.691406 C 5.566406 2.507812 6.472656 3.164062 6.949219 4.066406 C 7.007812 4.179688 7.074219 4.230469 7.207031 4.257812 C 7.828125 4.382812 8.371094 4.667969 8.785156 5.148438 C 9.324219 5.769531 9.363281 6.476562 9.117188 7.21875 C 8.941406 7.742188 8.601562 8.160156 8.191406 8.519531 C 8.105469 8.59375 8.082031 8.664062 8.085938 8.773438 C 8.109375 9.203125 8 9.605469 7.804688 9.984375 C 7.308594 10.941406 6.582031 11.652344 5.542969 11.988281 C 3.957031 12.507812 2.515625 11.6875 2.144531 10.058594 C 1.945312 9.199219 1.90625 8.332031 2.140625 7.457031 M 4.660156 4.605469 C 4.246094 4.660156 4.078125 4.9375 4.007812 5.304688 C 3.921875 5.765625 3.953125 6.226562 4.023438 6.679688 C 4.085938 7.066406 4.144531 7.457031 4.050781 7.839844 C 3.945312 8.253906 3.902344 8.667969 3.953125 9.089844 C 3.988281 9.367188 4.007812 9.640625 4.136719 9.894531 C 4.265625 10.148438 4.445312 10.238281 4.722656 10.203125 C 4.992188 10.167969 5.226562 10.050781 5.4375 9.882812 C 5.535156 9.808594 5.621094 9.722656 5.71875 9.632812 C 5.664062 9.601562 5.632812 9.585938 5.601562 9.566406 C 5.132812 9.265625 4.988281 8.652344 5.3125 8.203125 C 5.597656 7.8125 5.960938 7.507812 6.453125 7.386719 C 6.507812 7.375 6.566406 7.351562 6.609375 7.316406 C 6.761719 7.191406 6.917969 7.070312 7.050781 6.925781 C 7.148438 6.816406 7.21875 6.683594 7.285156 6.554688 C 7.363281 6.40625 7.25 6.34375 7.144531 6.273438 C 7.042969 6.203125 6.964844 6.199219 6.886719 6.304688 C 6.847656 6.359375 6.789062 6.398438 6.734375 6.4375 C 6.105469 6.898438 5.273438 6.644531 5.082031 5.929688 C 5.003906 5.636719 5.078125 5.363281 5.195312 5.097656 C 5.214844 5.054688 5.234375 5 5.222656 4.957031 C 5.160156 4.742188 4.917969 4.585938 4.660156 4.605469 Z M 4.660156 4.605469 "/>
<path style=" stroke:none;fill-rule:nonzero;fill:rgb(99.607843%,99.607843%,99.607843%);fill-opacity:1;" d="M 15.085938 13.664062 C 14.125 13.632812 13.226562 13.8125 12.394531 14.277344 C 12.132812 14.425781 11.894531 14.613281 11.632812 14.789062 C 11.0625 14.316406 10.382812 14.023438 9.617188 13.929688 C 9.398438 12.75 9.976562 11.5625 11.289062 11.03125 C 11.535156 11.28125 11.835938 11.394531 12.191406 11.351562 C 12.917969 11.273438 13.335938 10.457031 12.9375 9.851562 C 12.804688 9.648438 12.730469 9.445312 12.6875 9.210938 C 12.59375 8.660156 12.511719 8.113281 12.644531 7.550781 C 12.816406 6.820312 13.183594 6.230469 13.847656 5.875 C 14.347656 5.605469 14.886719 5.410156 15.410156 5.183594 C 15.449219 5.167969 15.496094 5.160156 15.539062 5.152344 C 15.585938 5.257812 15.625 5.363281 15.683594 5.457031 C 15.949219 5.902344 16.472656 6.085938 16.945312 5.90625 C 17.410156 5.730469 17.675781 5.242188 17.570312 4.738281 C 17.542969 4.609375 17.570312 4.511719 17.65625 4.421875 C 17.828125 4.238281 17.988281 4.046875 18.175781 3.875 C 18.410156 3.664062 18.703125 3.566406 19.015625 3.554688 C 19.917969 3.527344 20.78125 3.714844 21.605469 4.070312 C 21.917969 4.203125 21.910156 4.21875 21.78125 4.527344 C 21.632812 4.882812 21.679688 5.21875 21.917969 5.523438 C 21.941406 5.558594 21.964844 5.59375 21.996094 5.613281 C 22.488281 5.90625 22.96875 6.210938 23.589844 5.949219 C 23.988281 5.777344 24.414062 5.722656 24.84375 5.859375 C 25.339844 6.015625 25.605469 6.445312 25.554688 7.015625 C 25.546875 7.09375 25.523438 7.175781 25.488281 7.242188 C 25.332031 7.550781 25.152344 7.847656 25.101562 8.195312 C 25.042969 8.613281 25.226562 9.023438 25.574219 9.234375 C 25.921875 9.445312 26.351562 9.417969 26.703125 9.152344 C 26.871094 9.027344 27.03125 8.886719 27.203125 8.765625 C 27.257812 8.726562 27.34375 8.703125 27.410156 8.710938 C 28.191406 8.824219 28.9375 9.546875 29.121094 10.378906 C 29.273438 11.046875 29.167969 11.699219 28.921875 12.324219 C 28.773438 12.703125 28.5625 13.054688 28.386719 13.421875 C 28.332031 13.527344 28.253906 13.566406 28.132812 13.585938 C 27.457031 13.675781 26.832031 13.902344 26.273438 14.296875 C 26.238281 14.324219 26.203125 14.355469 26.167969 14.382812 C 26.132812 14.410156 26.097656 14.4375 26.078125 14.453125 C 25.730469 14.238281 25.390625 14.027344 25.046875 13.816406 C 25.25 13.433594 25.390625 13.011719 25.425781 12.5625 C 25.539062 11.160156 24.519531 10.058594 23.214844 10.007812 C 22.175781 9.964844 21.410156 10.460938 20.804688 11.257812 C 20.597656 11.53125 20.472656 11.824219 20.5625 12.171875 C 20.664062 12.5625 20.914062 12.8125 21.316406 12.894531 C 21.703125 12.972656 22.023438 12.84375 22.277344 12.542969 C 22.382812 12.410156 22.484375 12.269531 22.601562 12.152344 C 22.726562 12.027344 22.875 11.945312 23.054688 11.933594 C 23.304688 11.917969 23.484375 12.066406 23.480469 12.308594 C 23.480469 12.460938 23.457031 12.617188 23.394531 12.753906 C 23.285156 13 23.199219 13.242188 23.25 13.519531 C 22.847656 13.5625 22.46875 13.652344 22.109375 13.820312 C 21.757812 13.984375 21.441406 14.207031 21.152344 14.476562 C 20.882812 14.242188 20.582031 14.066406 20.242188 13.960938 C 19.566406 13.753906 18.894531 13.820312 18.238281 14.035156 C 17.933594 14.132812 17.644531 14.269531 17.34375 14.378906 C 17.304688 14.394531 17.238281 14.390625 17.207031 14.367188 C 16.582031 13.902344 15.867188 13.707031 15.085938 13.664062 M 14.25 11.199219 C 14.433594 11.667969 14.851562 11.945312 15.292969 11.875 C 15.914062 11.78125 16.265625 11.257812 16.117188 10.652344 C 16.089844 10.539062 16.109375 10.453125 16.214844 10.378906 C 16.335938 10.480469 16.449219 10.589844 16.570312 10.6875 C 16.746094 10.828125 16.914062 10.984375 17.109375 11.085938 C 17.582031 11.332031 18.152344 11.152344 18.421875 10.695312 C 18.683594 10.257812 18.558594 9.699219 18.144531 9.40625 C 17.925781 9.25 17.710938 9.089844 17.5 8.929688 C 17.089844 8.613281 16.652344 8.394531 16.109375 8.441406 C 14.769531 8.546875 13.84375 9.902344 14.25 11.199219 Z M 14.25 11.199219 "/>
<path style=" stroke:none;fill-rule:nonzero;fill:rgb(99.607843%,99.607843%,99.607843%);fill-opacity:1;" d="M 17.839844 28.148438 C 17.835938 28.71875 17.800781 29.273438 17.832031 29.828125 C 17.855469 30.21875 17.957031 30.605469 18.027344 30.992188 C 18.035156 31.03125 18.046875 31.070312 18.058594 31.117188 C 17.003906 31.074219 15.960938 31.035156 14.898438 30.992188 C 14.835938 30.738281 14.785156 30.464844 14.710938 30.199219 C 14.378906 29.019531 14.335938 27.8125 14.339844 26.601562 C 14.34375 25.125 14.207031 23.660156 13.988281 22.199219 C 13.742188 20.554688 13.386719 18.929688 13 17.308594 C 12.9375 17.0625 12.871094 16.816406 12.816406 16.566406 C 12.808594 16.519531 12.816406 16.453125 12.84375 16.414062 C 13.050781 16.078125 13.382812 15.910156 13.742188 15.785156 C 14.332031 15.578125 14.9375 15.523438 15.550781 15.679688 C 15.90625 15.773438 16.15625 15.972656 16.316406 16.316406 C 16.734375 17.242188 17.007812 18.207031 17.175781 19.203125 C 17.375 20.375 17.4375 21.558594 17.507812 22.746094 C 17.566406 23.777344 17.628906 24.8125 17.730469 25.84375 C 17.804688 26.605469 17.84375 27.371094 17.839844 28.148438 Z M 17.839844 28.148438 "/>
<path style=" stroke:none;fill-rule:nonzero;fill:rgb(99.607843%,99.607843%,99.607843%);fill-opacity:1;" d="M 25.953125 22.429688 C 25.679688 25.316406 25.53125 28.199219 25.519531 31.097656 C 24.902344 31.152344 24.289062 31.207031 23.664062 31.261719 C 23.65625 31.214844 23.652344 31.183594 23.652344 31.148438 C 23.605469 29.859375 23.585938 28.570312 23.503906 27.28125 C 23.414062 25.847656 23.277344 24.414062 23.136719 22.984375 C 23.019531 21.816406 22.878906 20.652344 22.722656 19.488281 C 22.601562 18.5625 22.441406 17.640625 22.296875 16.71875 C 22.289062 16.667969 22.285156 16.617188 22.261719 16.574219 C 22.132812 16.316406 22.222656 16.136719 22.417969 15.941406 C 22.839844 15.53125 23.320312 15.339844 23.894531 15.496094 C 24.730469 15.722656 25.304688 16.242188 25.554688 17.082031 C 25.570312 17.144531 25.574219 17.207031 25.574219 17.269531 C 25.59375 18.28125 25.671875 19.289062 25.859375 20.289062 C 25.929688 20.667969 25.933594 21.0625 25.949219 21.453125 C 25.960938 21.773438 25.953125 22.097656 25.953125 22.429688 Z M 25.953125 22.429688 "/>
<path style=" stroke:none;fill-rule:nonzero;fill:rgb(99.215686%,99.215686%,99.215686%);fill-opacity:1;" d="M 4.671875 4.601562 C 4.917969 4.585938 5.160156 4.742188 5.222656 4.957031 C 5.234375 5 5.214844 5.054688 5.195312 5.097656 C 5.078125 5.363281 5.003906 5.636719 5.082031 5.929688 C 5.273438 6.644531 6.105469 6.898438 6.734375 6.4375 C 6.789062 6.398438 6.847656 6.359375 6.886719 6.304688 C 6.964844 6.199219 7.042969 6.203125 7.144531 6.273438 C 7.25 6.34375 7.363281 6.40625 7.285156 6.554688 C 7.21875 6.683594 7.148438 6.816406 7.050781 6.925781 C 6.917969 7.070312 6.761719 7.191406 6.609375 7.316406 C 6.566406 7.351562 6.507812 7.375 6.453125 7.386719 C 5.960938 7.507812 5.597656 7.8125 5.3125 8.203125 C 4.988281 8.652344 5.132812 9.265625 5.601562 9.566406 C 5.632812 9.585938 5.664062 9.601562 5.71875 9.632812 C 5.621094 9.722656 5.535156 9.808594 5.4375 9.882812 C 5.226562 10.050781 4.992188 10.167969 4.722656 10.203125 C 4.445312 10.238281 4.265625 10.148438 4.136719 9.894531 C 4.007812 9.640625 3.988281 9.367188 3.953125 9.089844 C 3.902344 8.667969 3.945312 8.253906 4.050781 7.839844 C 4.144531 7.457031 4.085938 7.066406 4.023438 6.679688 C 3.953125 6.226562 3.921875 5.765625 4.007812 5.304688 C 4.078125 4.9375 4.246094 4.660156 4.671875 4.601562 Z M 4.671875 4.601562 "/>
<path style=" stroke:none;fill-rule:nonzero;fill:rgb(0.784314%,0.784314%,0.784314%);fill-opacity:1;" d="M 14.25 11.1875 C 13.84375 9.902344 14.769531 8.546875 16.109375 8.441406 C 16.652344 8.394531 17.089844 8.613281 17.5 8.929688 C 17.710938 9.089844 17.925781 9.25 18.144531 9.40625 C 18.558594 9.699219 18.683594 10.257812 18.421875 10.695312 C 18.152344 11.152344 17.582031 11.332031 17.109375 11.085938 C 16.914062 10.984375 16.746094 10.828125 16.570312 10.6875 C 16.449219 10.589844 16.335938 10.480469 16.214844 10.378906 C 16.109375 10.453125 16.089844 10.539062 16.117188 10.652344 C 16.265625 11.257812 15.914062 11.78125 15.292969 11.875 C 14.851562 11.945312 14.433594 11.667969 14.25 11.1875 Z M 14.25 11.1875 "/>
</g>
</svg>
