<?xml version="1.0" encoding="UTF-8"?>
<svg xmlns="http://www.w3.org/2000/svg" xmlns:xlink="http://www.w3.org/1999/xlink" width="34px" height="34px" viewBox="0 0 34 34" version="1.1">
<g id="surface1">
<path style=" stroke:none;fill-rule:nonzero;fill:rgb(99.607843%,99.607843%,99.607843%);fill-opacity:1;" d="M 0.03125 12.5625 C 0.03125 8.375 0.03125 4.203125 0.03125 0.03125 C 11.363281 0.03125 22.695312 0.03125 34.027344 0.03125 C 34.027344 11.359375 34.027344 22.691406 34.027344 34.027344 C 22.699219 34.027344 11.363281 34.027344 0.03125 34.027344 C 0.03125 26.878906 0.03125 19.726562 0.03125 12.5625 M 32.300781 29.003906 C 32.285156 28.601562 32.277344 28.195312 32.253906 27.792969 C 32.207031 27.019531 32.121094 26.242188 32.097656 25.46875 C 32.050781 23.824219 32.027344 22.183594 32 20.539062 C 31.972656 18.722656 31.972656 16.90625 31.597656 15.117188 C 31.558594 14.933594 31.53125 14.75 31.507812 14.601562 C 31.804688 14.578125 32.089844 14.59375 32.359375 14.535156 C 33.046875 14.378906 33.378906 13.875 33.535156 13.230469 C 33.675781 12.640625 33.652344 12.039062 33.617188 11.445312 C 33.589844 10.976562 33.628906 10.515625 33.679688 10.050781 C 33.738281 9.496094 33.757812 8.9375 33.597656 8.390625 C 33.375 7.648438 32.933594 7.121094 32.128906 7.003906 C 31.398438 6.894531 30.664062 6.8125 29.929688 6.726562 C 29.691406 6.699219 29.453125 6.6875 29.207031 6.671875 C 29.214844 6.625 29.21875 6.597656 29.226562 6.566406 C 29.496094 5.621094 29.285156 4.800781 28.59375 4.101562 C 28.207031 3.714844 27.734375 3.464844 27.226562 3.269531 C 27.136719 3.234375 27.121094 3.195312 27.121094 3.105469 C 27.132812 2.828125 27.148438 2.550781 27.121094 2.277344 C 27.046875 1.578125 26.757812 0.980469 26.175781 0.558594 C 25.558594 0.109375 24.855469 0.0351562 24.121094 0.105469 C 23.480469 0.167969 22.886719 0.386719 22.300781 0.640625 C 21.09375 1.164062 19.980469 1.832031 18.984375 2.695312 C 18.777344 2.871094 18.589844 3.066406 18.394531 3.25 C 17.363281 2.671875 16.359375 2.683594 15.386719 3.34375 C 15.160156 3.160156 14.953125 2.957031 14.714844 2.800781 C 12.902344 1.617188 10.921875 0.925781 8.753906 0.816406 C 8.179688 0.785156 7.617188 0.863281 7.078125 1.078125 C 6.113281 1.460938 5.5625 2.269531 5.617188 3.25 C 5.652344 3.890625 5.894531 4.460938 6.265625 4.980469 C 6.300781 5.027344 6.332031 5.074219 6.367188 5.121094 C 5.648438 5.835938 5.066406 6.601562 5.152344 7.679688 C 4.78125 7.71875 4.414062 7.75 4.046875 7.804688 C 3.273438 7.914062 2.511719 8.097656 1.839844 8.511719 C 1.535156 8.703125 1.242188 8.933594 0.996094 9.191406 C 0.695312 9.507812 0.671875 9.9375 0.695312 10.351562 C 0.738281 11.042969 0.789062 11.738281 0.875 12.425781 C 0.941406 12.964844 1.0625 13.492188 1.292969 13.988281 C 1.527344 14.488281 1.875 14.851562 2.433594 14.976562 C 2.574219 15.007812 2.722656 15.03125 2.84375 15.054688 C 2.957031 15.46875 3.105469 15.855469 3.164062 16.253906 C 3.269531 16.96875 3.359375 17.6875 3.382812 18.402344 C 3.4375 20.046875 3.445312 21.6875 3.480469 23.332031 C 3.519531 25.195312 3.472656 27.054688 3.386719 28.917969 C 3.363281 29.441406 3.382812 29.960938 3.542969 30.46875 C 3.742188 31.089844 4.121094 31.554688 4.796875 31.652344 C 5.230469 31.714844 5.675781 31.691406 6.117188 31.675781 C 6.570312 31.664062 7.027344 31.570312 7.480469 31.589844 C 9.085938 31.664062 10.671875 31.933594 12.265625 32.128906 C 13.351562 32.265625 14.4375 32.402344 15.527344 32.484375 C 17.292969 32.613281 19.058594 32.503906 20.820312 32.390625 C 21.765625 32.328125 22.707031 32.257812 23.652344 32.222656 C 24.953125 32.175781 26.257812 32.167969 27.5625 32.121094 C 28.480469 32.089844 29.398438 32.023438 30.300781 31.851562 C 31.273438 31.664062 31.894531 31.101562 32.136719 30.15625 C 32.230469 29.789062 32.246094 29.410156 32.300781 29.003906 Z M 32.300781 29.003906 "/>
<path style=" stroke:none;fill-rule:nonzero;fill:rgb(0.392157%,0.392157%,0.392157%);fill-opacity:1;" d="M 32.300781 29.019531 C 32.246094 29.410156 32.230469 29.789062 32.136719 30.15625 C 31.894531 31.101562 31.273438 31.664062 30.300781 31.851562 C 29.398438 32.023438 28.480469 32.089844 27.5625 32.121094 C 26.257812 32.167969 24.953125 32.175781 23.652344 32.222656 C 22.707031 32.257812 21.765625 32.328125 20.820312 32.390625 C 19.058594 32.503906 17.292969 32.613281 15.527344 32.484375 C 14.4375 32.402344 13.351562 32.265625 12.265625 32.128906 C 10.671875 31.933594 9.085938 31.664062 7.480469 31.589844 C 7.027344 31.570312 6.570312 31.664062 6.117188 31.675781 C 5.675781 31.691406 5.230469 31.714844 4.796875 31.652344 C 4.121094 31.554688 3.742188 31.089844 3.542969 30.46875 C 3.382812 29.960938 3.363281 29.441406 3.386719 28.917969 C 3.472656 27.054688 3.519531 25.195312 3.480469 23.332031 C 3.445312 21.6875 3.4375 20.046875 3.382812 18.402344 C 3.359375 17.6875 3.269531 16.96875 3.164062 16.253906 C 3.105469 15.855469 2.957031 15.46875 2.84375 15.054688 C 2.722656 15.03125 2.574219 15.007812 2.433594 14.976562 C 1.875 14.851562 1.527344 14.488281 1.292969 13.988281 C 1.0625 13.492188 0.941406 12.964844 0.875 12.425781 C 0.789062 11.738281 0.738281 11.042969 0.695312 10.351562 C 0.671875 9.9375 0.695312 9.507812 0.996094 9.191406 C 1.242188 8.933594 1.535156 8.703125 1.839844 8.511719 C 2.511719 8.097656 3.273438 7.914062 4.046875 7.804688 C 4.414062 7.75 4.78125 7.71875 5.152344 7.679688 C 5.066406 6.601562 5.648438 5.835938 6.367188 5.121094 C 6.332031 5.074219 6.300781 5.027344 6.265625 4.980469 C 5.894531 4.460938 5.652344 3.890625 5.617188 3.25 C 5.5625 2.269531 6.113281 1.460938 7.078125 1.078125 C 7.617188 0.863281 8.179688 0.785156 8.753906 0.816406 C 10.921875 0.925781 12.902344 1.617188 14.714844 2.800781 C 14.953125 2.957031 15.160156 3.160156 15.386719 3.34375 C 16.359375 2.683594 17.363281 2.671875 18.394531 3.25 C 18.589844 3.066406 18.777344 2.871094 18.984375 2.695312 C 19.980469 1.832031 21.09375 1.164062 22.300781 0.640625 C 22.886719 0.386719 23.480469 0.167969 24.121094 0.105469 C 24.855469 0.0351562 25.558594 0.109375 26.175781 0.558594 C 26.757812 0.980469 27.046875 1.578125 27.121094 2.277344 C 27.148438 2.550781 27.132812 2.828125 27.121094 3.105469 C 27.121094 3.195312 27.136719 3.234375 27.226562 3.269531 C 27.734375 3.464844 28.207031 3.714844 28.59375 4.101562 C 29.285156 4.800781 29.496094 5.621094 29.226562 6.566406 C 29.21875 6.597656 29.214844 6.625 29.207031 6.671875 C 29.453125 6.6875 29.691406 6.699219 29.929688 6.726562 C 30.664062 6.8125 31.398438 6.894531 32.128906 7.003906 C 32.933594 7.121094 33.375 7.648438 33.597656 8.390625 C 33.757812 8.9375 33.738281 9.496094 33.679688 10.050781 C 33.628906 10.515625 33.589844 10.976562 33.617188 11.445312 C 33.652344 12.039062 33.675781 12.640625 33.535156 13.230469 C 33.378906 13.875 33.046875 14.378906 32.359375 14.535156 C 32.089844 14.59375 31.804688 14.578125 31.507812 14.601562 C 31.53125 14.75 31.558594 14.933594 31.597656 15.117188 C 31.972656 16.90625 31.972656 18.722656 32 20.539062 C 32.027344 22.183594 32.050781 23.824219 32.097656 25.46875 C 32.121094 26.242188 32.207031 27.019531 32.253906 27.792969 C 32.277344 28.195312 32.285156 28.601562 32.300781 29.019531 M 12.796875 8.863281 C 12.742188 8.882812 12.683594 8.90625 12.628906 8.929688 C 11.902344 9.246094 11.164062 9.535156 10.398438 9.738281 C 10.191406 9.792969 9.980469 9.84375 9.757812 9.902344 C 9.992188 10.121094 10.242188 10.273438 10.519531 10.386719 C 10.660156 10.441406 10.792969 10.445312 10.917969 10.371094 C 11.214844 10.195312 11.53125 10.039062 11.796875 9.824219 C 12.15625 9.535156 12.476562 9.199219 12.8125 8.867188 C 12.804688 8.867188 12.796875 8.867188 12.789062 8.867188 C 12.796875 8.871094 12.804688 8.878906 12.796875 8.863281 M 12.421875 12.136719 C 12.113281 12.28125 11.804688 12.421875 11.472656 12.566406 C 11.140625 12.691406 10.789062 12.742188 10.445312 12.671875 C 8.941406 12.367188 7.839844 11.566406 7.277344 10.050781 C 6.421875 10.089844 5.535156 10.113281 4.652344 10.171875 C 4.175781 10.207031 3.710938 10.3125 3.265625 10.5 C 3.164062 10.542969 3.125 10.597656 3.140625 10.707031 C 3.21875 11.320312 3.296875 11.929688 3.371094 12.546875 C 3.386719 12.671875 3.457031 12.703125 3.5625 12.710938 C 4.203125 12.761719 4.84375 12.855469 5.480469 12.855469 C 6.816406 12.855469 8.152344 12.808594 9.484375 12.773438 C 10.15625 12.757812 10.828125 12.726562 11.527344 12.707031 C 11.589844 12.707031 11.652344 12.703125 11.738281 12.707031 C 11.800781 12.707031 11.867188 12.703125 11.957031 12.710938 C 12.007812 12.707031 12.0625 12.707031 12.132812 12.710938 C 12.148438 12.710938 12.160156 12.707031 12.203125 12.710938 C 12.585938 12.71875 12.964844 12.726562 13.371094 12.742188 C 13.402344 12.742188 13.4375 12.742188 13.5 12.746094 C 13.765625 12.753906 14.03125 12.761719 14.320312 12.777344 C 14.367188 12.777344 14.410156 12.773438 14.484375 12.78125 C 14.597656 12.78125 14.710938 12.785156 14.84375 12.796875 C 14.902344 12.796875 14.957031 12.796875 15.03125 12.804688 C 15.046875 12.800781 15.058594 12.800781 15.09375 12.804688 C 15.105469 12.804688 15.121094 12.800781 15.164062 12.804688 C 16.425781 12.851562 17.691406 12.816406 18.949219 12.707031 C 20.121094 12.609375 21.289062 12.472656 22.460938 12.390625 C 23.929688 12.285156 25.402344 12.21875 26.871094 12.128906 C 27.773438 12.078125 28.675781 12.011719 29.578125 11.960938 C 30.015625 11.933594 30.457031 11.84375 30.894531 11.949219 C 30.992188 11.972656 31.089844 11.988281 31.21875 12.015625 C 31.101562 11.097656 31.195312 10.207031 31.300781 9.308594 C 29.648438 9.113281 28.023438 8.984375 26.355469 9.0625 C 26.410156 9.132812 26.4375 9.167969 26.464844 9.203125 C 26.722656 9.570312 26.796875 9.964844 26.644531 10.394531 C 26.488281 10.824219 26.210938 11.160156 25.832031 11.402344 C 24.933594 11.976562 23.953125 12.0625 22.929688 11.871094 C 21.726562 11.644531 20.703125 11.066406 19.785156 10.28125 C 19.167969 9.753906 18.621094 9.15625 18.105469 8.535156 C 18.058594 8.476562 18.023438 8.433594 17.929688 8.464844 C 17.351562 8.679688 16.753906 8.726562 16.140625 8.6875 C 16.097656 8.683594 16.039062 8.699219 16.007812 8.730469 C 15.636719 9.132812 15.269531 9.539062 14.882812 9.953125 C 14.851562 9.992188 14.820312 10.03125 14.773438 10.074219 C 14.765625 10.078125 14.761719 10.085938 14.746094 10.101562 C 14.726562 10.125 14.710938 10.148438 14.675781 10.183594 C 14.589844 10.277344 14.507812 10.371094 14.402344 10.472656 C 14.378906 10.503906 14.355469 10.535156 14.316406 10.570312 C 14.304688 10.574219 14.300781 10.582031 14.285156 10.601562 C 14.25 10.636719 14.21875 10.671875 14.171875 10.71875 C 14.113281 10.78125 14.054688 10.84375 13.976562 10.910156 C 13.953125 10.9375 13.929688 10.960938 13.890625 10.996094 C 13.855469 11.035156 13.816406 11.070312 13.761719 11.113281 C 13.714844 11.164062 13.664062 11.214844 13.59375 11.273438 C 13.488281 11.367188 13.378906 11.460938 13.253906 11.558594 C 13.226562 11.585938 13.195312 11.613281 13.144531 11.648438 C 13.125 11.667969 13.105469 11.6875 13.074219 11.714844 C 13.066406 11.722656 13.054688 11.734375 13.023438 11.746094 C 12.945312 11.804688 12.867188 11.859375 12.769531 11.917969 C 12.730469 11.949219 12.695312 11.976562 12.636719 12.007812 C 12.597656 12.035156 12.558594 12.0625 12.503906 12.09375 C 12.484375 12.105469 12.464844 12.121094 12.421875 12.136719 M 19.144531 30.058594 C 19.496094 30.035156 19.851562 30.015625 20.207031 29.996094 C 21.539062 29.921875 22.871094 29.832031 24.203125 29.773438 C 25.628906 29.710938 27.058594 29.691406 28.484375 29.632812 C 28.921875 29.617188 29.359375 29.542969 29.796875 29.496094 C 29.8125 29.402344 29.835938 29.335938 29.835938 29.273438 C 29.835938 28.832031 29.847656 28.394531 29.820312 27.957031 C 29.777344 27.164062 29.683594 26.375 29.664062 25.582031 C 29.605469 23.449219 29.578125 21.316406 29.53125 19.179688 C 29.515625 18.480469 29.492188 17.78125 29.429688 17.082031 C 29.390625 16.585938 29.285156 16.09375 29.203125 15.597656 C 29.140625 15.210938 29.066406 14.828125 29 14.445312 C 28.9375 14.445312 28.890625 14.441406 28.84375 14.445312 C 27.773438 14.503906 26.703125 14.5625 25.628906 14.621094 C 24.855469 14.664062 24.082031 14.691406 23.308594 14.753906 C 21.8125 14.875 20.320312 15.019531 18.828125 15.148438 C 17.414062 15.269531 15.996094 15.273438 14.578125 15.214844 C 13.023438 15.148438 11.46875 15.113281 9.914062 15.175781 C 8.449219 15.238281 6.988281 15.257812 5.523438 15.292969 C 5.5 15.296875 5.476562 15.300781 5.441406 15.304688 C 5.46875 15.398438 5.496094 15.484375 5.515625 15.574219 C 5.726562 16.464844 5.800781 17.371094 5.820312 18.28125 C 5.867188 20.148438 5.914062 22.019531 5.917969 23.886719 C 5.921875 25.453125 5.863281 27.015625 5.832031 28.582031 C 5.828125 28.808594 5.832031 29.039062 5.832031 29.269531 C 6.132812 29.238281 6.421875 29.207031 6.714844 29.175781 C 7.339844 29.109375 7.964844 29.164062 8.585938 29.238281 C 9.96875 29.398438 11.347656 29.582031 12.726562 29.746094 C 13.699219 29.863281 14.671875 30.007812 15.648438 30.050781 C 16.804688 30.101562 17.960938 30.0625 19.144531 30.058594 M 26.316406 5.335938 C 26.054688 5.265625 25.796875 5.183594 25.53125 5.128906 C 24.867188 4.996094 24.449219 4.4375 24.558594 3.773438 C 24.605469 3.496094 24.730469 3.230469 24.804688 2.957031 C 24.84375 2.828125 24.871094 2.691406 24.875 2.558594 C 24.878906 2.375 24.835938 2.324219 24.644531 2.339844 C 24.386719 2.359375 24.113281 2.371094 23.871094 2.453125 C 22.984375 2.757812 22.144531 3.171875 21.367188 3.707031 C 20.8125 4.085938 20.28125 4.496094 19.859375 5.027344 C 19.828125 5.066406 19.796875 5.117188 19.800781 5.160156 C 19.824219 5.332031 19.863281 5.503906 19.894531 5.691406 C 19.929688 5.664062 19.949219 5.644531 19.972656 5.625 C 20.421875 5.25 21.066406 5.265625 21.484375 5.675781 C 21.640625 5.832031 21.816406 5.929688 22.019531 5.992188 C 23.324219 6.398438 24.660156 6.511719 26.015625 6.320312 C 26.347656 6.273438 26.671875 6.191406 26.957031 6.003906 C 27.117188 5.898438 27.132812 5.789062 26.972656 5.683594 C 26.773438 5.550781 26.550781 5.453125 26.316406 5.335938 M 9.328125 3.835938 C 9.507812 3.878906 9.695312 3.898438 9.863281 3.96875 C 10.5625 4.257812 10.769531 5.160156 10.28125 5.738281 C 9.984375 6.085938 9.585938 6.183594 9.160156 6.160156 C 8.863281 6.148438 8.609375 6.226562 8.390625 6.402344 C 8.117188 6.628906 7.847656 6.859375 7.609375 7.113281 C 7.371094 7.363281 7.410156 7.492188 7.722656 7.648438 C 7.773438 7.675781 7.824219 7.703125 7.878906 7.710938 C 8.082031 7.738281 8.285156 7.777344 8.488281 7.773438 C 9.21875 7.769531 9.921875 7.578125 10.59375 7.3125 C 11.519531 6.941406 12.433594 6.527344 13.285156 6.160156 C 13.398438 5.675781 13.5 5.25 13.609375 4.789062 C 13.519531 4.722656 13.394531 4.617188 13.253906 4.535156 C 11.953125 3.738281 10.542969 3.238281 9.019531 3.085938 C 8.6875 3.050781 8.347656 3.113281 8.011719 3.140625 C 7.96875 3.144531 7.898438 3.210938 7.898438 3.246094 C 7.929688 3.652344 8.296875 3.921875 8.703125 3.863281 C 8.898438 3.832031 9.101562 3.839844 9.328125 3.835938 M 21.960938 9.09375 C 22.496094 9.433594 23.074219 9.65625 23.742188 9.707031 C 23.460938 9.390625 23.238281 9.066406 23.105469 8.691406 C 23.0625 8.566406 23 8.523438 22.875 8.503906 C 22.085938 8.378906 21.316406 8.199219 20.601562 7.832031 C 20.566406 7.8125 20.523438 7.804688 20.441406 7.78125 C 20.914062 8.289062 21.390625 8.730469 21.960938 9.09375 M 16.046875 5.59375 C 15.960938 5.636719 15.878906 5.683594 15.792969 5.730469 C 15.644531 5.808594 15.597656 5.957031 15.621094 6.09375 C 15.632812 6.175781 15.742188 6.265625 15.828125 6.304688 C 16.242188 6.484375 16.671875 6.496094 17.101562 6.367188 C 17.597656 6.214844 17.726562 5.890625 17.480469 5.445312 C 17.28125 5.078125 16.933594 5.011719 16.601562 5.257812 C 16.433594 5.378906 16.246094 5.476562 16.046875 5.59375 Z M 16.046875 5.59375 "/>
<path style=" stroke:none;fill-rule:nonzero;fill:rgb(100%,100%,100%);fill-opacity:1;" d="M 19.128906 30.058594 C 17.960938 30.0625 16.804688 30.101562 15.648438 30.050781 C 14.671875 30.007812 13.699219 29.863281 12.726562 29.746094 C 11.347656 29.582031 9.96875 29.398438 8.585938 29.238281 C 7.964844 29.164062 7.339844 29.109375 6.714844 29.175781 C 6.421875 29.207031 6.132812 29.238281 5.832031 29.269531 C 5.832031 29.039062 5.828125 28.808594 5.832031 28.582031 C 5.863281 27.015625 5.921875 25.453125 5.917969 23.886719 C 5.914062 22.019531 5.867188 20.148438 5.820312 18.28125 C 5.800781 17.371094 5.726562 16.464844 5.515625 15.574219 C 5.496094 15.484375 5.46875 15.398438 5.441406 15.304688 C 5.476562 15.300781 5.5 15.296875 5.523438 15.292969 C 6.988281 15.257812 8.449219 15.238281 9.914062 15.175781 C 11.46875 15.113281 13.023438 15.148438 14.578125 15.214844 C 15.996094 15.273438 17.414062 15.269531 18.828125 15.148438 C 20.320312 15.019531 21.8125 14.875 23.308594 14.753906 C 24.082031 14.691406 24.855469 14.664062 25.628906 14.621094 C 26.703125 14.5625 27.773438 14.503906 28.84375 14.445312 C 28.890625 14.441406 28.9375 14.445312 29 14.445312 C 29.066406 14.828125 29.140625 15.210938 29.203125 15.597656 C 29.285156 16.09375 29.390625 16.585938 29.429688 17.082031 C 29.492188 17.78125 29.515625 18.480469 29.53125 19.179688 C 29.578125 21.316406 29.605469 23.449219 29.664062 25.582031 C 29.683594 26.375 29.777344 27.164062 29.820312 27.957031 C 29.847656 28.394531 29.835938 28.832031 29.835938 29.273438 C 29.835938 29.335938 29.8125 29.402344 29.796875 29.496094 C 29.359375 29.542969 28.921875 29.617188 28.484375 29.632812 C 27.058594 29.691406 25.628906 29.710938 24.203125 29.773438 C 22.871094 29.832031 21.539062 29.921875 20.207031 29.996094 C 19.851562 30.015625 19.496094 30.035156 19.128906 30.058594 M 19.527344 23.003906 C 19.695312 22.804688 19.863281 22.601562 20.023438 22.398438 C 20.5 21.808594 20.976562 21.21875 21.347656 20.554688 C 21.554688 20.191406 21.710938 19.808594 21.6875 19.378906 C 21.640625 18.480469 20.882812 17.925781 19.988281 18.011719 C 19.558594 18.050781 19.15625 18.1875 18.769531 18.367188 C 18.242188 18.609375 17.753906 18.917969 17.328125 19.316406 C 17.160156 19.164062 17.007812 19.011719 16.84375 18.875 C 16.4375 18.527344 16.011719 18.207031 15.492188 18.046875 C 14.707031 17.804688 13.929688 18.179688 13.695312 18.925781 C 13.5625 19.34375 13.566406 19.769531 13.675781 20.195312 C 13.839844 20.835938 14.179688 21.382812 14.613281 21.867188 C 15.175781 22.5 15.769531 23.113281 16.34375 23.738281 C 16.410156 23.808594 16.464844 23.890625 16.503906 23.976562 C 16.757812 24.515625 17.367188 24.800781 17.941406 24.636719 C 18.460938 24.488281 18.742188 24.070312 19.050781 23.683594 C 19.214844 23.472656 19.359375 23.242188 19.527344 23.003906 Z M 19.527344 23.003906 "/>
<path style=" stroke:none;fill-rule:nonzero;fill:rgb(99.607843%,99.607843%,99.607843%);fill-opacity:1;" d="M 13.347656 12.738281 C 12.964844 12.726562 12.585938 12.71875 12.1875 12.699219 C 12.152344 12.695312 12.132812 12.699219 12.113281 12.703125 C 12.0625 12.707031 12.007812 12.707031 11.941406 12.695312 C 11.796875 12.574219 11.738281 12.582031 11.714844 12.699219 C 11.652344 12.703125 11.589844 12.707031 11.515625 12.691406 C 11.5 12.636719 11.5 12.601562 11.496094 12.566406 C 11.804688 12.421875 12.113281 12.28125 12.433594 12.148438 C 12.476562 12.199219 12.503906 12.242188 12.53125 12.28125 C 12.550781 12.273438 12.570312 12.265625 12.585938 12.253906 C 12.5625 12.199219 12.539062 12.144531 12.519531 12.089844 C 12.558594 12.0625 12.597656 12.035156 12.65625 12.007812 C 12.738281 12.019531 12.792969 12.039062 12.851562 12.046875 C 12.882812 12.046875 12.917969 12.03125 12.949219 12.023438 C 12.925781 11.988281 12.910156 11.949219 12.878906 11.925781 C 12.859375 11.910156 12.820312 11.917969 12.789062 11.917969 C 12.867188 11.859375 12.945312 11.804688 13.042969 11.761719 C 13.078125 11.769531 13.09375 11.765625 13.113281 11.761719 C 13.101562 11.742188 13.09375 11.722656 13.085938 11.703125 C 13.105469 11.6875 13.125 11.667969 13.167969 11.644531 C 13.21875 11.613281 13.246094 11.582031 13.273438 11.554688 C 13.378906 11.460938 13.488281 11.367188 13.617188 11.273438 C 13.703125 11.25 13.765625 11.234375 13.828125 11.214844 C 13.8125 11.179688 13.796875 11.144531 13.78125 11.109375 C 13.816406 11.070312 13.855469 11.035156 13.914062 10.992188 C 13.953125 10.960938 13.972656 10.933594 13.996094 10.90625 C 14.054688 10.84375 14.113281 10.78125 14.191406 10.714844 C 14.242188 10.671875 14.273438 10.632812 14.304688 10.59375 C 14.300781 10.582031 14.304688 10.574219 14.332031 10.566406 C 14.382812 10.570312 14.414062 10.570312 14.445312 10.574219 C 14.4375 10.535156 14.429688 10.5 14.421875 10.464844 C 14.507812 10.371094 14.589844 10.277344 14.6875 10.1875 C 14.734375 10.207031 14.761719 10.21875 14.808594 10.234375 C 14.789062 10.171875 14.773438 10.132812 14.761719 10.097656 C 14.761719 10.085938 14.765625 10.078125 14.792969 10.074219 C 14.851562 10.066406 14.898438 10.058594 14.941406 10.054688 C 14.925781 10.015625 14.914062 9.980469 14.898438 9.941406 C 15.269531 9.539062 15.636719 9.132812 16.007812 8.730469 C 16.039062 8.699219 16.097656 8.683594 16.140625 8.6875 C 16.753906 8.726562 17.351562 8.679688 17.929688 8.464844 C 18.023438 8.433594 18.058594 8.476562 18.105469 8.535156 C 18.621094 9.15625 19.167969 9.753906 19.785156 10.28125 C 20.703125 11.066406 21.726562 11.644531 22.929688 11.871094 C 23.953125 12.0625 24.933594 11.976562 25.832031 11.402344 C 26.210938 11.160156 26.488281 10.824219 26.644531 10.394531 C 26.796875 9.964844 26.722656 9.570312 26.464844 9.203125 C 26.4375 9.167969 26.410156 9.132812 26.355469 9.0625 C 28.023438 8.984375 29.648438 9.113281 31.300781 9.308594 C 31.195312 10.207031 31.101562 11.097656 31.21875 12.015625 C 31.089844 11.988281 30.992188 11.972656 30.894531 11.949219 C 30.457031 11.84375 30.015625 11.933594 29.578125 11.960938 C 28.675781 12.011719 27.773438 12.078125 26.871094 12.128906 C 25.402344 12.21875 23.929688 12.285156 22.460938 12.390625 C 21.289062 12.472656 20.121094 12.609375 18.949219 12.707031 C 17.691406 12.816406 16.425781 12.851562 15.148438 12.796875 C 15.113281 12.789062 15.09375 12.792969 15.074219 12.800781 C 15.058594 12.800781 15.046875 12.800781 15.019531 12.789062 C 14.960938 12.746094 14.917969 12.71875 14.871094 12.6875 C 14.855469 12.722656 14.839844 12.753906 14.824219 12.785156 C 14.710938 12.785156 14.597656 12.78125 14.46875 12.765625 C 14.429688 12.726562 14.394531 12.683594 14.378906 12.691406 C 14.347656 12.703125 14.324219 12.742188 14.300781 12.769531 C 14.03125 12.761719 13.765625 12.753906 13.484375 12.734375 C 13.425781 12.726562 13.386719 12.730469 13.347656 12.738281 M 15.035156 9.921875 C 15.035156 9.921875 15.039062 9.921875 15.050781 9.917969 C 15.046875 9.917969 15.046875 9.917969 15.035156 9.921875 M 13.550781 11.496094 C 13.542969 11.480469 13.539062 11.464844 13.53125 11.449219 C 13.527344 11.449219 13.515625 11.453125 13.507812 11.457031 C 13.519531 11.472656 13.527344 11.488281 13.550781 11.496094 M 14.019531 12.636719 C 14.03125 12.640625 14.042969 12.644531 14.054688 12.648438 C 14.058594 12.648438 14.0625 12.644531 14.0625 12.640625 C 14.050781 12.636719 14.039062 12.632812 14.019531 12.636719 M 11.941406 12.484375 C 11.941406 12.484375 11.945312 12.484375 11.941406 12.484375 Z M 11.941406 12.484375 "/>
<path style=" stroke:none;fill-rule:nonzero;fill:rgb(99.215686%,99.215686%,99.215686%);fill-opacity:1;" d="M 26.328125 5.339844 C 26.550781 5.453125 26.773438 5.550781 26.972656 5.683594 C 27.132812 5.789062 27.117188 5.898438 26.957031 6.003906 C 26.671875 6.191406 26.347656 6.273438 26.015625 6.320312 C 24.660156 6.511719 23.324219 6.398438 22.019531 5.992188 C 21.816406 5.929688 21.640625 5.832031 21.484375 5.675781 C 21.066406 5.265625 20.421875 5.25 19.972656 5.625 C 19.949219 5.644531 19.929688 5.664062 19.894531 5.691406 C 19.863281 5.503906 19.824219 5.332031 19.800781 5.160156 C 19.796875 5.117188 19.828125 5.066406 19.859375 5.027344 C 20.28125 4.496094 20.8125 4.085938 21.367188 3.707031 C 22.144531 3.171875 22.984375 2.757812 23.871094 2.453125 C 24.113281 2.371094 24.386719 2.359375 24.644531 2.339844 C 24.835938 2.324219 24.878906 2.375 24.875 2.558594 C 24.871094 2.691406 24.84375 2.828125 24.804688 2.957031 C 24.730469 3.230469 24.605469 3.496094 24.558594 3.773438 C 24.449219 4.4375 24.867188 4.996094 25.53125 5.128906 C 25.796875 5.183594 26.054688 5.265625 26.328125 5.339844 Z M 26.328125 5.339844 "/>
<path style=" stroke:none;fill-rule:nonzero;fill:rgb(99.215686%,99.215686%,99.215686%);fill-opacity:1;" d="M 9.3125 3.832031 C 9.101562 3.839844 8.898438 3.832031 8.703125 3.863281 C 8.296875 3.921875 7.929688 3.652344 7.898438 3.246094 C 7.898438 3.210938 7.96875 3.144531 8.011719 3.140625 C 8.347656 3.113281 8.6875 3.050781 9.019531 3.085938 C 10.542969 3.238281 11.953125 3.738281 13.253906 4.535156 C 13.394531 4.617188 13.519531 4.722656 13.609375 4.789062 C 13.5 5.25 13.398438 5.675781 13.285156 6.160156 C 12.433594 6.527344 11.519531 6.941406 10.59375 7.3125 C 9.921875 7.578125 9.21875 7.769531 8.488281 7.773438 C 8.285156 7.777344 8.082031 7.738281 7.878906 7.710938 C 7.824219 7.703125 7.773438 7.675781 7.722656 7.648438 C 7.410156 7.492188 7.371094 7.363281 7.609375 7.113281 C 7.847656 6.859375 8.117188 6.628906 8.390625 6.402344 C 8.609375 6.226562 8.863281 6.148438 9.160156 6.160156 C 9.585938 6.183594 9.984375 6.085938 10.28125 5.738281 C 10.769531 5.160156 10.5625 4.257812 9.863281 3.96875 C 9.695312 3.898438 9.507812 3.878906 9.3125 3.832031 Z M 9.3125 3.832031 "/>
<path style=" stroke:none;fill-rule:nonzero;fill:rgb(99.215686%,99.215686%,99.215686%);fill-opacity:1;" d="M 11.484375 12.566406 C 11.5 12.601562 11.5 12.636719 11.5 12.6875 C 10.828125 12.726562 10.15625 12.757812 9.484375 12.773438 C 8.152344 12.808594 6.816406 12.855469 5.480469 12.855469 C 4.84375 12.855469 4.203125 12.761719 3.5625 12.710938 C 3.457031 12.703125 3.386719 12.671875 3.371094 12.546875 C 3.296875 11.929688 3.21875 11.320312 3.140625 10.707031 C 3.125 10.597656 3.164062 10.542969 3.265625 10.5 C 3.710938 10.3125 4.175781 10.207031 4.652344 10.171875 C 5.535156 10.113281 6.421875 10.089844 7.277344 10.050781 C 7.839844 11.566406 8.941406 12.367188 10.445312 12.671875 C 10.789062 12.742188 11.140625 12.691406 11.484375 12.566406 Z M 11.484375 12.566406 "/>
<path style=" stroke:none;fill-rule:nonzero;fill:rgb(98.039216%,98.039216%,98.039216%);fill-opacity:1;" d="M 21.949219 9.085938 C 21.390625 8.730469 20.914062 8.289062 20.441406 7.78125 C 20.523438 7.804688 20.566406 7.8125 20.601562 7.832031 C 21.316406 8.199219 22.085938 8.378906 22.875 8.503906 C 23 8.523438 23.0625 8.566406 23.105469 8.691406 C 23.238281 9.066406 23.460938 9.390625 23.742188 9.707031 C 23.074219 9.65625 22.496094 9.433594 21.949219 9.085938 Z M 21.949219 9.085938 "/>
<path style=" stroke:none;fill-rule:nonzero;fill:rgb(98.431373%,98.431373%,98.431373%);fill-opacity:1;" d="M 16.058594 5.589844 C 16.246094 5.476562 16.433594 5.378906 16.601562 5.257812 C 16.933594 5.011719 17.28125 5.078125 17.480469 5.445312 C 17.726562 5.890625 17.597656 6.214844 17.101562 6.367188 C 16.671875 6.496094 16.242188 6.484375 15.828125 6.304688 C 15.742188 6.265625 15.632812 6.175781 15.621094 6.09375 C 15.597656 5.957031 15.644531 5.808594 15.792969 5.730469 C 15.878906 5.683594 15.960938 5.636719 16.058594 5.589844 Z M 16.058594 5.589844 "/>
<path style=" stroke:none;fill-rule:nonzero;fill:rgb(97.647059%,97.647059%,97.647059%);fill-opacity:1;" d="M 12.808594 8.886719 C 12.476562 9.199219 12.15625 9.535156 11.796875 9.824219 C 11.53125 10.039062 11.214844 10.195312 10.917969 10.371094 C 10.792969 10.445312 10.660156 10.441406 10.519531 10.386719 C 10.242188 10.273438 9.992188 10.121094 9.757812 9.902344 C 9.980469 9.84375 10.191406 9.792969 10.398438 9.738281 C 11.164062 9.535156 11.902344 9.246094 12.628906 8.929688 C 12.683594 8.90625 12.742188 8.882812 12.804688 8.875 C 12.8125 8.886719 12.808594 8.886719 12.808594 8.886719 Z M 12.808594 8.886719 "/>
<path style=" stroke:none;fill-rule:nonzero;fill:rgb(99.215686%,99.215686%,99.215686%);fill-opacity:1;" d="M 12.78125 11.917969 C 12.820312 11.917969 12.859375 11.910156 12.878906 11.925781 C 12.910156 11.949219 12.925781 11.988281 12.949219 12.023438 C 12.917969 12.03125 12.882812 12.046875 12.851562 12.046875 C 12.792969 12.039062 12.738281 12.019531 12.667969 12.007812 C 12.695312 11.976562 12.730469 11.949219 12.78125 11.917969 Z M 12.78125 11.917969 "/>
<path style=" stroke:none;fill-rule:nonzero;fill:rgb(99.215686%,99.215686%,99.215686%);fill-opacity:1;" d="M 13.773438 11.113281 C 13.796875 11.144531 13.8125 11.179688 13.828125 11.214844 C 13.765625 11.234375 13.703125 11.25 13.625 11.269531 C 13.664062 11.214844 13.714844 11.164062 13.773438 11.113281 Z M 13.773438 11.113281 "/>
<path style=" stroke:none;fill-rule:nonzero;fill:rgb(99.215686%,99.215686%,99.215686%);fill-opacity:1;" d="M 12.511719 12.089844 C 12.539062 12.144531 12.5625 12.199219 12.585938 12.253906 C 12.570312 12.265625 12.550781 12.273438 12.53125 12.28125 C 12.503906 12.242188 12.476562 12.199219 12.445312 12.148438 C 12.464844 12.121094 12.484375 12.105469 12.511719 12.089844 Z M 12.511719 12.089844 "/>
<path style=" stroke:none;fill-rule:nonzero;fill:rgb(99.215686%,99.215686%,99.215686%);fill-opacity:1;" d="M 14.835938 12.792969 C 14.839844 12.753906 14.855469 12.722656 14.871094 12.6875 C 14.917969 12.71875 14.960938 12.746094 15.011719 12.789062 C 14.957031 12.796875 14.902344 12.796875 14.835938 12.792969 Z M 14.835938 12.792969 "/>
<path style=" stroke:none;fill-rule:nonzero;fill:rgb(99.215686%,99.215686%,99.215686%);fill-opacity:1;" d="M 11.726562 12.703125 C 11.738281 12.582031 11.796875 12.574219 11.925781 12.691406 C 11.867188 12.703125 11.800781 12.707031 11.726562 12.703125 Z M 11.726562 12.703125 "/>
<path style=" stroke:none;fill-rule:nonzero;fill:rgb(99.215686%,99.215686%,99.215686%);fill-opacity:1;" d="M 14.890625 9.949219 C 14.914062 9.980469 14.925781 10.015625 14.941406 10.054688 C 14.898438 10.058594 14.851562 10.066406 14.796875 10.070312 C 14.820312 10.03125 14.851562 9.992188 14.890625 9.949219 Z M 14.890625 9.949219 "/>
<path style=" stroke:none;fill-rule:nonzero;fill:rgb(99.215686%,99.215686%,99.215686%);fill-opacity:1;" d="M 14.308594 12.773438 C 14.324219 12.742188 14.347656 12.703125 14.378906 12.691406 C 14.394531 12.683594 14.429688 12.726562 14.457031 12.761719 C 14.410156 12.773438 14.367188 12.777344 14.308594 12.773438 Z M 14.308594 12.773438 "/>
<path style=" stroke:none;fill-rule:nonzero;fill:rgb(99.215686%,99.215686%,99.215686%);fill-opacity:1;" d="M 14.414062 10.46875 C 14.429688 10.5 14.4375 10.535156 14.445312 10.574219 C 14.414062 10.570312 14.382812 10.570312 14.339844 10.566406 C 14.355469 10.535156 14.378906 10.503906 14.414062 10.46875 Z M 14.414062 10.46875 "/>
<path style=" stroke:none;fill-rule:nonzero;fill:rgb(99.215686%,99.215686%,99.215686%);fill-opacity:1;" d="M 14.753906 10.101562 C 14.773438 10.132812 14.789062 10.171875 14.808594 10.234375 C 14.761719 10.21875 14.734375 10.207031 14.699219 10.183594 C 14.710938 10.148438 14.726562 10.125 14.753906 10.101562 Z M 14.753906 10.101562 "/>
<path style=" stroke:none;fill-rule:nonzero;fill:rgb(99.215686%,99.215686%,99.215686%);fill-opacity:1;" d="M 14.292969 10.597656 C 14.273438 10.632812 14.242188 10.671875 14.199219 10.710938 C 14.21875 10.671875 14.25 10.636719 14.292969 10.597656 Z M 14.292969 10.597656 "/>
<path style=" stroke:none;fill-rule:nonzero;fill:rgb(99.215686%,99.215686%,99.215686%);fill-opacity:1;" d="M 13.359375 12.738281 C 13.386719 12.730469 13.425781 12.726562 13.46875 12.730469 C 13.4375 12.742188 13.402344 12.742188 13.359375 12.738281 Z M 13.359375 12.738281 "/>
<path style=" stroke:none;fill-rule:nonzero;fill:rgb(99.215686%,99.215686%,99.215686%);fill-opacity:1;" d="M 13.265625 11.558594 C 13.246094 11.582031 13.21875 11.613281 13.179688 11.640625 C 13.195312 11.613281 13.226562 11.585938 13.265625 11.558594 Z M 13.265625 11.558594 "/>
<path style=" stroke:none;fill-rule:nonzero;fill:rgb(99.215686%,99.215686%,99.215686%);fill-opacity:1;" d="M 13.984375 10.90625 C 13.972656 10.933594 13.953125 10.960938 13.921875 10.988281 C 13.929688 10.960938 13.953125 10.9375 13.984375 10.90625 Z M 13.984375 10.90625 "/>
<path style=" stroke:none;fill-rule:nonzero;fill:rgb(99.215686%,99.215686%,99.215686%);fill-opacity:1;" d="M 12.125 12.707031 C 12.132812 12.699219 12.152344 12.695312 12.175781 12.699219 C 12.160156 12.707031 12.148438 12.710938 12.125 12.707031 Z M 12.125 12.707031 "/>
<path style=" stroke:none;fill-rule:nonzero;fill:rgb(99.215686%,99.215686%,99.215686%);fill-opacity:1;" d="M 15.082031 12.800781 C 15.09375 12.792969 15.113281 12.789062 15.132812 12.792969 C 15.121094 12.800781 15.105469 12.804688 15.082031 12.800781 Z M 15.082031 12.800781 "/>
<path style=" stroke:none;fill-rule:nonzero;fill:rgb(99.215686%,99.215686%,99.215686%);fill-opacity:1;" d="M 13.078125 11.710938 C 13.09375 11.722656 13.101562 11.742188 13.113281 11.761719 C 13.09375 11.765625 13.078125 11.769531 13.054688 11.757812 C 13.054688 11.734375 13.066406 11.722656 13.078125 11.710938 Z M 13.078125 11.710938 "/>
<path style=" stroke:none;fill-rule:nonzero;fill:rgb(97.647059%,97.647059%,97.647059%);fill-opacity:1;" d="M 12.8125 8.886719 C 12.804688 8.878906 12.796875 8.871094 12.789062 8.867188 C 12.796875 8.867188 12.804688 8.867188 12.8125 8.878906 C 12.808594 8.886719 12.8125 8.886719 12.8125 8.886719 Z M 12.8125 8.886719 "/>
<path style=" stroke:none;fill-rule:nonzero;fill:rgb(0.392157%,0.392157%,0.392157%);fill-opacity:1;" d="M 19.519531 23.011719 C 19.359375 23.242188 19.214844 23.472656 19.050781 23.683594 C 18.742188 24.070312 18.460938 24.488281 17.941406 24.636719 C 17.367188 24.800781 16.757812 24.515625 16.503906 23.976562 C 16.464844 23.890625 16.410156 23.808594 16.34375 23.738281 C 15.769531 23.113281 15.175781 22.5 14.613281 21.867188 C 14.179688 21.382812 13.839844 20.835938 13.675781 20.195312 C 13.566406 19.769531 13.5625 19.34375 13.695312 18.925781 C 13.929688 18.179688 14.707031 17.804688 15.492188 18.046875 C 16.011719 18.207031 16.4375 18.527344 16.84375 18.875 C 17.007812 19.011719 17.160156 19.164062 17.328125 19.316406 C 17.753906 18.917969 18.242188 18.609375 18.769531 18.367188 C 19.15625 18.1875 19.558594 18.050781 19.988281 18.011719 C 20.882812 17.925781 21.640625 18.480469 21.6875 19.378906 C 21.710938 19.808594 21.554688 20.191406 21.347656 20.554688 C 20.976562 21.21875 20.5 21.808594 20.023438 22.398438 C 19.863281 22.601562 19.695312 22.804688 19.519531 23.011719 Z M 19.519531 23.011719 "/>
<path style=" stroke:none;fill-rule:nonzero;fill:rgb(99.215686%,99.215686%,99.215686%);fill-opacity:1;" d="M 13.542969 11.5 C 13.527344 11.488281 13.519531 11.472656 13.507812 11.457031 C 13.515625 11.453125 13.527344 11.449219 13.53125 11.449219 C 13.539062 11.464844 13.542969 11.480469 13.542969 11.5 Z M 13.542969 11.5 "/>
<path style=" stroke:none;fill-rule:nonzero;fill:rgb(99.215686%,99.215686%,99.215686%);fill-opacity:1;" d="M 14.023438 12.632812 C 14.039062 12.632812 14.050781 12.636719 14.0625 12.640625 C 14.0625 12.644531 14.058594 12.648438 14.054688 12.648438 C 14.042969 12.644531 14.03125 12.640625 14.023438 12.632812 Z M 14.023438 12.632812 "/>
<path style=" stroke:none;fill-rule:nonzero;fill:rgb(99.215686%,99.215686%,99.215686%);fill-opacity:1;" d="M 15.042969 9.921875 C 15.046875 9.917969 15.046875 9.917969 15.046875 9.917969 C 15.042969 9.921875 15.042969 9.921875 15.042969 9.921875 Z M 15.042969 9.921875 "/>
</g>
</svg>
