<?xml version="1.0" encoding="UTF-8"?>
<svg xmlns="http://www.w3.org/2000/svg" xmlns:xlink="http://www.w3.org/1999/xlink" width="34px" height="34px" viewBox="0 0 34 34" version="1.1">
<g id="surface1">
<path style=" stroke:none;fill-rule:nonzero;fill:rgb(100%,100%,100%);fill-opacity:1;" d="M 20.019531 34.03125 C 13.347656 34.03125 6.691406 34.03125 0.03125 34.03125 C 0.03125 22.699219 0.03125 11.367188 0.03125 0.0351562 C 11.359375 0.0351562 22.691406 0.0351562 34.027344 0.0351562 C 34.027344 11.363281 34.027344 22.699219 34.027344 34.03125 C 29.363281 34.03125 24.699219 34.03125 20.019531 34.03125 M 31.789062 29.542969 C 31.59375 29.152344 31.378906 28.765625 31.203125 28.363281 C 30.867188 27.578125 30.710938 26.746094 30.539062 25.914062 C 30.378906 25.121094 30.234375 24.320312 30.019531 23.539062 C 29.777344 22.667969 29.449219 21.816406 29.191406 20.949219 C 28.976562 20.234375 28.773438 19.511719 28.621094 18.78125 C 28.148438 16.550781 27.515625 14.375 26.707031 12.246094 C 26.515625 11.742188 26.28125 11.25 26.027344 10.773438 C 25.808594 10.351562 25.433594 10.121094 24.957031 10.035156 C 24.292969 9.914062 23.628906 9.875 22.957031 9.882812 C 22.902344 9.882812 22.847656 9.882812 22.796875 9.882812 C 22.796875 9.109375 22.796875 8.351562 22.796875 7.597656 C 22.796875 6.605469 22.75 5.621094 22.511719 4.652344 C 22.109375 3.058594 21.191406 1.878906 19.695312 1.167969 C 18.488281 0.59375 17.214844 0.5 15.914062 0.730469 C 14.0625 1.058594 12.464844 1.894531 11.105469 3.1875 C 10.261719 3.996094 9.617188 4.933594 9.277344 6.0625 C 8.902344 7.316406 8.929688 8.585938 9.171875 9.855469 C 9.242188 10.230469 9.335938 10.597656 9.421875 10.964844 C 8.859375 11.046875 7.492188 10.945312 6.765625 10.769531 C 6.15625 10.625 5.554688 11 5.457031 11.601562 C 5.410156 11.878906 5.375 12.164062 5.359375 12.445312 C 5.320312 13.144531 5.214844 13.828125 5.085938 14.515625 C 4.765625 16.230469 4.496094 17.957031 4.203125 19.679688 C 4 20.871094 3.789062 22.0625 3.601562 23.257812 C 3.425781 24.394531 3.269531 25.539062 3.121094 26.679688 C 2.988281 27.691406 2.867188 28.703125 2.753906 29.714844 C 2.675781 30.414062 2.585938 31.113281 2.644531 31.820312 C 2.699219 32.515625 3.058594 32.988281 3.742188 33.125 C 4.199219 33.214844 4.675781 33.242188 5.144531 33.25 C 6.773438 33.269531 8.402344 33.261719 10.03125 33.28125 C 12.144531 33.308594 14.253906 33.363281 16.367188 33.394531 C 19.484375 33.4375 22.601562 33.433594 25.71875 33.511719 C 27.652344 33.5625 29.511719 33.265625 31.339844 32.664062 C 32.082031 32.421875 32.4375 31.855469 32.332031 31.09375 C 32.253906 30.546875 32.035156 30.054688 31.789062 29.542969 Z M 31.789062 29.542969 "/>
<path style=" stroke:none;fill-rule:nonzero;fill:rgb(0%,0%,0%);fill-opacity:1;" d="M 31.792969 29.554688 C 32.035156 30.054688 32.253906 30.546875 32.332031 31.09375 C 32.4375 31.855469 32.082031 32.421875 31.339844 32.664062 C 29.511719 33.265625 27.652344 33.5625 25.71875 33.511719 C 22.601562 33.433594 19.484375 33.4375 16.367188 33.394531 C 14.253906 33.363281 12.144531 33.308594 10.03125 33.28125 C 8.402344 33.261719 6.773438 33.269531 5.144531 33.25 C 4.675781 33.242188 4.199219 33.214844 3.742188 33.125 C 3.058594 32.988281 2.699219 32.515625 2.644531 31.820312 C 2.585938 31.113281 2.675781 30.414062 2.753906 29.714844 C 2.867188 28.703125 2.988281 27.691406 3.121094 26.679688 C 3.269531 25.539062 3.425781 24.394531 3.601562 23.257812 C 3.789062 22.0625 4 20.871094 4.203125 19.679688 C 4.496094 17.957031 4.765625 16.230469 5.085938 14.515625 C 5.214844 13.828125 5.320312 13.144531 5.359375 12.445312 C 5.375 12.164062 5.410156 11.878906 5.457031 11.601562 C 5.554688 11 6.15625 10.625 6.765625 10.769531 C 7.492188 10.945312 8.859375 11.046875 9.421875 10.964844 C 9.335938 10.597656 9.242188 10.230469 9.171875 9.855469 C 8.929688 8.585938 8.902344 7.316406 9.277344 6.0625 C 9.617188 4.933594 10.261719 3.996094 11.105469 3.1875 C 12.464844 1.894531 14.0625 1.058594 15.914062 0.730469 C 17.214844 0.5 18.488281 0.59375 19.695312 1.167969 C 21.191406 1.878906 22.109375 3.058594 22.511719 4.652344 C 22.75 5.621094 22.796875 6.605469 22.796875 7.597656 C 22.796875 8.351562 22.796875 9.109375 22.796875 9.882812 C 22.847656 9.882812 22.902344 9.882812 22.957031 9.882812 C 23.628906 9.875 24.292969 9.914062 24.957031 10.035156 C 25.433594 10.121094 25.808594 10.351562 26.027344 10.773438 C 26.28125 11.25 26.515625 11.742188 26.707031 12.246094 C 27.515625 14.375 28.148438 16.550781 28.621094 18.78125 C 28.773438 19.511719 28.976562 20.234375 29.191406 20.949219 C 29.449219 21.816406 29.777344 22.667969 30.019531 23.539062 C 30.234375 24.320312 30.378906 25.121094 30.539062 25.914062 C 30.710938 26.746094 30.867188 27.578125 31.203125 28.363281 C 31.378906 28.765625 31.59375 29.152344 31.792969 29.554688 M 12.542969 4.734375 C 11.964844 5.308594 11.5 5.953125 11.277344 6.75 C 11.097656 7.40625 11.078125 8.074219 11.144531 8.75 C 11.210938 9.449219 11.375 10.121094 11.597656 10.796875 C 11.863281 10.765625 12.117188 10.734375 12.375 10.707031 C 13.375 10.597656 14.371094 10.464844 15.375 10.390625 C 16.785156 10.28125 18.199219 10.21875 19.613281 10.128906 C 19.964844 10.109375 20.3125 10.0625 20.664062 10.03125 C 20.667969 9.96875 20.671875 9.921875 20.671875 9.878906 C 20.671875 8.847656 20.691406 7.816406 20.664062 6.785156 C 20.648438 6.28125 20.578125 5.777344 20.480469 5.28125 C 20.261719 4.160156 19.617188 3.375 18.539062 2.964844 C 17.792969 2.683594 17.019531 2.671875 16.242188 2.8125 C 14.824219 3.078125 13.601562 3.730469 12.542969 4.734375 M 20.539062 23.503906 C 21.058594 23.421875 21.433594 23.050781 21.519531 22.539062 C 21.589844 22.140625 21.453125 21.792969 21.210938 21.488281 C 21.019531 21.253906 20.800781 21.042969 20.621094 20.847656 C 20.851562 20.449219 21.105469 20.0625 21.300781 19.648438 C 21.496094 19.230469 21.449219 18.800781 21.148438 18.425781 C 20.789062 17.980469 20.191406 17.871094 19.625 18.160156 C 18.941406 18.511719 18.3125 18.9375 17.859375 19.578125 C 17.796875 19.539062 17.742188 19.5 17.6875 19.464844 C 17.054688 19.085938 16.363281 18.882812 15.644531 18.765625 C 14.789062 18.621094 13.929688 18.589844 13.078125 18.777344 C 12.691406 18.859375 12.3125 18.996094 11.929688 19.09375 C 11.683594 19.15625 11.476562 19.273438 11.3125 19.460938 C 10.640625 20.234375 10.476562 21.113281 10.882812 22.046875 C 11.421875 23.285156 12.4375 23.871094 13.757812 23.960938 C 14.933594 24.039062 16.027344 23.730469 17.070312 23.226562 C 17.476562 23.03125 17.863281 22.800781 18.265625 22.582031 C 18.589844 22.90625 18.984375 23.152344 19.421875 23.328125 C 19.769531 23.46875 20.128906 23.570312 20.539062 23.503906 Z M 20.539062 23.503906 "/>
<path style=" stroke:none;fill-rule:nonzero;fill:rgb(99.607843%,99.607843%,99.607843%);fill-opacity:1;" d="M 12.550781 4.726562 C 13.601562 3.730469 14.824219 3.078125 16.242188 2.8125 C 17.019531 2.671875 17.792969 2.683594 18.539062 2.964844 C 19.617188 3.375 20.261719 4.160156 20.480469 5.28125 C 20.578125 5.777344 20.648438 6.28125 20.664062 6.785156 C 20.691406 7.816406 20.671875 8.847656 20.671875 9.878906 C 20.671875 9.921875 20.667969 9.96875 20.664062 10.03125 C 20.3125 10.0625 19.964844 10.109375 19.613281 10.128906 C 18.199219 10.21875 16.785156 10.28125 15.375 10.390625 C 14.371094 10.464844 13.375 10.597656 12.375 10.707031 C 12.117188 10.734375 11.863281 10.765625 11.597656 10.796875 C 11.375 10.121094 11.210938 9.449219 11.144531 8.75 C 11.078125 8.074219 11.097656 7.40625 11.277344 6.75 C 11.5 5.953125 11.964844 5.308594 12.550781 4.726562 Z M 12.550781 4.726562 "/>
<path style=" stroke:none;fill-rule:nonzero;fill:rgb(99.607843%,99.607843%,99.607843%);fill-opacity:1;" d="M 20.523438 23.503906 C 20.128906 23.570312 19.769531 23.46875 19.421875 23.328125 C 18.984375 23.152344 18.589844 22.90625 18.265625 22.582031 C 17.863281 22.800781 17.476562 23.03125 17.070312 23.226562 C 16.027344 23.730469 14.933594 24.039062 13.757812 23.960938 C 12.4375 23.871094 11.421875 23.285156 10.882812 22.046875 C 10.476562 21.113281 10.640625 20.234375 11.3125 19.460938 C 11.476562 19.273438 11.683594 19.15625 11.929688 19.09375 C 12.3125 18.996094 12.691406 18.859375 13.078125 18.777344 C 13.929688 18.589844 14.789062 18.621094 15.644531 18.765625 C 16.363281 18.882812 17.054688 19.085938 17.6875 19.464844 C 17.742188 19.5 17.796875 19.539062 17.859375 19.578125 C 18.3125 18.9375 18.941406 18.511719 19.625 18.160156 C 20.191406 17.871094 20.789062 17.980469 21.148438 18.425781 C 21.449219 18.800781 21.496094 19.230469 21.300781 19.648438 C 21.105469 20.0625 20.851562 20.449219 20.621094 20.847656 C 20.800781 21.042969 21.019531 21.253906 21.210938 21.488281 C 21.453125 21.792969 21.589844 22.140625 21.519531 22.539062 C 21.433594 23.050781 21.058594 23.421875 20.523438 23.503906 Z M 20.523438 23.503906 "/>
</g>
</svg>
