<?xml version="1.0" encoding="UTF-8"?>
<svg xmlns="http://www.w3.org/2000/svg" xmlns:xlink="http://www.w3.org/1999/xlink" width="34px" height="34px" viewBox="0 0 34 34" version="1.1">
<g id="surface1">
<path style=" stroke:none;fill-rule:nonzero;fill:rgb(100%,100%,100%);fill-opacity:1;" d="M 0.0273438 33.914062 C 0.0273438 22.621094 0.0273438 11.332031 0.0273438 0.0273438 C 2.878906 0.0273438 5.726562 0.0273438 8.585938 0.0390625 C 8.601562 0.09375 8.605469 0.136719 8.605469 0.164062 C 8.753906 0.285156 8.976562 0.230469 9.082031 0.410156 C 9.089844 0.425781 9.125 0.425781 9.148438 0.425781 C 9.332031 0.417969 9.519531 0.40625 9.703125 0.402344 C 9.785156 0.402344 9.867188 0.421875 9.949219 0.441406 C 10.011719 0.457031 10.070312 0.507812 10.132812 0.507812 C 11.023438 0.511719 11.914062 0.511719 12.800781 0.511719 C 13.035156 0.511719 13.273438 0.527344 13.503906 0.503906 C 13.664062 0.488281 13.726562 0.542969 13.738281 0.683594 C 13.410156 0.746094 13.09375 0.800781 12.78125 0.863281 C 12.476562 0.921875 12.171875 0.988281 11.867188 1.058594 C 11.457031 1.160156 11.046875 1.28125 10.636719 1.371094 C 10.164062 1.476562 9.6875 1.554688 9.199219 1.511719 C 8.738281 1.464844 8.296875 1.546875 7.933594 1.859375 C 7.765625 2 7.601562 2.148438 7.453125 2.304688 C 7.121094 2.652344 6.816406 3.027344 6.726562 3.507812 C 6.667969 3.804688 6.605469 4.089844 6.441406 4.347656 C 6.398438 4.417969 6.375 4.507812 6.359375 4.589844 C 6.308594 4.929688 6.234375 5.269531 6.21875 5.613281 C 6.199219 6.128906 6.222656 6.640625 6.226562 7.167969 C 6.21875 7.171875 6.183594 7.183594 6.144531 7.191406 C 5.335938 7.363281 4.652344 7.761719 4.09375 8.363281 C 3.429688 9.082031 3.042969 9.9375 2.820312 10.871094 C 2.597656 11.796875 2.535156 12.742188 2.511719 13.6875 C 2.457031 15.695312 2.234375 17.683594 2.066406 19.679688 C 1.972656 20.8125 1.898438 21.949219 1.878906 23.082031 C 1.859375 24.195312 1.925781 25.308594 1.945312 26.421875 C 1.957031 27.039062 1.980469 27.652344 2.101562 28.257812 C 2.398438 29.773438 3.238281 30.828125 4.75 31.308594 C 5.253906 31.464844 5.773438 31.574219 6.285156 31.71875 C 7.988281 32.199219 9.730469 32.410156 11.492188 32.523438 C 12.21875 32.570312 12.945312 32.625 13.671875 32.667969 C 15.027344 32.746094 16.378906 32.839844 17.734375 32.882812 C 19.226562 32.929688 20.714844 32.972656 22.199219 33.09375 C 23.367188 33.1875 24.535156 33.234375 25.699219 33.0625 C 26.546875 32.933594 27.363281 32.707031 28.117188 32.296875 C 28.925781 31.859375 29.574219 31.238281 30.117188 30.511719 C 30.949219 29.410156 31.507812 28.175781 31.898438 26.867188 C 32.40625 25.171875 32.664062 23.433594 32.769531 21.671875 C 32.882812 19.828125 32.789062 17.988281 32.554688 16.160156 C 32.394531 14.917969 32.148438 13.695312 31.875 12.476562 C 31.671875 11.578125 31.390625 10.71875 30.835938 9.964844 C 30.316406 9.261719 29.71875 8.65625 28.871094 8.34375 C 28.625 8.25 28.386719 8.140625 28.148438 8.03125 C 27.992188 7.953125 27.988281 7.882812 28.0625 7.726562 C 28.171875 7.503906 28.289062 7.277344 28.359375 7.039062 C 28.5625 6.351562 28.503906 5.65625 28.375 4.957031 C 28.304688 4.59375 28.21875 4.242188 27.839844 4.054688 C 27.992188 3.816406 28.085938 3.570312 28.101562 3.300781 C 28.152344 2.304688 27.761719 1.550781 26.839844 1.09375 C 26.78125 1.066406 26.730469 1.019531 26.671875 1 C 26.519531 0.945312 26.359375 0.898438 26.203125 0.839844 C 26.183594 0.832031 26.164062 0.832031 26.132812 0.832031 C 25.878906 0.789062 25.640625 0.746094 25.398438 0.691406 C 25.402344 0.648438 25.40625 0.613281 25.410156 0.574219 C 25.398438 0.574219 25.382812 0.570312 25.371094 0.566406 C 25.359375 0.609375 25.347656 0.652344 25.324219 0.695312 C 25.238281 0.6875 25.160156 0.679688 25.082031 0.660156 C 25.070312 0.625 25.054688 0.597656 25.042969 0.574219 C 25.027344 0.601562 25.011719 0.628906 24.988281 0.660156 C 24.964844 0.660156 24.953125 0.65625 24.9375 0.644531 C 24.921875 0.609375 24.910156 0.582031 24.890625 0.546875 C 25.003906 0.523438 25.105469 0.488281 25.207031 0.488281 C 25.367188 0.484375 25.53125 0.511719 25.695312 0.511719 C 26.71875 0.511719 27.746094 0.511719 28.769531 0.507812 C 28.867188 0.507812 28.964844 0.46875 29.058594 0.453125 C 29.199219 0.433594 29.339844 0.40625 29.484375 0.40625 C 29.6875 0.40625 29.890625 0.425781 30.101562 0.4375 C 30.136719 0.117188 30.390625 0.230469 30.578125 0.183594 C 30.578125 0.128906 30.578125 0.078125 30.578125 0.0273438 C 31.726562 0.0273438 32.878906 0.0273438 34.027344 0.0273438 C 34.027344 11.316406 34.027344 22.601562 34.015625 33.902344 C 22.679688 33.914062 11.351562 33.914062 0.0273438 33.914062 M 26.164062 0.75 C 26.164062 0.75 26.164062 0.753906 26.164062 0.75 M 25.214844 0.613281 C 25.214844 0.613281 25.210938 0.613281 25.214844 0.613281 Z M 25.214844 0.613281 "/>
<path style=" stroke:none;fill-rule:nonzero;fill:rgb(97.647059%,97.647059%,97.647059%);fill-opacity:1;" d="M 30.5625 0.0273438 C 30.578125 0.078125 30.578125 0.128906 30.578125 0.183594 C 30.390625 0.230469 30.136719 0.117188 30.101562 0.4375 C 29.890625 0.425781 29.6875 0.40625 29.484375 0.40625 C 29.339844 0.40625 29.199219 0.433594 29.058594 0.453125 C 28.964844 0.46875 28.867188 0.507812 28.769531 0.507812 C 27.746094 0.511719 26.71875 0.511719 25.695312 0.511719 C 25.53125 0.511719 25.367188 0.484375 25.207031 0.488281 C 25.105469 0.488281 25.003906 0.523438 24.890625 0.546875 C 24.910156 0.582031 24.921875 0.609375 24.925781 0.644531 C 24.886719 0.65625 24.855469 0.652344 24.824219 0.640625 C 24.789062 0.601562 24.753906 0.574219 24.71875 0.542969 C 24.703125 0.574219 24.691406 0.609375 24.667969 0.640625 C 24.628906 0.640625 24.59375 0.632812 24.566406 0.621094 C 24.621094 0.515625 24.550781 0.496094 24.484375 0.484375 C 24.378906 0.46875 24.355469 0.535156 24.351562 0.625 C 23.90625 0.605469 23.476562 0.578125 23.046875 0.558594 C 21.511719 0.496094 19.976562 0.417969 18.441406 0.382812 C 17.265625 0.351562 16.085938 0.40625 14.914062 0.539062 C 14.527344 0.582031 14.136719 0.632812 13.75 0.679688 C 13.726562 0.542969 13.664062 0.488281 13.503906 0.503906 C 13.273438 0.527344 13.035156 0.511719 12.800781 0.511719 C 11.914062 0.511719 11.023438 0.511719 10.132812 0.507812 C 10.070312 0.507812 10.011719 0.457031 9.949219 0.441406 C 9.867188 0.421875 9.785156 0.402344 9.703125 0.402344 C 9.519531 0.40625 9.332031 0.417969 9.148438 0.425781 C 9.125 0.425781 9.089844 0.425781 9.082031 0.410156 C 8.976562 0.230469 8.753906 0.285156 8.605469 0.164062 C 8.605469 0.136719 8.601562 0.09375 8.601562 0.0390625 C 15.917969 0.0273438 23.234375 0.0273438 30.5625 0.0273438 Z M 30.5625 0.0273438 "/>
<path style=" stroke:none;fill-rule:nonzero;fill:rgb(89.411765%,89.411765%,89.411765%);fill-opacity:1;" d="M 0.0273438 33.929688 C 11.351562 33.914062 22.679688 33.914062 34.015625 33.914062 C 34.027344 33.953125 34.027344 33.992188 34.027344 34.027344 C 22.695312 34.027344 11.363281 34.027344 0.0273438 34.027344 C 0.0273438 34 0.0273438 33.972656 0.0273438 33.929688 Z M 0.0273438 33.929688 "/>
<path style=" stroke:none;fill-rule:nonzero;fill:rgb(0.392157%,0.392157%,0.392157%);fill-opacity:1;" d="M 13.738281 0.683594 C 14.136719 0.632812 14.527344 0.582031 14.914062 0.539062 C 16.085938 0.40625 17.265625 0.351562 18.441406 0.382812 C 19.976562 0.417969 21.511719 0.496094 23.046875 0.558594 C 23.476562 0.578125 23.90625 0.605469 24.359375 0.625 C 24.441406 0.628906 24.503906 0.628906 24.5625 0.628906 C 24.59375 0.632812 24.628906 0.640625 24.679688 0.644531 C 24.742188 0.648438 24.78125 0.648438 24.824219 0.648438 C 24.855469 0.652344 24.886719 0.65625 24.925781 0.65625 C 24.953125 0.65625 24.964844 0.660156 24.992188 0.664062 C 25.035156 0.667969 25.058594 0.667969 25.082031 0.667969 C 25.160156 0.679688 25.238281 0.6875 25.332031 0.699219 C 25.367188 0.703125 25.382812 0.703125 25.398438 0.703125 C 25.640625 0.746094 25.878906 0.789062 26.136719 0.839844 C 26.171875 0.847656 26.1875 0.847656 26.203125 0.851562 C 26.359375 0.898438 26.519531 0.945312 26.671875 1 C 26.730469 1.019531 26.78125 1.066406 26.839844 1.09375 C 27.761719 1.550781 28.152344 2.304688 28.101562 3.300781 C 28.085938 3.570312 27.992188 3.816406 27.839844 4.054688 C 28.21875 4.242188 28.304688 4.59375 28.375 4.957031 C 28.503906 5.65625 28.5625 6.351562 28.359375 7.039062 C 28.289062 7.277344 28.171875 7.503906 28.0625 7.726562 C 27.988281 7.882812 27.992188 7.953125 28.148438 8.03125 C 28.386719 8.140625 28.625 8.25 28.871094 8.34375 C 29.71875 8.65625 30.316406 9.261719 30.835938 9.964844 C 31.390625 10.71875 31.671875 11.578125 31.875 12.476562 C 32.148438 13.695312 32.394531 14.917969 32.554688 16.160156 C 32.789062 17.988281 32.882812 19.828125 32.769531 21.671875 C 32.664062 23.433594 32.40625 25.171875 31.898438 26.867188 C 31.507812 28.175781 30.949219 29.410156 30.117188 30.511719 C 29.574219 31.238281 28.925781 31.859375 28.117188 32.296875 C 27.363281 32.707031 26.546875 32.933594 25.699219 33.0625 C 24.535156 33.234375 23.367188 33.1875 22.199219 33.09375 C 20.714844 32.972656 19.226562 32.929688 17.734375 32.882812 C 16.378906 32.839844 15.027344 32.746094 13.671875 32.667969 C 12.945312 32.625 12.21875 32.570312 11.492188 32.523438 C 9.730469 32.410156 7.988281 32.199219 6.285156 31.71875 C 5.773438 31.574219 5.253906 31.464844 4.75 31.308594 C 3.238281 30.828125 2.398438 29.773438 2.101562 28.257812 C 1.980469 27.652344 1.957031 27.039062 1.945312 26.421875 C 1.925781 25.308594 1.859375 24.195312 1.878906 23.082031 C 1.898438 21.949219 1.972656 20.8125 2.066406 19.679688 C 2.234375 17.683594 2.457031 15.695312 2.511719 13.6875 C 2.535156 12.742188 2.597656 11.796875 2.820312 10.871094 C 3.042969 9.9375 3.429688 9.082031 4.09375 8.363281 C 4.652344 7.761719 5.335938 7.363281 6.144531 7.191406 C 6.183594 7.183594 6.21875 7.171875 6.226562 7.167969 C 6.222656 6.640625 6.199219 6.128906 6.21875 5.613281 C 6.234375 5.269531 6.308594 4.929688 6.359375 4.589844 C 6.375 4.507812 6.398438 4.417969 6.441406 4.347656 C 6.605469 4.089844 6.667969 3.804688 6.726562 3.507812 C 6.816406 3.027344 7.121094 2.652344 7.453125 2.304688 C 7.601562 2.148438 7.765625 2 7.933594 1.859375 C 8.296875 1.546875 8.738281 1.464844 9.199219 1.511719 C 9.6875 1.554688 10.164062 1.476562 10.636719 1.371094 C 11.046875 1.28125 11.457031 1.160156 11.867188 1.058594 C 12.171875 0.988281 12.476562 0.921875 12.78125 0.863281 C 13.09375 0.800781 13.410156 0.746094 13.738281 0.683594 M 4.289062 13.722656 C 4.28125 13.9375 4.265625 14.15625 4.261719 14.375 C 4.222656 16.175781 3.996094 17.960938 3.847656 19.753906 C 3.761719 20.792969 3.675781 21.832031 3.664062 22.875 C 3.652344 24.265625 3.707031 25.660156 3.75 27.050781 C 3.761719 27.394531 3.820312 27.738281 3.886719 28.074219 C 4.050781 28.882812 4.535156 29.421875 5.34375 29.648438 C 5.796875 29.777344 6.261719 29.878906 6.714844 30.007812 C 8.179688 30.421875 9.679688 30.628906 11.195312 30.734375 C 12.035156 30.792969 12.878906 30.855469 13.71875 30.90625 C 15.042969 30.984375 16.367188 31.082031 17.695312 31.117188 C 19.410156 31.164062 21.121094 31.242188 22.832031 31.375 C 23.800781 31.445312 24.765625 31.445312 25.726562 31.269531 C 26.867188 31.0625 27.824219 30.558594 28.546875 29.644531 C 29.292969 28.703125 29.792969 27.640625 30.144531 26.511719 C 30.632812 24.9375 30.875 23.324219 30.984375 21.683594 C 31.105469 19.871094 31.007812 18.066406 30.769531 16.269531 C 30.597656 14.980469 30.335938 13.707031 30.03125 12.441406 C 29.839844 11.640625 29.449219 10.960938 28.859375 10.382812 C 28.59375 10.117188 28.25 10 27.914062 9.863281 C 27.417969 9.65625 26.929688 9.441406 26.578125 9.011719 C 26.5625 8.988281 26.488281 8.992188 26.445312 9.003906 C 25.953125 9.125 25.464844 9.28125 24.964844 9.375 C 24.3125 9.5 23.644531 9.558594 22.992188 9.6875 C 21.65625 9.953125 20.308594 10.113281 18.945312 10.144531 C 17.738281 10.171875 16.53125 10.171875 15.324219 10.179688 C 14.46875 10.179688 13.617188 10.132812 12.773438 9.988281 C 11.75 9.808594 10.722656 9.625 9.699219 9.433594 C 8.855469 9.28125 8.019531 9.109375 7.3125 8.703125 C 7.085938 8.765625 6.902344 8.84375 6.710938 8.875 C 6.121094 8.964844 5.648438 9.238281 5.285156 9.699219 C 4.839844 10.253906 4.59375 10.898438 4.496094 11.589844 C 4.394531 12.285156 4.355469 12.992188 4.289062 13.722656 M 25.953125 3.324219 C 26.042969 3.277344 26.128906 3.226562 26.21875 3.183594 C 26.324219 3.132812 26.332031 3.054688 26.3125 2.957031 C 26.277344 2.789062 26.152344 2.691406 26.003906 2.652344 C 25.699219 2.570312 25.394531 2.484375 25.082031 2.449219 C 24.574219 2.394531 24.058594 2.378906 23.546875 2.351562 C 22.15625 2.285156 20.761719 2.214844 19.371094 2.160156 C 18.066406 2.105469 16.761719 2.140625 15.460938 2.25 C 14.261719 2.351562 13.085938 2.582031 11.921875 2.882812 C 10.996094 3.121094 10.066406 3.355469 9.09375 3.269531 C 9.058594 3.265625 9.007812 3.269531 8.988281 3.289062 C 8.808594 3.46875 8.636719 3.648438 8.464844 3.828125 C 8.46875 3.847656 8.472656 3.871094 8.476562 3.890625 C 8.761719 3.988281 9.039062 4.105469 9.328125 4.171875 C 10.640625 4.476562 11.980469 4.609375 13.324219 4.6875 C 14.507812 4.757812 15.691406 4.773438 16.871094 4.6875 C 17.984375 4.609375 19.101562 4.527344 20.207031 4.390625 C 21.515625 4.230469 22.820312 4.011719 24.125 3.808594 C 24.742188 3.710938 25.351562 3.574219 25.953125 3.324219 M 19.082031 8 C 19.136719 7.429688 19.019531 6.875 18.949219 6.324219 C 18.074219 6.382812 17.210938 6.4375 16.351562 6.496094 C 16.125 7.125 16.277344 7.769531 16.292969 8.390625 C 17.238281 8.390625 18.160156 8.390625 19.082031 8.390625 C 19.082031 8.253906 19.082031 8.140625 19.082031 8 M 22.027344 5.917969 C 21.609375 5.980469 21.195312 6.042969 20.78125 6.105469 C 20.765625 6.164062 20.734375 6.222656 20.746094 6.273438 C 20.847656 6.898438 20.898438 7.523438 20.867188 8.15625 C 20.863281 8.179688 20.875 8.207031 20.878906 8.261719 C 21.769531 8.109375 22.652344 7.957031 23.527344 7.808594 C 23.363281 7.125 23.203125 6.449219 23.039062 5.761719 C 22.710938 5.8125 22.382812 5.863281 22.027344 5.917969 M 12.847656 8.214844 C 13.394531 8.3125 13.941406 8.375 14.476562 8.390625 C 14.476562 7.753906 14.476562 7.128906 14.476562 6.507812 C 13.765625 6.472656 13.066406 6.4375 12.359375 6.402344 C 12.074219 6.9375 12.242188 7.511719 12.1875 8.066406 C 12.414062 8.117188 12.617188 8.164062 12.847656 8.214844 M 7.984375 5.910156 C 7.996094 6.214844 8.003906 6.523438 8.019531 6.828125 C 8.03125 7.023438 8.136719 7.160156 8.3125 7.230469 C 8.550781 7.324219 8.792969 7.421875 9.042969 7.484375 C 9.488281 7.597656 9.941406 7.683594 10.382812 7.78125 C 10.417969 7.230469 10.449219 6.707031 10.480469 6.175781 C 9.65625 6.054688 8.808594 5.925781 8 5.597656 C 7.996094 5.703125 7.988281 5.792969 7.984375 5.910156 M 26.558594 6.785156 C 26.605469 6.59375 26.679688 6.40625 26.695312 6.210938 C 26.734375 5.800781 26.65625 5.394531 26.558594 5.015625 C 25.972656 5.179688 25.402344 5.335938 24.804688 5.503906 C 24.964844 6.164062 25.128906 6.835938 25.296875 7.53125 C 25.535156 7.445312 25.746094 7.378906 25.953125 7.292969 C 26.199219 7.1875 26.410156 7.039062 26.558594 6.785156 Z M 26.558594 6.785156 "/>
<path style=" stroke:none;fill-rule:nonzero;fill:rgb(97.647059%,97.647059%,97.647059%);fill-opacity:1;" d="M 25.398438 0.691406 C 25.382812 0.703125 25.367188 0.703125 25.34375 0.699219 C 25.347656 0.652344 25.359375 0.609375 25.371094 0.566406 C 25.382812 0.570312 25.398438 0.574219 25.410156 0.574219 C 25.40625 0.613281 25.402344 0.648438 25.398438 0.691406 Z M 25.398438 0.691406 "/>
<path style=" stroke:none;fill-rule:nonzero;fill:rgb(97.647059%,97.647059%,97.647059%);fill-opacity:1;" d="M 25.082031 0.660156 C 25.058594 0.667969 25.035156 0.667969 25.003906 0.660156 C 25.011719 0.628906 25.027344 0.601562 25.042969 0.574219 C 25.054688 0.597656 25.070312 0.625 25.082031 0.660156 Z M 25.082031 0.660156 "/>
<path style=" stroke:none;fill-rule:nonzero;fill:rgb(96.470588%,96.470588%,96.470588%);fill-opacity:1;" d="M 26.203125 0.839844 C 26.1875 0.847656 26.171875 0.847656 26.148438 0.839844 C 26.164062 0.832031 26.183594 0.832031 26.203125 0.839844 Z M 26.203125 0.839844 "/>
<path style=" stroke:none;fill-rule:nonzero;fill:rgb(100%,100%,100%);fill-opacity:1;" d="M 24.566406 0.621094 C 24.503906 0.628906 24.441406 0.628906 24.375 0.625 C 24.355469 0.535156 24.378906 0.46875 24.484375 0.484375 C 24.550781 0.496094 24.621094 0.515625 24.566406 0.621094 Z M 24.566406 0.621094 "/>
<path style=" stroke:none;fill-rule:nonzero;fill:rgb(100%,100%,100%);fill-opacity:1;" d="M 24.824219 0.640625 C 24.78125 0.648438 24.742188 0.648438 24.691406 0.644531 C 24.691406 0.609375 24.703125 0.574219 24.71875 0.542969 C 24.753906 0.574219 24.789062 0.601562 24.824219 0.640625 Z M 24.824219 0.640625 "/>
<path style=" stroke:none;fill-rule:nonzero;fill:rgb(99.607843%,99.607843%,99.607843%);fill-opacity:1;" d="M 4.289062 13.707031 C 4.355469 12.992188 4.394531 12.285156 4.496094 11.589844 C 4.59375 10.898438 4.839844 10.253906 5.285156 9.699219 C 5.648438 9.238281 6.121094 8.964844 6.710938 8.875 C 6.902344 8.84375 7.085938 8.765625 7.3125 8.703125 C 8.019531 9.109375 8.855469 9.28125 9.699219 9.433594 C 10.722656 9.625 11.75 9.808594 12.773438 9.988281 C 13.617188 10.132812 14.46875 10.179688 15.324219 10.179688 C 16.53125 10.171875 17.738281 10.171875 18.945312 10.144531 C 20.308594 10.113281 21.65625 9.953125 22.992188 9.6875 C 23.644531 9.558594 24.3125 9.5 24.964844 9.375 C 25.464844 9.28125 25.953125 9.125 26.445312 9.003906 C 26.488281 8.992188 26.5625 8.988281 26.578125 9.011719 C 26.929688 9.441406 27.417969 9.65625 27.914062 9.863281 C 28.25 10 28.59375 10.117188 28.859375 10.382812 C 29.449219 10.960938 29.839844 11.640625 30.03125 12.441406 C 30.335938 13.707031 30.597656 14.980469 30.769531 16.269531 C 31.007812 18.066406 31.105469 19.871094 30.984375 21.683594 C 30.875 23.324219 30.632812 24.9375 30.144531 26.511719 C 29.792969 27.640625 29.292969 28.703125 28.546875 29.644531 C 27.824219 30.558594 26.867188 31.0625 25.726562 31.269531 C 24.765625 31.445312 23.800781 31.445312 22.832031 31.375 C 21.121094 31.242188 19.410156 31.164062 17.695312 31.117188 C 16.367188 31.082031 15.042969 30.984375 13.71875 30.90625 C 12.878906 30.855469 12.035156 30.792969 11.195312 30.734375 C 9.679688 30.628906 8.179688 30.421875 6.714844 30.007812 C 6.261719 29.878906 5.796875 29.777344 5.34375 29.648438 C 4.535156 29.421875 4.050781 28.882812 3.886719 28.074219 C 3.820312 27.738281 3.761719 27.394531 3.75 27.050781 C 3.707031 25.660156 3.652344 24.265625 3.664062 22.875 C 3.675781 21.832031 3.761719 20.792969 3.847656 19.753906 C 3.996094 17.960938 4.222656 16.175781 4.261719 14.375 C 4.265625 14.15625 4.28125 13.9375 4.289062 13.707031 M 24.644531 15.773438 C 23.984375 14.894531 23.128906 14.355469 22.011719 14.230469 C 20.886719 14.101562 19.945312 14.648438 19.554688 15.695312 C 19.292969 16.402344 19.277344 17.132812 19.339844 17.867188 C 19.441406 19.042969 19.726562 20.179688 20.125 21.289062 C 20.21875 21.550781 20.320312 21.804688 20.421875 22.066406 C 20.011719 22.152344 19.609375 22.234375 19.210938 22.316406 C 18.441406 22.476562 17.675781 22.644531 16.9375 22.917969 C 16.007812 23.261719 15.160156 23.742188 14.382812 24.355469 C 13.964844 24.691406 13.539062 25.007812 13.28125 25.496094 C 12.972656 26.082031 12.789062 26.6875 12.898438 27.351562 C 13.042969 28.207031 13.570312 28.773438 14.339844 29.140625 C 15.136719 29.519531 15.984375 29.671875 16.855469 29.707031 C 17.941406 29.746094 19.007812 29.601562 20.0625 29.378906 C 21.355469 29.105469 22.609375 28.710938 23.863281 28.300781 C 24.671875 28.035156 25.46875 27.734375 26.183594 27.269531 C 26.726562 26.917969 27.191406 26.496094 27.441406 25.886719 C 27.457031 25.855469 27.492188 25.820312 27.527344 25.804688 C 27.882812 25.625 28.054688 25.339844 28.050781 24.945312 C 28.046875 23.953125 27.910156 22.972656 27.65625 22.015625 C 27.054688 19.753906 25.984375 17.710938 24.644531 15.773438 M 16.050781 20.566406 C 16.230469 19.632812 16.097656 18.757812 15.542969 17.964844 C 15.214844 17.492188 14.789062 17.148438 14.210938 17.027344 C 13.339844 16.839844 12.515625 17.007812 11.730469 17.378906 C 10.792969 17.824219 9.980469 18.449219 9.222656 19.144531 C 8.054688 20.214844 7.054688 21.429688 6.113281 22.691406 C 5.628906 23.335938 5.15625 23.992188 4.679688 24.644531 C 4.582031 24.777344 4.476562 24.90625 4.390625 25.050781 C 4.210938 25.363281 4.195312 25.683594 4.371094 26.011719 C 4.417969 26.101562 4.460938 26.199219 4.484375 26.296875 C 4.628906 26.84375 4.835938 27.363281 5.117188 27.855469 C 5.398438 28.347656 5.808594 28.679688 6.355469 28.824219 C 7.65625 29.167969 8.878906 29.019531 9.949219 28.167969 C 10.574219 27.667969 11.167969 27.132812 11.757812 26.589844 C 12.710938 25.722656 13.609375 24.800781 14.398438 23.785156 C 15.140625 22.820312 15.785156 21.800781 16.050781 20.566406 M 6.457031 17.085938 C 6.546875 16.195312 6.734375 15.320312 6.921875 14.449219 C 7.144531 13.410156 7.367188 12.371094 7.574219 11.328125 C 7.644531 10.96875 7.496094 10.671875 7.191406 10.46875 C 6.886719 10.265625 6.558594 10.261719 6.242188 10.445312 C 5.953125 10.609375 5.855469 10.882812 5.792969 11.195312 C 5.617188 12.101562 5.414062 13 5.21875 13.898438 C 4.960938 15.082031 4.695312 16.265625 4.648438 17.480469 C 4.625 18.082031 4.65625 18.675781 4.859375 19.246094 C 4.988281 19.613281 5.351562 19.847656 5.742188 19.824219 C 6.144531 19.800781 6.46875 19.535156 6.5625 19.152344 C 6.613281 18.945312 6.5625 18.753906 6.511719 18.554688 C 6.382812 18.078125 6.417969 17.59375 6.457031 17.085938 Z M 6.457031 17.085938 "/>
<path style=" stroke:none;fill-rule:nonzero;fill:rgb(99.607843%,99.607843%,99.607843%);fill-opacity:1;" d="M 25.945312 3.324219 C 25.351562 3.574219 24.742188 3.710938 24.125 3.808594 C 22.820312 4.011719 21.515625 4.230469 20.207031 4.390625 C 19.101562 4.527344 17.984375 4.609375 16.871094 4.6875 C 15.691406 4.773438 14.507812 4.757812 13.324219 4.6875 C 11.980469 4.609375 10.640625 4.476562 9.328125 4.171875 C 9.039062 4.105469 8.761719 3.988281 8.476562 3.890625 C 8.472656 3.871094 8.46875 3.847656 8.464844 3.828125 C 8.636719 3.648438 8.808594 3.46875 8.988281 3.289062 C 9.007812 3.269531 9.058594 3.265625 9.09375 3.269531 C 10.066406 3.355469 10.996094 3.121094 11.921875 2.882812 C 13.085938 2.582031 14.261719 2.351562 15.460938 2.25 C 16.761719 2.140625 18.066406 2.105469 19.371094 2.160156 C 20.761719 2.214844 22.15625 2.285156 23.546875 2.351562 C 24.058594 2.378906 24.574219 2.394531 25.082031 2.449219 C 25.394531 2.484375 25.699219 2.570312 26.003906 2.652344 C 26.152344 2.691406 26.277344 2.789062 26.3125 2.957031 C 26.332031 3.054688 26.324219 3.132812 26.21875 3.183594 C 26.128906 3.226562 26.042969 3.277344 25.945312 3.324219 Z M 25.945312 3.324219 "/>
<path style=" stroke:none;fill-rule:nonzero;fill:rgb(99.215686%,99.215686%,99.215686%);fill-opacity:1;" d="M 19.082031 8.015625 C 19.082031 8.140625 19.082031 8.253906 19.082031 8.390625 C 18.160156 8.390625 17.238281 8.390625 16.292969 8.390625 C 16.277344 7.769531 16.125 7.125 16.351562 6.496094 C 17.210938 6.4375 18.074219 6.382812 18.949219 6.324219 C 19.019531 6.875 19.136719 7.429688 19.082031 8.015625 Z M 19.082031 8.015625 "/>
<path style=" stroke:none;fill-rule:nonzero;fill:rgb(99.215686%,99.215686%,99.215686%);fill-opacity:1;" d="M 22.039062 5.917969 C 22.382812 5.863281 22.710938 5.8125 23.039062 5.761719 C 23.203125 6.449219 23.363281 7.125 23.527344 7.808594 C 22.652344 7.957031 21.769531 8.109375 20.878906 8.261719 C 20.875 8.207031 20.863281 8.179688 20.867188 8.15625 C 20.898438 7.523438 20.847656 6.898438 20.746094 6.273438 C 20.734375 6.222656 20.765625 6.164062 20.78125 6.105469 C 21.195312 6.042969 21.609375 5.980469 22.039062 5.917969 Z M 22.039062 5.917969 "/>
<path style=" stroke:none;fill-rule:nonzero;fill:rgb(99.215686%,99.215686%,99.215686%);fill-opacity:1;" d="M 12.835938 8.210938 C 12.617188 8.164062 12.414062 8.117188 12.1875 8.066406 C 12.242188 7.511719 12.074219 6.9375 12.359375 6.402344 C 13.066406 6.4375 13.765625 6.472656 14.476562 6.507812 C 14.476562 7.128906 14.476562 7.753906 14.476562 8.390625 C 13.941406 8.375 13.394531 8.3125 12.835938 8.210938 Z M 12.835938 8.210938 "/>
<path style=" stroke:none;fill-rule:nonzero;fill:rgb(99.215686%,99.215686%,99.215686%);fill-opacity:1;" d="M 7.984375 5.894531 C 7.988281 5.792969 7.996094 5.703125 8 5.597656 C 8.808594 5.925781 9.65625 6.054688 10.480469 6.175781 C 10.449219 6.707031 10.417969 7.230469 10.382812 7.78125 C 9.941406 7.683594 9.488281 7.597656 9.042969 7.484375 C 8.792969 7.421875 8.550781 7.324219 8.3125 7.230469 C 8.136719 7.160156 8.03125 7.023438 8.019531 6.828125 C 8.003906 6.523438 7.996094 6.214844 7.984375 5.894531 Z M 7.984375 5.894531 "/>
<path style=" stroke:none;fill-rule:nonzero;fill:rgb(99.215686%,99.215686%,99.215686%);fill-opacity:1;" d="M 26.554688 6.792969 C 26.410156 7.039062 26.199219 7.1875 25.953125 7.292969 C 25.746094 7.378906 25.535156 7.445312 25.296875 7.53125 C 25.128906 6.835938 24.964844 6.164062 24.804688 5.503906 C 25.402344 5.335938 25.972656 5.179688 26.558594 5.015625 C 26.65625 5.394531 26.734375 5.800781 26.695312 6.210938 C 26.679688 6.40625 26.605469 6.59375 26.554688 6.792969 Z M 26.554688 6.792969 "/>
<path style=" stroke:none;fill-rule:nonzero;fill:rgb(0.392157%,0.392157%,0.392157%);fill-opacity:1;" d="M 24.648438 15.78125 C 25.984375 17.710938 27.054688 19.753906 27.65625 22.015625 C 27.910156 22.972656 28.046875 23.953125 28.050781 24.945312 C 28.054688 25.339844 27.882812 25.625 27.527344 25.804688 C 27.492188 25.820312 27.457031 25.855469 27.441406 25.886719 C 27.191406 26.496094 26.726562 26.917969 26.183594 27.269531 C 25.46875 27.734375 24.671875 28.035156 23.863281 28.300781 C 22.609375 28.710938 21.355469 29.105469 20.0625 29.378906 C 19.007812 29.601562 17.941406 29.746094 16.855469 29.707031 C 15.984375 29.671875 15.136719 29.519531 14.339844 29.140625 C 13.570312 28.773438 13.042969 28.207031 12.898438 27.351562 C 12.789062 26.6875 12.972656 26.082031 13.28125 25.496094 C 13.539062 25.007812 13.964844 24.691406 14.382812 24.355469 C 15.160156 23.742188 16.007812 23.261719 16.9375 22.917969 C 17.675781 22.644531 18.441406 22.476562 19.210938 22.316406 C 19.609375 22.234375 20.011719 22.152344 20.421875 22.066406 C 20.320312 21.804688 20.21875 21.550781 20.125 21.289062 C 19.726562 20.179688 19.441406 19.042969 19.339844 17.867188 C 19.277344 17.132812 19.292969 16.402344 19.554688 15.695312 C 19.945312 14.648438 20.886719 14.101562 22.011719 14.230469 C 23.128906 14.355469 23.984375 14.894531 24.648438 15.78125 M 25.644531 24.792969 C 25.441406 24.582031 25.265625 24.347656 25.039062 24.171875 C 24.503906 23.761719 23.867188 23.632812 23.207031 23.597656 C 22.277344 23.546875 21.367188 23.683594 20.417969 23.867188 C 20.449219 24.015625 20.476562 24.15625 20.507812 24.296875 C 20.523438 24.359375 20.554688 24.414062 20.570312 24.472656 C 20.707031 24.953125 20.839844 25.433594 20.96875 25.917969 C 21.070312 26.292969 21.132812 26.675781 21.085938 27.070312 C 21.074219 27.152344 21.0625 27.230469 21.046875 27.339844 C 21.707031 27.132812 22.34375 26.933594 22.980469 26.730469 C 23.683594 26.507812 24.386719 26.277344 25.03125 25.90625 C 25.289062 25.757812 25.535156 25.59375 25.71875 25.355469 C 25.800781 25.246094 25.820312 25.128906 25.765625 25.007812 C 25.734375 24.9375 25.691406 24.875 25.644531 24.792969 M 23.957031 21.90625 C 24.679688 22.015625 25.351562 22.246094 25.96875 22.652344 C 25.886719 21.980469 24.960938 19.609375 24.617188 19.191406 C 24.355469 19.570312 23.988281 19.8125 23.574219 19.984375 C 23.214844 20.132812 22.839844 20.25 22.472656 20.386719 C 22.246094 20.46875 22.019531 20.566406 21.785156 20.660156 C 21.945312 21.070312 22.09375 21.449219 22.234375 21.800781 C 22.796875 21.835938 23.367188 21.867188 23.957031 21.90625 Z M 23.957031 21.90625 "/>
<path style=" stroke:none;fill-rule:nonzero;fill:rgb(0.392157%,0.392157%,0.392157%);fill-opacity:1;" d="M 16.050781 20.578125 C 15.785156 21.800781 15.140625 22.820312 14.398438 23.785156 C 13.609375 24.800781 12.710938 25.722656 11.757812 26.589844 C 11.167969 27.132812 10.574219 27.667969 9.949219 28.167969 C 8.878906 29.019531 7.65625 29.167969 6.355469 28.824219 C 5.808594 28.679688 5.398438 28.347656 5.117188 27.855469 C 4.835938 27.363281 4.628906 26.84375 4.484375 26.296875 C 4.460938 26.199219 4.417969 26.101562 4.371094 26.011719 C 4.195312 25.683594 4.210938 25.363281 4.390625 25.050781 C 4.476562 24.90625 4.582031 24.777344 4.679688 24.644531 C 5.15625 23.992188 5.628906 23.335938 6.113281 22.691406 C 7.054688 21.429688 8.054688 20.214844 9.222656 19.144531 C 9.980469 18.449219 10.792969 17.824219 11.730469 17.378906 C 12.515625 17.007812 13.339844 16.839844 14.210938 17.027344 C 14.789062 17.148438 15.214844 17.492188 15.542969 17.964844 C 16.097656 18.757812 16.230469 19.632812 16.050781 20.578125 M 12.546875 23.246094 C 12.789062 22.941406 13.039062 22.640625 13.269531 22.328125 C 13.714844 21.707031 14.105469 21.0625 14.285156 20.308594 C 14.40625 19.789062 14.367188 19.292969 13.996094 18.867188 C 13.9375 18.804688 13.839844 18.75 13.757812 18.734375 C 13.277344 18.664062 12.835938 18.792969 12.417969 19.007812 C 11.828125 19.304688 11.292969 19.691406 10.796875 20.121094 C 10.539062 20.339844 10.296875 20.566406 10.039062 20.800781 C 10.609375 21.136719 10.933594 21.652344 11.226562 22.183594 C 11.523438 22.714844 11.773438 23.269531 12.042969 23.816406 C 12.195312 23.644531 12.363281 23.453125 12.546875 23.246094 Z M 12.546875 23.246094 "/>
<path style=" stroke:none;fill-rule:nonzero;fill:rgb(0.392157%,0.392157%,0.392157%);fill-opacity:1;" d="M 6.457031 17.101562 C 6.417969 17.59375 6.382812 18.078125 6.511719 18.554688 C 6.5625 18.753906 6.613281 18.945312 6.5625 19.152344 C 6.46875 19.535156 6.144531 19.800781 5.742188 19.824219 C 5.351562 19.847656 4.988281 19.613281 4.859375 19.246094 C 4.65625 18.675781 4.625 18.082031 4.648438 17.480469 C 4.695312 16.265625 4.960938 15.082031 5.21875 13.898438 C 5.414062 13 5.617188 12.101562 5.792969 11.195312 C 5.855469 10.882812 5.953125 10.609375 6.242188 10.445312 C 6.558594 10.261719 6.886719 10.265625 7.191406 10.46875 C 7.496094 10.671875 7.644531 10.96875 7.574219 11.328125 C 7.367188 12.371094 7.144531 13.410156 6.921875 14.449219 C 6.734375 15.320312 6.546875 16.195312 6.457031 17.101562 Z M 6.457031 17.101562 "/>
<path style=" stroke:none;fill-rule:nonzero;fill:rgb(99.607843%,99.607843%,99.607843%);fill-opacity:1;" d="M 25.648438 24.800781 C 25.691406 24.875 25.734375 24.9375 25.765625 25.007812 C 25.820312 25.128906 25.800781 25.246094 25.71875 25.355469 C 25.535156 25.59375 25.289062 25.757812 25.03125 25.90625 C 24.386719 26.277344 23.683594 26.507812 22.980469 26.730469 C 22.34375 26.933594 21.707031 27.132812 21.046875 27.339844 C 21.0625 27.230469 21.074219 27.152344 21.085938 27.070312 C 21.132812 26.675781 21.070312 26.292969 20.96875 25.917969 C 20.839844 25.433594 20.707031 24.953125 20.570312 24.472656 C 20.554688 24.414062 20.523438 24.359375 20.507812 24.296875 C 20.476562 24.15625 20.449219 24.015625 20.417969 23.867188 C 21.367188 23.683594 22.277344 23.546875 23.207031 23.597656 C 23.867188 23.632812 24.503906 23.761719 25.039062 24.171875 C 25.265625 24.347656 25.441406 24.582031 25.648438 24.800781 Z M 25.648438 24.800781 "/>
<path style=" stroke:none;fill-rule:nonzero;fill:rgb(99.215686%,99.215686%,99.215686%);fill-opacity:1;" d="M 23.945312 21.902344 C 23.367188 21.867188 22.796875 21.835938 22.234375 21.800781 C 22.09375 21.449219 21.945312 21.070312 21.785156 20.660156 C 22.019531 20.566406 22.246094 20.46875 22.472656 20.386719 C 22.839844 20.25 23.214844 20.132812 23.574219 19.984375 C 23.988281 19.8125 24.355469 19.570312 24.617188 19.191406 C 24.960938 19.609375 25.886719 21.980469 25.96875 22.652344 C 25.351562 22.246094 24.679688 22.015625 23.945312 21.902344 Z M 23.945312 21.902344 "/>
<path style=" stroke:none;fill-rule:nonzero;fill:rgb(99.215686%,99.215686%,99.215686%);fill-opacity:1;" d="M 12.539062 23.253906 C 12.363281 23.453125 12.195312 23.644531 12.042969 23.816406 C 11.773438 23.269531 11.523438 22.714844 11.226562 22.183594 C 10.933594 21.652344 10.609375 21.136719 10.039062 20.800781 C 10.296875 20.566406 10.539062 20.339844 10.796875 20.121094 C 11.292969 19.691406 11.828125 19.304688 12.417969 19.007812 C 12.835938 18.792969 13.277344 18.664062 13.757812 18.734375 C 13.839844 18.75 13.9375 18.804688 13.996094 18.867188 C 14.367188 19.292969 14.40625 19.789062 14.285156 20.308594 C 14.105469 21.0625 13.714844 21.707031 13.269531 22.328125 C 13.039062 22.640625 12.789062 22.941406 12.539062 23.253906 Z M 12.539062 23.253906 "/>
</g>
</svg>
