<?xml version="1.0" encoding="UTF-8"?>
<svg xmlns="http://www.w3.org/2000/svg" xmlns:xlink="http://www.w3.org/1999/xlink" width="34px" height="34px" viewBox="0 0 34 34" version="1.1">
<g id="surface1">
<path style=" stroke:none;fill-rule:nonzero;fill:rgb(100%,100%,100%);fill-opacity:1;" d="M 34.03125 0.0585938 C 34.03125 11.382812 34.03125 22.703125 34.03125 34.027344 C 22.699219 34.027344 11.367188 34.027344 0.03125 34.027344 C 0.03125 22.714844 0.03125 11.398438 0.0351562 0.0703125 C 0.0507812 0.046875 0.0585938 0.0390625 0.0585938 0.03125 C 11.363281 0.03125 22.667969 0.03125 33.988281 0.0351562 C 34.011719 0.0507812 34.019531 0.0546875 34.03125 0.0585938 M 32.71875 20.246094 C 32.730469 19.945312 32.6875 19.664062 32.480469 19.429688 C 31.816406 18.675781 31.167969 17.910156 30.492188 17.164062 C 28.113281 14.542969 25.542969 12.113281 22.789062 9.875 C 22.265625 9.449219 21.71875 9.050781 21.21875 8.601562 C 20.703125 8.132812 20.238281 7.609375 19.738281 7.117188 C 19.210938 6.597656 18.648438 6.121094 17.949219 5.835938 C 17.167969 5.515625 16.382812 5.488281 15.667969 5.976562 C 15.300781 6.222656 14.980469 6.542969 14.664062 6.855469 C 14.332031 7.175781 14.054688 7.550781 13.71875 7.859375 C 12.5 8.980469 11.261719 10.082031 10.035156 11.195312 C 9.8125 11.394531 9.597656 11.605469 9.371094 11.820312 C 9.355469 11.78125 9.347656 11.757812 9.34375 11.734375 C 9.269531 11.28125 9.207031 10.828125 9.125 10.378906 C 9.023438 9.808594 8.929688 9.234375 8.792969 8.671875 C 8.628906 8.015625 8.273438 7.492188 7.605469 7.234375 C 7.167969 7.066406 6.714844 7.0625 6.261719 7.140625 C 5.824219 7.214844 5.386719 7.3125 4.949219 7.40625 C 4.867188 7.421875 4.785156 7.449219 4.710938 7.488281 C 4.351562 7.679688 4.164062 7.980469 4.160156 8.386719 C 4.15625 9.363281 4.257812 10.332031 4.386719 11.300781 C 4.492188 12.101562 4.59375 12.902344 4.738281 13.695312 C 4.8125 14.121094 4.921875 14.554688 5.09375 14.953125 C 5.203125 15.207031 5.304688 15.457031 5.367188 15.722656 C 5.382812 15.78125 5.363281 15.871094 5.324219 15.914062 C 5.164062 16.109375 4.988281 16.289062 4.820312 16.480469 C 3.964844 17.433594 3.097656 18.375 2.058594 19.144531 C 1.679688 19.425781 1.339844 19.753906 1.140625 20.195312 C 1.089844 20.300781 1.03125 20.402344 0.96875 20.5 C 0.722656 20.871094 0.640625 21.273438 0.769531 21.699219 C 1.011719 22.480469 1.59375 22.917969 2.355469 23.148438 C 2.742188 23.265625 3.128906 23.277344 3.484375 23.03125 C 3.503906 23.015625 3.53125 23.015625 3.554688 23.007812 C 3.710938 22.953125 3.886719 22.921875 4.027344 22.839844 C 4.394531 22.613281 4.75 22.367188 5.105469 22.128906 C 5.167969 22.085938 5.226562 22.035156 5.300781 21.980469 C 5.300781 22.03125 5.304688 22.054688 5.304688 22.082031 C 5.308594 23.089844 5.308594 24.101562 5.320312 25.109375 C 5.335938 26.257812 5.355469 27.40625 5.390625 28.550781 C 5.410156 29.136719 5.507812 29.722656 5.5 30.304688 C 5.488281 31.078125 5.632812 31.832031 5.753906 32.585938 C 5.828125 33.058594 6.246094 33.394531 6.773438 33.386719 C 7.480469 33.375 8.1875 33.351562 8.894531 33.300781 C 9.75 33.242188 10.605469 33.1875 11.464844 33.226562 C 12.085938 33.253906 12.710938 33.28125 13.332031 33.277344 C 15.023438 33.273438 16.710938 33.125 18.394531 33.015625 C 19.886719 32.917969 21.382812 32.84375 22.875 32.773438 C 23.113281 32.761719 23.355469 32.796875 23.589844 32.835938 C 24.277344 32.945312 24.960938 33.089844 25.664062 33.042969 C 26.210938 33.007812 26.761719 32.976562 27.308594 32.953125 C 27.847656 32.929688 28.382812 32.957031 28.90625 33.117188 C 29.007812 33.148438 29.121094 33.152344 29.230469 33.148438 C 29.582031 33.144531 29.824219 32.933594 30.054688 32.699219 C 30.289062 32.453125 30.375 32.167969 30.34375 31.832031 C 30.289062 31.226562 30.222656 30.617188 30.203125 30.007812 C 30.160156 28.585938 30.296875 27.171875 30.386719 25.757812 C 30.46875 24.464844 30.535156 23.171875 30.441406 21.875 C 30.433594 21.785156 30.441406 21.695312 30.441406 21.566406 C 30.621094 21.621094 30.785156 21.671875 30.945312 21.726562 C 31.074219 21.769531 31.195312 21.828125 31.324219 21.859375 C 31.738281 21.96875 32.128906 21.925781 32.464844 21.644531 C 32.851562 21.316406 32.949219 20.808594 32.71875 20.246094 M 18.820312 1.941406 C 18.648438 1.851562 18.480469 1.757812 18.308594 1.667969 C 17.492188 1.242188 16.644531 1.183594 15.78125 1.492188 C 15.375 1.636719 14.980469 1.8125 14.59375 2.003906 C 14.042969 2.277344 13.46875 2.441406 12.851562 2.359375 C 12.429688 2.300781 12.007812 2.214844 11.59375 2.109375 C 10.820312 1.90625 10.0625 1.648438 9.257812 1.589844 C 7.949219 1.496094 6.835938 1.894531 5.941406 2.855469 C 5.171875 3.6875 5.113281 4.648438 5.453125 5.65625 C 5.652344 6.246094 6.339844 6.480469 6.894531 6.207031 C 7.445312 5.941406 7.644531 5.28125 7.339844 4.75 C 7.246094 4.589844 7.257812 4.421875 7.367188 4.28125 C 7.78125 3.742188 8.351562 3.53125 9.019531 3.566406 C 9.617188 3.597656 10.183594 3.78125 10.75 3.941406 C 11.382812 4.121094 12.015625 4.289062 12.671875 4.34375 C 13.65625 4.429688 14.582031 4.242188 15.460938 3.796875 C 15.785156 3.628906 16.128906 3.496094 16.472656 3.359375 C 16.769531 3.242188 17.066406 3.265625 17.351562 3.417969 C 17.558594 3.53125 17.769531 3.640625 17.976562 3.757812 C 18.484375 4.050781 18.984375 4.359375 19.550781 4.535156 C 20.421875 4.808594 21.222656 4.703125 21.910156 4.066406 C 22.1875 3.804688 22.300781 3.484375 22.21875 3.113281 C 22.054688 2.363281 21.152344 2.074219 20.566406 2.585938 C 20.464844 2.675781 20.371094 2.710938 20.242188 2.664062 C 20.1875 2.644531 20.125 2.636719 20.074219 2.609375 C 19.660156 2.390625 19.25 2.171875 18.820312 1.941406 Z M 18.820312 1.941406 "/>
<path style=" stroke:none;fill-rule:nonzero;fill:rgb(88.627452%,88.627452%,88.627452%);fill-opacity:1;" d="M 0.0429688 0.03125 C 0.0585938 0.0390625 0.0507812 0.046875 0.0351562 0.0546875 C 0.03125 0.0507812 0.03125 0.0390625 0.0429688 0.03125 Z M 0.0429688 0.03125 "/>
<path style=" stroke:none;fill-rule:nonzero;fill:rgb(0.392157%,0.392157%,0.392157%);fill-opacity:1;" d="M 32.726562 20.253906 C 32.949219 20.808594 32.851562 21.316406 32.464844 21.644531 C 32.128906 21.925781 31.738281 21.96875 31.324219 21.859375 C 31.195312 21.828125 31.074219 21.769531 30.945312 21.726562 C 30.785156 21.671875 30.621094 21.621094 30.441406 21.566406 C 30.441406 21.695312 30.433594 21.785156 30.441406 21.875 C 30.535156 23.171875 30.46875 24.464844 30.386719 25.757812 C 30.296875 27.171875 30.160156 28.585938 30.203125 30.007812 C 30.222656 30.617188 30.289062 31.226562 30.34375 31.832031 C 30.375 32.167969 30.289062 32.453125 30.054688 32.699219 C 29.824219 32.933594 29.582031 33.144531 29.230469 33.148438 C 29.121094 33.152344 29.007812 33.148438 28.90625 33.117188 C 28.382812 32.957031 27.847656 32.929688 27.308594 32.953125 C 26.761719 32.976562 26.210938 33.007812 25.664062 33.042969 C 24.960938 33.089844 24.277344 32.945312 23.589844 32.835938 C 23.355469 32.796875 23.113281 32.761719 22.875 32.773438 C 21.382812 32.84375 19.886719 32.917969 18.394531 33.015625 C 16.710938 33.125 15.023438 33.273438 13.332031 33.277344 C 12.710938 33.28125 12.085938 33.253906 11.464844 33.226562 C 10.605469 33.1875 9.75 33.242188 8.894531 33.300781 C 8.1875 33.351562 7.480469 33.375 6.773438 33.386719 C 6.246094 33.394531 5.828125 33.058594 5.753906 32.585938 C 5.632812 31.832031 5.488281 31.078125 5.5 30.304688 C 5.507812 29.722656 5.410156 29.136719 5.390625 28.550781 C 5.355469 27.40625 5.335938 26.257812 5.320312 25.109375 C 5.308594 24.101562 5.308594 23.089844 5.304688 22.082031 C 5.304688 22.054688 5.300781 22.03125 5.300781 21.980469 C 5.226562 22.035156 5.167969 22.085938 5.105469 22.128906 C 4.75 22.367188 4.394531 22.613281 4.027344 22.839844 C 3.886719 22.921875 3.710938 22.953125 3.554688 23.007812 C 3.53125 23.015625 3.503906 23.015625 3.484375 23.03125 C 3.128906 23.277344 2.742188 23.265625 2.355469 23.148438 C 1.59375 22.917969 1.011719 22.480469 0.769531 21.699219 C 0.640625 21.273438 0.722656 20.871094 0.96875 20.5 C 1.03125 20.402344 1.089844 20.300781 1.140625 20.195312 C 1.339844 19.753906 1.679688 19.425781 2.058594 19.144531 C 3.097656 18.375 3.964844 17.433594 4.820312 16.480469 C 4.988281 16.289062 5.164062 16.109375 5.324219 15.914062 C 5.363281 15.871094 5.382812 15.78125 5.367188 15.722656 C 5.304688 15.457031 5.203125 15.207031 5.09375 14.953125 C 4.921875 14.554688 4.8125 14.121094 4.738281 13.695312 C 4.59375 12.902344 4.492188 12.101562 4.386719 11.300781 C 4.257812 10.332031 4.15625 9.363281 4.160156 8.386719 C 4.164062 7.980469 4.351562 7.679688 4.710938 7.488281 C 4.785156 7.449219 4.867188 7.421875 4.949219 7.40625 C 5.386719 7.3125 5.824219 7.214844 6.261719 7.140625 C 6.714844 7.0625 7.167969 7.066406 7.605469 7.234375 C 8.273438 7.492188 8.628906 8.015625 8.792969 8.671875 C 8.929688 9.234375 9.023438 9.808594 9.125 10.378906 C 9.207031 10.828125 9.269531 11.28125 9.34375 11.734375 C 9.347656 11.757812 9.355469 11.78125 9.371094 11.820312 C 9.597656 11.605469 9.8125 11.394531 10.035156 11.195312 C 11.261719 10.082031 12.5 8.980469 13.71875 7.859375 C 14.054688 7.550781 14.332031 7.175781 14.664062 6.855469 C 14.980469 6.542969 15.300781 6.222656 15.667969 5.976562 C 16.382812 5.488281 17.167969 5.515625 17.949219 5.835938 C 18.648438 6.121094 19.210938 6.597656 19.738281 7.117188 C 20.238281 7.609375 20.703125 8.132812 21.21875 8.601562 C 21.71875 9.050781 22.265625 9.449219 22.789062 9.875 C 25.542969 12.113281 28.113281 14.542969 30.492188 17.164062 C 31.167969 17.910156 31.816406 18.675781 32.480469 19.429688 C 32.6875 19.664062 32.730469 19.945312 32.726562 20.253906 M 12.203125 14.703125 C 12.152344 14.75 12.105469 14.796875 12.054688 14.847656 C 10.390625 16.496094 8.683594 18.105469 7.242188 19.960938 C 7.203125 20.011719 7.171875 20.089844 7.175781 20.152344 C 7.222656 20.875 7.304688 21.597656 7.324219 22.320312 C 7.351562 23.328125 7.324219 24.339844 7.332031 25.347656 C 7.339844 26.316406 7.355469 27.289062 7.386719 28.257812 C 7.417969 29.109375 7.480469 29.957031 7.53125 30.808594 C 7.542969 30.996094 7.5625 31.179688 7.582031 31.394531 C 9.355469 31.253906 11.109375 31.144531 12.878906 31.304688 C 12.851562 31.140625 12.824219 31.011719 12.808594 30.882812 C 12.792969 30.746094 12.78125 30.605469 12.78125 30.46875 C 12.792969 29.210938 13.125 28.023438 13.640625 26.882812 C 14.058594 25.953125 14.796875 25.394531 15.753906 25.109375 C 16.40625 24.917969 17.082031 24.832031 17.761719 24.839844 C 18.671875 24.851562 19.445312 25.195312 20.058594 25.867188 C 20.539062 26.394531 20.832031 27.019531 21.039062 27.6875 C 21.308594 28.566406 21.410156 29.46875 21.457031 30.378906 C 21.464844 30.523438 21.472656 30.667969 21.476562 30.792969 C 21.773438 30.792969 22.042969 30.800781 22.308594 30.789062 C 22.890625 30.765625 23.464844 30.773438 24.035156 30.890625 C 24.757812 31.042969 25.480469 31.085938 26.21875 31.023438 C 26.792969 30.972656 27.375 30.980469 27.953125 30.964844 C 28.039062 30.960938 28.128906 30.972656 28.226562 30.980469 C 28.214844 30.800781 28.203125 30.640625 28.199219 30.480469 C 28.128906 28.648438 28.3125 26.828125 28.417969 25.003906 C 28.484375 23.8125 28.515625 22.621094 28.382812 21.433594 C 28.347656 21.140625 28.253906 20.847656 28.375 20.570312 C 27.808594 20.128906 27.265625 19.6875 26.695312 19.269531 C 25.613281 18.476562 24.582031 17.625 23.601562 16.714844 C 21.800781 15.050781 20.140625 13.253906 18.476562 11.460938 C 17.996094 10.941406 17.410156 10.546875 16.871094 10.085938 C 16.476562 10.667969 16.011719 11.164062 15.507812 11.628906 C 14.410156 12.648438 13.316406 13.667969 12.203125 14.703125 Z M 12.203125 14.703125 "/>
<path style=" stroke:none;fill-rule:nonzero;fill:rgb(0.392157%,0.392157%,0.392157%);fill-opacity:1;" d="M 18.832031 1.945312 C 19.25 2.171875 19.660156 2.390625 20.074219 2.609375 C 20.125 2.636719 20.1875 2.644531 20.242188 2.664062 C 20.371094 2.710938 20.464844 2.675781 20.566406 2.585938 C 21.152344 2.074219 22.054688 2.363281 22.21875 3.113281 C 22.300781 3.484375 22.1875 3.804688 21.910156 4.066406 C 21.222656 4.703125 20.421875 4.808594 19.550781 4.535156 C 18.984375 4.359375 18.484375 4.050781 17.976562 3.757812 C 17.769531 3.640625 17.558594 3.53125 17.351562 3.417969 C 17.066406 3.265625 16.769531 3.242188 16.472656 3.359375 C 16.128906 3.496094 15.785156 3.628906 15.460938 3.796875 C 14.582031 4.242188 13.65625 4.429688 12.671875 4.34375 C 12.015625 4.289062 11.382812 4.121094 10.75 3.941406 C 10.183594 3.78125 9.617188 3.597656 9.019531 3.566406 C 8.351562 3.53125 7.78125 3.742188 7.367188 4.28125 C 7.257812 4.421875 7.246094 4.589844 7.339844 4.75 C 7.644531 5.28125 7.445312 5.941406 6.894531 6.207031 C 6.339844 6.480469 5.652344 6.246094 5.453125 5.65625 C 5.113281 4.648438 5.171875 3.6875 5.941406 2.855469 C 6.835938 1.894531 7.949219 1.496094 9.257812 1.589844 C 10.0625 1.648438 10.820312 1.90625 11.59375 2.109375 C 12.007812 2.214844 12.429688 2.300781 12.851562 2.359375 C 13.46875 2.441406 14.042969 2.277344 14.59375 2.003906 C 14.980469 1.8125 15.375 1.636719 15.78125 1.492188 C 16.644531 1.183594 17.492188 1.242188 18.308594 1.667969 C 18.480469 1.757812 18.648438 1.851562 18.832031 1.945312 Z M 18.832031 1.945312 "/>
<path style=" stroke:none;fill-rule:nonzero;fill:rgb(100%,100%,100%);fill-opacity:1;" d="M 12.210938 14.695312 C 13.316406 13.667969 14.410156 12.648438 15.507812 11.628906 C 16.011719 11.164062 16.476562 10.667969 16.871094 10.085938 C 17.410156 10.546875 17.996094 10.941406 18.476562 11.460938 C 20.140625 13.253906 21.800781 15.050781 23.601562 16.714844 C 24.582031 17.625 25.613281 18.476562 26.695312 19.269531 C 27.265625 19.6875 27.808594 20.128906 28.375 20.570312 C 28.253906 20.847656 28.347656 21.140625 28.382812 21.433594 C 28.515625 22.621094 28.484375 23.8125 28.417969 25.003906 C 28.3125 26.828125 28.128906 28.648438 28.199219 30.480469 C 28.203125 30.640625 28.214844 30.800781 28.226562 30.980469 C 28.128906 30.972656 28.039062 30.960938 27.953125 30.964844 C 27.375 30.980469 26.792969 30.972656 26.21875 31.023438 C 25.480469 31.085938 24.757812 31.042969 24.035156 30.890625 C 23.464844 30.773438 22.890625 30.765625 22.308594 30.789062 C 22.042969 30.800781 21.773438 30.792969 21.476562 30.792969 C 21.472656 30.667969 21.464844 30.523438 21.457031 30.378906 C 21.410156 29.46875 21.308594 28.566406 21.039062 27.6875 C 20.832031 27.019531 20.539062 26.394531 20.058594 25.867188 C 19.445312 25.195312 18.671875 24.851562 17.761719 24.839844 C 17.082031 24.832031 16.40625 24.917969 15.753906 25.109375 C 14.796875 25.394531 14.058594 25.953125 13.640625 26.882812 C 13.125 28.023438 12.792969 29.210938 12.78125 30.46875 C 12.78125 30.605469 12.792969 30.746094 12.808594 30.882812 C 12.824219 31.011719 12.851562 31.140625 12.878906 31.304688 C 11.109375 31.144531 9.355469 31.253906 7.582031 31.394531 C 7.5625 31.179688 7.542969 30.996094 7.53125 30.808594 C 7.480469 29.957031 7.417969 29.109375 7.386719 28.257812 C 7.355469 27.289062 7.339844 26.316406 7.332031 25.347656 C 7.324219 24.339844 7.351562 23.328125 7.324219 22.320312 C 7.304688 21.597656 7.222656 20.875 7.175781 20.152344 C 7.171875 20.089844 7.203125 20.011719 7.242188 19.960938 C 8.683594 18.105469 10.390625 16.496094 12.054688 14.847656 C 12.105469 14.796875 12.152344 14.75 12.210938 14.695312 M 16.085938 16.257812 C 15.558594 16.414062 15.09375 16.703125 14.632812 16.996094 C 14.261719 17.230469 13.972656 17.558594 13.746094 17.9375 C 13.273438 18.746094 13.300781 19.609375 13.835938 20.304688 C 13.988281 20.5 14.148438 20.691406 14.324219 20.863281 C 14.738281 21.277344 15.207031 21.632812 15.789062 21.789062 C 16.59375 22.003906 17.34375 21.824219 18.0625 21.449219 C 18.753906 21.085938 19.246094 20.511719 19.671875 19.882812 C 19.847656 19.628906 19.945312 19.332031 19.960938 19.023438 C 20.027344 18 19.566406 17.234375 18.710938 16.707031 C 18.429688 16.535156 18.089844 16.453125 17.777344 16.328125 C 17.230469 16.109375 16.675781 16.089844 16.085938 16.257812 Z M 16.085938 16.257812 "/>
<path style=" stroke:none;fill-rule:nonzero;fill:rgb(0.392157%,0.392157%,0.392157%);fill-opacity:1;" d="M 16.097656 16.257812 C 16.675781 16.089844 17.230469 16.109375 17.777344 16.328125 C 18.089844 16.453125 18.429688 16.535156 18.710938 16.707031 C 19.566406 17.234375 20.027344 18 19.960938 19.023438 C 19.945312 19.332031 19.847656 19.628906 19.671875 19.882812 C 19.246094 20.511719 18.753906 21.085938 18.0625 21.449219 C 17.34375 21.824219 16.59375 22.003906 15.789062 21.789062 C 15.207031 21.632812 14.738281 21.277344 14.324219 20.863281 C 14.148438 20.691406 13.988281 20.5 13.835938 20.304688 C 13.300781 19.609375 13.273438 18.746094 13.746094 17.9375 C 13.972656 17.558594 14.261719 17.230469 14.632812 16.996094 C 15.09375 16.703125 15.558594 16.414062 16.097656 16.257812 Z M 16.097656 16.257812 "/>
</g>
</svg>
