<?xml version="1.0" encoding="UTF-8"?>
<svg xmlns="http://www.w3.org/2000/svg" xmlns:xlink="http://www.w3.org/1999/xlink" width="56px" height="34px" viewBox="0 0 56 34" version="1.1">
<g id="surface1">
<path style=" stroke:none;fill-rule:nonzero;fill:rgb(100%,100%,100%);fill-opacity:1;" d="M 36.3125 34.050781 C 24.210938 34.050781 12.128906 34.050781 0.046875 34.050781 C 0.046875 22.722656 0.046875 11.394531 0.046875 0.0585938 C 18.707031 0.0585938 37.367188 0.0585938 56.035156 0.0585938 C 56.035156 11.386719 56.035156 22.71875 56.035156 34.050781 C 49.472656 34.050781 42.902344 34.050781 36.3125 34.050781 M 53.414062 18.074219 C 53.445312 17.777344 53.480469 17.484375 53.503906 17.1875 C 53.660156 15.457031 53.664062 13.71875 53.625 11.984375 C 53.59375 10.699219 53.621094 9.429688 53.832031 8.164062 C 53.972656 7.339844 53.855469 6.535156 53.390625 5.859375 C 52.992188 5.277344 52.613281 4.671875 52.179688 4.136719 C 51.535156 3.347656 50.855469 2.601562 50.175781 1.863281 C 49.90625 1.566406 49.558594 1.378906 49.191406 1.492188 C 48.917969 1.570312 48.660156 1.550781 48.394531 1.523438 C 48.207031 1.503906 48.015625 1.496094 47.828125 1.484375 C 46.785156 1.417969 45.746094 1.332031 44.707031 1.292969 C 42.90625 1.222656 41.105469 1.085938 39.308594 1.148438 C 35.957031 1.257812 32.609375 1.503906 29.257812 1.664062 C 25.910156 1.828125 22.558594 1.984375 19.207031 2.082031 C 15.5625 2.191406 11.917969 2.230469 8.273438 2.300781 C 7.640625 2.3125 7.011719 2.304688 6.378906 2.335938 C 5.882812 2.355469 5.496094 2.664062 5.1875 3.113281 C 4.960938 3.433594 4.769531 3.789062 4.542969 4.109375 C 3.898438 5.015625 3.25 5.917969 2.59375 6.804688 C 2.195312 7.339844 1.945312 7.90625 2.152344 8.644531 C 2.160156 8.667969 2.15625 8.695312 2.160156 8.722656 C 2.199219 9.65625 2.25 10.59375 2.28125 11.53125 C 2.304688 12.246094 2.292969 12.96875 2.320312 13.683594 C 2.339844 14.101562 2.453125 14.515625 2.449219 14.933594 C 2.4375 16.996094 2.621094 19.042969 2.804688 21.089844 C 2.882812 21.917969 3.101562 22.664062 3.761719 23.101562 C 3.804688 23.125 3.839844 23.179688 3.859375 23.230469 C 4.101562 23.777344 4.484375 24.042969 4.988281 23.996094 C 5.769531 23.921875 6.558594 23.867188 7.332031 23.699219 C 8.890625 23.363281 10.441406 23.335938 12.011719 23.554688 C 13.027344 23.695312 14.058594 23.816406 15.082031 23.808594 C 17.648438 23.789062 20.214844 23.699219 22.777344 23.617188 C 25.53125 23.53125 28.285156 23.390625 31.039062 23.328125 C 33.027344 23.28125 35.019531 23.28125 37.007812 23.34375 C 39.367188 23.421875 41.726562 23.613281 44.085938 23.714844 C 45.601562 23.78125 47.117188 23.785156 48.632812 23.792969 C 49.433594 23.800781 50.238281 23.792969 51.035156 23.722656 C 51.550781 23.679688 52.039062 23.480469 52.308594 22.859375 C 52.335938 22.796875 52.40625 22.757812 52.460938 22.726562 C 52.804688 22.523438 53.027344 22.191406 53.105469 21.753906 C 53.175781 21.378906 53.210938 20.992188 53.242188 20.609375 C 53.304688 19.78125 53.351562 18.949219 53.414062 18.074219 Z M 53.414062 18.074219 "/>
<path style=" stroke:none;fill-rule:nonzero;fill:rgb(0.784314%,0.784314%,0.784314%);fill-opacity:1;" d="M 53.410156 18.097656 C 53.351562 18.949219 53.304688 19.78125 53.242188 20.609375 C 53.210938 20.992188 53.175781 21.378906 53.105469 21.753906 C 53.027344 22.191406 52.804688 22.523438 52.460938 22.726562 C 52.40625 22.757812 52.335938 22.796875 52.308594 22.859375 C 52.039062 23.480469 51.550781 23.679688 51.035156 23.722656 C 50.238281 23.792969 49.433594 23.800781 48.632812 23.792969 C 47.117188 23.785156 45.601562 23.78125 44.085938 23.714844 C 41.726562 23.613281 39.367188 23.421875 37.007812 23.34375 C 35.019531 23.28125 33.027344 23.28125 31.039062 23.328125 C 28.285156 23.390625 25.53125 23.53125 22.777344 23.617188 C 20.214844 23.699219 17.648438 23.789062 15.082031 23.808594 C 14.058594 23.816406 13.027344 23.695312 12.011719 23.554688 C 10.441406 23.335938 8.890625 23.363281 7.332031 23.699219 C 6.558594 23.867188 5.769531 23.921875 4.988281 23.996094 C 4.484375 24.042969 4.101562 23.777344 3.859375 23.230469 C 3.839844 23.179688 3.804688 23.125 3.761719 23.101562 C 3.101562 22.664062 2.882812 21.917969 2.804688 21.089844 C 2.621094 19.042969 2.4375 16.996094 2.449219 14.933594 C 2.453125 14.515625 2.339844 14.101562 2.320312 13.683594 C 2.292969 12.96875 2.304688 12.246094 2.28125 11.53125 C 2.25 10.59375 2.199219 9.65625 2.160156 8.722656 C 2.15625 8.695312 2.160156 8.667969 2.152344 8.644531 C 1.945312 7.90625 2.195312 7.339844 2.59375 6.804688 C 3.25 5.917969 3.898438 5.015625 4.542969 4.109375 C 4.769531 3.789062 4.960938 3.433594 5.1875 3.113281 C 5.496094 2.664062 5.882812 2.355469 6.378906 2.335938 C 7.011719 2.304688 7.640625 2.3125 8.273438 2.300781 C 11.917969 2.230469 15.5625 2.191406 19.207031 2.082031 C 22.558594 1.984375 25.910156 1.828125 29.257812 1.664062 C 32.609375 1.503906 35.957031 1.257812 39.308594 1.148438 C 41.105469 1.085938 42.90625 1.222656 44.707031 1.292969 C 45.746094 1.332031 46.785156 1.417969 47.828125 1.484375 C 48.015625 1.496094 48.207031 1.503906 48.394531 1.523438 C 48.660156 1.550781 48.917969 1.570312 49.191406 1.492188 C 49.558594 1.378906 49.90625 1.566406 50.175781 1.863281 C 50.855469 2.601562 51.535156 3.347656 52.179688 4.136719 C 52.613281 4.671875 52.992188 5.277344 53.390625 5.859375 C 53.855469 6.535156 53.972656 7.339844 53.832031 8.164062 C 53.621094 9.429688 53.59375 10.699219 53.625 11.984375 C 53.664062 13.71875 53.660156 15.457031 53.503906 17.1875 C 53.480469 17.484375 53.445312 17.777344 53.410156 18.097656 M 34.234375 16.832031 C 36.484375 16.78125 38.738281 16.726562 40.988281 16.683594 C 41.550781 16.671875 42.113281 16.652344 42.671875 16.710938 C 44.117188 16.867188 45.554688 17.074219 47 17.246094 C 47.453125 17.300781 47.914062 17.3125 48.382812 17.34375 C 48.402344 17.21875 48.414062 17.125 48.433594 17.035156 C 48.605469 16.238281 48.488281 15.386719 48.78125 14.613281 C 48.792969 14.585938 48.785156 14.546875 48.785156 14.511719 C 48.769531 12.714844 48.785156 10.914062 48.734375 9.117188 C 48.6875 7.578125 48.566406 6.042969 48.476562 4.503906 C 48.46875 4.316406 48.398438 4.253906 48.242188 4.25 C 47.675781 4.242188 47.105469 4.234375 46.539062 4.199219 C 44.863281 4.089844 43.191406 3.910156 41.519531 3.871094 C 40.019531 3.835938 38.515625 3.925781 37.015625 3.996094 C 34.902344 4.089844 32.792969 4.226562 30.679688 4.324219 C 26.855469 4.5 23.03125 4.699219 19.207031 4.820312 C 15.371094 4.9375 11.539062 4.96875 7.703125 5.039062 C 7.625 5.039062 7.546875 5.039062 7.421875 5.039062 C 7.585938 9.222656 7.75 13.367188 7.914062 17.519531 C 8.3125 17.449219 8.707031 17.359375 9.101562 17.3125 C 10.902344 17.109375 12.703125 16.933594 14.5 16.714844 C 16.574219 16.464844 18.644531 16.375 20.726562 16.503906 C 22.609375 16.617188 24.496094 16.785156 26.382812 16.824219 C 28.984375 16.878906 31.585938 16.832031 34.234375 16.832031 M 10.265625 19.953125 C 9.773438 20.011719 9.277344 20.066406 8.785156 20.128906 C 8.382812 20.175781 7.976562 20.230469 7.570312 20.28125 C 7.523438 20.289062 7.457031 20.28125 7.429688 20.316406 C 7.269531 20.527344 7.121094 20.746094 6.929688 21.011719 C 7.234375 20.957031 7.476562 20.917969 7.714844 20.871094 C 8.859375 20.640625 10.003906 20.589844 11.15625 20.71875 C 12.203125 20.832031 13.246094 20.992188 14.292969 21.046875 C 15.179688 21.09375 16.070312 21.011719 16.957031 20.996094 C 18.902344 20.957031 20.851562 20.9375 22.796875 20.878906 C 25.601562 20.792969 28.40625 20.648438 31.210938 20.585938 C 33.175781 20.542969 35.144531 20.542969 37.113281 20.609375 C 39.421875 20.6875 41.726562 20.875 44.035156 20.976562 C 45.644531 21.042969 47.257812 21.042969 48.867188 21.070312 C 48.925781 21.074219 48.984375 21.070312 49.027344 21.070312 C 48.785156 20.746094 48.550781 20.429688 48.308594 20.117188 C 48.277344 20.078125 48.207031 20.070312 48.152344 20.0625 C 46.949219 19.941406 45.742188 19.828125 44.539062 19.699219 C 43.753906 19.613281 42.972656 19.4375 42.191406 19.425781 C 40.382812 19.410156 38.574219 19.4375 36.765625 19.5 C 31.386719 19.6875 26.011719 19.675781 20.636719 19.242188 C 18.664062 19.082031 16.691406 19.199219 14.722656 19.433594 C 13.25 19.613281 11.777344 19.78125 10.265625 19.953125 M 5.554688 15.1875 C 5.441406 12.585938 5.328125 9.988281 5.214844 7.335938 C 4.992188 7.640625 4.8125 7.902344 4.621094 8.152344 C 4.503906 8.300781 4.445312 8.460938 4.453125 8.667969 C 4.488281 9.472656 4.503906 10.277344 4.550781 11.078125 C 4.613281 12.089844 4.46875 13.113281 4.679688 14.113281 C 4.730469 14.339844 4.730469 14.585938 4.734375 14.820312 C 4.753906 15.625 4.757812 16.433594 4.78125 17.238281 C 4.800781 17.984375 4.84375 18.730469 5.011719 19.492188 C 5.214844 19.207031 5.398438 18.949219 5.578125 18.683594 C 5.605469 18.644531 5.621094 18.578125 5.621094 18.523438 C 5.601562 17.425781 5.578125 16.332031 5.554688 15.1875 M 51.34375 11.503906 C 51.285156 10.332031 51.335938 9.175781 51.550781 8.027344 C 51.636719 7.570312 51.308594 6.847656 50.988281 6.664062 C 51.011719 9.007812 51.035156 11.375 51.054688 13.742188 C 51.058594 14.195312 51.101562 14.65625 50.886719 15.074219 C 50.871094 15.105469 50.875 15.160156 50.875 15.203125 C 50.855469 16.382812 50.71875 17.539062 50.453125 18.675781 C 50.4375 18.742188 50.449219 18.859375 50.488281 18.898438 C 50.648438 19.070312 50.824219 19.222656 50.988281 19.375 C 51.320312 16.773438 51.421875 14.167969 51.34375 11.503906 Z M 51.34375 11.503906 "/>
<path style=" stroke:none;fill-rule:nonzero;fill:rgb(99.607843%,99.607843%,99.607843%);fill-opacity:1;" d="M 34.210938 16.832031 C 31.585938 16.832031 28.984375 16.878906 26.382812 16.824219 C 24.496094 16.785156 22.609375 16.617188 20.726562 16.503906 C 18.644531 16.375 16.574219 16.464844 14.5 16.714844 C 12.703125 16.933594 10.902344 17.109375 9.101562 17.3125 C 8.707031 17.359375 8.3125 17.449219 7.914062 17.519531 C 7.75 13.367188 7.585938 9.222656 7.421875 5.039062 C 7.546875 5.039062 7.625 5.039062 7.703125 5.039062 C 11.539062 4.96875 15.371094 4.9375 19.207031 4.820312 C 23.03125 4.699219 26.855469 4.5 30.679688 4.324219 C 32.792969 4.226562 34.902344 4.089844 37.015625 3.996094 C 38.515625 3.925781 40.019531 3.835938 41.519531 3.871094 C 43.191406 3.910156 44.863281 4.089844 46.539062 4.199219 C 47.105469 4.234375 47.675781 4.242188 48.242188 4.25 C 48.398438 4.253906 48.46875 4.316406 48.476562 4.503906 C 48.566406 6.042969 48.6875 7.578125 48.734375 9.117188 C 48.785156 10.914062 48.769531 12.714844 48.785156 14.511719 C 48.785156 14.546875 48.792969 14.585938 48.78125 14.613281 C 48.488281 15.386719 48.605469 16.238281 48.433594 17.035156 C 48.414062 17.125 48.402344 17.21875 48.382812 17.34375 C 47.914062 17.3125 47.453125 17.300781 47 17.246094 C 45.554688 17.074219 44.117188 16.867188 42.671875 16.710938 C 42.113281 16.652344 41.550781 16.671875 40.988281 16.683594 C 38.738281 16.726562 36.484375 16.78125 34.210938 16.832031 M 40.546875 11.488281 C 40.566406 11.199219 40.589844 10.910156 40.605469 10.621094 C 40.660156 9.578125 40.761719 8.554688 41.0625 7.558594 C 41.203125 7.085938 41.269531 6.570312 41.308594 6.070312 C 41.371094 5.273438 40.890625 4.625 40.261719 4.578125 C 39.617188 4.53125 39.109375 5.078125 39.039062 5.875 C 39.015625 6.144531 38.980469 6.417969 38.90625 6.671875 C 38.640625 7.621094 38.4375 8.582031 38.386719 9.589844 C 38.371094 9.914062 38.34375 10.238281 38.320312 10.632812 C 38.253906 10.492188 38.21875 10.417969 38.183594 10.34375 C 37.878906 9.726562 37.613281 9.078125 37.261719 8.503906 C 36.617188 7.460938 35.4375 7.621094 34.960938 8.785156 C 34.859375 9.035156 34.800781 9.308594 34.730469 9.578125 C 34.679688 9.777344 34.648438 9.984375 34.589844 10.253906 C 34.324219 9.089844 34.046875 8.007812 34.035156 6.863281 C 34.023438 6.097656 33.507812 5.511719 32.875 5.523438 C 32.253906 5.53125 31.742188 6.132812 31.765625 6.890625 C 31.785156 7.5 31.8125 8.125 31.929688 8.714844 C 32.183594 10.007812 32.5 11.285156 32.792969 12.566406 C 32.898438 13.03125 32.976562 13.507812 33.128906 13.949219 C 33.390625 14.71875 33.984375 15.0625 34.65625 14.910156 C 35.503906 14.71875 35.980469 14.035156 36.308594 13.144531 C 36.390625 12.925781 36.453125 12.699219 36.515625 12.503906 C 36.828125 13.027344 37.117188 13.5625 37.445312 14.0625 C 37.734375 14.496094 38.113281 14.796875 38.589844 14.847656 C 39.324219 14.925781 39.9375 14.449219 40.195312 13.507812 C 40.367188 12.871094 40.433594 12.195312 40.546875 11.488281 M 21.199219 14.882812 C 21.71875 14.863281 22.109375 14.566406 22.332031 14.011719 C 22.449219 13.726562 22.53125 13.40625 22.570312 13.089844 C 22.8125 11.160156 22.90625 9.21875 22.886719 7.269531 C 22.882812 7.082031 22.835938 6.882812 22.769531 6.714844 C 22.546875 6.144531 22.011719 5.839844 21.515625 5.976562 C 20.984375 6.125 20.625 6.65625 20.613281 7.316406 C 20.59375 8.21875 20.574219 9.125 20.550781 10.027344 C 20.542969 10.199219 20.523438 10.371094 20.507812 10.546875 C 20.097656 9.890625 19.746094 9.214844 19.367188 8.558594 C 19.058594 8.023438 18.757812 7.460938 18.375 7 C 17.691406 6.179688 16.628906 6.4375 16.320312 7.476562 C 16.210938 7.835938 16.234375 8.25 16.214844 8.640625 C 16.1875 9.089844 16.21875 9.554688 16.148438 9.992188 C 15.980469 11.050781 15.75 12.09375 15.570312 13.148438 C 15.445312 13.875 15.828125 14.574219 16.402344 14.734375 C 17.023438 14.90625 17.601562 14.503906 17.777344 13.761719 C 17.867188 13.375 17.945312 12.980469 18.023438 12.589844 C 18.09375 12.238281 18.160156 11.882812 18.234375 11.488281 C 18.296875 11.589844 18.335938 11.65625 18.375 11.714844 C 18.878906 12.496094 19.367188 13.292969 19.890625 14.054688 C 20.214844 14.523438 20.625 14.855469 21.199219 14.882812 M 26.417969 14.777344 C 27.078125 15.207031 27.789062 15.269531 28.519531 15.179688 C 29.0625 15.117188 29.601562 15.003906 30.148438 14.953125 C 30.773438 14.894531 31.257812 14.304688 31.25 13.558594 C 31.242188 12.828125 30.753906 12.222656 30.132812 12.21875 C 29.859375 12.214844 29.582031 12.261719 29.308594 12.292969 C 28.820312 12.351562 28.335938 12.414062 27.851562 12.472656 C 27.714844 12.488281 27.636719 12.425781 27.632812 12.238281 C 27.625 12.007812 27.597656 11.773438 27.578125 11.519531 C 28.167969 11.519531 28.738281 11.519531 29.304688 11.515625 C 29.957031 11.511719 30.46875 10.90625 30.464844 10.144531 C 30.460938 9.386719 29.960938 8.789062 29.316406 8.785156 C 28.792969 8.777344 28.269531 8.78125 27.742188 8.78125 C 27.671875 8.78125 27.601562 8.773438 27.535156 8.769531 C 27.535156 8.433594 27.535156 8.121094 27.535156 7.777344 C 28.019531 7.855469 28.488281 7.773438 28.941406 8.085938 C 29.65625 8.582031 30.527344 7.988281 30.601562 6.996094 C 30.65625 6.28125 30.273438 5.628906 29.601562 5.382812 C 28.621094 5.019531 27.609375 4.972656 26.59375 5.132812 C 26.207031 5.195312 25.855469 5.386719 25.652344 5.816406 C 25.417969 6.308594 25.191406 6.8125 25.246094 7.417969 C 25.265625 7.632812 25.246094 7.855469 25.246094 8.074219 C 25.246094 9.707031 25.214844 11.339844 25.421875 12.957031 C 25.519531 13.730469 25.773438 14.386719 26.417969 14.777344 Z M 26.417969 14.777344 "/>
<path style=" stroke:none;fill-rule:nonzero;fill:rgb(98.431373%,98.431373%,98.431373%);fill-opacity:1;" d="M 10.285156 19.953125 C 11.777344 19.78125 13.25 19.613281 14.722656 19.433594 C 16.691406 19.199219 18.664062 19.082031 20.636719 19.242188 C 26.011719 19.675781 31.386719 19.6875 36.765625 19.5 C 38.574219 19.4375 40.382812 19.410156 42.191406 19.425781 C 42.972656 19.4375 43.753906 19.613281 44.539062 19.699219 C 45.742188 19.828125 46.949219 19.941406 48.152344 20.0625 C 48.207031 20.070312 48.277344 20.078125 48.308594 20.117188 C 48.550781 20.429688 48.785156 20.746094 49.027344 21.070312 C 48.984375 21.070312 48.925781 21.074219 48.867188 21.070312 C 47.257812 21.042969 45.644531 21.042969 44.035156 20.976562 C 41.726562 20.875 39.421875 20.6875 37.113281 20.609375 C 35.144531 20.542969 33.175781 20.542969 31.210938 20.585938 C 28.40625 20.648438 25.601562 20.792969 22.796875 20.878906 C 20.851562 20.9375 18.902344 20.957031 16.957031 20.996094 C 16.070312 21.011719 15.179688 21.09375 14.292969 21.046875 C 13.246094 20.992188 12.203125 20.832031 11.15625 20.71875 C 10.003906 20.589844 8.859375 20.640625 7.714844 20.871094 C 7.476562 20.917969 7.234375 20.957031 6.929688 21.011719 C 7.121094 20.746094 7.269531 20.527344 7.429688 20.316406 C 7.457031 20.28125 7.523438 20.289062 7.570312 20.28125 C 7.976562 20.230469 8.382812 20.175781 8.785156 20.128906 C 9.277344 20.066406 9.773438 20.011719 10.285156 19.953125 Z M 10.285156 19.953125 "/>
<path style=" stroke:none;fill-rule:nonzero;fill:rgb(98.039216%,98.039216%,98.039216%);fill-opacity:1;" d="M 5.554688 15.210938 C 5.578125 16.332031 5.601562 17.425781 5.621094 18.523438 C 5.621094 18.578125 5.605469 18.644531 5.578125 18.683594 C 5.398438 18.949219 5.214844 19.207031 5.011719 19.492188 C 4.84375 18.730469 4.800781 17.984375 4.78125 17.238281 C 4.757812 16.433594 4.753906 15.625 4.734375 14.820312 C 4.730469 14.585938 4.730469 14.339844 4.679688 14.113281 C 4.46875 13.113281 4.613281 12.089844 4.550781 11.078125 C 4.503906 10.277344 4.488281 9.472656 4.453125 8.667969 C 4.445312 8.460938 4.503906 8.300781 4.621094 8.152344 C 4.8125 7.902344 4.992188 7.640625 5.214844 7.335938 C 5.328125 9.988281 5.441406 12.585938 5.554688 15.210938 Z M 5.554688 15.210938 "/>
<path style=" stroke:none;fill-rule:nonzero;fill:rgb(96.470588%,96.470588%,96.470588%);fill-opacity:1;" d="M 51.34375 11.527344 C 51.421875 14.167969 51.320312 16.773438 50.988281 19.375 C 50.824219 19.222656 50.648438 19.070312 50.488281 18.898438 C 50.449219 18.859375 50.4375 18.742188 50.453125 18.675781 C 50.71875 17.539062 50.855469 16.382812 50.875 15.203125 C 50.875 15.160156 50.871094 15.105469 50.886719 15.074219 C 51.101562 14.65625 51.058594 14.195312 51.054688 13.742188 C 51.035156 11.375 51.011719 9.007812 50.988281 6.664062 C 51.308594 6.847656 51.636719 7.570312 51.550781 8.027344 C 51.335938 9.175781 51.285156 10.332031 51.34375 11.527344 Z M 51.34375 11.527344 "/>
<path style=" stroke:none;fill-rule:nonzero;fill:rgb(0.784314%,0.784314%,0.784314%);fill-opacity:1;" d="M 40.546875 11.511719 C 40.433594 12.195312 40.367188 12.871094 40.195312 13.507812 C 39.9375 14.449219 39.324219 14.925781 38.589844 14.847656 C 38.113281 14.796875 37.734375 14.496094 37.445312 14.0625 C 37.117188 13.5625 36.828125 13.027344 36.515625 12.503906 C 36.453125 12.699219 36.390625 12.925781 36.308594 13.144531 C 35.980469 14.035156 35.503906 14.71875 34.65625 14.910156 C 33.984375 15.0625 33.390625 14.71875 33.128906 13.949219 C 32.976562 13.507812 32.898438 13.03125 32.792969 12.566406 C 32.5 11.285156 32.183594 10.007812 31.929688 8.714844 C 31.8125 8.125 31.785156 7.5 31.765625 6.890625 C 31.742188 6.132812 32.253906 5.53125 32.875 5.523438 C 33.507812 5.511719 34.023438 6.097656 34.035156 6.863281 C 34.046875 8.007812 34.324219 9.089844 34.589844 10.253906 C 34.648438 9.984375 34.679688 9.777344 34.730469 9.578125 C 34.800781 9.308594 34.859375 9.035156 34.960938 8.785156 C 35.4375 7.621094 36.617188 7.460938 37.261719 8.503906 C 37.613281 9.078125 37.878906 9.726562 38.183594 10.34375 C 38.21875 10.417969 38.253906 10.492188 38.320312 10.632812 C 38.34375 10.238281 38.371094 9.914062 38.386719 9.589844 C 38.4375 8.582031 38.640625 7.621094 38.90625 6.671875 C 38.980469 6.417969 39.015625 6.144531 39.039062 5.875 C 39.109375 5.078125 39.617188 4.53125 40.261719 4.578125 C 40.890625 4.625 41.371094 5.273438 41.308594 6.070312 C 41.269531 6.570312 41.203125 7.085938 41.0625 7.558594 C 40.761719 8.554688 40.660156 9.578125 40.605469 10.621094 C 40.589844 10.910156 40.566406 11.199219 40.546875 11.511719 Z M 40.546875 11.511719 "/>
<path style=" stroke:none;fill-rule:nonzero;fill:rgb(0.784314%,0.784314%,0.784314%);fill-opacity:1;" d="M 21.179688 14.882812 C 20.625 14.855469 20.214844 14.523438 19.890625 14.054688 C 19.367188 13.292969 18.878906 12.496094 18.375 11.714844 C 18.335938 11.65625 18.296875 11.589844 18.234375 11.488281 C 18.160156 11.882812 18.09375 12.238281 18.023438 12.589844 C 17.945312 12.980469 17.867188 13.375 17.777344 13.761719 C 17.601562 14.503906 17.023438 14.90625 16.402344 14.734375 C 15.828125 14.574219 15.445312 13.875 15.570312 13.148438 C 15.75 12.09375 15.980469 11.050781 16.148438 9.992188 C 16.21875 9.554688 16.1875 9.089844 16.214844 8.640625 C 16.234375 8.25 16.210938 7.835938 16.320312 7.476562 C 16.628906 6.4375 17.691406 6.179688 18.375 7 C 18.757812 7.460938 19.058594 8.023438 19.367188 8.558594 C 19.746094 9.214844 20.097656 9.890625 20.507812 10.546875 C 20.523438 10.371094 20.542969 10.199219 20.550781 10.027344 C 20.574219 9.125 20.59375 8.21875 20.613281 7.316406 C 20.625 6.65625 20.984375 6.125 21.515625 5.976562 C 22.011719 5.839844 22.546875 6.144531 22.769531 6.714844 C 22.835938 6.882812 22.882812 7.082031 22.886719 7.269531 C 22.90625 9.21875 22.8125 11.160156 22.570312 13.089844 C 22.53125 13.40625 22.449219 13.726562 22.332031 14.011719 C 22.109375 14.566406 21.71875 14.863281 21.179688 14.882812 Z M 21.179688 14.882812 "/>
<path style=" stroke:none;fill-rule:nonzero;fill:rgb(0.784314%,0.784314%,0.784314%);fill-opacity:1;" d="M 26.402344 14.765625 C 25.773438 14.386719 25.519531 13.730469 25.421875 12.957031 C 25.214844 11.339844 25.246094 9.707031 25.246094 8.074219 C 25.246094 7.855469 25.265625 7.632812 25.246094 7.417969 C 25.191406 6.8125 25.417969 6.308594 25.652344 5.816406 C 25.855469 5.386719 26.207031 5.195312 26.59375 5.132812 C 27.609375 4.972656 28.621094 5.019531 29.601562 5.382812 C 30.273438 5.628906 30.65625 6.28125 30.601562 6.996094 C 30.527344 7.988281 29.65625 8.582031 28.941406 8.085938 C 28.488281 7.773438 28.019531 7.855469 27.535156 7.777344 C 27.535156 8.121094 27.535156 8.433594 27.535156 8.769531 C 27.601562 8.773438 27.671875 8.78125 27.742188 8.78125 C 28.269531 8.78125 28.792969 8.777344 29.316406 8.785156 C 29.960938 8.789062 30.460938 9.386719 30.464844 10.144531 C 30.46875 10.90625 29.957031 11.511719 29.304688 11.515625 C 28.738281 11.519531 28.167969 11.519531 27.578125 11.519531 C 27.597656 11.773438 27.625 12.007812 27.632812 12.238281 C 27.636719 12.425781 27.714844 12.488281 27.851562 12.472656 C 28.335938 12.414062 28.820312 12.351562 29.308594 12.292969 C 29.582031 12.261719 29.859375 12.214844 30.132812 12.21875 C 30.753906 12.222656 31.242188 12.828125 31.25 13.558594 C 31.257812 14.304688 30.773438 14.894531 30.148438 14.953125 C 29.601562 15.003906 29.0625 15.117188 28.519531 15.179688 C 27.789062 15.269531 27.078125 15.207031 26.402344 14.765625 Z M 26.402344 14.765625 "/>
</g>
</svg>
