<?xml version="1.0" encoding="UTF-8"?>
<svg xmlns="http://www.w3.org/2000/svg" xmlns:xlink="http://www.w3.org/1999/xlink" width="120px" height="60px" viewBox="0 0 120 60" version="1.1">
<g id="surface1">
<path style=" stroke:none;fill-rule:nonzero;fill:rgb(99.607843%,99.607843%,99.607843%);fill-opacity:1;" d="M 120 60.09375 C 80.527344 60.09375 41.058594 60.09375 1.527344 60.070312 C 1.417969 60.0625 1.367188 60.078125 1.3125 60.09375 C 1.269531 60.09375 1.230469 60.09375 1.144531 60.070312 C 1.042969 60.0625 0.992188 60.078125 0.9375 60.09375 C 0.867188 60.09375 0.796875 60.09375 0.679688 60.070312 C 0.574219 60.0625 0.523438 60.078125 0.46875 60.09375 C 0.398438 60.09375 0.328125 60.09375 0.222656 60.050781 C 0.191406 44.953125 0.191406 29.902344 0.195312 14.851562 C 0.195312 9.996094 0.199219 5.136719 0.246094 0.277344 C 40.222656 0.277344 80.160156 0.277344 120.09375 0.277344 C 120.09375 20.15625 120.09375 40.035156 120.074219 59.96875 C 120.027344 60.039062 120.007812 60.0625 120 60.09375 M 93.304688 2.425781 C 89.335938 2.242188 85.371094 2.214844 81.402344 2.398438 C 74.414062 2.722656 67.425781 3.058594 60.433594 3.316406 C 51.847656 3.628906 43.261719 3.917969 34.671875 4.125 C 28.332031 4.277344 21.988281 4.273438 15.648438 4.359375 C 15.179688 4.367188 14.714844 4.5625 14.25 4.65625 C 14.019531 4.707031 13.777344 4.785156 13.554688 4.75 C 12.566406 4.601562 11.769531 4.898438 11.144531 5.65625 C 10.960938 5.882812 10.820312 6.148438 10.621094 6.363281 C 9.195312 7.910156 7.78125 9.46875 6.320312 10.984375 C 4.628906 12.738281 2.976562 14.515625 1.828125 16.683594 C 1.371094 17.546875 1.402344 18.386719 1.898438 19.226562 C 1.984375 19.378906 2.046875 19.5625 2.050781 19.734375 C 2.179688 27.578125 2.304688 35.421875 2.425781 43.265625 C 2.4375 44.058594 2.777344 44.675781 3.394531 45.175781 C 3.535156 45.292969 3.671875 45.5 3.6875 45.675781 C 3.785156 46.691406 4.296875 47.390625 5.230469 47.816406 C 5.371094 47.878906 5.527344 47.988281 5.601562 48.117188 C 6.34375 49.429688 7.496094 49.960938 9.003906 49.730469 C 10.019531 49.578125 11.046875 49.472656 12.074219 49.398438 C 15.832031 49.113281 19.59375 49.171875 23.359375 49.304688 C 32.664062 49.640625 41.972656 49.886719 51.28125 49.566406 C 54.496094 49.453125 57.710938 49.253906 60.917969 49.023438 C 63.515625 48.832031 66.105469 48.5 68.703125 48.292969 C 74.433594 47.839844 80.160156 48.078125 85.886719 48.402344 C 90.488281 48.660156 95.085938 48.929688 99.6875 49.164062 C 101.730469 49.269531 103.777344 49.28125 105.820312 49.375 C 107.894531 49.46875 109.96875 49.628906 112.039062 49.3125 C 113.558594 49.078125 114.945312 48.59375 115.855469 47.25 C 115.910156 47.167969 116.019531 47.109375 116.113281 47.066406 C 116.71875 46.777344 117.109375 46.304688 117.382812 45.707031 C 118.15625 44.019531 118.175781 42.261719 117.996094 40.460938 C 117.886719 39.398438 117.816406 38.316406 117.855469 37.25 C 117.90625 35.882812 118.175781 34.523438 118.191406 33.160156 C 118.25 28.792969 118.238281 24.425781 118.242188 20.058594 C 118.242188 18.15625 118.261719 16.25 118.191406 14.34375 C 118.167969 13.757812 118.011719 13.09375 117.6875 12.609375 C 116.570312 10.9375 115.238281 9.429688 113.695312 8.109375 C 112.046875 6.695312 110.417969 5.261719 108.765625 3.855469 C 108.078125 3.265625 107.269531 3.140625 106.394531 3.398438 C 106.230469 3.449219 106.039062 3.472656 105.867188 3.445312 C 104.933594 3.289062 104.007812 3.027344 103.070312 2.964844 C 99.847656 2.75 96.617188 2.601562 93.304688 2.425781 Z M 93.304688 2.425781 "/>
<path style=" stroke:none;fill-rule:nonzero;fill:rgb(87.843138%,87.843138%,87.843138%);fill-opacity:1;" d="M 120.09375 0.230469 C 80.160156 0.277344 40.222656 0.277344 0.238281 0.246094 C 0.191406 0.175781 0.1875 0.132812 0.1875 0.09375 C 40.015625 0.09375 79.84375 0.09375 119.671875 0.0976562 C 119.8125 0.0976562 119.953125 0.152344 120.09375 0.230469 Z M 120.09375 0.230469 "/>
<path style=" stroke:none;fill-rule:nonzero;fill:rgb(36.862746%,60.000002%,74.509805%);fill-opacity:1;" d="M 0.140625 0.09375 C 0.1875 0.132812 0.191406 0.175781 0.199219 0.246094 C 0.199219 5.136719 0.195312 9.996094 0.195312 14.851562 C 0.191406 29.902344 0.191406 44.953125 0.1875 60.050781 C 0.15625 60.078125 0.0976562 60.0625 0.0976562 60.046875 C 0.0898438 59.921875 0.09375 59.800781 0.09375 59.675781 C 0.09375 39.816406 0.09375 19.953125 0.140625 0.09375 Z M 0.140625 0.09375 "/>
<path style=" stroke:none;fill-rule:nonzero;fill:rgb(0.784314%,0.784314%,0.784314%);fill-opacity:1;" d="M 93.347656 2.425781 C 96.617188 2.601562 99.847656 2.75 103.070312 2.964844 C 104.007812 3.027344 104.933594 3.289062 105.867188 3.445312 C 106.039062 3.472656 106.230469 3.449219 106.394531 3.398438 C 107.269531 3.140625 108.078125 3.265625 108.765625 3.855469 C 110.417969 5.261719 112.046875 6.695312 113.695312 8.109375 C 115.238281 9.429688 116.570312 10.9375 117.6875 12.609375 C 118.011719 13.09375 118.167969 13.757812 118.191406 14.34375 C 118.261719 16.25 118.242188 18.15625 118.242188 20.058594 C 118.238281 24.425781 118.25 28.792969 118.191406 33.160156 C 118.175781 34.523438 117.90625 35.882812 117.855469 37.25 C 117.816406 38.316406 117.886719 39.398438 117.996094 40.460938 C 118.175781 42.261719 118.15625 44.019531 117.382812 45.707031 C 117.109375 46.304688 116.71875 46.777344 116.113281 47.066406 C 116.019531 47.109375 115.910156 47.167969 115.855469 47.25 C 114.945312 48.59375 113.558594 49.078125 112.039062 49.3125 C 109.96875 49.628906 107.894531 49.46875 105.820312 49.375 C 103.777344 49.28125 101.730469 49.269531 99.6875 49.164062 C 95.085938 48.929688 90.488281 48.660156 85.886719 48.402344 C 80.160156 48.078125 74.433594 47.839844 68.703125 48.292969 C 66.105469 48.5 63.515625 48.832031 60.917969 49.023438 C 57.710938 49.253906 54.496094 49.453125 51.28125 49.566406 C 41.972656 49.886719 32.664062 49.640625 23.359375 49.304688 C 19.59375 49.171875 15.832031 49.113281 12.074219 49.398438 C 11.046875 49.472656 10.019531 49.578125 9.003906 49.730469 C 7.496094 49.960938 6.34375 49.429688 5.601562 48.117188 C 5.527344 47.988281 5.371094 47.878906 5.230469 47.816406 C 4.296875 47.390625 3.785156 46.691406 3.6875 45.675781 C 3.671875 45.5 3.535156 45.292969 3.394531 45.175781 C 2.777344 44.675781 2.4375 44.058594 2.425781 43.265625 C 2.304688 35.421875 2.179688 27.578125 2.050781 19.734375 C 2.046875 19.5625 1.984375 19.378906 1.898438 19.226562 C 1.402344 18.386719 1.371094 17.546875 1.828125 16.683594 C 2.976562 14.515625 4.628906 12.738281 6.320312 10.984375 C 7.78125 9.46875 9.195312 7.910156 10.621094 6.363281 C 10.820312 6.148438 10.960938 5.882812 11.144531 5.65625 C 11.769531 4.898438 12.566406 4.601562 13.554688 4.75 C 13.777344 4.785156 14.019531 4.707031 14.25 4.65625 C 14.714844 4.5625 15.179688 4.367188 15.648438 4.359375 C 21.988281 4.273438 28.332031 4.277344 34.671875 4.125 C 43.261719 3.917969 51.847656 3.628906 60.433594 3.316406 C 67.425781 3.058594 74.414062 2.722656 81.402344 2.398438 C 85.371094 2.214844 89.335938 2.242188 93.347656 2.425781 M 19.828125 9.136719 C 18.585938 9.136719 17.34375 9.136719 15.976562 9.136719 C 16.328125 16.46875 16.675781 23.726562 17.023438 31.007812 C 17.847656 30.886719 18.675781 30.722656 19.507812 30.644531 C 23.070312 30.3125 26.636719 30.070312 30.191406 29.679688 C 36.140625 29.023438 42.09375 29.0625 48.0625 29.378906 C 52.695312 29.621094 57.332031 29.871094 61.96875 29.871094 C 69.839844 29.867188 77.714844 29.660156 85.585938 29.554688 C 87.523438 29.53125 89.46875 29.457031 91.394531 29.597656 C 94.429688 29.820312 97.449219 30.21875 100.480469 30.515625 C 101.5 30.617188 102.527344 30.632812 103.578125 30.691406 C 103.691406 29.910156 103.792969 29.214844 103.890625 28.515625 C 103.980469 27.832031 103.984375 27.121094 104.179688 26.46875 C 104.308594 26.035156 104.386719 25.628906 104.382812 25.183594 C 104.363281 22.8125 104.382812 20.445312 104.34375 18.078125 C 104.292969 14.832031 104.234375 11.585938 103.777344 8.363281 C 103.71875 7.933594 103.570312 7.753906 103.085938 7.742188 C 101.277344 7.695312 99.464844 7.648438 97.660156 7.515625 C 93.625 7.222656 89.585938 6.953125 85.539062 7.082031 C 79.574219 7.277344 73.617188 7.585938 67.652344 7.828125 C 61.347656 8.082031 55.042969 8.378906 48.738281 8.542969 C 39.132812 8.789062 29.527344 8.941406 19.828125 9.136719 M 73.265625 43.277344 C 78.957031 43.148438 84.628906 43.570312 90.308594 43.863281 C 96.464844 44.183594 102.628906 44.4375 108.792969 44.695312 C 109.644531 44.730469 110.507812 44.636719 111.363281 44.570312 C 111.804688 44.53125 111.917969 44.308594 111.675781 43.957031 C 111.109375 43.132812 110.578125 42.269531 109.921875 41.519531 C 108.210938 39.582031 106.386719 37.746094 104.929688 35.601562 C 104.863281 35.503906 104.675781 35.433594 104.546875 35.4375 C 101.472656 35.554688 98.433594 35.164062 95.394531 34.828125 C 92.738281 34.535156 90.089844 34.234375 87.410156 34.324219 C 85.050781 34.402344 82.691406 34.390625 80.332031 34.4375 C 71.539062 34.617188 62.746094 34.898438 53.953125 34.511719 C 50.378906 34.355469 46.808594 34.128906 43.238281 33.976562 C 39.878906 33.835938 36.523438 33.90625 33.175781 34.230469 C 30.5 34.492188 27.828125 34.753906 25.15625 35.019531 C 22.796875 35.25 20.441406 35.519531 18.078125 35.695312 C 17.175781 35.761719 16.601562 36.128906 16.050781 36.8125 C 14.027344 39.332031 11.742188 41.640625 9.9375 44.332031 C 9.855469 44.453125 9.777344 44.578125 9.671875 44.738281 C 9.882812 44.738281 10.03125 44.746094 10.179688 44.738281 C 12.160156 44.628906 14.140625 44.433594 16.121094 44.429688 C 19.605469 44.429688 23.085938 44.511719 26.570312 44.621094 C 35.484375 44.898438 44.402344 45.121094 53.320312 44.6875 C 56.828125 44.519531 60.328125 44.214844 63.832031 43.964844 C 66.945312 43.742188 70.058594 43.507812 73.265625 43.277344 M 9.542969 14.609375 C 8.847656 15.382812 8.160156 16.152344 7.460938 16.921875 C 7.058594 17.367188 6.886719 17.824219 6.902344 18.472656 C 7.050781 25.097656 7.140625 31.722656 7.246094 38.347656 C 7.25 38.769531 7.246094 39.1875 7.246094 39.644531 C 7.355469 39.597656 7.390625 39.59375 7.40625 39.574219 C 8.964844 37.734375 10.519531 35.890625 12.085938 34.054688 C 12.308594 33.792969 12.433594 33.578125 12.246094 33.210938 C 12.109375 32.953125 12.113281 32.613281 12.105469 32.3125 C 12.074219 31.171875 12.09375 30.035156 12.039062 28.898438 C 11.847656 24.816406 11.632812 20.730469 11.425781 16.648438 C 11.367188 15.429688 11.308594 14.210938 11.25 12.996094 C 10.683594 13.53125 10.136719 14.046875 9.542969 14.609375 M 111.914062 13.085938 C 110.949219 12.191406 109.988281 11.300781 108.933594 10.324219 C 108.933594 10.578125 108.933594 10.652344 108.933594 10.730469 C 109.039062 15.371094 109.148438 20.015625 109.25 24.65625 C 109.265625 25.363281 109.316406 26.078125 108.882812 26.710938 C 108.851562 26.753906 108.863281 26.828125 108.859375 26.890625 C 108.707031 28.339844 108.5625 29.789062 108.394531 31.234375 C 108.351562 31.59375 108.289062 31.902344 108.652344 32.160156 C 108.816406 32.277344 108.902344 32.503906 109.015625 32.6875 C 109.335938 33.210938 109.597656 33.777344 109.980469 34.246094 C 110.890625 35.367188 111.855469 36.441406 112.820312 37.558594 C 112.894531 37.445312 112.921875 37.421875 112.925781 37.394531 C 113.09375 35.265625 113.390625 33.136719 113.40625 31.007812 C 113.441406 26.148438 113.285156 21.289062 113.324219 16.429688 C 113.332031 15.070312 112.941406 14.019531 111.914062 13.085938 Z M 111.914062 13.085938 "/>
<path style=" stroke:none;fill-rule:nonzero;fill:rgb(99.607843%,99.607843%,99.607843%);fill-opacity:1;" d="M 19.875 9.136719 C 29.527344 8.941406 39.132812 8.789062 48.738281 8.542969 C 55.042969 8.378906 61.347656 8.082031 67.652344 7.828125 C 73.617188 7.585938 79.574219 7.277344 85.539062 7.082031 C 89.585938 6.953125 93.625 7.222656 97.660156 7.515625 C 99.464844 7.648438 101.277344 7.695312 103.085938 7.742188 C 103.570312 7.753906 103.71875 7.933594 103.777344 8.363281 C 104.234375 11.585938 104.292969 14.832031 104.34375 18.078125 C 104.382812 20.445312 104.363281 22.8125 104.382812 25.183594 C 104.386719 25.628906 104.308594 26.035156 104.179688 26.46875 C 103.984375 27.121094 103.980469 27.832031 103.890625 28.515625 C 103.792969 29.214844 103.691406 29.910156 103.578125 30.691406 C 102.527344 30.632812 101.5 30.617188 100.480469 30.515625 C 97.449219 30.21875 94.429688 29.820312 91.394531 29.597656 C 89.46875 29.457031 87.523438 29.53125 85.585938 29.554688 C 77.714844 29.660156 69.839844 29.867188 61.96875 29.871094 C 57.332031 29.871094 52.695312 29.621094 48.0625 29.378906 C 42.09375 29.0625 36.140625 29.023438 30.191406 29.679688 C 26.636719 30.070312 23.070312 30.3125 19.507812 30.644531 C 18.675781 30.722656 17.847656 30.886719 17.023438 31.007812 C 16.675781 23.726562 16.328125 16.46875 15.976562 9.136719 C 17.34375 9.136719 18.585938 9.136719 19.875 9.136719 M 83.011719 26.347656 C 84.5625 26.222656 85.632812 25.316406 86.171875 23.691406 C 86.660156 22.214844 86.789062 20.679688 86.894531 19.148438 C 87.03125 17.210938 87.253906 15.304688 87.914062 13.449219 C 88.222656 12.582031 88.359375 11.625 88.410156 10.703125 C 88.480469 9.40625 87.386719 8.371094 86.058594 8.328125 C 84.8125 8.285156 83.722656 9.265625 83.585938 10.515625 C 83.53125 11.03125 83.441406 11.554688 83.273438 12.042969 C 82.695312 13.707031 82.285156 15.402344 82.164062 17.164062 C 82.125 17.71875 82.082031 18.273438 82.042969 18.828125 C 81.851562 18.636719 81.75 18.429688 81.628906 18.238281 C 80.984375 17.1875 80.429688 16.070312 79.664062 15.109375 C 78.289062 13.378906 75.785156 13.71875 74.839844 15.71875 C 74.570312 16.296875 74.433594 16.941406 74.242188 17.554688 C 74.1875 17.742188 74.148438 17.9375 74.101562 18.125 C 73.46875 16.25 72.917969 14.390625 72.867188 12.433594 C 72.824219 11 71.765625 9.957031 70.375 9.980469 C 69.007812 10.007812 67.902344 11.128906 68.015625 12.546875 C 68.125 13.933594 68.28125 15.335938 68.609375 16.6875 C 69.203125 19.132812 69.933594 21.550781 70.621094 23.972656 C 70.710938 24.296875 70.835938 24.617188 70.996094 24.914062 C 71.582031 25.984375 72.476562 26.570312 73.734375 26.488281 C 75.253906 26.390625 76.390625 25.628906 77.160156 24.375 C 77.585938 23.6875 77.886719 22.925781 78.21875 22.25 C 78.792969 23.066406 79.363281 23.960938 80.019531 24.792969 C 80.746094 25.710938 81.6875 26.3125 83.011719 26.347656 M 44.214844 26.128906 C 45.210938 26.550781 46.164062 26.480469 47.042969 25.839844 C 47.734375 25.335938 48.09375 24.609375 48.242188 23.8125 C 48.441406 22.710938 48.617188 21.597656 48.691406 20.480469 C 48.847656 18.011719 48.964844 15.539062 49.03125 13.066406 C 49.066406 11.804688 48.015625 10.816406 46.71875 10.734375 C 45.53125 10.660156 44.410156 11.527344 44.230469 12.726562 C 44.144531 13.316406 44.1875 13.921875 44.164062 14.519531 C 44.113281 15.941406 44.058594 17.363281 44.007812 18.785156 C 43.816406 18.699219 43.730469 18.59375 43.660156 18.488281 C 42.808594 17.21875 41.988281 15.925781 41.09375 14.6875 C 40.5 13.871094 39.890625 13.019531 39.121094 12.375 C 37.554688 11.054688 35.316406 11.855469 34.851562 13.832031 C 34.75 14.261719 34.707031 14.726562 34.757812 15.15625 C 34.890625 16.242188 34.792969 17.296875 34.539062 18.351562 C 34.152344 19.980469 33.777344 21.613281 33.402344 23.246094 C 33.105469 24.542969 33.886719 25.804688 35.171875 26.128906 C 36.445312 26.445312 37.714844 25.730469 38.097656 24.464844 C 38.230469 24.023438 38.335938 23.574219 38.445312 23.125 C 38.660156 22.253906 38.871094 21.386719 39.09375 20.472656 C 39.871094 21.515625 40.585938 22.523438 41.351562 23.488281 C 42.148438 24.492188 42.957031 25.5 44.214844 26.128906 M 61.195312 9.300781 C 59.902344 9.285156 58.605469 9.207031 57.316406 9.261719 C 55.238281 9.347656 54.234375 11.042969 54.125 12.777344 C 54.007812 14.644531 54.035156 16.527344 54.113281 18.402344 C 54.1875 20.132812 54.355469 21.863281 54.589844 23.578125 C 54.757812 24.8125 55.53125 25.675781 56.667969 26.246094 C 58.105469 26.96875 59.625 27.054688 61.183594 26.898438 C 62.359375 26.777344 63.535156 26.628906 64.710938 26.488281 C 65.65625 26.375 66.351562 25.898438 66.71875 25.035156 C 67.09375 24.15625 66.964844 23.316406 66.34375 22.574219 C 65.664062 21.761719 64.75 21.617188 63.757812 21.734375 C 62.550781 21.875 61.34375 22.078125 60.132812 22.152344 C 59.046875 22.214844 59.242188 22.21875 59.140625 21.308594 C 59.113281 21.050781 59.089844 20.796875 59.058594 20.492188 C 59.246094 20.492188 59.398438 20.492188 59.550781 20.492188 C 60.660156 20.492188 61.769531 20.503906 62.878906 20.484375 C 64.125 20.460938 65.089844 19.542969 65.230469 18.285156 C 65.359375 17.152344 64.527344 16.023438 63.351562 15.773438 C 63.066406 15.710938 62.765625 15.699219 62.46875 15.699219 C 61.304688 15.691406 60.140625 15.695312 58.996094 15.695312 C 58.996094 15.082031 58.996094 14.523438 58.996094 13.941406 C 59.382812 13.964844 59.726562 13.984375 60.066406 14.007812 C 60.765625 14.054688 61.421875 14.171875 62.066406 14.523438 C 63.34375 15.222656 64.992188 14.484375 65.429688 13.105469 C 65.851562 11.769531 65.089844 10.339844 63.597656 9.824219 C 62.855469 9.566406 62.050781 9.476562 61.195312 9.300781 Z M 61.195312 9.300781 "/>
<path style=" stroke:none;fill-rule:nonzero;fill:rgb(99.607843%,99.607843%,99.607843%);fill-opacity:1;" d="M 73.21875 43.277344 C 70.058594 43.507812 66.945312 43.742188 63.832031 43.964844 C 60.328125 44.214844 56.828125 44.519531 53.320312 44.6875 C 44.402344 45.121094 35.484375 44.898438 26.570312 44.621094 C 23.085938 44.511719 19.605469 44.429688 16.121094 44.429688 C 14.140625 44.433594 12.160156 44.628906 10.179688 44.738281 C 10.03125 44.746094 9.882812 44.738281 9.671875 44.738281 C 9.777344 44.578125 9.855469 44.453125 9.9375 44.332031 C 11.742188 41.640625 14.027344 39.332031 16.050781 36.8125 C 16.601562 36.128906 17.175781 35.761719 18.078125 35.695312 C 20.441406 35.519531 22.796875 35.25 25.15625 35.019531 C 27.828125 34.753906 30.5 34.492188 33.175781 34.230469 C 36.523438 33.90625 39.878906 33.835938 43.238281 33.976562 C 46.808594 34.128906 50.378906 34.355469 53.953125 34.511719 C 62.746094 34.898438 71.539062 34.617188 80.332031 34.4375 C 82.691406 34.390625 85.050781 34.402344 87.410156 34.324219 C 90.089844 34.234375 92.738281 34.535156 95.394531 34.828125 C 98.433594 35.164062 101.472656 35.554688 104.546875 35.4375 C 104.675781 35.433594 104.863281 35.503906 104.929688 35.601562 C 106.386719 37.746094 108.210938 39.582031 109.921875 41.519531 C 110.578125 42.269531 111.109375 43.132812 111.675781 43.957031 C 111.917969 44.308594 111.804688 44.53125 111.363281 44.570312 C 110.507812 44.636719 109.644531 44.730469 108.792969 44.695312 C 102.628906 44.4375 96.464844 44.183594 90.308594 43.863281 C 84.628906 43.570312 78.957031 43.148438 73.21875 43.277344 Z M 73.21875 43.277344 "/>
<path style=" stroke:none;fill-rule:nonzero;fill:rgb(99.215686%,99.215686%,99.215686%);fill-opacity:1;" d="M 9.566406 14.585938 C 10.136719 14.046875 10.683594 13.53125 11.25 12.996094 C 11.308594 14.210938 11.367188 15.429688 11.425781 16.648438 C 11.632812 20.730469 11.847656 24.816406 12.039062 28.898438 C 12.09375 30.035156 12.074219 31.171875 12.105469 32.3125 C 12.113281 32.613281 12.109375 32.953125 12.246094 33.210938 C 12.433594 33.578125 12.308594 33.792969 12.085938 34.054688 C 10.519531 35.890625 8.964844 37.734375 7.40625 39.574219 C 7.390625 39.59375 7.355469 39.597656 7.246094 39.644531 C 7.246094 39.1875 7.25 38.769531 7.246094 38.347656 C 7.140625 31.722656 7.050781 25.097656 6.902344 18.472656 C 6.886719 17.824219 7.058594 17.367188 7.460938 16.921875 C 8.160156 16.152344 8.847656 15.382812 9.566406 14.585938 Z M 9.566406 14.585938 "/>
<path style=" stroke:none;fill-rule:nonzero;fill:rgb(98.823529%,98.823529%,98.823529%);fill-opacity:1;" d="M 111.9375 13.109375 C 112.941406 14.019531 113.332031 15.070312 113.324219 16.429688 C 113.285156 21.289062 113.441406 26.148438 113.40625 31.007812 C 113.390625 33.136719 113.09375 35.265625 112.925781 37.394531 C 112.921875 37.421875 112.894531 37.445312 112.820312 37.558594 C 111.855469 36.441406 110.890625 35.367188 109.980469 34.246094 C 109.597656 33.777344 109.335938 33.210938 109.015625 32.6875 C 108.902344 32.503906 108.816406 32.277344 108.652344 32.160156 C 108.289062 31.902344 108.351562 31.59375 108.394531 31.234375 C 108.5625 29.789062 108.707031 28.339844 108.859375 26.890625 C 108.863281 26.828125 108.851562 26.753906 108.882812 26.710938 C 109.316406 26.078125 109.265625 25.363281 109.25 24.65625 C 109.148438 20.015625 109.039062 15.371094 108.933594 10.730469 C 108.933594 10.652344 108.933594 10.578125 108.933594 10.324219 C 109.988281 11.300781 110.949219 12.191406 111.9375 13.109375 Z M 111.9375 13.109375 "/>
<path style=" stroke:none;fill-rule:nonzero;fill:rgb(0.784314%,0.784314%,0.784314%);fill-opacity:1;" d="M 82.964844 26.347656 C 81.6875 26.3125 80.746094 25.710938 80.019531 24.792969 C 79.363281 23.960938 78.792969 23.066406 78.21875 22.25 C 77.886719 22.925781 77.585938 23.6875 77.160156 24.375 C 76.390625 25.628906 75.253906 26.390625 73.734375 26.488281 C 72.476562 26.570312 71.582031 25.984375 70.996094 24.914062 C 70.835938 24.617188 70.710938 24.296875 70.621094 23.972656 C 69.933594 21.550781 69.203125 19.132812 68.609375 16.6875 C 68.28125 15.335938 68.125 13.933594 68.015625 12.546875 C 67.902344 11.128906 69.007812 10.007812 70.375 9.980469 C 71.765625 9.957031 72.824219 11 72.867188 12.433594 C 72.917969 14.390625 73.46875 16.25 74.101562 18.125 C 74.148438 17.9375 74.1875 17.742188 74.242188 17.554688 C 74.433594 16.941406 74.570312 16.296875 74.839844 15.71875 C 75.785156 13.71875 78.289062 13.378906 79.664062 15.109375 C 80.429688 16.070312 80.984375 17.1875 81.628906 18.238281 C 81.75 18.429688 81.851562 18.636719 82.042969 18.828125 C 82.082031 18.273438 82.125 17.71875 82.164062 17.164062 C 82.285156 15.402344 82.695312 13.707031 83.273438 12.042969 C 83.441406 11.554688 83.53125 11.03125 83.585938 10.515625 C 83.722656 9.265625 84.8125 8.285156 86.058594 8.328125 C 87.386719 8.371094 88.480469 9.40625 88.410156 10.703125 C 88.359375 11.625 88.222656 12.582031 87.914062 13.449219 C 87.253906 15.304688 87.03125 17.210938 86.894531 19.148438 C 86.789062 20.679688 86.660156 22.214844 86.171875 23.691406 C 85.632812 25.316406 84.5625 26.222656 82.964844 26.347656 Z M 82.964844 26.347656 "/>
<path style=" stroke:none;fill-rule:nonzero;fill:rgb(0.784314%,0.784314%,0.784314%);fill-opacity:1;" d="M 44.179688 26.113281 C 42.957031 25.5 42.148438 24.492188 41.351562 23.488281 C 40.585938 22.523438 39.871094 21.515625 39.09375 20.472656 C 38.871094 21.386719 38.660156 22.253906 38.445312 23.125 C 38.335938 23.574219 38.230469 24.023438 38.097656 24.464844 C 37.714844 25.730469 36.445312 26.445312 35.171875 26.128906 C 33.886719 25.804688 33.105469 24.542969 33.402344 23.246094 C 33.777344 21.613281 34.152344 19.980469 34.539062 18.351562 C 34.792969 17.296875 34.890625 16.242188 34.757812 15.15625 C 34.707031 14.726562 34.75 14.261719 34.851562 13.832031 C 35.316406 11.855469 37.554688 11.054688 39.121094 12.375 C 39.890625 13.019531 40.5 13.871094 41.09375 14.6875 C 41.988281 15.925781 42.808594 17.21875 43.660156 18.488281 C 43.730469 18.59375 43.816406 18.699219 44.007812 18.785156 C 44.058594 17.363281 44.113281 15.941406 44.164062 14.519531 C 44.1875 13.921875 44.144531 13.316406 44.230469 12.726562 C 44.410156 11.527344 45.53125 10.660156 46.71875 10.734375 C 48.015625 10.816406 49.066406 11.804688 49.03125 13.066406 C 48.964844 15.539062 48.847656 18.011719 48.691406 20.480469 C 48.617188 21.597656 48.441406 22.710938 48.242188 23.8125 C 48.09375 24.609375 47.734375 25.335938 47.042969 25.839844 C 46.164062 26.480469 45.210938 26.550781 44.179688 26.113281 Z M 44.179688 26.113281 "/>
<path style=" stroke:none;fill-rule:nonzero;fill:rgb(0.784314%,0.784314%,0.784314%);fill-opacity:1;" d="M 61.234375 9.304688 C 62.050781 9.476562 62.855469 9.566406 63.597656 9.824219 C 65.089844 10.339844 65.851562 11.769531 65.429688 13.105469 C 64.992188 14.484375 63.34375 15.222656 62.066406 14.523438 C 61.421875 14.171875 60.765625 14.054688 60.066406 14.007812 C 59.726562 13.984375 59.382812 13.964844 58.996094 13.941406 C 58.996094 14.523438 58.996094 15.082031 58.996094 15.695312 C 60.140625 15.695312 61.304688 15.691406 62.46875 15.699219 C 62.765625 15.699219 63.066406 15.710938 63.351562 15.773438 C 64.527344 16.023438 65.359375 17.152344 65.230469 18.285156 C 65.089844 19.542969 64.125 20.460938 62.878906 20.484375 C 61.769531 20.503906 60.660156 20.492188 59.550781 20.492188 C 59.398438 20.492188 59.246094 20.492188 59.058594 20.492188 C 59.089844 20.796875 59.113281 21.050781 59.140625 21.308594 C 59.242188 22.21875 59.046875 22.214844 60.132812 22.152344 C 61.34375 22.078125 62.550781 21.875 63.757812 21.734375 C 64.75 21.617188 65.664062 21.761719 66.34375 22.574219 C 66.964844 23.316406 67.09375 24.15625 66.71875 25.035156 C 66.351562 25.898438 65.65625 26.375 64.710938 26.488281 C 63.535156 26.628906 62.359375 26.777344 61.183594 26.898438 C 59.625 27.054688 58.105469 26.96875 56.667969 26.246094 C 55.53125 25.675781 54.757812 24.8125 54.589844 23.578125 C 54.355469 21.863281 54.1875 20.132812 54.113281 18.402344 C 54.035156 16.527344 54.007812 14.644531 54.125 12.777344 C 54.234375 11.042969 55.238281 9.347656 57.316406 9.261719 C 58.605469 9.207031 59.902344 9.285156 61.234375 9.304688 Z M 61.234375 9.304688 "/>
</g>
</svg>
