<?xml version="1.0" encoding="UTF-8"?>
<svg xmlns="http://www.w3.org/2000/svg" xmlns:xlink="http://www.w3.org/1999/xlink" width="34px" height="34px" viewBox="0 0 34 34" version="1.1">
<g id="surface1">
<path style=" stroke:none;fill-rule:nonzero;fill:rgb(0%,0%,0%);fill-opacity:1;" d="M 15.410156 33.480469 C 14.402344 33.410156 13.414062 33.316406 12.429688 33.195312 C 11.257812 33.046875 10.097656 32.855469 8.949219 32.582031 C 7.441406 32.222656 5.992188 31.730469 4.644531 30.949219 C 3.085938 30.042969 2.257812 28.695312 2.003906 26.957031 C 1.890625 26.171875 1.871094 25.382812 1.921875 24.59375 C 1.980469 23.722656 2.101562 22.859375 2.25 22 C 2.429688 20.953125 2.652344 19.914062 2.933594 18.890625 C 3.457031 16.996094 4.15625 15.160156 5.003906 13.378906 C 5.9375 11.414062 7.042969 9.546875 8.273438 7.75 C 9.0625 6.597656 9.984375 5.546875 10.863281 4.460938 C 11.183594 4.0625 11.519531 3.671875 11.804688 3.25 C 12.335938 2.46875 13.0625 2.066406 14.003906 1.988281 C 14.648438 1.933594 15.285156 1.820312 15.925781 1.769531 C 17.695312 1.632812 19.386719 1.894531 20.96875 2.71875 C 22.203125 3.363281 23.230469 4.25 24.183594 5.242188 C 25.113281 6.210938 25.816406 7.320312 26.390625 8.515625 C 26.972656 9.742188 27.671875 10.902344 28.394531 12.050781 C 29.125 13.210938 29.859375 14.371094 30.488281 15.589844 C 31.046875 16.683594 31.421875 17.839844 31.683594 19.03125 C 31.925781 20.136719 32.082031 21.25 32.164062 22.375 C 32.230469 23.300781 32.246094 24.230469 32.261719 25.160156 C 32.277344 26.078125 32.3125 26.996094 32.285156 27.914062 C 32.257812 28.808594 32.097656 29.683594 31.65625 30.484375 C 31.234375 31.25 30.621094 31.84375 29.917969 32.351562 C 29.011719 33.003906 28.039062 33.503906 26.921875 33.691406 C 26.183594 33.816406 25.445312 33.898438 24.695312 33.914062 C 23.808594 33.9375 22.921875 33.917969 22.035156 33.871094 C 20.945312 33.808594 19.859375 33.722656 18.773438 33.652344 C 18.28125 33.621094 17.785156 33.601562 17.292969 33.585938 C 16.667969 33.566406 16.046875 33.523438 15.410156 33.480469 M 25.789062 31.074219 C 25.679688 31.402344 25.570312 31.730469 25.464844 32.054688 C 25.566406 32.128906 25.652344 32.070312 25.738281 32.066406 C 26.976562 31.996094 28.0625 31.554688 29.027344 30.796875 C 29.648438 30.308594 30.144531 29.738281 30.339844 28.960938 C 30.492188 28.355469 30.511719 27.734375 30.507812 27.113281 C 30.5 26.484375 30.464844 25.855469 30.457031 25.222656 C 30.445312 24.398438 30.445312 23.578125 30.390625 22.753906 C 30.324219 21.691406 30.1875 20.640625 29.972656 19.601562 C 29.785156 18.699219 29.535156 17.816406 29.160156 16.972656 C 28.636719 15.804688 27.953125 14.726562 27.277344 13.640625 C 26.605469 12.558594 25.910156 11.492188 25.320312 10.363281 C 24.984375 9.71875 24.664062 9.066406 24.320312 8.429688 C 23.5625 7.027344 22.472656 5.914062 21.207031 4.960938 C 19.894531 3.976562 18.414062 3.476562 16.75 3.515625 C 15.777344 3.542969 14.816406 3.675781 13.855469 3.8125 C 13.652344 3.839844 13.511719 3.96875 13.394531 4.125 C 13.21875 4.359375 13.046875 4.601562 12.863281 4.828125 C 12.152344 5.707031 11.425781 6.574219 10.722656 7.457031 C 9.660156 8.796875 8.746094 10.238281 7.898438 11.71875 C 6.714844 13.789062 5.738281 15.949219 5.011719 18.214844 C 4.433594 19.996094 4.046875 21.820312 3.816406 23.679688 C 3.683594 24.769531 3.621094 25.859375 3.828125 26.949219 C 4.007812 27.902344 4.433594 28.699219 5.28125 29.242188 C 5.726562 29.527344 6.1875 29.78125 6.671875 29.992188 C 6.824219 30.054688 6.96875 30.136719 7.140625 30.15625 C 7.167969 30.0625 7.148438 29.980469 7.132812 29.902344 C 6.933594 28.933594 6.992188 27.964844 7.117188 27 C 7.203125 26.359375 7.328125 25.722656 7.4375 25.085938 C 7.589844 24.199219 7.859375 23.347656 8.207031 22.519531 C 8.441406 21.953125 8.820312 21.589844 9.433594 21.445312 C 9.925781 21.328125 10.421875 21.292969 10.917969 21.28125 C 11.378906 21.273438 11.839844 21.289062 12.300781 21.308594 C 13.125 21.347656 13.9375 21.269531 14.753906 21.183594 C 15.507812 21.105469 16.265625 21.058594 17.019531 21 C 17.871094 20.929688 18.726562 20.894531 19.578125 20.894531 C 20.5625 20.890625 21.539062 20.972656 22.515625 21.105469 C 23.242188 21.203125 23.863281 21.46875 24.316406 22.058594 C 24.570312 22.386719 24.78125 22.738281 24.957031 23.109375 C 25.359375 23.964844 25.640625 24.863281 25.851562 25.78125 C 26.046875 26.621094 26.144531 27.46875 26.152344 28.328125 C 26.160156 29.25 26.042969 30.15625 25.789062 31.074219 M 18.519531 25.28125 C 18.449219 25.179688 18.378906 25.082031 18.308594 24.980469 C 18.136719 24.734375 17.972656 24.480469 17.738281 24.289062 C 17.367188 23.984375 16.796875 24.023438 16.492188 24.375 C 16.191406 24.714844 16.230469 25.253906 16.585938 25.566406 C 16.742188 25.707031 16.851562 25.882812 16.96875 26.050781 C 17.523438 26.863281 18.050781 27.691406 18.683594 28.449219 C 18.957031 28.78125 19.246094 29.097656 19.652344 29.28125 C 20.058594 29.460938 20.539062 29.3125 20.757812 28.945312 C 20.980469 28.566406 20.878906 28.070312 20.507812 27.824219 C 20.28125 27.675781 20.109375 27.488281 19.941406 27.285156 C 19.433594 26.652344 18.988281 25.972656 18.519531 25.28125 M 13.96875 28.777344 C 14.585938 28.449219 14.65625 27.734375 14.109375 27.304688 C 14.03125 27.246094 13.953125 27.175781 13.890625 27.101562 C 13.460938 26.59375 13.085938 26.054688 12.898438 25.402344 C 12.769531 24.949219 12.261719 24.707031 11.808594 24.855469 C 11.359375 25.003906 11.117188 25.457031 11.269531 25.941406 C 11.589844 26.980469 12.175781 27.863281 12.988281 28.59375 C 13.261719 28.839844 13.585938 28.917969 13.96875 28.777344 Z M 13.96875 28.777344 "/>
<path style=" stroke:none;fill-rule:nonzero;fill:rgb(0%,0%,0%);fill-opacity:1;" d="M 16.890625 14.226562 C 16.609375 14.226562 16.347656 14.273438 16.082031 14.253906 C 15.707031 14.226562 15.394531 14.089844 15.226562 13.738281 C 15.066406 13.398438 15.089844 13.0625 15.332031 12.769531 C 15.5625 12.496094 15.871094 12.347656 16.242188 12.4375 C 16.515625 12.503906 16.789062 12.445312 17.0625 12.464844 C 17.492188 12.496094 17.921875 12.539062 18.351562 12.546875 C 18.859375 12.558594 19.21875 12.96875 19.203125 13.472656 C 19.191406 13.9375 18.789062 14.3125 18.296875 14.316406 C 17.832031 14.320312 17.367188 14.257812 16.890625 14.226562 Z M 16.890625 14.226562 "/>
<path style=" stroke:none;fill-rule:nonzero;fill:rgb(0%,0%,0%);fill-opacity:1;" d="M 15.585938 9.789062 C 15.871094 9.972656 16.066406 10.210938 16.125 10.53125 C 16.210938 10.972656 15.988281 11.40625 15.550781 11.582031 C 15.074219 11.777344 14.589844 11.761719 14.140625 11.503906 C 13.5625 11.167969 13.492188 10.429688 13.984375 9.980469 C 14.425781 9.578125 15.105469 9.496094 15.585938 9.789062 Z M 15.585938 9.789062 "/>
<path style=" stroke:none;fill-rule:nonzero;fill:rgb(0%,0%,0%);fill-opacity:1;" d="M 20.566406 11.445312 C 20.34375 11.679688 20.070312 11.78125 19.765625 11.796875 C 19.488281 11.8125 19.214844 11.796875 18.957031 11.683594 C 18.597656 11.527344 18.375 11.261719 18.34375 10.878906 C 18.308594 10.46875 18.5 10.164062 18.847656 9.953125 C 19.042969 9.835938 19.257812 9.761719 19.480469 9.726562 C 20.050781 9.636719 20.660156 10.046875 20.792969 10.601562 C 20.867188 10.917969 20.773438 11.191406 20.566406 11.445312 Z M 20.566406 11.445312 "/>
</g>
</svg>
