<?xml version="1.0" encoding="UTF-8"?>
<svg xmlns="http://www.w3.org/2000/svg" xmlns:xlink="http://www.w3.org/1999/xlink" width="34px" height="34px" viewBox="0 0 34 34" version="1.1">
<g id="surface1">
<path style=" stroke:none;fill-rule:nonzero;fill:rgb(0%,0%,0%);fill-opacity:1;" d="M 8.328125 19.492188 C 8.078125 18.167969 7.917969 16.847656 7.851562 15.515625 C 7.808594 14.605469 7.765625 13.695312 7.71875 12.78125 C 7.664062 11.78125 7.605469 10.773438 7.425781 9.785156 C 7.347656 9.34375 7.183594 8.921875 7.03125 8.5 C 6.71875 7.636719 6.386719 6.78125 5.96875 5.964844 C 5.894531 5.820312 5.808594 5.6875 5.703125 5.566406 C 5.335938 5.148438 5.375 4.546875 5.789062 4.183594 C 5.851562 4.125 5.898438 4.058594 5.9375 3.984375 C 6.0625 3.738281 6.257812 3.570312 6.523438 3.507812 C 7.292969 3.324219 8.042969 3.066406 8.828125 2.964844 C 9.222656 2.910156 9.621094 2.886719 10.019531 2.882812 C 10.617188 2.875 11.214844 2.875 11.8125 2.882812 C 12.339844 2.886719 12.855469 2.800781 13.375 2.722656 C 13.917969 2.636719 14.464844 2.609375 15.011719 2.597656 C 15.839844 2.582031 16.664062 2.488281 17.492188 2.449219 C 18.128906 2.421875 18.765625 2.414062 19.398438 2.375 C 19.929688 2.34375 20.449219 2.226562 20.96875 2.132812 C 21.925781 1.960938 22.882812 1.785156 23.847656 1.664062 C 24.472656 1.589844 25.097656 1.515625 25.730469 1.527344 C 26.015625 1.53125 26.300781 1.570312 26.585938 1.625 C 27.253906 1.761719 27.621094 2.207031 27.792969 2.832031 C 27.953125 3.402344 28.121094 3.96875 28.324219 4.523438 C 28.480469 4.945312 28.523438 5.386719 28.507812 5.839844 C 28.488281 6.4375 28.523438 7.035156 28.542969 7.632812 C 28.550781 7.984375 28.578125 8.339844 28.59375 8.691406 C 28.640625 9.785156 28.726562 10.875 28.824219 11.964844 C 28.90625 12.902344 28.980469 13.835938 29.066406 14.773438 C 29.148438 15.65625 29.242188 16.539062 29.320312 17.425781 C 29.375 18.070312 29.417969 18.714844 29.460938 19.359375 C 29.519531 20.167969 29.597656 20.976562 29.707031 21.78125 C 29.808594 22.542969 29.886719 23.308594 29.882812 24.078125 C 29.875 24.839844 29.789062 25.585938 29.539062 26.3125 C 29.222656 27.21875 28.683594 27.949219 27.839844 28.421875 C 27.285156 28.738281 26.785156 29.132812 26.261719 29.488281 C 25.03125 30.324219 23.703125 30.957031 22.3125 31.46875 C 21.042969 31.9375 19.746094 32.296875 18.421875 32.558594 C 17.574219 32.722656 16.722656 32.84375 15.863281 32.925781 C 15.03125 33 14.195312 33.023438 13.363281 33.011719 C 12.625 33 11.898438 32.910156 11.167969 32.808594 C 10.484375 32.714844 9.800781 32.625 9.121094 32.511719 C 8.339844 32.386719 7.570312 32.199219 6.851562 31.851562 C 5.644531 31.265625 4.914062 30.289062 4.574219 29.007812 C 4.371094 28.242188 4.304688 27.464844 4.351562 26.675781 C 4.355469 26.628906 4.339844 26.589844 4.320312 26.550781 C 4.050781 26.03125 4.335938 25.316406 5.019531 25.160156 C 5.761719 24.992188 6.511719 24.855469 7.269531 24.757812 C 7.773438 24.691406 8.273438 24.621094 8.777344 24.554688 C 8.929688 24.535156 8.996094 24.472656 8.988281 24.308594 C 8.957031 23.5625 8.890625 22.820312 8.773438 22.082031 C 8.640625 21.25 8.492188 20.417969 8.351562 19.585938 C 8.347656 19.558594 8.335938 19.53125 8.328125 19.492188 M 12.972656 4.757812 C 12.628906 4.804688 12.289062 4.828125 11.945312 4.828125 C 11.308594 4.824219 10.671875 4.820312 10.035156 4.828125 C 9.347656 4.835938 8.671875 4.941406 8.011719 5.136719 C 7.800781 5.199219 7.785156 5.226562 7.882812 5.429688 C 8.246094 6.199219 8.5625 6.988281 8.851562 7.792969 C 9.050781 8.359375 9.269531 8.925781 9.367188 9.519531 C 9.507812 10.394531 9.582031 11.273438 9.632812 12.15625 C 9.6875 13.074219 9.730469 13.988281 9.765625 14.90625 C 9.796875 15.691406 9.859375 16.472656 9.945312 17.253906 C 10.058594 18.21875 10.246094 19.171875 10.421875 20.128906 C 10.570312 20.929688 10.703125 21.738281 10.804688 22.546875 C 10.863281 23.007812 10.878906 23.472656 10.921875 23.933594 C 10.941406 24.15625 10.960938 24.164062 11.179688 24.105469 C 12.269531 23.800781 13.363281 23.492188 14.453125 23.191406 C 15.390625 22.929688 16.332031 22.699219 17.296875 22.554688 C 17.964844 22.457031 18.625 22.332031 19.25 22.0625 C 19.621094 21.902344 19.980469 22.007812 20.269531 22.300781 C 20.476562 22.511719 20.796875 23.371094 20.75 23.660156 C 20.71875 23.855469 20.769531 24.015625 20.84375 24.183594 C 21.121094 24.816406 21.453125 25.414062 21.796875 26.007812 C 21.96875 26.304688 22.183594 26.542969 22.476562 26.714844 C 22.722656 26.859375 22.980469 26.96875 23.253906 27.050781 C 23.949219 27.25 24.65625 27.292969 25.371094 27.210938 C 25.902344 27.148438 26.414062 27.007812 26.871094 26.71875 C 27.304688 26.441406 27.621094 26.074219 27.660156 25.539062 C 27.679688 25.269531 27.707031 25.011719 27.867188 24.78125 C 27.898438 24.730469 27.90625 24.652344 27.910156 24.589844 C 27.945312 23.789062 27.890625 22.996094 27.796875 22.207031 C 27.71875 21.574219 27.628906 20.945312 27.582031 20.3125 C 27.542969 19.789062 27.511719 19.265625 27.472656 18.742188 C 27.425781 18.125 27.367188 17.507812 27.316406 16.890625 C 27.269531 16.371094 27.226562 15.847656 27.175781 15.324219 C 27.101562 14.566406 27.019531 13.808594 26.953125 13.046875 C 26.878906 12.195312 26.808594 11.339844 26.75 10.488281 C 26.679688 9.507812 26.617188 8.523438 26.582031 7.542969 C 26.566406 7.109375 26.597656 6.675781 26.515625 6.25 C 26.492188 6.121094 26.5 5.996094 26.527344 5.875 C 26.578125 5.605469 26.566406 5.34375 26.464844 5.089844 C 26.28125 4.628906 26.109375 4.160156 26.011719 3.671875 C 25.980469 3.53125 25.90625 3.492188 25.765625 3.488281 C 25.285156 3.480469 24.804688 3.511719 24.328125 3.570312 C 23.394531 3.683594 22.46875 3.84375 21.546875 4.011719 C 20.894531 4.132812 20.246094 4.28125 19.582031 4.320312 C 18.339844 4.386719 17.097656 4.433594 15.855469 4.511719 C 14.902344 4.574219 13.945312 4.578125 12.972656 4.757812 M 11.054688 30.828125 C 11.125 30.835938 11.195312 30.84375 11.269531 30.851562 C 12.097656 30.976562 12.933594 31.066406 13.777344 31.066406 C 14.53125 31.066406 15.289062 31.023438 16.042969 30.941406 C 17.027344 30.835938 17.996094 30.664062 18.960938 30.441406 C 20.261719 30.132812 21.523438 29.71875 22.75 29.1875 C 22.828125 29.15625 22.921875 29.136719 22.960938 29.050781 C 22.925781 28.960938 22.84375 28.957031 22.777344 28.941406 C 22.59375 28.894531 22.417969 28.832031 22.242188 28.765625 C 21.421875 28.441406 20.707031 27.972656 20.238281 27.203125 C 19.695312 26.300781 19.171875 25.390625 18.839844 24.386719 C 18.8125 24.300781 18.765625 24.265625 18.679688 24.285156 C 18.027344 24.433594 17.359375 24.5 16.707031 24.640625 C 15.511719 24.894531 14.335938 25.226562 13.167969 25.582031 C 11.519531 26.085938 9.835938 26.410156 8.128906 26.609375 C 7.585938 26.671875 7.046875 26.769531 6.503906 26.84375 C 6.335938 26.863281 6.273438 26.9375 6.28125 27.109375 C 6.292969 27.542969 6.339844 27.972656 6.429688 28.390625 C 6.617188 29.25 7.09375 29.875 7.929688 30.199219 C 8.277344 30.332031 8.632812 30.429688 8.996094 30.507812 C 9.667969 30.648438 10.347656 30.722656 11.054688 30.828125 Z M 11.054688 30.828125 "/>
<path style=" stroke:none;fill-rule:nonzero;fill:rgb(0%,0%,0%);fill-opacity:1;" d="M 19.488281 8.808594 C 18.710938 8.859375 17.945312 8.835938 17.183594 8.878906 C 16.75 8.90625 16.316406 8.9375 15.890625 9.066406 C 15.695312 9.125 15.511719 9.210938 15.332031 9.308594 C 14.6875 9.660156 13.929688 9.261719 13.878906 8.53125 C 13.847656 8.136719 14.019531 7.824219 14.363281 7.613281 C 14.839844 7.324219 15.355469 7.160156 15.898438 7.0625 C 16.699219 6.917969 17.503906 6.886719 18.308594 6.902344 C 19 6.914062 19.664062 6.835938 20.308594 6.585938 C 20.980469 6.328125 21.671875 6.273438 22.375 6.449219 C 22.519531 6.484375 22.667969 6.46875 22.816406 6.433594 C 23.328125 6.304688 23.816406 6.574219 23.980469 7.058594 C 24.144531 7.546875 23.917969 8.058594 23.445312 8.273438 C 23.035156 8.453125 22.605469 8.5 22.179688 8.394531 C 21.671875 8.269531 21.199219 8.3125 20.71875 8.5 C 20.328125 8.652344 19.921875 8.761719 19.488281 8.808594 Z M 19.488281 8.808594 "/>
<path style=" stroke:none;fill-rule:nonzero;fill:rgb(0%,0%,0%);fill-opacity:1;" d="M 18.660156 11.214844 C 19.226562 11.042969 19.789062 11.054688 20.347656 11.132812 C 20.835938 11.199219 21.300781 11.195312 21.753906 10.964844 C 22.035156 10.816406 22.34375 10.714844 22.664062 10.675781 C 23.132812 10.613281 23.539062 10.746094 23.878906 11.070312 C 23.9375 11.128906 24 11.179688 24.074219 11.222656 C 24.507812 11.484375 24.671875 12.007812 24.472656 12.464844 C 24.273438 12.910156 23.78125 13.132812 23.300781 13 C 23.121094 12.953125 22.953125 12.882812 22.8125 12.761719 C 22.734375 12.699219 22.65625 12.6875 22.570312 12.734375 C 21.785156 13.140625 20.953125 13.195312 20.097656 13.0625 C 19.566406 12.980469 19.070312 13.078125 18.597656 13.339844 C 18.203125 13.550781 17.800781 13.75 17.367188 13.871094 C 17.101562 13.941406 16.835938 13.976562 16.5625 13.933594 C 16.472656 13.917969 16.378906 13.925781 16.285156 13.949219 C 15.734375 14.085938 15.222656 13.808594 15.074219 13.300781 C 14.921875 12.773438 15.191406 12.265625 15.722656 12.070312 C 16.007812 11.964844 16.300781 11.949219 16.589844 11.984375 C 16.785156 12.011719 16.949219 11.964844 17.117188 11.890625 C 17.496094 11.726562 17.851562 11.511719 18.242188 11.363281 C 18.375 11.308594 18.511719 11.265625 18.660156 11.214844 Z M 18.660156 11.214844 "/>
<path style=" stroke:none;fill-rule:nonzero;fill:rgb(0%,0%,0%);fill-opacity:1;" d="M 22.304688 18.558594 C 21.492188 18.554688 20.699219 18.503906 19.910156 18.382812 C 19.644531 18.339844 19.375 18.300781 19.105469 18.277344 C 18.894531 18.257812 18.710938 18.367188 18.527344 18.453125 C 18.164062 18.621094 17.8125 18.808594 17.425781 18.914062 C 17.019531 19.023438 16.613281 19.078125 16.195312 19.003906 C 15.511719 18.878906 15.015625 18.292969 15.03125 17.613281 C 15.042969 17.195312 15.253906 16.898438 15.636719 16.742188 C 16.007812 16.589844 16.363281 16.65625 16.652344 16.929688 C 16.769531 17.042969 16.863281 17.054688 17 17.003906 C 17.226562 16.921875 17.4375 16.8125 17.648438 16.703125 C 18.34375 16.34375 19.0625 16.257812 19.835938 16.402344 C 20.800781 16.578125 21.777344 16.632812 22.757812 16.589844 C 22.984375 16.578125 23.203125 16.511719 23.433594 16.550781 C 23.921875 16.640625 24.253906 17.023438 24.257812 17.507812 C 24.265625 17.980469 23.941406 18.375 23.460938 18.472656 C 23.085938 18.546875 22.699219 18.527344 22.304688 18.558594 Z M 22.304688 18.558594 "/>
<path style=" stroke:none;fill-rule:nonzero;fill:rgb(0%,0%,0%);fill-opacity:1;" d="M 10.628906 8.015625 C 10.773438 7.585938 11.082031 7.378906 11.503906 7.308594 C 12.109375 7.210938 12.488281 7.3125 12.816406 7.882812 C 13.011719 8.222656 12.964844 8.578125 12.867188 8.929688 C 12.667969 9.640625 12.1875 9.785156 11.710938 9.753906 C 11.070312 9.710938 10.660156 9.292969 10.574219 8.679688 C 10.542969 8.453125 10.550781 8.242188 10.628906 8.015625 Z M 10.628906 8.015625 "/>
<path style=" stroke:none;fill-rule:nonzero;fill:rgb(0%,0%,0%);fill-opacity:1;" d="M 11.742188 17.792969 C 11.921875 17.515625 12.175781 17.371094 12.484375 17.320312 C 12.679688 17.285156 12.871094 17.230469 13.074219 17.273438 C 13.53125 17.375 13.859375 17.726562 13.886719 18.160156 C 13.917969 18.652344 13.640625 19.078125 13.183594 19.222656 C 12.941406 19.296875 12.695312 19.363281 12.433594 19.324219 C 11.792969 19.226562 11.339844 18.476562 11.742188 17.792969 Z M 11.742188 17.792969 "/>
<path style=" stroke:none;fill-rule:nonzero;fill:rgb(0%,0%,0%);fill-opacity:1;" d="M 11.671875 13.6875 C 11.386719 13.132812 11.582031 12.535156 12.121094 12.300781 C 12.71875 12.039062 13.351562 12.285156 13.558594 12.859375 C 13.765625 13.4375 13.382812 14.050781 12.753906 14.148438 C 12.304688 14.21875 11.933594 14.09375 11.671875 13.6875 Z M 11.671875 13.6875 "/>
</g>
</svg>
