<?xml version="1.0" encoding="UTF-8"?>
<svg xmlns="http://www.w3.org/2000/svg" xmlns:xlink="http://www.w3.org/1999/xlink" width="34px" height="34px" viewBox="0 0 34 34" version="1.1">
<g id="surface1">
<path style=" stroke:none;fill-rule:nonzero;fill:rgb(0%,0%,0%);fill-opacity:1;" d="M 1.085938 20.582031 C 0.757812 19.433594 0.484375 18.289062 0.375 17.113281 C 0.3125 16.476562 0.324219 15.835938 0.492188 15.203125 C 0.550781 14.96875 0.53125 14.714844 0.550781 14.46875 C 0.597656 13.859375 0.734375 13.269531 0.988281 12.714844 C 1.164062 12.335938 1.21875 11.929688 1.3125 11.535156 C 1.363281 11.328125 1.425781 11.125 1.535156 10.9375 C 1.617188 10.792969 1.632812 10.628906 1.671875 10.472656 C 1.878906 9.65625 2.359375 9.03125 2.941406 8.453125 C 3.4375 7.960938 4.03125 7.734375 4.691406 7.609375 C 5.234375 7.503906 5.75 7.300781 6.28125 7.140625 C 7.105469 6.894531 7.941406 6.71875 8.78125 6.546875 C 9.761719 6.34375 10.730469 6.089844 11.703125 5.847656 C 12.148438 5.734375 12.597656 5.652344 13.046875 5.558594 C 13.332031 5.5 13.332031 5.5 13.371094 5.195312 C 13.429688 4.714844 13.582031 4.265625 13.863281 3.871094 C 14.332031 3.214844 15 2.914062 15.753906 2.757812 C 16.84375 2.53125 17.886719 2.710938 18.898438 3.140625 C 19.160156 3.25 19.332031 3.425781 19.40625 3.71875 C 19.476562 3.996094 19.6875 4.207031 19.8125 4.464844 C 19.851562 4.542969 19.941406 4.511719 20.011719 4.503906 C 20.382812 4.460938 20.753906 4.402344 21.128906 4.363281 C 21.765625 4.296875 22.402344 4.222656 23.042969 4.164062 C 23.804688 4.09375 24.574219 4.035156 25.339844 3.980469 C 25.960938 3.933594 26.585938 3.902344 27.207031 3.867188 C 27.5625 3.84375 27.914062 3.851562 28.269531 3.859375 C 29.089844 3.878906 29.695312 4.265625 30.171875 4.917969 C 30.539062 5.417969 30.785156 5.980469 30.988281 6.566406 C 31.34375 7.570312 31.59375 8.609375 31.878906 9.632812 C 32.195312 10.753906 32.578125 11.847656 32.921875 12.957031 C 33.289062 14.132812 33.605469 15.328125 33.730469 16.558594 C 33.859375 17.835938 33.886719 19.113281 33.644531 20.382812 C 33.601562 20.621094 33.523438 20.851562 33.40625 21.0625 C 33.382812 21.105469 33.359375 21.148438 33.363281 21.203125 C 33.4375 21.886719 33.195312 22.46875 32.804688 23.007812 C 32.4375 23.511719 32.019531 23.9375 31.460938 24.230469 C 31.089844 24.425781 30.765625 24.710938 30.402344 24.925781 C 29.257812 25.597656 28.023438 26.003906 26.714844 26.171875 C 25.515625 26.328125 24.324219 26.554688 23.144531 26.804688 C 21.65625 27.121094 20.171875 27.453125 18.683594 27.75 C 16.976562 28.089844 15.261719 28.40625 13.546875 28.703125 C 12.585938 28.871094 11.621094 29.046875 10.652344 29.167969 C 10.390625 29.199219 10.125 29.234375 9.859375 29.230469 C 9.046875 29.21875 8.246094 29.4375 7.429688 29.328125 C 6.039062 29.136719 4.933594 28.46875 4.113281 27.3125 C 3.398438 26.308594 2.859375 25.210938 2.382812 24.074219 C 2.019531 23.21875 1.660156 22.359375 1.367188 21.476562 C 1.269531 21.183594 1.179688 20.886719 1.085938 20.582031 M 21.449219 19.785156 C 21.246094 19.835938 21.050781 19.914062 20.863281 20.015625 C 20.507812 20.207031 20.199219 20.449219 20.136719 20.894531 C 20.039062 21.589844 20.117188 22.265625 20.359375 22.929688 C 20.617188 23.636719 21.128906 23.808594 21.820312 23.75 C 22.636719 23.679688 23.449219 23.519531 24.261719 23.394531 C 25.191406 23.253906 26.113281 23.078125 27.03125 22.871094 C 28.183594 22.609375 29.277344 22.160156 30.382812 21.746094 C 30.480469 21.710938 30.5 21.660156 30.480469 21.554688 C 30.3125 20.554688 30.148438 19.554688 29.984375 18.550781 C 29.828125 17.589844 29.695312 16.621094 29.578125 15.652344 C 29.453125 14.625 29.332031 13.59375 29.140625 12.574219 C 28.910156 11.347656 28.601562 10.140625 28.113281 8.988281 C 27.824219 8.308594 27.5 7.644531 27.25 6.945312 C 27.03125 6.34375 26.820312 5.738281 26.824219 5.085938 C 26.824219 4.972656 26.761719 4.957031 26.671875 4.960938 C 26.042969 5.003906 25.414062 5.035156 24.785156 5.085938 C 23.949219 5.152344 23.109375 5.222656 22.273438 5.308594 C 21.632812 5.371094 20.992188 5.460938 20.347656 5.527344 C 20.1875 5.542969 20.175781 5.621094 20.207031 5.75 C 20.261719 5.980469 20.324219 6.207031 20.363281 6.4375 C 20.59375 7.742188 20.957031 9.003906 21.417969 10.242188 C 21.6875 10.972656 21.980469 11.695312 22.269531 12.417969 C 22.457031 12.882812 22.59375 13.363281 22.710938 13.847656 C 22.871094 14.496094 23.050781 15.136719 23.316406 15.753906 C 23.695312 16.628906 23.875 17.5625 24.085938 18.484375 C 24.199219 19 24.316406 19.511719 24.449219 20.019531 C 24.550781 20.398438 24.566406 20.71875 24.25 21.035156 C 24.0625 21.222656 23.914062 21.414062 23.632812 21.355469 C 23.355469 21.292969 23.183594 21.101562 23.132812 20.8125 C 23.089844 20.589844 22.984375 20.382812 23.023438 20.140625 C 23.046875 20.007812 22.957031 19.894531 22.835938 19.824219 C 22.734375 19.765625 22.625 19.730469 22.511719 19.710938 C 22.160156 19.636719 21.816406 19.691406 21.449219 19.785156 M 17.410156 24.613281 C 18.195312 24.4375 18.980469 24.261719 19.78125 24.082031 C 19.75 24.023438 19.734375 23.984375 19.710938 23.945312 C 19.480469 23.609375 19.332031 23.238281 19.222656 22.847656 C 19.203125 22.765625 19.183594 22.679688 19.144531 22.609375 C 18.964844 22.308594 18.820312 21.996094 18.679688 21.675781 C 18.578125 21.441406 18.476562 21.207031 18.375 20.972656 C 18.257812 20.984375 18.183594 21.042969 18.101562 21.089844 C 17.855469 21.230469 17.613281 21.375 17.371094 21.515625 C 17.019531 21.722656 16.664062 21.933594 16.265625 22.015625 C 14.84375 22.3125 13.441406 22.707031 11.992188 22.859375 C 11.144531 22.949219 10.304688 22.9375 9.460938 22.828125 C 8.734375 22.734375 8.011719 22.585938 7.292969 22.4375 C 6.796875 22.332031 6.296875 22.230469 5.816406 22.0625 C 5.386719 21.917969 5.273438 21.484375 5.570312 21.140625 C 5.609375 21.09375 5.644531 21.042969 5.664062 20.984375 C 5.773438 20.601562 5.996094 20.292969 6.265625 20.011719 C 6.546875 19.71875 6.878906 19.492188 7.179688 19.230469 C 8.160156 18.367188 9.195312 17.582031 10.320312 16.917969 C 11.828125 16.027344 13.414062 15.347656 15.132812 15.015625 C 15.546875 14.933594 15.546875 14.996094 15.359375 14.5625 C 15.222656 14.246094 15.214844 14.246094 14.914062 14.394531 C 14.453125 14.617188 14.011719 14.878906 13.542969 15.074219 C 12.496094 15.507812 11.421875 15.847656 10.328125 16.132812 C 10.230469 16.15625 10.160156 16.199219 10.101562 16.285156 C 9.945312 16.511719 9.660156 16.585938 9.425781 16.441406 C 9.292969 16.359375 9.167969 16.359375 9.03125 16.382812 C 8.671875 16.445312 8.308594 16.480469 7.945312 16.496094 C 7.03125 16.53125 6.121094 16.46875 5.210938 16.363281 C 4.949219 16.332031 4.6875 16.292969 4.433594 16.199219 C 4.230469 16.125 4.058594 16.007812 3.980469 15.789062 C 3.886719 15.507812 3.972656 15.273438 4.167969 15.066406 C 4.257812 14.96875 4.390625 14.910156 4.449219 14.785156 C 4.875 13.886719 5.476562 13.121094 6.140625 12.398438 C 7.671875 10.738281 9.539062 9.59375 11.621094 8.796875 C 12.191406 8.578125 12.769531 8.386719 13.34375 8.1875 C 13.488281 8.136719 13.542969 8.078125 13.511719 7.90625 C 13.441406 7.539062 13.382812 7.167969 13.367188 6.789062 C 13.363281 6.730469 13.351562 6.667969 13.300781 6.605469 C 12.84375 6.667969 12.382812 6.773438 11.929688 6.882812 C 11.128906 7.078125 10.335938 7.296875 9.527344 7.46875 C 8.582031 7.671875 7.632812 7.859375 6.703125 8.128906 C 6.082031 8.308594 5.472656 8.542969 4.835938 8.664062 C 4.519531 8.726562 4.207031 8.800781 3.941406 9.003906 C 3.730469 9.164062 3.527344 9.339844 3.351562 9.542969 C 2.980469 9.984375 2.652344 10.445312 2.671875 11.066406 C 2.671875 11.101562 2.667969 11.136719 2.652344 11.167969 C 2.472656 11.496094 2.503906 11.863281 2.46875 12.21875 C 2.421875 12.667969 2.414062 13.125 2.386719 13.578125 C 2.347656 14.285156 2.34375 14.992188 2.441406 15.695312 C 2.609375 16.917969 2.964844 18.09375 3.371094 19.253906 C 3.742188 20.316406 4.152344 21.367188 4.488281 22.441406 C 4.714844 23.175781 4.976562 23.898438 5.351562 24.570312 C 5.574219 24.96875 5.839844 25.332031 6.160156 25.65625 C 6.722656 26.230469 7.429688 26.253906 8.15625 26.1875 C 8.820312 26.128906 9.476562 25.988281 10.136719 25.882812 C 11.308594 25.703125 12.480469 25.511719 13.652344 25.320312 C 14.902344 25.113281 16.144531 24.882812 17.410156 24.613281 M 29.1875 5.378906 C 28.902344 4.992188 28.492188 4.914062 28.050781 4.902344 C 27.964844 4.902344 27.925781 4.941406 27.898438 5.023438 C 27.824219 5.269531 27.894531 5.503906 27.953125 5.734375 C 28.125 6.382812 28.363281 7.007812 28.644531 7.609375 C 29.148438 8.699219 29.570312 9.820312 29.863281 10.988281 C 30.261719 12.582031 30.453125 14.207031 30.65625 15.828125 C 30.765625 16.738281 30.898438 17.640625 31.039062 18.542969 C 31.152344 19.257812 31.269531 19.96875 31.394531 20.683594 C 31.429688 20.882812 31.433594 21.09375 31.519531 21.300781 C 31.792969 21.183594 32.015625 21.019531 32.234375 20.835938 C 32.492188 20.617188 32.613281 20.328125 32.660156 20.003906 C 32.8125 18.964844 32.800781 17.921875 32.71875 16.878906 C 32.640625 15.898438 32.417969 14.941406 32.148438 13.996094 C 31.839844 12.910156 31.46875 11.847656 31.132812 10.769531 C 30.730469 9.492188 30.449219 8.179688 30.007812 6.914062 C 29.816406 6.363281 29.59375 5.835938 29.1875 5.378906 M 7.953125 19.972656 C 7.617188 20.253906 7.246094 20.496094 6.953125 20.828125 C 6.859375 20.933594 6.757812 21.039062 6.726562 21.222656 C 8.3125 21.554688 9.875 21.964844 11.53125 21.828125 C 11.464844 21.585938 11.425781 21.375 11.574219 21.199219 C 11.671875 21.082031 11.6875 20.960938 11.671875 20.824219 C 11.65625 20.65625 11.640625 20.488281 11.609375 20.324219 C 11.5 19.769531 11.339844 19.234375 11.042969 18.75 C 10.929688 18.558594 10.804688 18.367188 10.539062 18.371094 C 10.484375 18.371094 10.417969 18.339844 10.375 18.300781 C 10.277344 18.21875 10.203125 18.242188 10.109375 18.304688 C 9.355469 18.800781 8.644531 19.355469 7.953125 19.972656 M 9.871094 10.785156 C 9.726562 10.871094 9.585938 10.964844 9.441406 11.042969 C 9.328125 11.109375 9.3125 11.195312 9.371094 11.296875 C 9.460938 11.457031 9.554688 11.617188 9.648438 11.777344 C 9.820312 12.0625 10.03125 12.328125 10.148438 12.648438 C 10.402344 13.339844 10.523438 14.054688 10.492188 14.792969 C 10.488281 14.933594 10.527344 14.988281 10.675781 14.9375 C 11.136719 14.785156 11.601562 14.640625 12.066406 14.492188 C 12.132812 14.46875 12.191406 14.441406 12.214844 14.355469 C 12.296875 14.035156 12.433594 13.734375 12.574219 13.433594 C 12.679688 13.203125 12.777344 12.972656 12.746094 12.707031 C 12.714844 12.4375 12.660156 12.398438 12.421875 12.5 C 12.023438 12.664062 11.675781 12.457031 11.601562 12.027344 C 11.5625 11.789062 11.613281 11.570312 11.660156 11.34375 C 11.6875 11.203125 11.746094 11.066406 11.75 10.917969 C 11.753906 10.636719 11.492188 10.410156 11.226562 10.46875 C 11.074219 10.507812 10.929688 10.496094 10.796875 10.410156 C 10.726562 10.363281 10.667969 10.367188 10.597656 10.402344 C 10.363281 10.53125 10.125 10.652344 9.871094 10.785156 M 11.925781 18.164062 C 12.253906 18.703125 12.457031 19.292969 12.59375 19.910156 C 12.695312 20.367188 12.765625 20.824219 12.699219 21.296875 C 12.679688 21.421875 12.613281 21.535156 12.621094 21.671875 C 12.65625 21.675781 12.683594 21.683594 12.707031 21.679688 C 13.253906 21.605469 13.792969 21.476562 14.332031 21.351562 C 14.390625 21.339844 14.425781 21.300781 14.453125 21.25 C 14.644531 20.90625 14.8125 20.554688 14.925781 20.175781 C 14.988281 19.96875 15.015625 19.757812 14.996094 19.542969 C 14.976562 19.316406 14.855469 19.242188 14.652344 19.320312 C 14.492188 19.382812 14.339844 19.464844 14.167969 19.492188 C 13.757812 19.566406 13.433594 19.277344 13.472656 18.867188 C 13.484375 18.738281 13.546875 18.632812 13.601562 18.523438 C 13.695312 18.339844 13.796875 18.15625 13.855469 17.957031 C 13.972656 17.546875 13.910156 17.40625 13.535156 17.222656 C 13.464844 17.1875 13.410156 17.1875 13.335938 17.226562 C 13.050781 17.378906 12.828125 17.332031 12.617188 17.070312 C 12.554688 16.988281 12.492188 16.976562 12.40625 17.019531 C 12.222656 17.109375 12.035156 17.195312 11.855469 17.289062 C 11.707031 17.367188 11.542969 17.425781 11.40625 17.550781 C 11.605469 17.730469 11.773438 17.921875 11.925781 18.164062 M 17.710938 19.464844 C 17.46875 18.972656 17.226562 18.480469 16.984375 17.988281 C 16.675781 17.359375 16.367188 16.730469 16.058594 16.101562 C 16.019531 16.027344 15.988281 15.960938 15.875 15.976562 C 15.386719 16.035156 14.90625 16.140625 14.429688 16.269531 C 14.367188 16.289062 14.285156 16.289062 14.253906 16.386719 C 14.304688 16.46875 14.398438 16.515625 14.476562 16.578125 C 14.714844 16.765625 14.882812 16.996094 14.925781 17.3125 C 14.957031 17.523438 14.96875 17.738281 14.925781 17.945312 C 14.894531 18.105469 14.929688 18.203125 15.097656 18.242188 C 15.210938 18.269531 15.316406 18.324219 15.414062 18.386719 C 15.984375 18.753906 16.109375 19.324219 16.03125 19.996094 C 16 20.28125 15.917969 20.554688 15.820312 20.824219 C 15.800781 20.871094 15.761719 20.933594 15.804688 20.980469 C 15.851562 21.035156 15.921875 21.011719 15.976562 20.996094 C 16.097656 20.957031 16.21875 20.914062 16.332031 20.859375 C 16.738281 20.675781 17.109375 20.433594 17.492188 20.207031 C 17.632812 20.121094 17.851562 20.101562 17.898438 19.945312 C 17.941406 19.792969 17.78125 19.640625 17.710938 19.464844 M 5.679688 14.722656 C 5.574219 14.898438 5.464844 15.074219 5.398438 15.277344 C 5.472656 15.328125 5.550781 15.332031 5.625 15.339844 C 5.957031 15.371094 6.289062 15.390625 6.617188 15.414062 C 7.476562 15.476562 8.328125 15.429688 9.175781 15.289062 C 9.34375 15.261719 9.398438 15.179688 9.417969 15.03125 C 9.503906 14.417969 9.414062 13.824219 9.242188 13.238281 C 9.125 12.828125 8.851562 12.511719 8.644531 12.152344 C 8.570312 12.027344 8.519531 11.882812 8.402344 11.765625 C 7.324219 12.582031 6.425781 13.5625 5.679688 14.722656 M 12.777344 11.257812 C 12.800781 11.296875 12.839844 11.300781 12.878906 11.3125 C 13.195312 11.390625 13.410156 11.589844 13.5625 11.878906 C 13.828125 12.394531 13.863281 12.925781 13.6875 13.476562 C 13.648438 13.589844 13.582031 13.695312 13.597656 13.820312 C 13.640625 13.851562 13.667969 13.832031 13.699219 13.816406 C 14.015625 13.65625 14.324219 13.480469 14.65625 13.347656 C 14.789062 13.296875 14.808594 13.222656 14.761719 13.089844 C 14.605469 12.652344 14.449219 12.214844 14.308594 11.773438 C 14.0625 10.996094 13.871094 10.207031 13.730469 9.40625 C 13.695312 9.210938 13.667969 9.195312 13.488281 9.261719 C 13.195312 9.371094 12.894531 9.476562 12.597656 9.574219 C 12.488281 9.609375 12.355469 9.617188 12.269531 9.742188 C 12.679688 10.15625 12.890625 10.640625 12.777344 11.257812 Z M 12.777344 11.257812 "/>
<path style=" stroke:none;fill-rule:nonzero;fill:rgb(0%,0%,0%);fill-opacity:1;" d="M 8.855469 20.0625 C 8.949219 19.75 9.117188 19.621094 9.429688 19.621094 C 9.5 19.621094 9.570312 19.613281 9.644531 19.613281 C 10.039062 19.59375 10.324219 19.933594 10.25 20.328125 C 10.160156 20.820312 9.855469 21.050781 9.445312 20.949219 C 9.105469 20.867188 8.8125 20.433594 8.855469 20.0625 Z M 8.855469 20.0625 "/>
<path style=" stroke:none;fill-rule:nonzero;fill:rgb(0%,0%,0%);fill-opacity:1;" d="M 8.421875 14.175781 C 8.300781 14.464844 8.121094 14.660156 7.808594 14.683594 C 7.480469 14.707031 7.273438 14.519531 7.117188 14.25 C 7.023438 14.085938 6.921875 13.925781 6.925781 13.722656 C 6.933594 13.464844 7 13.242188 7.234375 13.109375 C 7.488281 12.964844 7.75 12.957031 8.003906 13.109375 C 8.328125 13.296875 8.578125 13.785156 8.421875 14.175781 Z M 8.421875 14.175781 "/>
</g>
</svg>
