<?xml version="1.0" encoding="UTF-8"?>
<svg xmlns="http://www.w3.org/2000/svg" xmlns:xlink="http://www.w3.org/1999/xlink" width="34px" height="34px" viewBox="0 0 34 34" version="1.1">
<g id="surface1">
<path style=" stroke:none;fill-rule:nonzero;fill:rgb(100%,100%,100%);fill-opacity:1;" d="M 19.863281 34.03125 C 13.242188 34.03125 6.636719 34.03125 0.03125 34.03125 C 0.03125 22.699219 0.03125 11.371094 0.03125 0.0351562 C 11.359375 0.0351562 22.691406 0.0351562 34.027344 0.0351562 C 34.027344 11.363281 34.027344 22.699219 34.027344 34.03125 C 29.3125 34.03125 24.59375 34.03125 19.863281 34.03125 M 18.453125 31.433594 C 19.476562 31.4375 20.496094 31.46875 21.515625 31.4375 C 22.566406 31.40625 23.617188 31.332031 24.664062 31.238281 C 25.335938 31.179688 26.007812 31.152344 26.683594 31.199219 C 27.390625 31.25 28.101562 31.277344 28.8125 31.269531 C 29.425781 31.261719 30.011719 31.101562 30.570312 30.828125 C 30.800781 30.714844 30.976562 30.546875 31.085938 30.308594 C 31.105469 30.265625 31.148438 30.222656 31.1875 30.207031 C 31.691406 30.011719 31.921875 29.679688 31.921875 29.125 C 31.925781 27.835938 32.054688 26.554688 32.195312 25.273438 C 32.292969 24.351562 32.40625 23.429688 32.472656 22.503906 C 32.617188 20.550781 32.527344 18.597656 32.441406 16.648438 C 32.390625 15.390625 32.339844 14.136719 32.300781 12.878906 C 32.292969 12.496094 32.289062 12.113281 32.179688 11.738281 C 32.117188 11.53125 32.117188 11.292969 32.027344 11.101562 C 31.605469 10.179688 31.132812 9.285156 30.515625 8.476562 C 30.171875 8.027344 29.734375 7.683594 29.328125 7.304688 C 28.703125 6.722656 28.121094 6.09375 27.527344 5.476562 C 26.816406 4.734375 26.097656 4.003906 25.207031 3.476562 C 25.195312 3.472656 25.195312 3.453125 25.1875 3.4375 C 25.515625 3.226562 25.871094 3.09375 26.246094 3.007812 C 26.804688 2.882812 27.144531 2.359375 27.035156 1.789062 C 26.933594 1.253906 26.40625 0.878906 25.878906 0.988281 C 24.722656 1.234375 23.726562 1.773438 22.988281 2.738281 C 22.832031 2.945312 22.664062 3.0625 22.414062 3.128906 C 21.488281 3.375 20.664062 3.855469 19.851562 4.355469 C 19.230469 4.734375 18.628906 5.164062 17.984375 5.5 C 16.800781 6.113281 15.59375 6.675781 14.390625 7.253906 C 12.800781 8.019531 11.253906 8.855469 9.769531 9.824219 C 8.589844 10.59375 7.402344 11.355469 6.199219 12.085938 C 5.207031 12.691406 4.160156 13.179688 3.035156 13.476562 C 2.886719 13.515625 2.714844 13.601562 2.632812 13.722656 C 2.414062 14.054688 2.195312 14.398438 2.0625 14.769531 C 1.976562 15.011719 2.03125 15.3125 2.03125 15.585938 C 2.035156 15.773438 2.101562 15.972656 2.0625 16.148438 C 1.898438 16.910156 1.984375 17.660156 2.125 18.410156 C 2.238281 19.015625 2.375 19.617188 2.3125 20.242188 C 2.214844 21.21875 2.128906 22.195312 2.03125 23.171875 C 1.90625 24.421875 1.800781 25.675781 1.820312 26.933594 C 1.832031 27.695312 1.890625 28.449219 2.101562 29.1875 C 2.347656 30.046875 2.855469 30.667969 3.679688 31.007812 C 4.144531 31.199219 4.628906 31.324219 5.121094 31.402344 C 6.386719 31.597656 7.660156 31.574219 8.933594 31.515625 C 10.226562 31.453125 11.515625 31.351562 12.808594 31.347656 C 14.679688 31.339844 16.550781 31.402344 18.453125 31.433594 Z M 18.453125 31.433594 "/>
<path style=" stroke:none;fill-rule:nonzero;fill:rgb(0.392157%,0.392157%,0.392157%);fill-opacity:1;" d="M 18.4375 31.433594 C 16.550781 31.402344 14.679688 31.339844 12.808594 31.347656 C 11.515625 31.351562 10.226562 31.453125 8.933594 31.515625 C 7.660156 31.574219 6.386719 31.597656 5.121094 31.402344 C 4.628906 31.324219 4.144531 31.199219 3.679688 31.007812 C 2.855469 30.667969 2.347656 30.046875 2.101562 29.1875 C 1.890625 28.449219 1.832031 27.695312 1.820312 26.933594 C 1.800781 25.675781 1.90625 24.421875 2.03125 23.171875 C 2.128906 22.195312 2.214844 21.21875 2.3125 20.242188 C 2.375 19.617188 2.238281 19.015625 2.125 18.410156 C 1.984375 17.660156 1.898438 16.910156 2.0625 16.148438 C 2.101562 15.972656 2.035156 15.773438 2.03125 15.585938 C 2.03125 15.3125 1.976562 15.011719 2.0625 14.769531 C 2.195312 14.398438 2.414062 14.054688 2.632812 13.722656 C 2.714844 13.601562 2.886719 13.515625 3.035156 13.476562 C 4.160156 13.179688 5.207031 12.691406 6.199219 12.085938 C 7.402344 11.355469 8.589844 10.59375 9.769531 9.824219 C 11.253906 8.855469 12.800781 8.019531 14.390625 7.253906 C 15.59375 6.675781 16.800781 6.113281 17.984375 5.5 C 18.628906 5.164062 19.230469 4.734375 19.851562 4.355469 C 20.664062 3.855469 21.488281 3.375 22.414062 3.128906 C 22.664062 3.0625 22.832031 2.945312 22.988281 2.738281 C 23.726562 1.773438 24.722656 1.234375 25.878906 0.988281 C 26.40625 0.878906 26.933594 1.253906 27.035156 1.789062 C 27.144531 2.359375 26.804688 2.882812 26.246094 3.007812 C 25.871094 3.09375 25.515625 3.226562 25.1875 3.4375 C 25.195312 3.453125 25.195312 3.472656 25.207031 3.476562 C 26.097656 4.003906 26.816406 4.734375 27.527344 5.476562 C 28.121094 6.09375 28.703125 6.722656 29.328125 7.304688 C 29.734375 7.683594 30.171875 8.027344 30.515625 8.476562 C 31.132812 9.285156 31.605469 10.179688 32.027344 11.101562 C 32.117188 11.292969 32.117188 11.53125 32.179688 11.738281 C 32.289062 12.113281 32.292969 12.496094 32.300781 12.878906 C 32.339844 14.136719 32.390625 15.390625 32.441406 16.648438 C 32.527344 18.597656 32.617188 20.550781 32.472656 22.503906 C 32.40625 23.429688 32.292969 24.351562 32.195312 25.273438 C 32.054688 26.554688 31.925781 27.835938 31.921875 29.125 C 31.921875 29.679688 31.691406 30.011719 31.1875 30.207031 C 31.148438 30.222656 31.105469 30.265625 31.085938 30.308594 C 30.976562 30.546875 30.800781 30.714844 30.570312 30.828125 C 30.011719 31.101562 29.425781 31.261719 28.8125 31.269531 C 28.101562 31.277344 27.390625 31.25 26.683594 31.199219 C 26.007812 31.152344 25.335938 31.179688 24.664062 31.238281 C 23.617188 31.332031 22.566406 31.40625 21.515625 31.4375 C 20.496094 31.46875 19.476562 31.4375 18.4375 31.433594 M 14.03125 25.640625 C 15.066406 25.683594 16.101562 25.714844 17.132812 25.769531 C 17.855469 25.8125 18.574219 25.882812 19.292969 25.945312 C 19.789062 25.988281 20.289062 26.089844 20.785156 26.066406 C 21.492188 26.027344 22.195312 25.90625 22.898438 25.808594 C 23.558594 25.714844 24.21875 25.660156 24.882812 25.773438 C 25.9375 25.949219 27 26.042969 28.070312 25.949219 C 28.753906 25.890625 29.421875 25.753906 30.046875 25.445312 C 30.132812 25.402344 30.171875 25.355469 30.179688 25.257812 C 30.199219 24.996094 30.226562 24.734375 30.261719 24.472656 C 30.460938 22.957031 30.5625 21.4375 30.535156 19.910156 C 30.535156 19.855469 30.53125 19.800781 30.527344 19.722656 C 30.082031 20.375 29.488281 20.683594 28.746094 20.699219 C 28.136719 20.710938 27.609375 20.480469 27.121094 20.132812 C 26.816406 19.914062 26.527344 19.675781 26.222656 19.460938 C 25.921875 19.25 25.859375 19.257812 25.566406 19.476562 C 25.265625 19.699219 24.980469 19.945312 24.671875 20.152344 C 23.800781 20.730469 22.90625 20.769531 22.007812 20.21875 C 21.6875 20.019531 21.378906 19.796875 21.082031 19.566406 C 20.824219 19.367188 20.601562 19.332031 20.320312 19.535156 C 19.925781 19.8125 19.511719 20.058594 19.09375 20.296875 C 18.667969 20.542969 18.210938 20.703125 17.707031 20.660156 C 17.292969 20.625 16.910156 20.464844 16.535156 20.289062 C 16.175781 20.121094 15.816406 19.960938 15.453125 19.800781 C 15.25 19.710938 15.078125 19.765625 14.945312 19.9375 C 14.792969 20.128906 14.640625 20.324219 14.503906 20.527344 C 14.222656 20.929688 13.96875 21.355469 13.675781 21.746094 C 12.914062 22.753906 11.925781 22.960938 10.882812 22.347656 C 10.347656 22.035156 9.972656 21.566406 9.65625 21.039062 C 9.4375 20.675781 9.230469 20.300781 8.992188 19.953125 C 8.773438 19.636719 8.53125 19.585938 8.179688 19.738281 C 7.953125 19.835938 7.734375 19.957031 7.515625 20.074219 C 6.742188 20.496094 5.917969 20.613281 5.0625 20.464844 C 4.8125 20.421875 4.574219 20.320312 4.328125 20.246094 C 4.167969 21.9375 4.007812 23.628906 3.84375 25.339844 C 3.933594 25.339844 3.984375 25.339844 4.035156 25.339844 C 4.621094 25.339844 5.207031 25.332031 5.796875 25.339844 C 6.636719 25.355469 7.476562 25.371094 8.316406 25.414062 C 9.097656 25.449219 9.878906 25.539062 10.660156 25.566406 C 11.773438 25.609375 12.886719 25.617188 14.03125 25.640625 M 25.691406 6.496094 C 25.167969 5.972656 24.632812 5.460938 23.925781 5.109375 C 23.789062 5.632812 23.660156 6.144531 23.527344 6.664062 C 23.695312 6.683594 23.824219 6.695312 23.949219 6.71875 C 24.816406 6.882812 25.519531 7.308594 25.921875 8.132812 C 26.320312 8.949219 26.359375 9.78125 25.796875 10.535156 C 25.300781 11.203125 24.59375 11.5625 23.789062 11.652344 C 23.046875 11.738281 22.324219 11.554688 21.644531 11.25 C 21.015625 10.964844 20.535156 10.511719 20.347656 9.808594 C 20.28125 9.558594 20.269531 9.289062 20.261719 9.027344 C 20.242188 8.101562 20.609375 7.398438 21.425781 6.964844 C 21.472656 6.9375 21.515625 6.867188 21.523438 6.8125 C 21.5625 6.566406 21.585938 6.320312 21.621094 6.074219 C 21.640625 5.9375 21.667969 5.804688 21.699219 5.625 C 21.328125 5.851562 20.992188 6.054688 20.65625 6.257812 C 20.039062 6.632812 19.433594 7.046875 18.796875 7.378906 C 17.828125 7.886719 16.839844 8.34375 15.855469 8.816406 C 14.144531 9.632812 12.457031 10.5 10.863281 11.546875 C 9.734375 12.289062 8.585938 13.007812 7.445312 13.734375 C 7.289062 13.832031 7.128906 13.917969 6.96875 14.011719 C 7.261719 14.007812 7.546875 13.984375 7.832031 13.957031 C 8.664062 13.878906 9.496094 13.800781 10.328125 13.722656 C 11.121094 13.648438 11.898438 13.785156 12.675781 13.925781 C 13.328125 14.046875 13.984375 14.136719 14.65625 14.097656 C 16.117188 14.011719 17.578125 13.910156 19.039062 13.878906 C 20.316406 13.847656 21.597656 13.859375 22.875 13.933594 C 24.121094 14.007812 25.363281 14.1875 26.609375 14.308594 C 27.292969 14.375 27.980469 14.398438 28.660156 14.257812 C 29.226562 14.140625 29.714844 13.902344 29.96875 13.320312 C 30.152344 12.886719 30.199219 12.425781 30.191406 11.957031 C 30.191406 11.914062 30.171875 11.867188 30.152344 11.824219 C 29.96875 11.472656 29.792969 11.113281 29.601562 10.765625 C 29.316406 10.257812 29.011719 9.757812 28.585938 9.355469 C 28.285156 9.070312 27.941406 8.828125 27.648438 8.53125 C 26.992188 7.871094 26.355469 7.1875 25.691406 6.496094 M 4.867188 29.25 C 5.328125 29.324219 5.789062 29.421875 6.253906 29.460938 C 7.328125 29.550781 8.398438 29.503906 9.46875 29.425781 C 11.121094 29.304688 12.773438 29.257812 14.429688 29.285156 C 16.429688 29.324219 18.429688 29.390625 20.429688 29.394531 C 21.613281 29.398438 22.796875 29.3125 23.980469 29.25 C 24.558594 29.21875 25.132812 29.113281 25.707031 29.113281 C 26.4375 29.117188 27.167969 29.191406 27.898438 29.230469 C 28.59375 29.269531 29.277344 29.234375 29.933594 28.863281 C 29.933594 28.484375 29.933594 28.089844 29.933594 27.6875 C 29.800781 27.722656 29.667969 27.757812 29.53125 27.789062 C 28.019531 28.140625 26.503906 28.078125 24.984375 27.871094 C 24.597656 27.820312 24.203125 27.761719 23.816406 27.78125 C 23.289062 27.8125 22.765625 27.917969 22.242188 27.996094 C 21.628906 28.085938 21.015625 28.175781 20.394531 28.117188 C 19.472656 28.03125 18.550781 27.917969 17.625 27.863281 C 16.160156 27.78125 14.691406 27.742188 13.222656 27.6875 C 12.082031 27.644531 10.945312 27.617188 9.808594 27.566406 C 8.933594 27.527344 8.058594 27.4375 7.183594 27.414062 C 6.105469 27.382812 5.027344 27.394531 3.949219 27.390625 C 3.917969 27.390625 3.882812 27.398438 3.835938 27.402344 C 3.859375 27.621094 3.878906 27.828125 3.902344 28.039062 C 3.964844 28.644531 4.148438 29.15625 4.867188 29.25 Z M 4.867188 29.25 "/>
<path style=" stroke:none;fill-rule:nonzero;fill:rgb(99.607843%,99.607843%,99.607843%);fill-opacity:1;" d="M 14.015625 25.640625 C 12.886719 25.617188 11.773438 25.609375 10.660156 25.566406 C 9.878906 25.539062 9.097656 25.449219 8.316406 25.414062 C 7.476562 25.371094 6.636719 25.355469 5.796875 25.339844 C 5.207031 25.332031 4.621094 25.339844 4.035156 25.339844 C 3.984375 25.339844 3.933594 25.339844 3.84375 25.339844 C 4.007812 23.628906 4.167969 21.9375 4.328125 20.246094 C 4.574219 20.320312 4.8125 20.421875 5.0625 20.464844 C 5.917969 20.613281 6.742188 20.496094 7.515625 20.074219 C 7.734375 19.957031 7.953125 19.835938 8.179688 19.738281 C 8.53125 19.585938 8.773438 19.636719 8.992188 19.953125 C 9.230469 20.300781 9.4375 20.675781 9.65625 21.039062 C 9.972656 21.566406 10.347656 22.035156 10.882812 22.347656 C 11.925781 22.960938 12.914062 22.753906 13.675781 21.746094 C 13.96875 21.355469 14.222656 20.929688 14.503906 20.527344 C 14.640625 20.324219 14.792969 20.128906 14.945312 19.9375 C 15.078125 19.765625 15.25 19.710938 15.453125 19.800781 C 15.816406 19.960938 16.175781 20.121094 16.535156 20.289062 C 16.910156 20.464844 17.292969 20.625 17.707031 20.660156 C 18.210938 20.703125 18.667969 20.542969 19.09375 20.296875 C 19.511719 20.058594 19.925781 19.8125 20.320312 19.535156 C 20.601562 19.332031 20.824219 19.367188 21.082031 19.566406 C 21.378906 19.796875 21.6875 20.019531 22.007812 20.21875 C 22.90625 20.769531 23.800781 20.730469 24.671875 20.152344 C 24.980469 19.945312 25.265625 19.699219 25.566406 19.476562 C 25.859375 19.257812 25.921875 19.25 26.222656 19.460938 C 26.527344 19.675781 26.816406 19.914062 27.121094 20.132812 C 27.609375 20.480469 28.136719 20.710938 28.746094 20.699219 C 29.488281 20.683594 30.082031 20.375 30.527344 19.722656 C 30.53125 19.800781 30.535156 19.855469 30.535156 19.910156 C 30.5625 21.4375 30.460938 22.957031 30.261719 24.472656 C 30.226562 24.734375 30.199219 24.996094 30.179688 25.257812 C 30.171875 25.355469 30.132812 25.402344 30.046875 25.445312 C 29.421875 25.753906 28.753906 25.890625 28.070312 25.949219 C 27 26.042969 25.9375 25.949219 24.882812 25.773438 C 24.21875 25.660156 23.558594 25.714844 22.898438 25.808594 C 22.195312 25.90625 21.492188 26.027344 20.785156 26.066406 C 20.289062 26.089844 19.789062 25.988281 19.292969 25.945312 C 18.574219 25.882812 17.855469 25.8125 17.132812 25.769531 C 16.101562 25.714844 15.066406 25.683594 14.015625 25.640625 Z M 14.015625 25.640625 "/>
<path style=" stroke:none;fill-rule:nonzero;fill:rgb(99.607843%,99.607843%,99.607843%);fill-opacity:1;" d="M 25.699219 6.503906 C 26.355469 7.1875 26.992188 7.871094 27.648438 8.53125 C 27.941406 8.828125 28.285156 9.070312 28.585938 9.355469 C 29.011719 9.757812 29.316406 10.257812 29.601562 10.765625 C 29.792969 11.113281 29.96875 11.472656 30.152344 11.824219 C 30.171875 11.867188 30.191406 11.914062 30.191406 11.957031 C 30.199219 12.425781 30.152344 12.886719 29.96875 13.320312 C 29.714844 13.902344 29.226562 14.140625 28.660156 14.257812 C 27.980469 14.398438 27.292969 14.375 26.609375 14.308594 C 25.363281 14.1875 24.121094 14.007812 22.875 13.933594 C 21.597656 13.859375 20.316406 13.847656 19.039062 13.878906 C 17.578125 13.910156 16.117188 14.011719 14.65625 14.097656 C 13.984375 14.136719 13.328125 14.046875 12.675781 13.925781 C 11.898438 13.785156 11.121094 13.648438 10.328125 13.722656 C 9.496094 13.800781 8.664062 13.878906 7.832031 13.957031 C 7.546875 13.984375 7.261719 14.007812 6.96875 14.011719 C 7.128906 13.917969 7.289062 13.832031 7.445312 13.734375 C 8.585938 13.007812 9.734375 12.289062 10.863281 11.546875 C 12.457031 10.5 14.144531 9.632812 15.855469 8.816406 C 16.839844 8.34375 17.828125 7.886719 18.796875 7.378906 C 19.433594 7.046875 20.039062 6.632812 20.65625 6.257812 C 20.992188 6.054688 21.328125 5.851562 21.699219 5.625 C 21.667969 5.804688 21.640625 5.9375 21.621094 6.074219 C 21.585938 6.320312 21.5625 6.566406 21.523438 6.8125 C 21.515625 6.867188 21.472656 6.9375 21.425781 6.964844 C 20.609375 7.398438 20.242188 8.101562 20.261719 9.027344 C 20.269531 9.289062 20.28125 9.558594 20.347656 9.808594 C 20.535156 10.511719 21.015625 10.964844 21.644531 11.25 C 22.324219 11.554688 23.046875 11.738281 23.789062 11.652344 C 24.59375 11.5625 25.300781 11.203125 25.796875 10.535156 C 26.359375 9.78125 26.320312 8.949219 25.921875 8.132812 C 25.519531 7.308594 24.816406 6.882812 23.949219 6.71875 C 23.824219 6.695312 23.695312 6.683594 23.527344 6.664062 C 23.660156 6.144531 23.789062 5.632812 23.925781 5.109375 C 24.632812 5.460938 25.167969 5.972656 25.699219 6.503906 Z M 25.699219 6.503906 "/>
<path style=" stroke:none;fill-rule:nonzero;fill:rgb(99.215686%,99.215686%,99.215686%);fill-opacity:1;" d="M 4.855469 29.25 C 4.148438 29.15625 3.964844 28.644531 3.902344 28.039062 C 3.878906 27.828125 3.859375 27.621094 3.835938 27.402344 C 3.882812 27.398438 3.917969 27.390625 3.949219 27.390625 C 5.027344 27.394531 6.105469 27.382812 7.183594 27.414062 C 8.058594 27.4375 8.933594 27.527344 9.808594 27.566406 C 10.945312 27.617188 12.082031 27.644531 13.222656 27.6875 C 14.691406 27.742188 16.160156 27.78125 17.625 27.863281 C 18.550781 27.917969 19.472656 28.03125 20.394531 28.117188 C 21.015625 28.175781 21.628906 28.085938 22.242188 27.996094 C 22.765625 27.917969 23.289062 27.8125 23.816406 27.78125 C 24.203125 27.761719 24.597656 27.820312 24.984375 27.871094 C 26.503906 28.078125 28.019531 28.140625 29.53125 27.789062 C 29.667969 27.757812 29.800781 27.722656 29.933594 27.6875 C 29.933594 28.089844 29.933594 28.484375 29.933594 28.863281 C 29.277344 29.234375 28.59375 29.269531 27.898438 29.230469 C 27.167969 29.191406 26.4375 29.117188 25.707031 29.113281 C 25.132812 29.113281 24.558594 29.21875 23.980469 29.25 C 22.796875 29.3125 21.613281 29.398438 20.429688 29.394531 C 18.429688 29.390625 16.429688 29.324219 14.429688 29.285156 C 12.773438 29.257812 11.121094 29.304688 9.46875 29.425781 C 8.398438 29.503906 7.328125 29.550781 6.253906 29.460938 C 5.789062 29.421875 5.328125 29.324219 4.855469 29.25 Z M 4.855469 29.25 "/>
</g>
</svg>
