<?xml version="1.0" encoding="UTF-8"?>
<svg xmlns="http://www.w3.org/2000/svg" xmlns:xlink="http://www.w3.org/1999/xlink" width="34px" height="34px" viewBox="0 0 34 34" version="1.1">
<g id="surface1">
<path style=" stroke:none;fill-rule:nonzero;fill:rgb(0%,0%,0%);fill-opacity:1;" d="M 34.035156 33.886719 C 33.707031 33.933594 33.394531 33.835938 33.097656 33.734375 C 31.570312 33.207031 30.164062 32.472656 28.949219 31.410156 C 28.640625 31.140625 28.382812 30.828125 28.214844 30.449219 C 27.996094 29.957031 28.1875 29.417969 28.671875 29.15625 C 29.125 28.914062 29.722656 29.054688 29.988281 29.5 C 30.171875 29.816406 30.429688 30.058594 30.71875 30.265625 C 31.652344 30.941406 32.65625 31.488281 33.761719 31.847656 C 33.839844 31.875 33.925781 31.882812 34.019531 31.90625 C 34.035156 32.5625 34.035156 33.214844 34.035156 33.886719 Z M 34.035156 33.886719 "/>
<path style=" stroke:none;fill-rule:nonzero;fill:rgb(0%,0%,0%);fill-opacity:1;" d="M 14.945312 27.460938 C 14.261719 28.371094 13.597656 29.289062 12.808594 30.101562 C 12.214844 30.707031 11.648438 31.34375 10.929688 31.808594 C 10.570312 32.039062 10.191406 32.1875 9.75 32.082031 C 9.425781 32.003906 9.15625 31.820312 9.039062 31.523438 C 8.882812 31.121094 8.65625 30.761719 8.484375 30.371094 C 8.160156 29.621094 7.9375 28.835938 7.753906 28.046875 C 7.480469 26.867188 7.214844 25.683594 6.902344 24.515625 C 6.453125 22.84375 6.03125 21.164062 5.585938 19.492188 C 5.101562 17.664062 4.585938 15.84375 4.085938 14.019531 C 3.566406 12.128906 2.917969 10.28125 2.226562 8.445312 C 1.796875 7.296875 1.421875 6.132812 1.226562 4.917969 C 1.171875 4.570312 1.289062 4.273438 1.554688 4.042969 C 1.632812 3.972656 1.6875 3.898438 1.714844 3.796875 C 1.753906 3.667969 1.820312 3.546875 1.925781 3.460938 C 2.398438 3.070312 2.882812 2.746094 3.578125 2.882812 C 4.425781 3.050781 5.246094 3.28125 6.046875 3.597656 C 7.019531 3.984375 8.023438 4.246094 9.046875 4.46875 C 9.835938 4.640625 10.613281 4.863281 11.390625 5.085938 C 13.203125 5.601562 14.988281 6.207031 16.808594 6.695312 C 19.417969 7.398438 22.046875 8.03125 24.675781 8.65625 C 26.464844 9.085938 28.253906 9.511719 30.058594 9.867188 C 30.703125 9.992188 31.359375 10.039062 32 10.1875 C 32.515625 10.3125 33.011719 10.488281 33.46875 10.753906 C 33.917969 11.011719 34.117188 11.515625 33.953125 11.960938 C 33.769531 12.449219 33.320312 12.703125 32.785156 12.609375 C 32.683594 12.59375 32.628906 12.617188 32.582031 12.703125 C 32.460938 12.90625 32.277344 13.03125 32.058594 13.125 C 30.074219 13.964844 28.074219 14.761719 26.160156 15.746094 C 26.039062 15.808594 25.953125 15.878906 25.902344 16.007812 C 25.816406 16.25 25.617188 16.402344 25.414062 16.542969 C 25.34375 16.59375 25.324219 16.644531 25.34375 16.722656 C 25.527344 17.511719 25.445312 18.296875 25.320312 19.082031 C 25.101562 20.464844 24.839844 21.84375 24.546875 23.21875 C 24.523438 23.335938 24.527344 23.460938 24.542969 23.582031 C 24.578125 23.84375 24.523438 24.085938 24.398438 24.316406 C 24.375 24.355469 24.351562 24.394531 24.335938 24.433594 C 24.121094 25.027344 23.753906 25.261719 23.113281 25.203125 C 22.414062 25.140625 21.714844 25.082031 21.019531 24.976562 C 19.878906 24.808594 18.753906 24.582031 17.699219 24.097656 C 17.554688 24.027344 17.476562 24.054688 17.382812 24.183594 C 16.574219 25.277344 15.761719 26.363281 14.945312 27.460938 M 5.046875 10.257812 C 5.445312 11.386719 5.757812 12.539062 6.089844 13.6875 C 6.617188 15.515625 7.109375 17.355469 7.601562 19.191406 C 7.957031 20.53125 8.308594 21.875 8.65625 23.21875 C 8.917969 24.238281 9.199219 25.25 9.425781 26.273438 C 9.65625 27.289062 9.859375 28.308594 10.230469 29.285156 C 10.273438 29.402344 10.304688 29.527344 10.394531 29.621094 C 10.480469 29.613281 10.519531 29.554688 10.566406 29.511719 C 10.925781 29.164062 11.265625 28.792969 11.605469 28.421875 C 12.371094 27.589844 13.011719 26.65625 13.695312 25.757812 C 15.222656 23.738281 16.71875 21.699219 18.164062 19.621094 C 18.332031 19.382812 18.328125 19.351562 18.085938 19.1875 C 17.308594 18.660156 16.550781 18.105469 15.804688 17.535156 C 14.917969 16.847656 14.054688 16.128906 13.140625 15.472656 C 11.3125 14.160156 9.621094 12.691406 8.011719 11.128906 C 6.664062 9.824219 5.371094 8.46875 4.089844 7.105469 C 4.019531 7.03125 3.953125 6.945312 3.820312 6.871094 C 4.203125 8.03125 4.644531 9.125 5.046875 10.257812 M 11.96875 8.390625 C 12.710938 8.863281 13.46875 9.320312 14.246094 9.742188 C 15.691406 10.523438 17.179688 11.214844 18.652344 11.945312 C 19.679688 12.457031 20.710938 12.957031 21.621094 13.671875 C 22.105469 14.050781 22.609375 14.402344 23.15625 14.6875 C 23.421875 14.828125 23.691406 14.949219 23.996094 14.96875 C 24.121094 14.976562 24.195312 14.925781 24.230469 14.804688 C 24.304688 14.53125 24.488281 14.34375 24.738281 14.214844 C 24.964844 14.097656 25.195312 13.980469 25.429688 13.867188 C 26.796875 13.1875 28.191406 12.558594 29.609375 11.980469 C 29.664062 11.957031 29.734375 11.949219 29.75 11.878906 C 29.722656 11.828125 29.671875 11.835938 29.628906 11.824219 C 29.03125 11.699219 28.433594 11.578125 27.835938 11.441406 C 26.636719 11.167969 25.433594 10.882812 24.234375 10.605469 C 21.910156 10.066406 19.601562 9.484375 17.292969 8.898438 C 15.703125 8.5 14.140625 8.003906 12.578125 7.523438 C 11.589844 7.21875 10.601562 6.933594 9.605469 6.664062 C 9.523438 6.640625 9.4375 6.59375 9.296875 6.652344 C 10.199219 7.238281 11.074219 7.808594 11.96875 8.390625 M 15.4375 14.703125 C 15.585938 14.820312 15.734375 14.9375 15.882812 15.054688 C 17.035156 15.949219 18.1875 16.84375 19.410156 17.648438 C 19.570312 17.753906 19.722656 17.859375 19.933594 17.796875 C 19.980469 17.78125 20.035156 17.796875 20.082031 17.808594 C 20.695312 17.917969 21.003906 18.355469 21.25 18.855469 C 21.316406 18.988281 21.371094 19.128906 21.449219 19.257812 C 21.800781 19.855469 22.195312 20.429688 22.589844 21.003906 C 22.628906 21.0625 22.667969 21.125 22.714844 21.179688 C 22.796875 21.269531 22.859375 21.257812 22.890625 21.140625 C 22.914062 21.039062 22.925781 20.933594 22.945312 20.832031 C 23.109375 19.941406 23.316406 19.054688 23.382812 18.152344 C 23.414062 17.765625 23.445312 17.378906 23.3125 17 C 23.28125 16.910156 23.234375 16.863281 23.144531 16.835938 C 22.941406 16.777344 22.738281 16.707031 22.546875 16.621094 C 21.867188 16.316406 21.257812 15.898438 20.660156 15.464844 C 20.214844 15.148438 19.789062 14.800781 19.304688 14.539062 C 18.355469 14.023438 17.378906 13.554688 16.40625 13.082031 C 14.878906 12.332031 13.34375 11.585938 11.886719 10.703125 C 10.671875 9.964844 9.492188 9.179688 8.304688 8.398438 C 8.234375 8.355469 8.171875 8.296875 8.074219 8.300781 C 8.078125 8.371094 8.121094 8.402344 8.15625 8.433594 C 9.542969 9.839844 10.972656 11.203125 12.503906 12.457031 C 13.449219 13.234375 14.472656 13.910156 15.4375 14.703125 M 19.917969 20.714844 C 19.890625 20.734375 19.855469 20.746094 19.839844 20.769531 C 19.492188 21.257812 19.144531 21.75 18.800781 22.238281 C 18.75 22.308594 18.769531 22.363281 18.84375 22.398438 C 18.910156 22.429688 18.976562 22.457031 19.046875 22.484375 C 19.765625 22.742188 20.515625 22.875 21.265625 22.996094 C 21.324219 23.003906 21.398438 23.03125 21.433594 22.960938 C 21.46875 22.894531 21.414062 22.84375 21.378906 22.796875 C 21.09375 22.386719 20.8125 21.972656 20.523438 21.566406 C 20.324219 21.289062 20.167969 20.976562 19.917969 20.714844 Z M 19.917969 20.714844 "/>
<path style=" stroke:none;fill-rule:nonzero;fill:rgb(0%,0%,0%);fill-opacity:1;" d="M 27.296875 26.921875 C 27.445312 27.070312 27.589844 27.210938 27.734375 27.351562 C 28.15625 27.753906 28.183594 28.375 27.796875 28.777344 C 27.394531 29.195312 26.773438 29.203125 26.332031 28.800781 C 25.871094 28.382812 25.472656 27.910156 25.066406 27.445312 C 25.015625 27.386719 24.960938 27.328125 24.914062 27.269531 C 24.574219 26.847656 24.625 26.222656 25.019531 25.890625 C 25.460938 25.523438 26.078125 25.558594 26.457031 25.976562 C 26.738281 26.285156 27.011719 26.597656 27.296875 26.921875 Z M 27.296875 26.921875 "/>
</g>
</svg>
