<?xml version="1.0" encoding="UTF-8"?>
<svg xmlns="http://www.w3.org/2000/svg" xmlns:xlink="http://www.w3.org/1999/xlink" width="34px" height="34px" viewBox="0 0 34 34" version="1.1">
<g id="surface1">
<path style=" stroke:none;fill-rule:nonzero;fill:rgb(100%,100%,100%);fill-opacity:1;" d="M 34.027344 0.0546875 C 34.027344 11.378906 34.027344 22.699219 34.027344 34.027344 C 22.730469 34.027344 11.433594 34.027344 0.125 34.015625 C 0.109375 33.609375 0.109375 33.21875 0.109375 32.828125 C 0.109375 29.90625 0.109375 26.984375 0.109375 24.046875 C 0.101562 23.890625 0.0859375 23.742188 0.0859375 23.597656 C 0.0820312 23.226562 0.0859375 22.855469 0.0859375 22.484375 C 0.0859375 22.152344 0.0859375 21.820312 0.0859375 21.492188 C 0.0859375 21.226562 0.0859375 20.960938 0.0859375 20.695312 C 0.0859375 20.34375 0.0859375 19.988281 0.0859375 19.636719 C 0.0859375 19.320312 0.0859375 19.003906 0.0859375 18.6875 C 0.0859375 18.324219 0.0859375 17.964844 0.0859375 17.601562 C 0.0859375 17.226562 0.0859375 16.847656 0.0859375 16.472656 C 0.0859375 16.203125 0.0859375 15.933594 0.0859375 15.664062 C 0.0859375 15.304688 0.0859375 14.945312 0.0859375 14.589844 C 0.0859375 14.277344 0.0859375 13.964844 0.0859375 13.652344 C 0.0859375 13.269531 0.0859375 12.882812 0.0859375 12.496094 C 0.0859375 12.214844 0.0859375 11.929688 0.0859375 11.644531 C 0.0859375 11.265625 0.0859375 10.882812 0.0859375 10.503906 C 0.0859375 10.230469 0.0859375 9.953125 0.0859375 9.679688 C 0.0859375 9.289062 0.0859375 8.898438 0.0859375 8.507812 C 0.0859375 8.238281 0.0859375 7.96875 0.0859375 7.699219 C 0.0859375 7.304688 0.0859375 6.910156 0.0859375 6.515625 C 0.0859375 6.265625 0.0859375 6.019531 0.0859375 5.773438 C 0.0859375 5.355469 0.0859375 4.9375 0.0859375 4.519531 C 0.0859375 4.292969 0.0859375 4.0625 0.0859375 3.835938 C 0.0859375 3.359375 0.0820312 2.886719 0.0859375 2.414062 C 0.0859375 2.308594 0.109375 2.203125 0.109375 2.097656 C 0.105469 1.808594 0.0898438 1.519531 0.0859375 1.230469 C 0.0820312 1.140625 0.105469 1.046875 0.101562 0.957031 C 0.0820312 0.644531 0.0507812 0.335938 0.140625 0.0273438 C 0.398438 0.0273438 0.660156 0.0273438 0.933594 0.0351562 C 0.957031 0.0546875 0.96875 0.0625 0.980469 0.0703125 C 0.988281 0.0546875 0.996094 0.0429688 1 0.0273438 C 1.015625 0.0273438 1.027344 0.0273438 1.046875 0.0390625 C 1.097656 0.0976562 1.128906 0.09375 1.140625 0.0273438 C 1.4375 0.0273438 1.734375 0.0273438 2.046875 0.0390625 C 2.109375 0.101562 2.148438 0.105469 2.171875 0.0273438 C 2.449219 0.0273438 2.726562 0.0273438 3.019531 0.0390625 C 3.082031 0.0976562 3.121094 0.109375 3.144531 0.0273438 C 3.441406 0.0273438 3.738281 0.0273438 4.050781 0.0390625 C 4.109375 0.101562 4.148438 0.105469 4.171875 0.0273438 C 4.425781 0.0273438 4.675781 0.0273438 4.941406 0.0351562 C 4.972656 0.0390625 4.988281 0.0351562 5.007812 0.0273438 C 5.019531 0.0273438 5.03125 0.0273438 5.054688 0.0390625 C 5.105469 0.101562 5.132812 0.09375 5.148438 0.0273438 C 5.445312 0.0273438 5.742188 0.0273438 6.054688 0.0390625 C 6.113281 0.101562 6.152344 0.105469 6.175781 0.0273438 C 6.464844 0.0273438 6.753906 0.0273438 7.054688 0.0390625 C 7.109375 0.101562 7.136719 0.09375 7.152344 0.0273438 C 7.449219 0.0273438 7.746094 0.0273438 8.058594 0.0390625 C 8.117188 0.101562 8.15625 0.105469 8.179688 0.0273438 C 8.421875 0.0273438 8.664062 0.0273438 8.921875 0.0390625 C 9.011719 0.09375 9.089844 0.121094 9.152344 0.0273438 C 9.292969 0.0273438 9.433594 0.0273438 9.589844 0.0390625 C 9.757812 0.0507812 9.914062 0.0546875 10.078125 0.0625 C 10.136719 0.0546875 10.1875 0.0429688 10.238281 0.0273438 C 10.304688 0.0273438 10.371094 0.0273438 10.449219 0.0390625 C 10.492188 0.09375 10.519531 0.140625 10.554688 0.183594 C 10.597656 0.230469 10.664062 0.269531 10.6875 0.324219 C 10.71875 0.410156 10.742188 0.480469 10.855469 0.484375 C 10.882812 0.484375 10.90625 0.558594 10.933594 0.597656 C 10.960938 0.628906 10.980469 0.675781 11.015625 0.6875 C 11.082031 0.710938 11.160156 0.714844 11.230469 0.71875 C 11.3125 0.726562 11.378906 0.734375 11.386719 0.835938 C 11.386719 0.863281 11.433594 0.898438 11.464844 0.910156 C 11.609375 0.972656 11.804688 0.949219 11.871094 1.148438 C 11.878906 1.175781 11.925781 1.1875 11.945312 1.210938 C 11.972656 1.242188 11.996094 1.277344 12.011719 1.320312 C 11.621094 1.394531 11.367188 1.617188 11.253906 1.980469 C 11.140625 2.339844 11.222656 2.664062 11.488281 2.9375 C 11.738281 3.191406 12.070312 3.261719 12.402344 3.289062 C 12.722656 3.316406 13.046875 3.292969 13.355469 3.292969 C 13.371094 3.316406 13.375 3.320312 13.375 3.324219 C 13.21875 4.234375 13.171875 5.15625 13.179688 6.078125 C 13.179688 6.375 13.117188 6.554688 12.816406 6.605469 C 12.804688 6.609375 12.796875 6.613281 12.789062 6.617188 C 12.207031 6.886719 11.753906 7.28125 11.589844 7.925781 C 11.542969 8.113281 11.542969 8.308594 11.523438 8.507812 C 11.378906 8.523438 11.222656 8.539062 11.0625 8.554688 C 10.242188 8.640625 9.800781 9.003906 9.625 9.8125 C 9.550781 10.164062 9.554688 10.535156 9.539062 10.894531 C 9.53125 11.125 9.5625 11.351562 9.574219 11.589844 C 9.539062 11.59375 9.515625 11.59375 9.496094 11.601562 C 9.035156 11.703125 8.570312 11.785156 8.117188 11.910156 C 7.75 12.015625 7.441406 12.226562 7.25 12.578125 C 7.183594 12.699219 7.089844 12.808594 6.988281 12.90625 C 6.699219 13.191406 6.367188 13.4375 6.109375 13.75 C 5.546875 14.433594 5.113281 15.199219 4.753906 16.007812 C 4.324219 16.980469 3.960938 17.96875 3.78125 19.023438 C 3.582031 20.171875 3.503906 21.328125 3.488281 22.492188 C 3.464844 24.171875 3.5625 25.847656 3.808594 27.511719 C 3.941406 28.398438 4.128906 29.265625 4.390625 30.121094 C 4.765625 31.339844 5.578125 32.085938 6.796875 32.421875 C 7.40625 32.59375 8.03125 32.652344 8.660156 32.703125 C 9.160156 32.742188 9.664062 32.761719 10.152344 32.851562 C 11.652344 33.132812 13.160156 33.339844 14.679688 33.441406 C 16.117188 33.535156 17.550781 33.546875 18.984375 33.363281 C 19.890625 33.246094 20.773438 33.042969 21.625 32.691406 C 22.769531 32.21875 23.527344 31.40625 23.886719 30.21875 C 24.101562 29.515625 24.226562 28.796875 24.289062 28.066406 C 24.339844 27.4375 24.367188 26.804688 24.417969 26.175781 C 24.488281 25.296875 24.582031 24.421875 24.640625 23.542969 C 24.753906 21.957031 24.785156 20.371094 24.597656 18.789062 C 24.476562 17.742188 24.261719 16.71875 23.875 15.734375 C 23.425781 14.605469 22.777344 13.617188 21.828125 12.835938 C 21.296875 12.398438 20.707031 12.0625 20.03125 11.796875 C 20.03125 11.480469 20.050781 11.152344 20.027344 10.824219 C 19.996094 10.320312 19.898438 9.828125 19.648438 9.382812 C 19.382812 8.910156 18.996094 8.59375 18.445312 8.523438 C 18.167969 8.484375 17.894531 8.460938 17.617188 8.429688 C 17.546875 7.835938 17.269531 7.355469 16.800781 6.988281 C 16.328125 6.617188 15.78125 6.429688 15.199219 6.34375 C 15.121094 6.332031 15.085938 6.308594 15.085938 6.222656 C 15.101562 5.859375 15.09375 5.496094 15.125 5.132812 C 15.179688 4.480469 15.257812 3.835938 15.324219 3.171875 C 15.476562 3.171875 15.59375 3.167969 15.714844 3.171875 C 17.011719 3.183594 18.308594 3.199219 19.609375 3.214844 C 19.839844 3.21875 19.878906 3.3125 19.796875 3.527344 C 19.742188 3.671875 19.691406 3.832031 19.703125 3.980469 C 19.722656 4.226562 19.765625 4.476562 19.839844 4.710938 C 19.980469 5.15625 20.375 5.421875 20.816406 5.40625 C 21.265625 5.390625 21.648438 5.105469 21.753906 4.644531 C 21.945312 3.832031 21.839844 3.042969 21.457031 2.296875 C 21.300781 1.996094 21.09375 1.722656 20.777344 1.574219 C 20.558594 1.46875 20.320312 1.410156 20.089844 1.316406 C 20.082031 1.273438 20.078125 1.238281 20.070312 1.195312 C 20.136719 1.214844 20.191406 1.234375 20.253906 1.253906 C 20.273438 1.105469 20.382812 1.136719 20.46875 1.136719 C 23.894531 1.136719 27.324219 1.136719 30.75 1.132812 C 30.820312 1.132812 30.886719 1.117188 30.957031 1.113281 C 31.109375 1.113281 31.265625 1.113281 31.417969 1.113281 C 31.652344 1.109375 31.898438 1.242188 32.101562 1.019531 C 32.113281 1.007812 32.132812 1.003906 32.152344 1 C 32.257812 0.96875 32.359375 0.941406 32.464844 0.90625 C 32.488281 0.902344 32.519531 0.875 32.519531 0.855469 C 32.519531 0.730469 32.605469 0.734375 32.695312 0.714844 C 32.8125 0.695312 32.984375 0.746094 32.984375 0.53125 C 32.984375 0.515625 33.015625 0.484375 33.03125 0.488281 C 33.179688 0.496094 33.1875 0.378906 33.226562 0.289062 C 33.265625 0.199219 33.316406 0.113281 33.359375 0.0273438 C 33.566406 0.0273438 33.769531 0.0273438 33.988281 0.0351562 C 34.011719 0.046875 34.019531 0.0546875 34.027344 0.0546875 M 26.4375 13.214844 C 27.007812 13.746094 27.871094 13.480469 28.050781 12.726562 C 28.09375 12.554688 28.144531 12.390625 28.1875 12.21875 C 28.292969 11.789062 28.546875 11.46875 28.925781 11.242188 C 29.097656 11.136719 29.273438 11.035156 29.453125 10.9375 C 30.03125 10.632812 30.617188 10.332031 31.191406 10.023438 C 31.371094 9.925781 31.5 9.773438 31.582031 9.585938 C 31.820312 9.039062 31.566406 8.464844 30.972656 8.230469 C 30.738281 8.136719 30.488281 8.074219 30.246094 8 C 29.808594 7.863281 29.425781 7.640625 29.195312 7.238281 C 29.03125 6.957031 28.878906 6.660156 28.78125 6.351562 C 28.660156 5.980469 28.59375 5.59375 28.519531 5.210938 C 28.460938 4.898438 28.335938 4.628906 28.054688 4.460938 C 27.742188 4.269531 27.414062 4.257812 27.089844 4.429688 C 26.75 4.609375 26.597656 4.910156 26.574219 5.285156 C 26.554688 5.578125 26.539062 5.878906 26.480469 6.164062 C 26.371094 6.695312 26.128906 7.15625 25.617188 7.417969 C 25.175781 7.640625 24.734375 7.863281 24.246094 7.976562 C 24.136719 8 24.023438 8.039062 23.917969 8.082031 C 23.246094 8.371094 23.113281 9.242188 23.671875 9.710938 C 23.863281 9.871094 24.089844 9.941406 24.339844 9.941406 C 24.773438 9.941406 25.203125 9.964844 25.613281 10.109375 C 25.917969 10.214844 26.085938 10.421875 26.097656 10.746094 C 26.117188 11.335938 26.140625 11.925781 26.152344 12.511719 C 26.15625 12.78125 26.238281 13.007812 26.4375 13.214844 Z M 26.4375 13.214844 "/>
<path style=" stroke:none;fill-rule:nonzero;fill:rgb(98.039216%,98.039216%,98.039216%);fill-opacity:1;" d="M 12.019531 1.316406 C 11.996094 1.277344 11.972656 1.242188 11.945312 1.210938 C 11.925781 1.1875 11.878906 1.175781 11.871094 1.148438 C 11.804688 0.949219 11.609375 0.972656 11.464844 0.910156 C 11.433594 0.898438 11.386719 0.863281 11.386719 0.835938 C 11.378906 0.734375 11.3125 0.726562 11.230469 0.71875 C 11.160156 0.714844 11.082031 0.710938 11.015625 0.6875 C 10.980469 0.675781 10.960938 0.628906 10.933594 0.597656 C 10.90625 0.558594 10.882812 0.484375 10.855469 0.484375 C 10.742188 0.480469 10.71875 0.410156 10.6875 0.324219 C 10.664062 0.269531 10.597656 0.230469 10.554688 0.183594 C 10.519531 0.140625 10.492188 0.09375 10.460938 0.0390625 C 10.65625 0.0273438 10.851562 0.0273438 11.0625 0.0351562 C 11.117188 0.101562 11.144531 0.09375 11.15625 0.0273438 C 11.261719 0.0273438 11.363281 0.0273438 11.476562 0.0390625 C 11.507812 0.304688 11.566406 0.359375 11.824219 0.359375 C 11.867188 0.359375 11.90625 0.355469 11.949219 0.363281 C 11.980469 0.367188 12.023438 0.375 12.03125 0.398438 C 12.085938 0.511719 12.183594 0.496094 12.28125 0.5 C 12.371094 0.5 12.457031 0.511719 12.542969 0.519531 C 12.714844 0.539062 12.890625 0.578125 13.0625 0.578125 C 17.6875 0.582031 22.316406 0.589844 26.945312 0.578125 C 28.53125 0.570312 30.117188 0.664062 31.703125 0.496094 C 31.746094 0.492188 31.808594 0.484375 31.824219 0.453125 C 31.882812 0.339844 31.980469 0.359375 32.078125 0.359375 C 32.347656 0.359375 32.410156 0.296875 32.414062 0.0273438 C 32.664062 0.0273438 32.917969 0.0273438 33.179688 0.0351562 C 33.203125 0.0546875 33.21875 0.0625 33.230469 0.0703125 C 33.234375 0.0585938 33.242188 0.0429688 33.25 0.0273438 C 33.277344 0.0273438 33.308594 0.0273438 33.347656 0.0273438 C 33.316406 0.113281 33.265625 0.199219 33.226562 0.289062 C 33.1875 0.378906 33.179688 0.496094 33.03125 0.488281 C 33.015625 0.484375 32.984375 0.515625 32.984375 0.53125 C 32.984375 0.746094 32.8125 0.695312 32.695312 0.714844 C 32.605469 0.734375 32.519531 0.730469 32.519531 0.855469 C 32.519531 0.875 32.488281 0.902344 32.464844 0.90625 C 32.359375 0.941406 32.257812 0.96875 32.152344 1 C 32.132812 1.003906 32.113281 1.007812 32.101562 1.019531 C 31.898438 1.242188 31.652344 1.109375 31.417969 1.113281 C 31.265625 1.113281 31.109375 1.113281 30.957031 1.113281 C 30.886719 1.117188 30.820312 1.132812 30.75 1.132812 C 27.324219 1.136719 23.894531 1.136719 20.46875 1.136719 C 20.382812 1.136719 20.273438 1.105469 20.253906 1.253906 C 20.191406 1.234375 20.136719 1.214844 20.070312 1.195312 C 20.078125 1.238281 20.082031 1.273438 20.074219 1.320312 C 19.921875 1.320312 19.777344 1.304688 19.632812 1.304688 C 18.550781 1.28125 17.464844 1.246094 16.378906 1.253906 C 15.390625 1.257812 14.398438 1.242188 13.410156 1.375 C 13.113281 1.414062 12.800781 1.375 12.5 1.363281 C 12.339844 1.355469 12.179688 1.332031 12.019531 1.316406 Z M 12.019531 1.316406 "/>
<path style=" stroke:none;fill-rule:nonzero;fill:rgb(96.078432%,96.078432%,96.078432%);fill-opacity:1;" d="M 32.40625 0.0273438 C 32.410156 0.296875 32.347656 0.359375 32.078125 0.359375 C 31.980469 0.359375 31.882812 0.339844 31.824219 0.453125 C 31.808594 0.484375 31.746094 0.492188 31.703125 0.496094 C 30.117188 0.664062 28.53125 0.570312 26.945312 0.578125 C 22.316406 0.589844 17.6875 0.582031 13.0625 0.578125 C 12.890625 0.578125 12.714844 0.539062 12.542969 0.519531 C 12.457031 0.511719 12.371094 0.5 12.28125 0.5 C 12.183594 0.496094 12.085938 0.511719 12.03125 0.398438 C 12.023438 0.375 11.980469 0.367188 11.949219 0.363281 C 11.90625 0.355469 11.867188 0.359375 11.824219 0.359375 C 11.566406 0.359375 11.507812 0.304688 11.492188 0.0390625 C 11.503906 0.0273438 11.515625 0.0273438 11.539062 0.0390625 C 11.566406 0.0585938 11.578125 0.078125 11.59375 0.078125 C 11.777344 0.0820312 11.964844 0.0820312 12.148438 0.0820312 C 12.171875 0.078125 12.191406 0.046875 12.214844 0.0273438 C 12.226562 0.0273438 12.238281 0.0273438 12.261719 0.0390625 C 12.335938 0.0625 12.394531 0.0820312 12.457031 0.0820312 C 17.640625 0.0820312 22.824219 0.0820312 28.007812 0.0820312 C 29.324219 0.0820312 30.640625 0.0820312 31.957031 0.078125 C 32.007812 0.078125 32.058594 0.046875 32.109375 0.0273438 C 32.121094 0.0273438 32.132812 0.0273438 32.15625 0.0390625 C 32.234375 0.09375 32.304688 0.121094 32.359375 0.0273438 C 32.371094 0.0273438 32.382812 0.0273438 32.40625 0.0273438 Z M 32.40625 0.0273438 "/>
<path style=" stroke:none;fill-rule:nonzero;fill:rgb(87.058824%,87.058824%,87.058824%);fill-opacity:1;" d="M 0.125 0.0273438 C 0.0507812 0.335938 0.0820312 0.644531 0.101562 0.957031 C 0.105469 1.046875 0.0820312 1.140625 0.0859375 1.230469 C 0.0898438 1.519531 0.105469 1.808594 0.109375 2.097656 C 0.109375 2.203125 0.0859375 2.308594 0.0859375 2.414062 C 0.0820312 2.886719 0.0859375 3.359375 0.0859375 3.835938 C 0.0859375 4.0625 0.0859375 4.292969 0.0859375 4.519531 C 0.0859375 4.9375 0.0859375 5.355469 0.0859375 5.773438 C 0.0859375 6.019531 0.0859375 6.265625 0.0859375 6.515625 C 0.0859375 6.910156 0.0859375 7.304688 0.0859375 7.699219 C 0.0859375 7.96875 0.0859375 8.238281 0.0859375 8.507812 C 0.0859375 8.898438 0.0859375 9.289062 0.0859375 9.679688 C 0.0859375 9.953125 0.0859375 10.230469 0.0859375 10.503906 C 0.0859375 10.882812 0.0859375 11.265625 0.0859375 11.644531 C 0.0859375 11.929688 0.0859375 12.214844 0.0859375 12.496094 C 0.0859375 12.882812 0.0859375 13.269531 0.0859375 13.652344 C 0.0859375 13.964844 0.0859375 14.277344 0.0859375 14.589844 C 0.0859375 14.945312 0.0859375 15.304688 0.0859375 15.664062 C 0.0859375 15.933594 0.0859375 16.203125 0.0859375 16.472656 C 0.0859375 16.847656 0.0859375 17.226562 0.0859375 17.601562 C 0.0859375 17.964844 0.0859375 18.324219 0.0859375 18.6875 C 0.0859375 19.003906 0.0859375 19.320312 0.0859375 19.636719 C 0.0859375 19.988281 0.0859375 20.34375 0.0859375 20.695312 C 0.0859375 20.960938 0.0859375 21.226562 0.0859375 21.492188 C 0.0859375 21.820312 0.0859375 22.152344 0.0859375 22.484375 C 0.0859375 22.855469 0.0820312 23.226562 0.0859375 23.597656 C 0.0859375 23.742188 0.101562 23.890625 0.101562 24.050781 C 0.0703125 24.074219 0.0507812 24.082031 0.0273438 24.089844 C 0.0273438 16.066406 0.0273438 8.046875 0.0273438 0.0273438 C 0.0546875 0.0273438 0.0820312 0.0273438 0.125 0.0273438 Z M 0.125 0.0273438 "/>
<path style=" stroke:none;fill-rule:nonzero;fill:rgb(84.705883%,84.705883%,84.705883%);fill-opacity:1;" d="M 32.09375 0.0273438 C 32.058594 0.046875 32.007812 0.078125 31.957031 0.078125 C 30.640625 0.0820312 29.324219 0.0820312 28.007812 0.0820312 C 22.824219 0.0820312 17.640625 0.0820312 12.457031 0.0820312 C 12.394531 0.0820312 12.335938 0.0625 12.273438 0.0390625 C 18.875 0.0273438 25.476562 0.0273438 32.09375 0.0273438 Z M 32.09375 0.0273438 "/>
<path style=" stroke:none;fill-rule:nonzero;fill:rgb(89.019608%,89.019608%,89.019608%);fill-opacity:1;" d="M 0.0273438 24.101562 C 0.0507812 24.082031 0.0703125 24.074219 0.101562 24.0625 C 0.109375 26.984375 0.109375 29.90625 0.109375 32.828125 C 0.109375 33.21875 0.109375 33.609375 0.109375 34.015625 C 0.0820312 34.027344 0.0546875 34.027344 0.0273438 34.027344 C 0.0273438 30.722656 0.0273438 27.417969 0.0273438 24.101562 Z M 0.0273438 24.101562 "/>
<path style=" stroke:none;fill-rule:nonzero;fill:rgb(84.705883%,84.705883%,84.705883%);fill-opacity:1;" d="M 12.203125 0.0273438 C 12.191406 0.046875 12.171875 0.078125 12.148438 0.0820312 C 11.964844 0.0820312 11.777344 0.0820312 11.59375 0.078125 C 11.578125 0.078125 11.566406 0.0585938 11.550781 0.0390625 C 11.761719 0.0273438 11.972656 0.0273438 12.203125 0.0273438 Z M 12.203125 0.0273438 "/>
<path style=" stroke:none;fill-rule:nonzero;fill:rgb(87.058824%,87.058824%,87.058824%);fill-opacity:1;" d="M 10.070312 0.0546875 C 9.914062 0.0546875 9.757812 0.0507812 9.601562 0.0390625 C 9.746094 0.0273438 9.898438 0.0273438 10.058594 0.0351562 C 10.070312 0.0429688 10.070312 0.0546875 10.070312 0.0546875 Z M 10.070312 0.0546875 "/>
<path style=" stroke:none;fill-rule:nonzero;fill:rgb(87.058824%,87.058824%,87.058824%);fill-opacity:1;" d="M 9.140625 0.0273438 C 9.089844 0.121094 9.011719 0.09375 8.933594 0.0390625 C 8.996094 0.0273438 9.0625 0.0273438 9.140625 0.0273438 Z M 9.140625 0.0273438 "/>
<path style=" stroke:none;fill-rule:nonzero;fill:rgb(84.705883%,84.705883%,84.705883%);fill-opacity:1;" d="M 32.347656 0.0273438 C 32.304688 0.121094 32.234375 0.09375 32.164062 0.0390625 C 32.21875 0.0273438 32.277344 0.0273438 32.347656 0.0273438 Z M 32.347656 0.0273438 "/>
<path style=" stroke:none;fill-rule:nonzero;fill:rgb(84.705883%,84.705883%,84.705883%);fill-opacity:1;" d="M 10.078125 0.0625 C 10.070312 0.0546875 10.070312 0.0429688 10.070312 0.0351562 C 10.121094 0.0273438 10.167969 0.0273438 10.226562 0.0273438 C 10.1875 0.0429688 10.136719 0.0546875 10.078125 0.0625 Z M 10.078125 0.0625 "/>
<path style=" stroke:none;fill-rule:nonzero;fill:rgb(87.058824%,87.058824%,87.058824%);fill-opacity:1;" d="M 6.164062 0.0273438 C 6.152344 0.105469 6.113281 0.101562 6.066406 0.0390625 C 6.09375 0.0273438 6.125 0.0273438 6.164062 0.0273438 Z M 6.164062 0.0273438 "/>
<path style=" stroke:none;fill-rule:nonzero;fill:rgb(87.058824%,87.058824%,87.058824%);fill-opacity:1;" d="M 2.160156 0.0273438 C 2.148438 0.105469 2.109375 0.101562 2.058594 0.0390625 C 2.089844 0.0273438 2.117188 0.0273438 2.160156 0.0273438 Z M 2.160156 0.0273438 "/>
<path style=" stroke:none;fill-rule:nonzero;fill:rgb(87.058824%,87.058824%,87.058824%);fill-opacity:1;" d="M 3.132812 0.0273438 C 3.121094 0.109375 3.082031 0.0976562 3.035156 0.0390625 C 3.0625 0.0273438 3.09375 0.0273438 3.132812 0.0273438 Z M 3.132812 0.0273438 "/>
<path style=" stroke:none;fill-rule:nonzero;fill:rgb(87.058824%,87.058824%,87.058824%);fill-opacity:1;" d="M 4.164062 0.0273438 C 4.148438 0.105469 4.109375 0.101562 4.0625 0.0390625 C 4.09375 0.0273438 4.121094 0.0273438 4.164062 0.0273438 Z M 4.164062 0.0273438 "/>
<path style=" stroke:none;fill-rule:nonzero;fill:rgb(87.058824%,87.058824%,87.058824%);fill-opacity:1;" d="M 8.167969 0.0273438 C 8.15625 0.105469 8.117188 0.101562 8.070312 0.0390625 C 8.097656 0.0273438 8.128906 0.0273438 8.167969 0.0273438 Z M 8.167969 0.0273438 "/>
<path style=" stroke:none;fill-rule:nonzero;fill:rgb(87.058824%,87.058824%,87.058824%);fill-opacity:1;" d="M 7.140625 0.0273438 C 7.136719 0.09375 7.109375 0.101562 7.066406 0.0390625 C 7.089844 0.0273438 7.109375 0.0273438 7.140625 0.0273438 Z M 7.140625 0.0273438 "/>
<path style=" stroke:none;fill-rule:nonzero;fill:rgb(87.058824%,87.058824%,87.058824%);fill-opacity:1;" d="M 5.136719 0.0273438 C 5.132812 0.09375 5.105469 0.101562 5.066406 0.0390625 C 5.085938 0.0273438 5.105469 0.0273438 5.136719 0.0273438 Z M 5.136719 0.0273438 "/>
<path style=" stroke:none;fill-rule:nonzero;fill:rgb(84.705883%,84.705883%,84.705883%);fill-opacity:1;" d="M 11.148438 0.0273438 C 11.144531 0.09375 11.117188 0.101562 11.074219 0.0351562 C 11.09375 0.0273438 11.117188 0.0273438 11.148438 0.0273438 Z M 11.148438 0.0273438 "/>
<path style=" stroke:none;fill-rule:nonzero;fill:rgb(87.058824%,87.058824%,87.058824%);fill-opacity:1;" d="M 1.128906 0.0273438 C 1.128906 0.09375 1.097656 0.0976562 1.058594 0.0390625 C 1.078125 0.0273438 1.097656 0.0273438 1.128906 0.0273438 Z M 1.128906 0.0273438 "/>
<path style=" stroke:none;fill-rule:nonzero;fill:rgb(87.058824%,87.058824%,87.058824%);fill-opacity:1;" d="M 5 0.0273438 C 4.988281 0.0351562 4.972656 0.0390625 4.953125 0.0351562 C 4.964844 0.0273438 4.976562 0.0273438 5 0.0273438 Z M 5 0.0273438 "/>
<path style=" stroke:none;fill-rule:nonzero;fill:rgb(84.705883%,84.705883%,84.705883%);fill-opacity:1;" d="M 33.238281 0.0273438 C 33.242188 0.0429688 33.234375 0.0585938 33.230469 0.0703125 C 33.21875 0.0625 33.203125 0.0546875 33.191406 0.0351562 C 33.207031 0.0273438 33.21875 0.0273438 33.238281 0.0273438 Z M 33.238281 0.0273438 "/>
<path style=" stroke:none;fill-rule:nonzero;fill:rgb(87.058824%,87.058824%,87.058824%);fill-opacity:1;" d="M 0.992188 0.0273438 C 0.996094 0.0429688 0.988281 0.0546875 0.980469 0.0703125 C 0.96875 0.0625 0.957031 0.0546875 0.945312 0.0351562 C 0.957031 0.0273438 0.972656 0.0273438 0.992188 0.0273438 Z M 0.992188 0.0273438 "/>
<path style=" stroke:none;fill-rule:nonzero;fill:rgb(0%,0%,0%);fill-opacity:1;" d="M 12.011719 1.320312 C 12.179688 1.332031 12.339844 1.355469 12.5 1.363281 C 12.800781 1.375 13.113281 1.414062 13.410156 1.375 C 14.398438 1.242188 15.390625 1.257812 16.378906 1.253906 C 17.464844 1.246094 18.550781 1.28125 19.632812 1.304688 C 19.777344 1.304688 19.921875 1.320312 20.074219 1.328125 C 20.320312 1.410156 20.558594 1.46875 20.777344 1.574219 C 21.09375 1.722656 21.300781 1.996094 21.457031 2.296875 C 21.839844 3.042969 21.945312 3.832031 21.753906 4.644531 C 21.648438 5.105469 21.265625 5.390625 20.816406 5.40625 C 20.375 5.421875 19.980469 5.15625 19.839844 4.710938 C 19.765625 4.476562 19.722656 4.226562 19.703125 3.980469 C 19.691406 3.832031 19.742188 3.671875 19.796875 3.527344 C 19.878906 3.3125 19.839844 3.21875 19.609375 3.214844 C 18.308594 3.199219 17.011719 3.183594 15.714844 3.171875 C 15.59375 3.167969 15.476562 3.171875 15.324219 3.171875 C 15.257812 3.835938 15.179688 4.480469 15.125 5.132812 C 15.09375 5.496094 15.101562 5.859375 15.085938 6.222656 C 15.085938 6.308594 15.121094 6.332031 15.199219 6.34375 C 15.78125 6.429688 16.328125 6.617188 16.800781 6.988281 C 17.269531 7.355469 17.546875 7.835938 17.617188 8.429688 C 17.894531 8.460938 18.167969 8.484375 18.445312 8.523438 C 18.996094 8.59375 19.382812 8.910156 19.648438 9.382812 C 19.898438 9.828125 19.996094 10.320312 20.027344 10.824219 C 20.050781 11.152344 20.03125 11.480469 20.03125 11.796875 C 20.707031 12.0625 21.296875 12.398438 21.828125 12.835938 C 22.777344 13.617188 23.425781 14.605469 23.875 15.734375 C 24.261719 16.71875 24.476562 17.742188 24.597656 18.789062 C 24.785156 20.371094 24.753906 21.957031 24.640625 23.542969 C 24.582031 24.421875 24.488281 25.296875 24.417969 26.175781 C 24.367188 26.804688 24.339844 27.4375 24.289062 28.066406 C 24.226562 28.796875 24.101562 29.515625 23.886719 30.21875 C 23.527344 31.40625 22.769531 32.21875 21.625 32.691406 C 20.773438 33.042969 19.890625 33.246094 18.984375 33.363281 C 17.550781 33.546875 16.117188 33.535156 14.679688 33.441406 C 13.160156 33.339844 11.652344 33.132812 10.152344 32.851562 C 9.664062 32.761719 9.160156 32.742188 8.660156 32.703125 C 8.03125 32.652344 7.40625 32.59375 6.796875 32.421875 C 5.578125 32.085938 4.765625 31.339844 4.390625 30.121094 C 4.128906 29.265625 3.941406 28.398438 3.808594 27.511719 C 3.5625 25.847656 3.464844 24.171875 3.488281 22.492188 C 3.503906 21.328125 3.582031 20.171875 3.78125 19.023438 C 3.960938 17.96875 4.324219 16.980469 4.753906 16.007812 C 5.113281 15.199219 5.546875 14.433594 6.109375 13.75 C 6.367188 13.4375 6.699219 13.191406 6.988281 12.90625 C 7.089844 12.808594 7.183594 12.699219 7.25 12.578125 C 7.441406 12.226562 7.75 12.015625 8.117188 11.910156 C 8.570312 11.785156 9.035156 11.703125 9.496094 11.601562 C 9.515625 11.59375 9.539062 11.59375 9.574219 11.589844 C 9.5625 11.351562 9.53125 11.125 9.539062 10.894531 C 9.554688 10.535156 9.550781 10.164062 9.625 9.8125 C 9.800781 9.003906 10.242188 8.640625 11.0625 8.554688 C 11.222656 8.539062 11.378906 8.523438 11.523438 8.507812 C 11.542969 8.308594 11.542969 8.113281 11.589844 7.925781 C 11.753906 7.28125 12.207031 6.886719 12.789062 6.617188 C 12.796875 6.613281 12.804688 6.609375 12.816406 6.605469 C 13.117188 6.554688 13.179688 6.375 13.179688 6.078125 C 13.171875 5.15625 13.21875 4.234375 13.375 3.324219 C 13.375 3.320312 13.371094 3.316406 13.355469 3.292969 C 13.046875 3.292969 12.722656 3.316406 12.402344 3.289062 C 12.070312 3.261719 11.738281 3.191406 11.488281 2.9375 C 11.222656 2.664062 11.140625 2.339844 11.253906 1.980469 C 11.367188 1.617188 11.621094 1.394531 12.011719 1.320312 M 18.394531 17.367188 C 18.902344 17.445312 19.410156 17.53125 19.917969 17.609375 C 20.191406 17.648438 20.46875 17.710938 20.742188 17.699219 C 21.304688 17.671875 21.867188 17.601562 22.4375 17.546875 C 22.398438 17.414062 22.359375 17.253906 22.3125 17.09375 C 22.066406 16.277344 21.71875 15.507812 21.15625 14.851562 C 20.351562 13.90625 19.292969 13.425781 18.085938 13.269531 C 17.351562 13.171875 16.609375 13.121094 15.871094 13.085938 C 14.84375 13.035156 13.8125 13.054688 12.785156 13.144531 C 12.148438 13.203125 11.511719 13.269531 10.878906 13.351562 C 10.277344 13.425781 9.679688 13.527344 9.082031 13.621094 C 9.027344 13.628906 8.96875 13.660156 8.929688 13.699219 C 8.742188 13.875 8.574219 14.074219 8.375 14.238281 C 7.90625 14.628906 7.476562 15.039062 7.15625 15.570312 C 6.8125 16.148438 6.503906 16.742188 6.253906 17.390625 C 6.476562 17.417969 6.6875 17.453125 6.898438 17.46875 C 7.597656 17.519531 8.285156 17.429688 8.972656 17.320312 C 10 17.152344 11.027344 16.976562 12.074219 16.933594 C 13.503906 16.871094 14.925781 16.9375 16.347656 17.101562 C 17.023438 17.175781 17.695312 17.273438 18.394531 17.367188 M 8.691406 21.382812 C 8.570312 20.921875 8.164062 20.628906 7.691406 20.65625 C 7.238281 20.6875 6.855469 21.03125 6.816406 21.492188 C 6.742188 22.371094 6.679688 23.25 6.644531 24.128906 C 6.59375 25.371094 6.65625 26.609375 6.8125 27.839844 C 6.875 28.351562 7.347656 28.730469 7.832031 28.671875 C 8.394531 28.605469 8.761719 28.171875 8.714844 27.628906 C 8.671875 27.125 8.621094 26.621094 8.589844 26.113281 C 8.507812 24.816406 8.558594 23.523438 8.667969 22.230469 C 8.691406 21.957031 8.691406 21.679688 8.691406 21.382812 M 11.464844 11.003906 C 11.472656 11.117188 11.480469 11.230469 11.492188 11.34375 C 12.609375 11.21875 13.707031 11.15625 14.8125 11.152344 C 15.917969 11.152344 17.023438 11.207031 18.164062 11.339844 C 18.117188 11.03125 18.074219 10.742188 18.023438 10.453125 C 18.015625 10.421875 17.953125 10.386719 17.914062 10.382812 C 17.523438 10.359375 17.136719 10.335938 16.746094 10.324219 C 15.179688 10.277344 13.613281 10.308594 12.050781 10.386719 C 11.851562 10.398438 11.65625 10.417969 11.460938 10.4375 C 11.460938 10.628906 11.460938 10.804688 11.464844 11.003906 Z M 11.464844 11.003906 "/>
<path style=" stroke:none;fill-rule:nonzero;fill:rgb(0.392157%,0.392157%,0.392157%);fill-opacity:1;" d="M 26.429688 13.207031 C 26.238281 13.007812 26.15625 12.78125 26.152344 12.511719 C 26.140625 11.925781 26.117188 11.335938 26.097656 10.746094 C 26.085938 10.421875 25.917969 10.214844 25.613281 10.109375 C 25.203125 9.964844 24.773438 9.941406 24.339844 9.941406 C 24.089844 9.941406 23.863281 9.871094 23.671875 9.710938 C 23.113281 9.242188 23.246094 8.371094 23.917969 8.082031 C 24.023438 8.039062 24.136719 8 24.246094 7.976562 C 24.734375 7.863281 25.175781 7.640625 25.617188 7.417969 C 26.128906 7.15625 26.371094 6.695312 26.480469 6.164062 C 26.539062 5.878906 26.554688 5.578125 26.574219 5.285156 C 26.597656 4.910156 26.75 4.609375 27.089844 4.429688 C 27.414062 4.257812 27.742188 4.269531 28.054688 4.460938 C 28.335938 4.628906 28.460938 4.898438 28.519531 5.210938 C 28.59375 5.59375 28.660156 5.980469 28.78125 6.351562 C 28.878906 6.660156 29.03125 6.957031 29.195312 7.238281 C 29.425781 7.640625 29.808594 7.863281 30.246094 8 C 30.488281 8.074219 30.738281 8.136719 30.972656 8.230469 C 31.566406 8.464844 31.820312 9.039062 31.582031 9.585938 C 31.5 9.773438 31.371094 9.925781 31.191406 10.023438 C 30.617188 10.332031 30.03125 10.632812 29.453125 10.9375 C 29.273438 11.035156 29.097656 11.136719 28.925781 11.242188 C 28.546875 11.46875 28.292969 11.789062 28.1875 12.21875 C 28.144531 12.390625 28.09375 12.554688 28.050781 12.726562 C 27.871094 13.480469 27.007812 13.746094 26.429688 13.207031 M 28.214844 9.429688 C 28.3125 9.375 28.410156 9.320312 28.476562 9.28125 C 28.164062 8.957031 27.847656 8.628906 27.550781 8.316406 C 27.414062 8.457031 27.261719 8.613281 27.109375 8.765625 C 27.222656 8.890625 27.371094 9.027344 27.488281 9.183594 C 27.609375 9.339844 27.703125 9.511719 27.808594 9.679688 C 27.9375 9.597656 28.066406 9.519531 28.214844 9.429688 Z M 28.214844 9.429688 "/>
<path style=" stroke:none;fill-rule:nonzero;fill:rgb(99.607843%,99.607843%,99.607843%);fill-opacity:1;" d="M 18.382812 17.363281 C 17.695312 17.273438 17.023438 17.175781 16.347656 17.101562 C 14.925781 16.9375 13.503906 16.871094 12.074219 16.933594 C 11.027344 16.976562 10 17.152344 8.972656 17.320312 C 8.285156 17.429688 7.597656 17.519531 6.898438 17.46875 C 6.6875 17.453125 6.476562 17.417969 6.253906 17.390625 C 6.503906 16.742188 6.8125 16.148438 7.15625 15.570312 C 7.476562 15.039062 7.90625 14.628906 8.375 14.238281 C 8.574219 14.074219 8.742188 13.875 8.929688 13.699219 C 8.96875 13.660156 9.027344 13.628906 9.082031 13.621094 C 9.679688 13.527344 10.277344 13.425781 10.878906 13.351562 C 11.511719 13.269531 12.148438 13.203125 12.785156 13.144531 C 13.8125 13.054688 14.84375 13.035156 15.871094 13.085938 C 16.609375 13.121094 17.351562 13.171875 18.085938 13.269531 C 19.292969 13.425781 20.351562 13.90625 21.15625 14.851562 C 21.71875 15.507812 22.066406 16.277344 22.3125 17.09375 C 22.359375 17.253906 22.398438 17.414062 22.4375 17.546875 C 21.867188 17.601562 21.304688 17.671875 20.742188 17.699219 C 20.46875 17.710938 20.191406 17.648438 19.917969 17.609375 C 19.410156 17.53125 18.902344 17.445312 18.382812 17.363281 Z M 18.382812 17.363281 "/>
<path style=" stroke:none;fill-rule:nonzero;fill:rgb(99.607843%,99.607843%,99.607843%);fill-opacity:1;" d="M 8.695312 21.394531 C 8.691406 21.679688 8.691406 21.957031 8.667969 22.230469 C 8.558594 23.523438 8.507812 24.816406 8.589844 26.113281 C 8.621094 26.621094 8.671875 27.125 8.714844 27.628906 C 8.761719 28.171875 8.394531 28.605469 7.832031 28.671875 C 7.347656 28.730469 6.875 28.351562 6.8125 27.839844 C 6.65625 26.609375 6.59375 25.371094 6.644531 24.128906 C 6.679688 23.25 6.742188 22.371094 6.816406 21.492188 C 6.855469 21.03125 7.238281 20.6875 7.691406 20.65625 C 8.164062 20.628906 8.570312 20.921875 8.695312 21.394531 Z M 8.695312 21.394531 "/>
<path style=" stroke:none;fill-rule:nonzero;fill:rgb(98.823529%,98.823529%,98.823529%);fill-opacity:1;" d="M 11.464844 10.992188 C 11.460938 10.804688 11.460938 10.628906 11.460938 10.4375 C 11.65625 10.417969 11.851562 10.398438 12.050781 10.386719 C 13.613281 10.308594 15.179688 10.277344 16.746094 10.324219 C 17.136719 10.335938 17.523438 10.359375 17.914062 10.382812 C 17.953125 10.386719 18.015625 10.421875 18.023438 10.453125 C 18.074219 10.742188 18.117188 11.03125 18.164062 11.339844 C 17.023438 11.207031 15.917969 11.152344 14.8125 11.152344 C 13.707031 11.15625 12.609375 11.21875 11.492188 11.34375 C 11.480469 11.230469 11.472656 11.117188 11.464844 10.992188 Z M 11.464844 10.992188 "/>
<path style=" stroke:none;fill-rule:nonzero;fill:rgb(97.647059%,97.647059%,97.647059%);fill-opacity:1;" d="M 28.207031 9.433594 C 28.066406 9.519531 27.9375 9.597656 27.808594 9.679688 C 27.703125 9.511719 27.609375 9.339844 27.488281 9.183594 C 27.371094 9.027344 27.222656 8.890625 27.109375 8.765625 C 27.261719 8.613281 27.414062 8.457031 27.550781 8.316406 C 27.847656 8.628906 28.164062 8.957031 28.476562 9.28125 C 28.410156 9.320312 28.3125 9.375 28.207031 9.433594 Z M 28.207031 9.433594 "/>
</g>
</svg>
